<?xml version="1.0" encoding="UTF-8" standalone="no"?>
<!DOCTYPE svg PUBLIC "-//W3C//DTD SVG 1.1//EN" "http://www.w3.org/Graphics/SVG/1.1/DTD/svg11.dtd">
<svg width="100%" height="100%" viewBox="0 0 1080 560" version="1.1" xmlns="http://www.w3.org/2000/svg" xmlns:xlink="http://www.w3.org/1999/xlink" xml:space="preserve" xmlns:serif="http://www.serif.com/" style="fill-rule:evenodd;clip-rule:evenodd;stroke-linecap:round;stroke-linejoin:round;stroke-miterlimit:1.5;">
    <g transform="matrix(0.833333,0,0,0.610687,6.66667,178.931)">
        <g transform="matrix(1.14833,0,0,1,-101.244,-184)">
            <path d="M332,316.75C332,298.675 322.635,284 311.1,284L143.9,284C132.365,284 123,298.675 123,316.75L123,382.25C123,400.325 132.365,415 143.9,415L311.1,415C322.635,415 332,400.325 332,382.25L332,316.75Z" style="fill:rgb(39,194,120);"/>
        </g>
        <g transform="matrix(1.2,0,0,1.6375,-171.2,-450.2)">
            <g transform="matrix(32,0,0,32,186.555,388)">
                <path d="M0.605,-0.226C0.597,-0.15 0.569,-0.092 0.522,-0.052C0.476,-0.011 0.413,0.01 0.336,0.01C0.252,0.01 0.185,-0.02 0.134,-0.081C0.083,-0.141 0.058,-0.221 0.058,-0.322L0.058,-0.391C0.058,-0.457 0.07,-0.515 0.094,-0.565C0.117,-0.615 0.151,-0.654 0.194,-0.68C0.237,-0.707 0.287,-0.721 0.344,-0.721C0.42,-0.721 0.48,-0.7 0.526,-0.657C0.571,-0.615 0.598,-0.557 0.605,-0.482L0.511,-0.482C0.503,-0.539 0.485,-0.58 0.458,-0.605C0.431,-0.631 0.393,-0.644 0.344,-0.644C0.284,-0.644 0.237,-0.621 0.203,-0.577C0.169,-0.533 0.152,-0.47 0.152,-0.388L0.152,-0.319C0.152,-0.242 0.168,-0.181 0.201,-0.135C0.233,-0.09 0.278,-0.067 0.336,-0.067C0.388,-0.067 0.428,-0.079 0.456,-0.102C0.484,-0.126 0.502,-0.167 0.511,-0.226L0.605,-0.226Z" style="fill:white;fill-rule:nonzero;"/>
            </g>
            <g transform="matrix(32,0,0,32,207.383,388)">
                <rect x="0.076" y="-0.75" width="0.09" height="0.75" style="fill:white;fill-rule:nonzero;"/>
            </g>
            <g transform="matrix(32,0,0,32,215.148,388)">
                <path d="M0.395,0C0.389,-0.01 0.385,-0.029 0.382,-0.056C0.34,-0.012 0.29,0.01 0.231,0.01C0.179,0.01 0.137,-0.005 0.103,-0.034C0.07,-0.064 0.053,-0.101 0.053,-0.146C0.053,-0.201 0.074,-0.244 0.116,-0.275C0.158,-0.305 0.217,-0.32 0.292,-0.32L0.38,-0.32L0.38,-0.362C0.38,-0.393 0.371,-0.419 0.352,-0.437C0.333,-0.456 0.305,-0.465 0.269,-0.465C0.236,-0.465 0.209,-0.457 0.188,-0.441C0.166,-0.425 0.155,-0.405 0.155,-0.382L0.064,-0.382C0.064,-0.408 0.073,-0.434 0.092,-0.458C0.111,-0.483 0.136,-0.502 0.168,-0.517C0.2,-0.531 0.236,-0.538 0.274,-0.538C0.335,-0.538 0.382,-0.523 0.417,-0.492C0.451,-0.462 0.469,-0.42 0.471,-0.367L0.471,-0.124C0.471,-0.075 0.477,-0.036 0.489,-0.008L0.489,0L0.395,0ZM0.245,-0.069C0.273,-0.069 0.3,-0.076 0.325,-0.091C0.351,-0.105 0.369,-0.125 0.38,-0.148L0.38,-0.256L0.31,-0.256C0.199,-0.256 0.144,-0.224 0.144,-0.159C0.144,-0.131 0.153,-0.109 0.172,-0.093C0.191,-0.077 0.215,-0.069 0.245,-0.069Z" style="fill:white;fill-rule:nonzero;"/>
            </g>
            <g transform="matrix(32,0,0,32,232.555,388)">
                <path d="M0.376,-0.14C0.376,-0.165 0.367,-0.184 0.348,-0.197C0.33,-0.211 0.298,-0.222 0.252,-0.232C0.206,-0.242 0.17,-0.253 0.143,-0.267C0.116,-0.281 0.097,-0.297 0.084,-0.316C0.071,-0.335 0.064,-0.357 0.064,-0.383C0.064,-0.427 0.083,-0.463 0.119,-0.493C0.156,-0.523 0.203,-0.538 0.26,-0.538C0.32,-0.538 0.368,-0.523 0.406,-0.492C0.443,-0.461 0.461,-0.421 0.461,-0.373L0.371,-0.373C0.371,-0.398 0.36,-0.419 0.339,-0.437C0.318,-0.455 0.292,-0.464 0.26,-0.464C0.227,-0.464 0.201,-0.457 0.183,-0.442C0.164,-0.428 0.155,-0.409 0.155,-0.386C0.155,-0.364 0.163,-0.348 0.181,-0.337C0.198,-0.326 0.229,-0.315 0.274,-0.305C0.319,-0.295 0.356,-0.283 0.384,-0.269C0.412,-0.255 0.433,-0.238 0.446,-0.219C0.46,-0.199 0.466,-0.175 0.466,-0.146C0.466,-0.099 0.447,-0.061 0.41,-0.033C0.372,-0.004 0.323,0.01 0.263,0.01C0.22,0.01 0.183,0.002 0.15,-0.013C0.118,-0.028 0.092,-0.049 0.074,-0.075C0.056,-0.102 0.046,-0.131 0.046,-0.163L0.137,-0.163C0.138,-0.132 0.15,-0.108 0.173,-0.091C0.196,-0.073 0.226,-0.064 0.263,-0.064C0.297,-0.064 0.324,-0.071 0.345,-0.085C0.366,-0.099 0.376,-0.117 0.376,-0.14Z" style="fill:white;fill-rule:nonzero;"/>
            </g>
            <g transform="matrix(32,0,0,32,249.055,388)">
                <path d="M0.376,-0.14C0.376,-0.165 0.367,-0.184 0.348,-0.197C0.33,-0.211 0.298,-0.222 0.252,-0.232C0.206,-0.242 0.17,-0.253 0.143,-0.267C0.116,-0.281 0.097,-0.297 0.084,-0.316C0.071,-0.335 0.064,-0.357 0.064,-0.383C0.064,-0.427 0.083,-0.463 0.119,-0.493C0.156,-0.523 0.203,-0.538 0.26,-0.538C0.32,-0.538 0.368,-0.523 0.406,-0.492C0.443,-0.461 0.461,-0.421 0.461,-0.373L0.371,-0.373C0.371,-0.398 0.36,-0.419 0.339,-0.437C0.318,-0.455 0.292,-0.464 0.26,-0.464C0.227,-0.464 0.201,-0.457 0.183,-0.442C0.164,-0.428 0.155,-0.409 0.155,-0.386C0.155,-0.364 0.163,-0.348 0.181,-0.337C0.198,-0.326 0.229,-0.315 0.274,-0.305C0.319,-0.295 0.356,-0.283 0.384,-0.269C0.412,-0.255 0.433,-0.238 0.446,-0.219C0.46,-0.199 0.466,-0.175 0.466,-0.146C0.466,-0.099 0.447,-0.061 0.41,-0.033C0.372,-0.004 0.323,0.01 0.263,0.01C0.22,0.01 0.183,0.002 0.15,-0.013C0.118,-0.028 0.092,-0.049 0.074,-0.075C0.056,-0.102 0.046,-0.131 0.046,-0.163L0.137,-0.163C0.138,-0.132 0.15,-0.108 0.173,-0.091C0.196,-0.073 0.226,-0.064 0.263,-0.064C0.297,-0.064 0.324,-0.071 0.345,-0.085C0.366,-0.099 0.376,-0.117 0.376,-0.14Z" style="fill:white;fill-rule:nonzero;"/>
            </g>
            <g transform="matrix(32,0,0,32,265.555,388)">
                <path d="M0.343,-0.288L0.176,-0.288L0.176,0L0.082,0L0.082,-0.711L0.317,-0.711C0.397,-0.711 0.459,-0.693 0.502,-0.656C0.545,-0.62 0.567,-0.567 0.567,-0.497C0.567,-0.453 0.555,-0.414 0.531,-0.381C0.507,-0.348 0.474,-0.324 0.431,-0.308L0.598,-0.006L0.598,0L0.498,0L0.343,-0.288ZM0.176,-0.364L0.32,-0.364C0.367,-0.364 0.404,-0.376 0.431,-0.4C0.459,-0.424 0.473,-0.457 0.473,-0.497C0.473,-0.541 0.46,-0.575 0.433,-0.598C0.407,-0.622 0.369,-0.633 0.32,-0.634L0.176,-0.634L0.176,-0.364Z" style="fill:white;fill-rule:nonzero;"/>
            </g>
            <g transform="matrix(32,0,0,32,285.258,388)">
                <path d="M0.288,0.01C0.216,0.01 0.158,-0.014 0.113,-0.061C0.068,-0.108 0.045,-0.171 0.045,-0.25L0.045,-0.266C0.045,-0.319 0.055,-0.365 0.075,-0.406C0.095,-0.448 0.123,-0.48 0.159,-0.503C0.195,-0.526 0.234,-0.538 0.276,-0.538C0.345,-0.538 0.398,-0.515 0.437,-0.47C0.475,-0.425 0.494,-0.36 0.494,-0.276L0.494,-0.238L0.136,-0.238C0.137,-0.186 0.152,-0.144 0.181,-0.112C0.211,-0.08 0.248,-0.064 0.292,-0.064C0.324,-0.064 0.351,-0.07 0.374,-0.083C0.396,-0.097 0.415,-0.114 0.432,-0.135L0.487,-0.092C0.443,-0.024 0.376,0.01 0.288,0.01ZM0.276,-0.464C0.24,-0.464 0.209,-0.451 0.185,-0.424C0.16,-0.398 0.145,-0.36 0.139,-0.313L0.403,-0.313L0.403,-0.319C0.401,-0.365 0.388,-0.401 0.366,-0.426C0.344,-0.451 0.314,-0.464 0.276,-0.464Z" style="fill:white;fill-rule:nonzero;"/>
            </g>
            <g transform="matrix(32,0,0,32,302.211,388)">
                <path d="M0.395,0C0.389,-0.01 0.385,-0.029 0.382,-0.056C0.34,-0.012 0.29,0.01 0.231,0.01C0.179,0.01 0.137,-0.005 0.103,-0.034C0.07,-0.064 0.053,-0.101 0.053,-0.146C0.053,-0.201 0.074,-0.244 0.116,-0.275C0.158,-0.305 0.217,-0.32 0.292,-0.32L0.38,-0.32L0.38,-0.362C0.38,-0.393 0.371,-0.419 0.352,-0.437C0.333,-0.456 0.305,-0.465 0.269,-0.465C0.236,-0.465 0.209,-0.457 0.188,-0.441C0.166,-0.425 0.155,-0.405 0.155,-0.382L0.064,-0.382C0.064,-0.408 0.073,-0.434 0.092,-0.458C0.111,-0.483 0.136,-0.502 0.168,-0.517C0.2,-0.531 0.236,-0.538 0.274,-0.538C0.335,-0.538 0.382,-0.523 0.417,-0.492C0.451,-0.462 0.469,-0.42 0.471,-0.367L0.471,-0.124C0.471,-0.075 0.477,-0.036 0.489,-0.008L0.489,0L0.395,0ZM0.245,-0.069C0.273,-0.069 0.3,-0.076 0.325,-0.091C0.351,-0.105 0.369,-0.125 0.38,-0.148L0.38,-0.256L0.31,-0.256C0.199,-0.256 0.144,-0.224 0.144,-0.159C0.144,-0.131 0.153,-0.109 0.172,-0.093C0.191,-0.077 0.215,-0.069 0.245,-0.069Z" style="fill:white;fill-rule:nonzero;"/>
            </g>
            <g transform="matrix(32,0,0,32,319.617,388)">
                <path d="M0.046,-0.269C0.046,-0.35 0.066,-0.415 0.104,-0.464C0.142,-0.513 0.193,-0.538 0.255,-0.538C0.317,-0.538 0.366,-0.517 0.402,-0.475L0.402,-0.75L0.492,-0.75L0.492,0L0.409,0L0.405,-0.057C0.369,-0.012 0.318,0.01 0.254,0.01C0.193,0.01 0.143,-0.015 0.104,-0.065C0.066,-0.116 0.046,-0.181 0.046,-0.262L0.046,-0.269ZM0.137,-0.258C0.137,-0.198 0.149,-0.152 0.174,-0.118C0.199,-0.084 0.233,-0.067 0.276,-0.067C0.334,-0.067 0.375,-0.093 0.402,-0.144L0.402,-0.387C0.375,-0.437 0.333,-0.461 0.277,-0.461C0.233,-0.461 0.199,-0.444 0.174,-0.41C0.149,-0.376 0.137,-0.325 0.137,-0.258Z" style="fill:white;fill-rule:nonzero;"/>
            </g>
            <g transform="matrix(32,0,0,32,337.664,388)">
                <path d="M0.288,0.01C0.216,0.01 0.158,-0.014 0.113,-0.061C0.068,-0.108 0.045,-0.171 0.045,-0.25L0.045,-0.266C0.045,-0.319 0.055,-0.365 0.075,-0.406C0.095,-0.448 0.123,-0.48 0.159,-0.503C0.195,-0.526 0.234,-0.538 0.276,-0.538C0.345,-0.538 0.398,-0.515 0.437,-0.47C0.475,-0.425 0.494,-0.36 0.494,-0.276L0.494,-0.238L0.136,-0.238C0.137,-0.186 0.152,-0.144 0.181,-0.112C0.211,-0.08 0.248,-0.064 0.292,-0.064C0.324,-0.064 0.351,-0.07 0.374,-0.083C0.396,-0.097 0.415,-0.114 0.432,-0.135L0.487,-0.092C0.443,-0.024 0.376,0.01 0.288,0.01ZM0.276,-0.464C0.24,-0.464 0.209,-0.451 0.185,-0.424C0.16,-0.398 0.145,-0.36 0.139,-0.313L0.403,-0.313L0.403,-0.319C0.401,-0.365 0.388,-0.401 0.366,-0.426C0.344,-0.451 0.314,-0.464 0.276,-0.464Z" style="fill:white;fill-rule:nonzero;"/>
            </g>
            <g transform="matrix(32,0,0,32,354.617,388)">
                <path d="M0.324,-0.447C0.31,-0.45 0.295,-0.451 0.279,-0.451C0.22,-0.451 0.18,-0.425 0.159,-0.375L0.159,0L0.068,0L0.068,-0.528L0.156,-0.528L0.158,-0.467C0.187,-0.514 0.229,-0.538 0.284,-0.538C0.301,-0.538 0.315,-0.536 0.324,-0.531L0.324,-0.447Z" style="fill:white;fill-rule:nonzero;"/>
            </g>
        </g>
    </g>
    <g transform="matrix(1.61652,0,-2.38815e-32,1,31.3753,-32.5)">
        <path d="M129.058,314.875L129.058,310.125L171.123,310.125L171.123,303L177,312.5L171.123,322L171.123,314.875L129.058,314.875Z" style="fill:rgb(45,46,68);"/>
    </g>
    <g transform="matrix(1.61652,0,-2.38815e-32,1,553.875,-32.5)">
        <path d="M129.058,314.875L129.058,310.125L171.123,310.125L171.123,303L177,312.5L171.123,322L171.123,314.875L129.058,314.875Z" style="fill:rgb(45,46,68);"/>
    </g>
    <g transform="matrix(0.833333,0,0,0.610687,806.667,178.931)">
        <g transform="matrix(1.14833,0,0,1,-101.244,-184)">
            <path d="M332,316.75C332,298.675 322.635,284 311.1,284L143.9,284C132.365,284 123,298.675 123,316.75L123,382.25C123,400.325 132.365,415 143.9,415L311.1,415C322.635,415 332,400.325 332,382.25L332,316.75Z" style="fill:rgb(39,194,120);"/>
        </g>
        <g transform="matrix(1.2,0,0,1.6375,-171.2,-450.2)">
            <g transform="matrix(32,0,0,32,194.055,388)">
                <path d="M0.605,-0.226C0.597,-0.15 0.569,-0.092 0.522,-0.052C0.476,-0.011 0.413,0.01 0.336,0.01C0.252,0.01 0.185,-0.02 0.134,-0.081C0.083,-0.141 0.058,-0.221 0.058,-0.322L0.058,-0.391C0.058,-0.457 0.07,-0.515 0.094,-0.565C0.117,-0.615 0.151,-0.654 0.194,-0.68C0.237,-0.707 0.287,-0.721 0.344,-0.721C0.42,-0.721 0.48,-0.7 0.526,-0.657C0.571,-0.615 0.598,-0.557 0.605,-0.482L0.511,-0.482C0.503,-0.539 0.485,-0.58 0.458,-0.605C0.431,-0.631 0.393,-0.644 0.344,-0.644C0.284,-0.644 0.237,-0.621 0.203,-0.577C0.169,-0.533 0.152,-0.47 0.152,-0.388L0.152,-0.319C0.152,-0.242 0.168,-0.181 0.201,-0.135C0.233,-0.09 0.278,-0.067 0.336,-0.067C0.388,-0.067 0.428,-0.079 0.456,-0.102C0.484,-0.126 0.502,-0.167 0.511,-0.226L0.605,-0.226Z" style="fill:white;fill-rule:nonzero;"/>
            </g>
            <g transform="matrix(32,0,0,32,214.883,388)">
                <rect x="0.076" y="-0.75" width="0.09" height="0.75" style="fill:white;fill-rule:nonzero;"/>
            </g>
            <g transform="matrix(32,0,0,32,222.648,388)">
                <path d="M0.395,0C0.389,-0.01 0.385,-0.029 0.382,-0.056C0.34,-0.012 0.29,0.01 0.231,0.01C0.179,0.01 0.137,-0.005 0.103,-0.034C0.07,-0.064 0.053,-0.101 0.053,-0.146C0.053,-0.201 0.074,-0.244 0.116,-0.275C0.158,-0.305 0.217,-0.32 0.292,-0.32L0.38,-0.32L0.38,-0.362C0.38,-0.393 0.371,-0.419 0.352,-0.437C0.333,-0.456 0.305,-0.465 0.269,-0.465C0.236,-0.465 0.209,-0.457 0.188,-0.441C0.166,-0.425 0.155,-0.405 0.155,-0.382L0.064,-0.382C0.064,-0.408 0.073,-0.434 0.092,-0.458C0.111,-0.483 0.136,-0.502 0.168,-0.517C0.2,-0.531 0.236,-0.538 0.274,-0.538C0.335,-0.538 0.382,-0.523 0.417,-0.492C0.451,-0.462 0.469,-0.42 0.471,-0.367L0.471,-0.124C0.471,-0.075 0.477,-0.036 0.489,-0.008L0.489,0L0.395,0ZM0.245,-0.069C0.273,-0.069 0.3,-0.076 0.325,-0.091C0.351,-0.105 0.369,-0.125 0.38,-0.148L0.38,-0.256L0.31,-0.256C0.199,-0.256 0.144,-0.224 0.144,-0.159C0.144,-0.131 0.153,-0.109 0.172,-0.093C0.191,-0.077 0.215,-0.069 0.245,-0.069Z" style="fill:white;fill-rule:nonzero;"/>
            </g>
            <g transform="matrix(32,0,0,32,240.055,388)">
                <path d="M0.376,-0.14C0.376,-0.165 0.367,-0.184 0.348,-0.197C0.33,-0.211 0.298,-0.222 0.252,-0.232C0.206,-0.242 0.17,-0.253 0.143,-0.267C0.116,-0.281 0.097,-0.297 0.084,-0.316C0.071,-0.335 0.064,-0.357 0.064,-0.383C0.064,-0.427 0.083,-0.463 0.119,-0.493C0.156,-0.523 0.203,-0.538 0.26,-0.538C0.32,-0.538 0.368,-0.523 0.406,-0.492C0.443,-0.461 0.461,-0.421 0.461,-0.373L0.371,-0.373C0.371,-0.398 0.36,-0.419 0.339,-0.437C0.318,-0.455 0.292,-0.464 0.26,-0.464C0.227,-0.464 0.201,-0.457 0.183,-0.442C0.164,-0.428 0.155,-0.409 0.155,-0.386C0.155,-0.364 0.163,-0.348 0.181,-0.337C0.198,-0.326 0.229,-0.315 0.274,-0.305C0.319,-0.295 0.356,-0.283 0.384,-0.269C0.412,-0.255 0.433,-0.238 0.446,-0.219C0.46,-0.199 0.466,-0.175 0.466,-0.146C0.466,-0.099 0.447,-0.061 0.41,-0.033C0.372,-0.004 0.323,0.01 0.263,0.01C0.22,0.01 0.183,0.002 0.15,-0.013C0.118,-0.028 0.092,-0.049 0.074,-0.075C0.056,-0.102 0.046,-0.131 0.046,-0.163L0.137,-0.163C0.138,-0.132 0.15,-0.108 0.173,-0.091C0.196,-0.073 0.226,-0.064 0.263,-0.064C0.297,-0.064 0.324,-0.071 0.345,-0.085C0.366,-0.099 0.376,-0.117 0.376,-0.14Z" style="fill:white;fill-rule:nonzero;"/>
            </g>
            <g transform="matrix(32,0,0,32,256.555,388)">
                <path d="M0.376,-0.14C0.376,-0.165 0.367,-0.184 0.348,-0.197C0.33,-0.211 0.298,-0.222 0.252,-0.232C0.206,-0.242 0.17,-0.253 0.143,-0.267C0.116,-0.281 0.097,-0.297 0.084,-0.316C0.071,-0.335 0.064,-0.357 0.064,-0.383C0.064,-0.427 0.083,-0.463 0.119,-0.493C0.156,-0.523 0.203,-0.538 0.26,-0.538C0.32,-0.538 0.368,-0.523 0.406,-0.492C0.443,-0.461 0.461,-0.421 0.461,-0.373L0.371,-0.373C0.371,-0.398 0.36,-0.419 0.339,-0.437C0.318,-0.455 0.292,-0.464 0.26,-0.464C0.227,-0.464 0.201,-0.457 0.183,-0.442C0.164,-0.428 0.155,-0.409 0.155,-0.386C0.155,-0.364 0.163,-0.348 0.181,-0.337C0.198,-0.326 0.229,-0.315 0.274,-0.305C0.319,-0.295 0.356,-0.283 0.384,-0.269C0.412,-0.255 0.433,-0.238 0.446,-0.219C0.46,-0.199 0.466,-0.175 0.466,-0.146C0.466,-0.099 0.447,-0.061 0.41,-0.033C0.372,-0.004 0.323,0.01 0.263,0.01C0.22,0.01 0.183,0.002 0.15,-0.013C0.118,-0.028 0.092,-0.049 0.074,-0.075C0.056,-0.102 0.046,-0.131 0.046,-0.163L0.137,-0.163C0.138,-0.132 0.15,-0.108 0.173,-0.091C0.196,-0.073 0.226,-0.064 0.263,-0.064C0.297,-0.064 0.324,-0.071 0.345,-0.085C0.366,-0.099 0.376,-0.117 0.376,-0.14Z" style="fill:white;fill-rule:nonzero;"/>
            </g>
            <g transform="matrix(32,0,0,32,273.055,388)">
                <path d="M0.236,-0.224L0.25,-0.13L0.27,-0.215L0.41,-0.711L0.489,-0.711L0.626,-0.215L0.646,-0.129L0.661,-0.225L0.771,-0.711L0.866,-0.711L0.693,0L0.608,0L0.461,-0.518L0.45,-0.572L0.439,-0.518L0.287,0L0.202,0L0.03,-0.711L0.124,-0.711L0.236,-0.224Z" style="fill:white;fill-rule:nonzero;"/>
            </g>
            <g transform="matrix(32,0,0,32,301.117,388)">
                <path d="M0.324,-0.447C0.31,-0.45 0.295,-0.451 0.279,-0.451C0.22,-0.451 0.18,-0.425 0.159,-0.375L0.159,0L0.068,0L0.068,-0.528L0.156,-0.528L0.158,-0.467C0.187,-0.514 0.229,-0.538 0.284,-0.538C0.301,-0.538 0.315,-0.536 0.324,-0.531L0.324,-0.447Z" style="fill:white;fill-rule:nonzero;"/>
            </g>
            <g transform="matrix(32,0,0,32,311.945,388)">
                <path d="M0.167,0L0.076,0L0.076,-0.528L0.167,-0.528L0.167,0ZM0.069,-0.668C0.069,-0.683 0.073,-0.695 0.082,-0.706C0.091,-0.716 0.104,-0.721 0.122,-0.721C0.14,-0.721 0.153,-0.716 0.162,-0.706C0.171,-0.695 0.176,-0.683 0.176,-0.668C0.176,-0.654 0.171,-0.642 0.162,-0.632C0.153,-0.622 0.14,-0.617 0.122,-0.617C0.104,-0.617 0.091,-0.622 0.082,-0.632C0.073,-0.642 0.069,-0.654 0.069,-0.668Z" style="fill:white;fill-rule:nonzero;"/>
            </g>
            <g transform="matrix(32,0,0,32,319.711,388)">
                <path d="M0.191,-0.656L0.191,-0.528L0.29,-0.528L0.29,-0.458L0.191,-0.458L0.191,-0.131C0.191,-0.11 0.195,-0.094 0.204,-0.083C0.213,-0.073 0.228,-0.067 0.249,-0.067C0.259,-0.067 0.274,-0.069 0.292,-0.073L0.292,0C0.268,0.007 0.245,0.01 0.223,0.01C0.182,0.01 0.152,-0.002 0.131,-0.027C0.111,-0.051 0.101,-0.086 0.101,-0.131L0.101,-0.458L0.004,-0.458L0.004,-0.528L0.101,-0.528L0.101,-0.656L0.191,-0.656Z" style="fill:white;fill-rule:nonzero;"/>
            </g>
            <g transform="matrix(32,0,0,32,330.164,388)">
                <path d="M0.288,0.01C0.216,0.01 0.158,-0.014 0.113,-0.061C0.068,-0.108 0.045,-0.171 0.045,-0.25L0.045,-0.266C0.045,-0.319 0.055,-0.365 0.075,-0.406C0.095,-0.448 0.123,-0.48 0.159,-0.503C0.195,-0.526 0.234,-0.538 0.276,-0.538C0.345,-0.538 0.398,-0.515 0.437,-0.47C0.475,-0.425 0.494,-0.36 0.494,-0.276L0.494,-0.238L0.136,-0.238C0.137,-0.186 0.152,-0.144 0.181,-0.112C0.211,-0.08 0.248,-0.064 0.292,-0.064C0.324,-0.064 0.351,-0.07 0.374,-0.083C0.396,-0.097 0.415,-0.114 0.432,-0.135L0.487,-0.092C0.443,-0.024 0.376,0.01 0.288,0.01ZM0.276,-0.464C0.24,-0.464 0.209,-0.451 0.185,-0.424C0.16,-0.398 0.145,-0.36 0.139,-0.313L0.403,-0.313L0.403,-0.319C0.401,-0.365 0.388,-0.401 0.366,-0.426C0.344,-0.451 0.314,-0.464 0.276,-0.464Z" style="fill:white;fill-rule:nonzero;"/>
            </g>
            <g transform="matrix(32,0,0,32,347.117,388)">
                <path d="M0.324,-0.447C0.31,-0.45 0.295,-0.451 0.279,-0.451C0.22,-0.451 0.18,-0.425 0.159,-0.375L0.159,0L0.068,0L0.068,-0.528L0.156,-0.528L0.158,-0.467C0.187,-0.514 0.229,-0.538 0.284,-0.538C0.301,-0.538 0.315,-0.536 0.324,-0.531L0.324,-0.447Z" style="fill:white;fill-rule:nonzero;"/>
            </g>
        </g>
    </g>
    <g transform="matrix(1.83333,0,0,2.9313,246.667,-253.13)">
        <g transform="matrix(1.14833,0,0,1.25,-101.244,-255)">
            <path d="M332,294.917C332,288.892 323.486,284 313,284L142,284C131.514,284 123,288.892 123,294.917L123,404.083C123,410.108 131.514,415 142,415L313,415C323.486,415 332,410.108 332,404.083L332,294.917Z" style="fill:white;stroke:rgb(39,194,120);stroke-width:1.34px;"/>
        </g>
        <g transform="matrix(0.545455,0,0,0.341146,-56,-0.589286)">
            <g transform="matrix(32,0,0,32,309.695,360)">
                <path d="M0.615,-0.231C0.608,-0.156 0.58,-0.096 0.531,-0.054C0.482,-0.011 0.417,0.01 0.336,0.01C0.279,0.01 0.229,-0.004 0.186,-0.031C0.143,-0.057 0.11,-0.096 0.086,-0.145C0.063,-0.194 0.051,-0.252 0.05,-0.317L0.05,-0.384C0.05,-0.451 0.062,-0.51 0.085,-0.561C0.109,-0.612 0.143,-0.652 0.188,-0.679C0.232,-0.707 0.284,-0.721 0.342,-0.721C0.42,-0.721 0.483,-0.699 0.531,-0.657C0.579,-0.614 0.607,-0.554 0.615,-0.476L0.492,-0.476C0.486,-0.527 0.471,-0.564 0.447,-0.587C0.423,-0.609 0.388,-0.621 0.342,-0.621C0.288,-0.621 0.247,-0.601 0.218,-0.562C0.189,-0.523 0.174,-0.465 0.174,-0.389L0.174,-0.326C0.174,-0.249 0.188,-0.191 0.215,-0.15C0.243,-0.11 0.283,-0.09 0.336,-0.09C0.384,-0.09 0.421,-0.101 0.445,-0.123C0.47,-0.144 0.485,-0.181 0.492,-0.231L0.615,-0.231Z" style="fill:rgb(45,46,68);fill-rule:nonzero;"/>
            </g>
            <g transform="matrix(32,0,0,32,330.586,360)">
                <rect x="0.068" y="-0.75" width="0.119" height="0.75" style="fill:rgb(45,46,68);fill-rule:nonzero;"/>
            </g>
            <g transform="matrix(32,0,0,32,338.758,360)">
                <path d="M0.376,0C0.371,-0.01 0.367,-0.027 0.363,-0.049C0.325,-0.01 0.279,0.01 0.224,0.01C0.171,0.01 0.128,-0.005 0.094,-0.036C0.061,-0.066 0.044,-0.103 0.044,-0.148C0.044,-0.204 0.065,-0.247 0.107,-0.278C0.149,-0.308 0.208,-0.323 0.286,-0.323L0.359,-0.323L0.359,-0.357C0.359,-0.385 0.351,-0.407 0.336,-0.423C0.321,-0.44 0.297,-0.448 0.266,-0.448C0.239,-0.448 0.217,-0.441 0.2,-0.427C0.182,-0.414 0.174,-0.397 0.174,-0.376L0.055,-0.376C0.055,-0.405 0.065,-0.432 0.084,-0.457C0.103,-0.483 0.129,-0.502 0.162,-0.517C0.195,-0.531 0.232,-0.538 0.273,-0.538C0.335,-0.538 0.384,-0.523 0.421,-0.491C0.458,-0.46 0.477,-0.417 0.478,-0.36L0.478,-0.122C0.478,-0.075 0.484,-0.037 0.498,-0.008L0.498,0L0.376,0ZM0.246,-0.085C0.27,-0.085 0.292,-0.091 0.312,-0.103C0.333,-0.114 0.348,-0.129 0.359,-0.148L0.359,-0.248L0.295,-0.248C0.251,-0.248 0.218,-0.24 0.196,-0.225C0.174,-0.21 0.163,-0.188 0.163,-0.16C0.163,-0.137 0.17,-0.119 0.185,-0.106C0.2,-0.092 0.221,-0.085 0.246,-0.085Z" style="fill:rgb(45,46,68);fill-rule:nonzero;"/>
            </g>
            <g transform="matrix(32,0,0,32,356.07,360)">
                <path d="M0.357,-0.144C0.357,-0.165 0.348,-0.181 0.331,-0.192C0.313,-0.203 0.285,-0.213 0.244,-0.221C0.204,-0.23 0.17,-0.24 0.143,-0.253C0.084,-0.282 0.054,-0.324 0.054,-0.378C0.054,-0.424 0.073,-0.462 0.112,-0.492C0.15,-0.523 0.199,-0.538 0.258,-0.538C0.321,-0.538 0.372,-0.522 0.411,-0.491C0.45,-0.46 0.47,-0.419 0.47,-0.37L0.351,-0.37C0.351,-0.392 0.343,-0.411 0.326,-0.427C0.309,-0.442 0.286,-0.449 0.258,-0.449C0.232,-0.449 0.211,-0.443 0.195,-0.431C0.178,-0.419 0.17,-0.403 0.17,-0.383C0.17,-0.365 0.178,-0.35 0.193,-0.34C0.208,-0.33 0.239,-0.32 0.286,-0.31C0.332,-0.3 0.369,-0.287 0.395,-0.273C0.422,-0.259 0.441,-0.242 0.454,-0.222C0.467,-0.202 0.474,-0.178 0.474,-0.15C0.474,-0.102 0.454,-0.064 0.415,-0.034C0.375,-0.005 0.324,0.01 0.26,0.01C0.216,0.01 0.178,0.002 0.144,-0.014C0.11,-0.029 0.084,-0.051 0.065,-0.078C0.046,-0.105 0.037,-0.135 0.037,-0.167L0.152,-0.167C0.153,-0.139 0.164,-0.117 0.184,-0.102C0.203,-0.087 0.229,-0.079 0.261,-0.079C0.292,-0.079 0.316,-0.085 0.333,-0.097C0.349,-0.109 0.357,-0.124 0.357,-0.144Z" style="fill:rgb(45,46,68);fill-rule:nonzero;"/>
            </g>
            <g transform="matrix(32,0,0,32,372.586,360)">
                <path d="M0.357,-0.144C0.357,-0.165 0.348,-0.181 0.331,-0.192C0.313,-0.203 0.285,-0.213 0.244,-0.221C0.204,-0.23 0.17,-0.24 0.143,-0.253C0.084,-0.282 0.054,-0.324 0.054,-0.378C0.054,-0.424 0.073,-0.462 0.112,-0.492C0.15,-0.523 0.199,-0.538 0.258,-0.538C0.321,-0.538 0.372,-0.522 0.411,-0.491C0.45,-0.46 0.47,-0.419 0.47,-0.37L0.351,-0.37C0.351,-0.392 0.343,-0.411 0.326,-0.427C0.309,-0.442 0.286,-0.449 0.258,-0.449C0.232,-0.449 0.211,-0.443 0.195,-0.431C0.178,-0.419 0.17,-0.403 0.17,-0.383C0.17,-0.365 0.178,-0.35 0.193,-0.34C0.208,-0.33 0.239,-0.32 0.286,-0.31C0.332,-0.3 0.369,-0.287 0.395,-0.273C0.422,-0.259 0.441,-0.242 0.454,-0.222C0.467,-0.202 0.474,-0.178 0.474,-0.15C0.474,-0.102 0.454,-0.064 0.415,-0.034C0.375,-0.005 0.324,0.01 0.26,0.01C0.216,0.01 0.178,0.002 0.144,-0.014C0.11,-0.029 0.084,-0.051 0.065,-0.078C0.046,-0.105 0.037,-0.135 0.037,-0.167L0.152,-0.167C0.153,-0.139 0.164,-0.117 0.184,-0.102C0.203,-0.087 0.229,-0.079 0.261,-0.079C0.292,-0.079 0.316,-0.085 0.333,-0.097C0.349,-0.109 0.357,-0.124 0.357,-0.144Z" style="fill:rgb(45,46,68);fill-rule:nonzero;"/>
            </g>
            <g transform="matrix(32,0,0,32,389.102,360)">
                <path d="M0.323,-0.155L0.503,-0.711L0.639,-0.711L0.383,0L0.264,0L0.009,-0.711L0.144,-0.711L0.323,-0.155Z" style="fill:rgb(45,46,68);fill-rule:nonzero;"/>
            </g>
            <g transform="matrix(32,0,0,32,409.805,360)">
                <path d="M0.187,0L0.068,0L0.068,-0.528L0.187,-0.528L0.187,0ZM0.061,-0.666C0.061,-0.684 0.067,-0.699 0.078,-0.711C0.09,-0.723 0.106,-0.729 0.128,-0.729C0.149,-0.729 0.166,-0.723 0.178,-0.711C0.189,-0.699 0.195,-0.684 0.195,-0.666C0.195,-0.648 0.189,-0.633 0.178,-0.621C0.166,-0.609 0.149,-0.603 0.128,-0.603C0.106,-0.603 0.09,-0.609 0.078,-0.621C0.067,-0.633 0.061,-0.648 0.061,-0.666Z" style="fill:rgb(45,46,68);fill-rule:nonzero;"/>
            </g>
            <g transform="matrix(32,0,0,32,417.977,360)">
                <path d="M0.357,-0.144C0.357,-0.165 0.348,-0.181 0.331,-0.192C0.313,-0.203 0.285,-0.213 0.244,-0.221C0.204,-0.23 0.17,-0.24 0.143,-0.253C0.084,-0.282 0.054,-0.324 0.054,-0.378C0.054,-0.424 0.073,-0.462 0.112,-0.492C0.15,-0.523 0.199,-0.538 0.258,-0.538C0.321,-0.538 0.372,-0.522 0.411,-0.491C0.45,-0.46 0.47,-0.419 0.47,-0.37L0.351,-0.37C0.351,-0.392 0.343,-0.411 0.326,-0.427C0.309,-0.442 0.286,-0.449 0.258,-0.449C0.232,-0.449 0.211,-0.443 0.195,-0.431C0.178,-0.419 0.17,-0.403 0.17,-0.383C0.17,-0.365 0.178,-0.35 0.193,-0.34C0.208,-0.33 0.239,-0.32 0.286,-0.31C0.332,-0.3 0.369,-0.287 0.395,-0.273C0.422,-0.259 0.441,-0.242 0.454,-0.222C0.467,-0.202 0.474,-0.178 0.474,-0.15C0.474,-0.102 0.454,-0.064 0.415,-0.034C0.375,-0.005 0.324,0.01 0.26,0.01C0.216,0.01 0.178,0.002 0.144,-0.014C0.11,-0.029 0.084,-0.051 0.065,-0.078C0.046,-0.105 0.037,-0.135 0.037,-0.167L0.152,-0.167C0.153,-0.139 0.164,-0.117 0.184,-0.102C0.203,-0.087 0.229,-0.079 0.261,-0.079C0.292,-0.079 0.316,-0.085 0.333,-0.097C0.349,-0.109 0.357,-0.124 0.357,-0.144Z" style="fill:rgb(45,46,68);fill-rule:nonzero;"/>
            </g>
            <g transform="matrix(32,0,0,32,434.492,360)">
                <path d="M0.187,0L0.068,0L0.068,-0.528L0.187,-0.528L0.187,0ZM0.061,-0.666C0.061,-0.684 0.067,-0.699 0.078,-0.711C0.09,-0.723 0.106,-0.729 0.128,-0.729C0.149,-0.729 0.166,-0.723 0.178,-0.711C0.189,-0.699 0.195,-0.684 0.195,-0.666C0.195,-0.648 0.189,-0.633 0.178,-0.621C0.166,-0.609 0.149,-0.603 0.128,-0.603C0.106,-0.603 0.09,-0.609 0.078,-0.621C0.067,-0.633 0.061,-0.648 0.061,-0.666Z" style="fill:rgb(45,46,68);fill-rule:nonzero;"/>
            </g>
            <g transform="matrix(32,0,0,32,442.664,360)">
                <path d="M0.209,-0.657L0.209,-0.528L0.303,-0.528L0.303,-0.44L0.209,-0.44L0.209,-0.146C0.209,-0.125 0.213,-0.111 0.221,-0.102C0.229,-0.093 0.244,-0.088 0.264,-0.088C0.278,-0.088 0.292,-0.09 0.306,-0.093L0.306,-0.001C0.279,0.006 0.253,0.01 0.228,0.01C0.136,0.01 0.091,-0.041 0.091,-0.141L0.091,-0.44L0.004,-0.44L0.004,-0.528L0.091,-0.528L0.091,-0.657L0.209,-0.657Z" style="fill:rgb(45,46,68);fill-rule:nonzero;"/>
            </g>
            <g transform="matrix(32,0,0,32,452.836,360)">
                <path d="M0.039,-0.269C0.039,-0.321 0.049,-0.367 0.069,-0.409C0.09,-0.45 0.119,-0.482 0.156,-0.505C0.193,-0.527 0.236,-0.538 0.284,-0.538C0.355,-0.538 0.413,-0.515 0.457,-0.469C0.502,-0.423 0.526,-0.362 0.529,-0.287L0.53,-0.259C0.53,-0.207 0.52,-0.16 0.5,-0.119C0.48,-0.078 0.451,-0.046 0.414,-0.024C0.377,-0.001 0.333,0.01 0.285,0.01C0.21,0.01 0.15,-0.015 0.106,-0.065C0.061,-0.114 0.039,-0.181 0.039,-0.263L0.039,-0.269ZM0.157,-0.259C0.157,-0.204 0.168,-0.162 0.191,-0.131C0.213,-0.1 0.245,-0.085 0.285,-0.085C0.325,-0.085 0.356,-0.101 0.378,-0.132C0.4,-0.163 0.412,-0.209 0.412,-0.269C0.412,-0.322 0.4,-0.365 0.377,-0.396C0.354,-0.427 0.323,-0.443 0.284,-0.443C0.245,-0.443 0.214,-0.427 0.191,-0.397C0.169,-0.366 0.157,-0.32 0.157,-0.259Z" style="fill:rgb(45,46,68);fill-rule:nonzero;"/>
            </g>
            <g transform="matrix(32,0,0,32,471.055,360)">
                <path d="M0.337,-0.42C0.322,-0.423 0.306,-0.424 0.289,-0.424C0.235,-0.424 0.198,-0.403 0.179,-0.361L0.179,0L0.061,0L0.061,-0.528L0.174,-0.528L0.177,-0.469C0.205,-0.515 0.245,-0.538 0.296,-0.538C0.313,-0.538 0.327,-0.536 0.338,-0.531L0.337,-0.42Z" style="fill:rgb(45,46,68);fill-rule:nonzero;"/>
            </g>
        </g>
        <g transform="matrix(0.909091,0,0,0.247093,14.5455,108.846)">
            <g transform="matrix(1.14833,0,0,1.7623,-101.244,-400.492)">
                <path d="M332,316.75C332,298.675 322.213,284 310.158,284L144.842,284C132.787,284 123,298.675 123,316.75L123,382.25C123,400.325 132.787,415 144.842,415L310.158,415C322.213,415 332,400.325 332,382.25L332,316.75Z" style="fill:rgb(39,194,120);"/>
                <clipPath id="_clip1">
                    <path d="M332,316.75C332,298.675 322.213,284 310.158,284L144.842,284C132.787,284 123,298.675 123,316.75L123,382.25C123,400.325 132.787,415 144.842,415L310.158,415C322.213,415 332,400.325 332,382.25L332,316.75Z"/>
                </clipPath>
                <g clip-path="url(#_clip1)">
                    <g transform="matrix(0.78375,0,0,0.385882,102.1,296.656)">
                        <g transform="matrix(1.14833,0,0,1.25,-101.244,-255)">
                            <path d="M332,348.967C332,313.111 321.594,284 308.778,284L146.222,284C133.406,284 123,313.111 123,348.967L123,350.033C123,385.889 133.406,415 146.222,415L308.778,415C321.594,415 332,385.889 332,350.033L332,348.967Z" style="fill:white;stroke:rgb(39,194,120);stroke-width:3.09px;"/>
                        </g>
                        <g transform="matrix(0.666667,0,0,2.03023,-77.3333,-582.159)">
                            <g transform="matrix(32,0,0,32,230.828,388.328)">
                                <path d="M0.47,-0.166L0.195,-0.166L0.137,0L0.009,0L0.277,-0.711L0.388,-0.711L0.657,0L0.528,0L0.47,-0.166ZM0.229,-0.265L0.436,-0.265L0.333,-0.56L0.229,-0.265Z" style="fill:rgb(45,46,68);fill-rule:nonzero;"/>
                            </g>
                            <g transform="matrix(32,0,0,32,251.375,388.328)">
                                <path d="M0.171,-0.528L0.174,-0.467C0.213,-0.514 0.265,-0.538 0.328,-0.538C0.438,-0.538 0.494,-0.475 0.496,-0.349L0.496,0L0.377,0L0.377,-0.342C0.377,-0.376 0.37,-0.401 0.356,-0.417C0.341,-0.433 0.318,-0.441 0.285,-0.441C0.237,-0.441 0.201,-0.419 0.178,-0.376L0.178,0L0.059,0L0.059,-0.528L0.171,-0.528Z" style="fill:rgb(45,46,68);fill-rule:nonzero;"/>
                            </g>
                            <g transform="matrix(32,0,0,32,269.172,388.328)">
                                <path d="M0.171,-0.528L0.174,-0.467C0.213,-0.514 0.265,-0.538 0.328,-0.538C0.438,-0.538 0.494,-0.475 0.496,-0.349L0.496,0L0.377,0L0.377,-0.342C0.377,-0.376 0.37,-0.401 0.356,-0.417C0.341,-0.433 0.318,-0.441 0.285,-0.441C0.237,-0.441 0.201,-0.419 0.178,-0.376L0.178,0L0.059,0L0.059,-0.528L0.171,-0.528Z" style="fill:rgb(45,46,68);fill-rule:nonzero;"/>
                            </g>
                            <g transform="matrix(32,0,0,32,286.969,388.328)">
                                <path d="M0.039,-0.269C0.039,-0.321 0.049,-0.367 0.069,-0.409C0.09,-0.45 0.119,-0.482 0.156,-0.505C0.193,-0.527 0.236,-0.538 0.284,-0.538C0.355,-0.538 0.413,-0.515 0.457,-0.469C0.502,-0.423 0.526,-0.362 0.529,-0.287L0.53,-0.259C0.53,-0.207 0.52,-0.16 0.5,-0.119C0.48,-0.078 0.451,-0.046 0.414,-0.024C0.377,-0.001 0.333,0.01 0.285,0.01C0.21,0.01 0.15,-0.015 0.106,-0.065C0.061,-0.114 0.039,-0.181 0.039,-0.263L0.039,-0.269ZM0.157,-0.259C0.157,-0.204 0.168,-0.162 0.191,-0.131C0.213,-0.1 0.245,-0.085 0.285,-0.085C0.325,-0.085 0.356,-0.101 0.378,-0.132C0.4,-0.163 0.412,-0.209 0.412,-0.269C0.412,-0.322 0.4,-0.365 0.377,-0.396C0.354,-0.427 0.323,-0.443 0.284,-0.443C0.245,-0.443 0.214,-0.427 0.191,-0.397C0.169,-0.366 0.157,-0.32 0.157,-0.259Z" style="fill:rgb(45,46,68);fill-rule:nonzero;"/>
                            </g>
                            <g transform="matrix(32,0,0,32,305.187,388.328)">
                                <path d="M0.209,-0.657L0.209,-0.528L0.303,-0.528L0.303,-0.44L0.209,-0.44L0.209,-0.146C0.209,-0.125 0.213,-0.111 0.221,-0.102C0.229,-0.093 0.244,-0.088 0.264,-0.088C0.278,-0.088 0.292,-0.09 0.306,-0.093L0.306,-0.001C0.279,0.006 0.253,0.01 0.228,0.01C0.136,0.01 0.091,-0.041 0.091,-0.141L0.091,-0.44L0.004,-0.44L0.004,-0.528L0.091,-0.528L0.091,-0.657L0.209,-0.657Z" style="fill:rgb(45,46,68);fill-rule:nonzero;"/>
                            </g>
                            <g transform="matrix(32,0,0,32,315.828,388.328)">
                                <path d="M0.376,0C0.371,-0.01 0.367,-0.027 0.363,-0.049C0.325,-0.01 0.279,0.01 0.224,0.01C0.171,0.01 0.128,-0.005 0.094,-0.036C0.061,-0.066 0.044,-0.103 0.044,-0.148C0.044,-0.204 0.065,-0.247 0.107,-0.278C0.149,-0.308 0.208,-0.323 0.286,-0.323L0.359,-0.323L0.359,-0.357C0.359,-0.385 0.351,-0.407 0.336,-0.423C0.321,-0.44 0.297,-0.448 0.266,-0.448C0.239,-0.448 0.217,-0.441 0.2,-0.427C0.182,-0.414 0.174,-0.397 0.174,-0.376L0.055,-0.376C0.055,-0.405 0.065,-0.432 0.084,-0.457C0.103,-0.483 0.129,-0.502 0.162,-0.517C0.195,-0.531 0.232,-0.538 0.273,-0.538C0.335,-0.538 0.384,-0.523 0.421,-0.491C0.458,-0.46 0.477,-0.417 0.478,-0.36L0.478,-0.122C0.478,-0.075 0.484,-0.037 0.498,-0.008L0.498,0L0.376,0ZM0.246,-0.085C0.27,-0.085 0.292,-0.091 0.312,-0.103C0.333,-0.114 0.348,-0.129 0.359,-0.148L0.359,-0.248L0.295,-0.248C0.251,-0.248 0.218,-0.24 0.196,-0.225C0.174,-0.21 0.163,-0.188 0.163,-0.16C0.163,-0.137 0.17,-0.119 0.185,-0.106C0.2,-0.092 0.221,-0.085 0.246,-0.085Z" style="fill:rgb(45,46,68);fill-rule:nonzero;"/>
                            </g>
                            <g transform="matrix(32,0,0,32,333.141,388.328)">
                                <path d="M0.209,-0.657L0.209,-0.528L0.303,-0.528L0.303,-0.44L0.209,-0.44L0.209,-0.146C0.209,-0.125 0.213,-0.111 0.221,-0.102C0.229,-0.093 0.244,-0.088 0.264,-0.088C0.278,-0.088 0.292,-0.09 0.306,-0.093L0.306,-0.001C0.279,0.006 0.253,0.01 0.228,0.01C0.136,0.01 0.091,-0.041 0.091,-0.141L0.091,-0.44L0.004,-0.44L0.004,-0.528L0.091,-0.528L0.091,-0.657L0.209,-0.657Z" style="fill:rgb(45,46,68);fill-rule:nonzero;"/>
                            </g>
                            <g transform="matrix(32,0,0,32,343.781,388.328)">
                                <path d="M0.187,0L0.068,0L0.068,-0.528L0.187,-0.528L0.187,0ZM0.061,-0.666C0.061,-0.684 0.067,-0.699 0.078,-0.711C0.09,-0.723 0.106,-0.729 0.128,-0.729C0.149,-0.729 0.166,-0.723 0.178,-0.711C0.189,-0.699 0.195,-0.684 0.195,-0.666C0.195,-0.648 0.189,-0.633 0.178,-0.621C0.166,-0.609 0.149,-0.603 0.128,-0.603C0.106,-0.603 0.09,-0.609 0.078,-0.621C0.067,-0.633 0.061,-0.648 0.061,-0.666Z" style="fill:rgb(45,46,68);fill-rule:nonzero;"/>
                            </g>
                            <g transform="matrix(32,0,0,32,351.953,388.328)">
                                <path d="M0.039,-0.269C0.039,-0.321 0.049,-0.367 0.069,-0.409C0.09,-0.45 0.119,-0.482 0.156,-0.505C0.193,-0.527 0.236,-0.538 0.284,-0.538C0.355,-0.538 0.413,-0.515 0.457,-0.469C0.502,-0.423 0.526,-0.362 0.529,-0.287L0.53,-0.259C0.53,-0.207 0.52,-0.16 0.5,-0.119C0.48,-0.078 0.451,-0.046 0.414,-0.024C0.377,-0.001 0.333,0.01 0.285,0.01C0.21,0.01 0.15,-0.015 0.106,-0.065C0.061,-0.114 0.039,-0.181 0.039,-0.263L0.039,-0.269ZM0.157,-0.259C0.157,-0.204 0.168,-0.162 0.191,-0.131C0.213,-0.1 0.245,-0.085 0.285,-0.085C0.325,-0.085 0.356,-0.101 0.378,-0.132C0.4,-0.163 0.412,-0.209 0.412,-0.269C0.412,-0.322 0.4,-0.365 0.377,-0.396C0.354,-0.427 0.323,-0.443 0.284,-0.443C0.245,-0.443 0.214,-0.427 0.191,-0.397C0.169,-0.366 0.157,-0.32 0.157,-0.259Z" style="fill:rgb(45,46,68);fill-rule:nonzero;"/>
                            </g>
                            <g transform="matrix(32,0,0,32,370.172,388.328)">
                                <path d="M0.171,-0.528L0.174,-0.467C0.213,-0.514 0.265,-0.538 0.328,-0.538C0.438,-0.538 0.494,-0.475 0.496,-0.349L0.496,0L0.377,0L0.377,-0.342C0.377,-0.376 0.37,-0.401 0.356,-0.417C0.341,-0.433 0.318,-0.441 0.285,-0.441C0.237,-0.441 0.201,-0.419 0.178,-0.376L0.178,0L0.059,0L0.059,-0.528L0.171,-0.528Z" style="fill:rgb(45,46,68);fill-rule:nonzero;"/>
                            </g>
                            <g transform="matrix(32,0,0,32,387.969,388.328)">
                                <path d="M0.323,-0.155L0.503,-0.711L0.639,-0.711L0.383,0L0.264,0L0.009,-0.711L0.144,-0.711L0.323,-0.155Z" style="fill:rgb(45,46,68);fill-rule:nonzero;"/>
                            </g>
                            <g transform="matrix(32,0,0,32,408.672,388.328)">
                                <path d="M0.187,0L0.068,0L0.068,-0.528L0.187,-0.528L0.187,0ZM0.061,-0.666C0.061,-0.684 0.067,-0.699 0.078,-0.711C0.09,-0.723 0.106,-0.729 0.128,-0.729C0.149,-0.729 0.166,-0.723 0.178,-0.711C0.189,-0.699 0.195,-0.684 0.195,-0.666C0.195,-0.648 0.189,-0.633 0.178,-0.621C0.166,-0.609 0.149,-0.603 0.128,-0.603C0.106,-0.603 0.09,-0.609 0.078,-0.621C0.067,-0.633 0.061,-0.648 0.061,-0.666Z" style="fill:rgb(45,46,68);fill-rule:nonzero;"/>
                            </g>
                            <g transform="matrix(32,0,0,32,416.844,388.328)">
                                <path d="M0.357,-0.144C0.357,-0.165 0.348,-0.181 0.331,-0.192C0.313,-0.203 0.285,-0.213 0.244,-0.221C0.204,-0.23 0.17,-0.24 0.143,-0.253C0.084,-0.282 0.054,-0.324 0.054,-0.378C0.054,-0.424 0.073,-0.462 0.112,-0.492C0.15,-0.523 0.199,-0.538 0.258,-0.538C0.321,-0.538 0.372,-0.522 0.411,-0.491C0.45,-0.46 0.47,-0.419 0.47,-0.37L0.351,-0.37C0.351,-0.392 0.343,-0.411 0.326,-0.427C0.309,-0.442 0.286,-0.449 0.258,-0.449C0.232,-0.449 0.211,-0.443 0.195,-0.431C0.178,-0.419 0.17,-0.403 0.17,-0.383C0.17,-0.365 0.178,-0.35 0.193,-0.34C0.208,-0.33 0.239,-0.32 0.286,-0.31C0.332,-0.3 0.369,-0.287 0.395,-0.273C0.422,-0.259 0.441,-0.242 0.454,-0.222C0.467,-0.202 0.474,-0.178 0.474,-0.15C0.474,-0.102 0.454,-0.064 0.415,-0.034C0.375,-0.005 0.324,0.01 0.26,0.01C0.216,0.01 0.178,0.002 0.144,-0.014C0.11,-0.029 0.084,-0.051 0.065,-0.078C0.046,-0.105 0.037,-0.135 0.037,-0.167L0.152,-0.167C0.153,-0.139 0.164,-0.117 0.184,-0.102C0.203,-0.087 0.229,-0.079 0.261,-0.079C0.292,-0.079 0.316,-0.085 0.333,-0.097C0.349,-0.109 0.357,-0.124 0.357,-0.144Z" style="fill:rgb(45,46,68);fill-rule:nonzero;"/>
                            </g>
                            <g transform="matrix(32,0,0,32,433.359,388.328)">
                                <path d="M0.187,0L0.068,0L0.068,-0.528L0.187,-0.528L0.187,0ZM0.061,-0.666C0.061,-0.684 0.067,-0.699 0.078,-0.711C0.09,-0.723 0.106,-0.729 0.128,-0.729C0.149,-0.729 0.166,-0.723 0.178,-0.711C0.189,-0.699 0.195,-0.684 0.195,-0.666C0.195,-0.648 0.189,-0.633 0.178,-0.621C0.166,-0.609 0.149,-0.603 0.128,-0.603C0.106,-0.603 0.09,-0.609 0.078,-0.621C0.067,-0.633 0.061,-0.648 0.061,-0.666Z" style="fill:rgb(45,46,68);fill-rule:nonzero;"/>
                            </g>
                            <g transform="matrix(32,0,0,32,441.531,388.328)">
                                <path d="M0.209,-0.657L0.209,-0.528L0.303,-0.528L0.303,-0.44L0.209,-0.44L0.209,-0.146C0.209,-0.125 0.213,-0.111 0.221,-0.102C0.229,-0.093 0.244,-0.088 0.264,-0.088C0.278,-0.088 0.292,-0.09 0.306,-0.093L0.306,-0.001C0.279,0.006 0.253,0.01 0.228,0.01C0.136,0.01 0.091,-0.041 0.091,-0.141L0.091,-0.44L0.004,-0.44L0.004,-0.528L0.091,-0.528L0.091,-0.657L0.209,-0.657Z" style="fill:rgb(45,46,68);fill-rule:nonzero;"/>
                            </g>
                            <g transform="matrix(32,0,0,32,451.703,388.328)">
                                <path d="M0.039,-0.269C0.039,-0.321 0.049,-0.367 0.069,-0.409C0.09,-0.45 0.119,-0.482 0.156,-0.505C0.193,-0.527 0.236,-0.538 0.284,-0.538C0.355,-0.538 0.413,-0.515 0.457,-0.469C0.502,-0.423 0.526,-0.362 0.529,-0.287L0.53,-0.259C0.53,-0.207 0.52,-0.16 0.5,-0.119C0.48,-0.078 0.451,-0.046 0.414,-0.024C0.377,-0.001 0.333,0.01 0.285,0.01C0.21,0.01 0.15,-0.015 0.106,-0.065C0.061,-0.114 0.039,-0.181 0.039,-0.263L0.039,-0.269ZM0.157,-0.259C0.157,-0.204 0.168,-0.162 0.191,-0.131C0.213,-0.1 0.245,-0.085 0.285,-0.085C0.325,-0.085 0.356,-0.101 0.378,-0.132C0.4,-0.163 0.412,-0.209 0.412,-0.269C0.412,-0.322 0.4,-0.365 0.377,-0.396C0.354,-0.427 0.323,-0.443 0.284,-0.443C0.245,-0.443 0.214,-0.427 0.191,-0.397C0.169,-0.366 0.157,-0.32 0.157,-0.259Z" style="fill:rgb(45,46,68);fill-rule:nonzero;"/>
                            </g>
                            <g transform="matrix(32,0,0,32,469.922,388.328)">
                                <path d="M0.337,-0.42C0.322,-0.423 0.306,-0.424 0.289,-0.424C0.235,-0.424 0.198,-0.403 0.179,-0.361L0.179,0L0.061,0L0.061,-0.528L0.174,-0.528L0.177,-0.469C0.205,-0.515 0.245,-0.538 0.296,-0.538C0.313,-0.538 0.327,-0.536 0.338,-0.531L0.337,-0.42Z" style="fill:rgb(45,46,68);fill-rule:nonzero;"/>
                            </g>
                        </g>
                    </g>
                </g>
            </g>
            <g transform="matrix(0.6,0,0,1.38064,-65.6,-363.894)">
                <g transform="matrix(32,0,0,32,296.086,379.498)">
                    <path d="M0.475,-0.314L0.176,-0.314L0.176,0L0.083,0L0.083,-0.711L0.523,-0.711L0.523,-0.634L0.176,-0.634L0.176,-0.391L0.475,-0.391L0.475,-0.314Z" style="fill:white;fill-rule:nonzero;"/>
                </g>
                <g transform="matrix(32,0,0,32,313.773,379.498)">
                    <path d="M0.167,0L0.076,0L0.076,-0.528L0.167,-0.528L0.167,0ZM0.069,-0.668C0.069,-0.683 0.073,-0.695 0.082,-0.706C0.091,-0.716 0.104,-0.721 0.122,-0.721C0.14,-0.721 0.153,-0.716 0.162,-0.706C0.171,-0.695 0.176,-0.683 0.176,-0.668C0.176,-0.654 0.171,-0.642 0.162,-0.632C0.153,-0.622 0.14,-0.617 0.122,-0.617C0.104,-0.617 0.091,-0.622 0.082,-0.632C0.073,-0.642 0.069,-0.654 0.069,-0.668Z" style="fill:white;fill-rule:nonzero;"/>
                </g>
                <g transform="matrix(32,0,0,32,321.539,379.498)">
                    <path d="M0.288,0.01C0.216,0.01 0.158,-0.014 0.113,-0.061C0.068,-0.108 0.045,-0.171 0.045,-0.25L0.045,-0.266C0.045,-0.319 0.055,-0.365 0.075,-0.406C0.095,-0.448 0.123,-0.48 0.159,-0.503C0.195,-0.526 0.234,-0.538 0.276,-0.538C0.345,-0.538 0.398,-0.515 0.437,-0.47C0.475,-0.425 0.494,-0.36 0.494,-0.276L0.494,-0.238L0.136,-0.238C0.137,-0.186 0.152,-0.144 0.181,-0.112C0.211,-0.08 0.248,-0.064 0.292,-0.064C0.324,-0.064 0.351,-0.07 0.374,-0.083C0.396,-0.097 0.415,-0.114 0.432,-0.135L0.487,-0.092C0.443,-0.024 0.376,0.01 0.288,0.01ZM0.276,-0.464C0.24,-0.464 0.209,-0.451 0.185,-0.424C0.16,-0.398 0.145,-0.36 0.139,-0.313L0.403,-0.313L0.403,-0.319C0.401,-0.365 0.388,-0.401 0.366,-0.426C0.344,-0.451 0.314,-0.464 0.276,-0.464Z" style="fill:white;fill-rule:nonzero;"/>
                </g>
                <g transform="matrix(32,0,0,32,338.492,379.498)">
                    <rect x="0.076" y="-0.75" width="0.09" height="0.75" style="fill:white;fill-rule:nonzero;"/>
                </g>
                <g transform="matrix(32,0,0,32,346.258,379.498)">
                    <path d="M0.046,-0.269C0.046,-0.35 0.066,-0.415 0.104,-0.464C0.142,-0.513 0.193,-0.538 0.255,-0.538C0.317,-0.538 0.366,-0.517 0.402,-0.475L0.402,-0.75L0.492,-0.75L0.492,0L0.409,0L0.405,-0.057C0.369,-0.012 0.318,0.01 0.254,0.01C0.193,0.01 0.143,-0.015 0.104,-0.065C0.066,-0.116 0.046,-0.181 0.046,-0.262L0.046,-0.269ZM0.137,-0.258C0.137,-0.198 0.149,-0.152 0.174,-0.118C0.199,-0.084 0.233,-0.067 0.276,-0.067C0.334,-0.067 0.375,-0.093 0.402,-0.144L0.402,-0.387C0.375,-0.437 0.333,-0.461 0.277,-0.461C0.233,-0.461 0.199,-0.444 0.174,-0.41C0.149,-0.376 0.137,-0.325 0.137,-0.258Z" style="fill:white;fill-rule:nonzero;"/>
                </g>
                <g transform="matrix(32,0,0,32,364.305,379.498)">
                    <path d="M0.318,-0.125L0.521,-0.711L0.624,-0.711L0.36,0L0.277,0L0.014,-0.711L0.116,-0.711L0.318,-0.125Z" style="fill:white;fill-rule:nonzero;"/>
                </g>
                <g transform="matrix(32,0,0,32,384.664,379.498)">
                    <path d="M0.167,0L0.076,0L0.076,-0.528L0.167,-0.528L0.167,0ZM0.069,-0.668C0.069,-0.683 0.073,-0.695 0.082,-0.706C0.091,-0.716 0.104,-0.721 0.122,-0.721C0.14,-0.721 0.153,-0.716 0.162,-0.706C0.171,-0.695 0.176,-0.683 0.176,-0.668C0.176,-0.654 0.171,-0.642 0.162,-0.632C0.153,-0.622 0.14,-0.617 0.122,-0.617C0.104,-0.617 0.091,-0.622 0.082,-0.632C0.073,-0.642 0.069,-0.654 0.069,-0.668Z" style="fill:white;fill-rule:nonzero;"/>
                </g>
                <g transform="matrix(32,0,0,32,392.43,379.498)">
                    <path d="M0.376,-0.14C0.376,-0.165 0.367,-0.184 0.348,-0.197C0.33,-0.211 0.298,-0.222 0.252,-0.232C0.206,-0.242 0.17,-0.253 0.143,-0.267C0.116,-0.281 0.097,-0.297 0.084,-0.316C0.071,-0.335 0.064,-0.357 0.064,-0.383C0.064,-0.427 0.083,-0.463 0.119,-0.493C0.156,-0.523 0.203,-0.538 0.26,-0.538C0.32,-0.538 0.368,-0.523 0.406,-0.492C0.443,-0.461 0.461,-0.421 0.461,-0.373L0.371,-0.373C0.371,-0.398 0.36,-0.419 0.339,-0.437C0.318,-0.455 0.292,-0.464 0.26,-0.464C0.227,-0.464 0.201,-0.457 0.183,-0.442C0.164,-0.428 0.155,-0.409 0.155,-0.386C0.155,-0.364 0.163,-0.348 0.181,-0.337C0.198,-0.326 0.229,-0.315 0.274,-0.305C0.319,-0.295 0.356,-0.283 0.384,-0.269C0.412,-0.255 0.433,-0.238 0.446,-0.219C0.46,-0.199 0.466,-0.175 0.466,-0.146C0.466,-0.099 0.447,-0.061 0.41,-0.033C0.372,-0.004 0.323,0.01 0.263,0.01C0.22,0.01 0.183,0.002 0.15,-0.013C0.118,-0.028 0.092,-0.049 0.074,-0.075C0.056,-0.102 0.046,-0.131 0.046,-0.163L0.137,-0.163C0.138,-0.132 0.15,-0.108 0.173,-0.091C0.196,-0.073 0.226,-0.064 0.263,-0.064C0.297,-0.064 0.324,-0.071 0.345,-0.085C0.366,-0.099 0.376,-0.117 0.376,-0.14Z" style="fill:white;fill-rule:nonzero;"/>
                </g>
                <g transform="matrix(32,0,0,32,408.93,379.498)">
                    <path d="M0.167,0L0.076,0L0.076,-0.528L0.167,-0.528L0.167,0ZM0.069,-0.668C0.069,-0.683 0.073,-0.695 0.082,-0.706C0.091,-0.716 0.104,-0.721 0.122,-0.721C0.14,-0.721 0.153,-0.716 0.162,-0.706C0.171,-0.695 0.176,-0.683 0.176,-0.668C0.176,-0.654 0.171,-0.642 0.162,-0.632C0.153,-0.622 0.14,-0.617 0.122,-0.617C0.104,-0.617 0.091,-0.622 0.082,-0.632C0.073,-0.642 0.069,-0.654 0.069,-0.668Z" style="fill:white;fill-rule:nonzero;"/>
                </g>
                <g transform="matrix(32,0,0,32,416.695,379.498)">
                    <path d="M0.191,-0.656L0.191,-0.528L0.29,-0.528L0.29,-0.458L0.191,-0.458L0.191,-0.131C0.191,-0.11 0.195,-0.094 0.204,-0.083C0.213,-0.073 0.228,-0.067 0.249,-0.067C0.259,-0.067 0.274,-0.069 0.292,-0.073L0.292,0C0.268,0.007 0.245,0.01 0.223,0.01C0.182,0.01 0.152,-0.002 0.131,-0.027C0.111,-0.051 0.101,-0.086 0.101,-0.131L0.101,-0.458L0.004,-0.458L0.004,-0.528L0.101,-0.528L0.101,-0.656L0.191,-0.656Z" style="fill:white;fill-rule:nonzero;"/>
                </g>
                <g transform="matrix(32,0,0,32,426.836,379.498)">
                    <path d="M0.044,-0.269C0.044,-0.321 0.055,-0.367 0.075,-0.409C0.095,-0.45 0.124,-0.482 0.16,-0.504C0.196,-0.527 0.238,-0.538 0.284,-0.538C0.356,-0.538 0.414,-0.513 0.459,-0.463C0.503,-0.414 0.525,-0.347 0.525,-0.265L0.525,-0.258C0.525,-0.207 0.516,-0.161 0.496,-0.12C0.476,-0.079 0.448,-0.047 0.411,-0.024C0.375,-0.002 0.333,0.01 0.285,0.01C0.214,0.01 0.156,-0.015 0.111,-0.065C0.067,-0.115 0.044,-0.181 0.044,-0.263L0.044,-0.269ZM0.135,-0.258C0.135,-0.2 0.149,-0.153 0.176,-0.117C0.203,-0.082 0.24,-0.064 0.285,-0.064C0.331,-0.064 0.368,-0.082 0.395,-0.118C0.422,-0.154 0.435,-0.204 0.435,-0.269C0.435,-0.327 0.421,-0.374 0.394,-0.41C0.366,-0.446 0.33,-0.464 0.284,-0.464C0.24,-0.464 0.204,-0.446 0.176,-0.411C0.149,-0.375 0.135,-0.324 0.135,-0.258Z" style="fill:white;fill-rule:nonzero;"/>
                </g>
                <g transform="matrix(32,0,0,32,445.086,379.498)">
                    <path d="M0.324,-0.447C0.31,-0.45 0.295,-0.451 0.279,-0.451C0.22,-0.451 0.18,-0.425 0.159,-0.375L0.159,0L0.068,0L0.068,-0.528L0.156,-0.528L0.158,-0.467C0.187,-0.514 0.229,-0.538 0.284,-0.538C0.301,-0.538 0.315,-0.536 0.324,-0.531L0.324,-0.447Z" style="fill:white;fill-rule:nonzero;"/>
                </g>
            </g>
        </g>
        <g transform="matrix(0.909091,0,0,0.251211,14.5455,173.811)">
            <g transform="matrix(1.14833,0,0,1.7623,-101.244,-400.492)">
                <path d="M332,316.75C332,298.675 322.05,284 309.794,284L145.206,284C132.95,284 123,298.675 123,316.75L123,382.25C123,400.325 132.95,415 145.206,415L309.794,415C322.05,415 332,400.325 332,382.25L332,316.75Z" style="fill:rgb(39,194,120);"/>
                <clipPath id="_clip2">
                    <path d="M332,316.75C332,298.675 322.05,284 309.794,284L145.206,284C132.95,284 123,298.675 123,316.75L123,382.25C123,400.325 132.95,415 145.206,415L309.794,415C322.05,415 332,400.325 332,382.25L332,316.75Z"/>
                </clipPath>
                <g clip-path="url(#_clip2)">
                    <g transform="matrix(0.78375,0,0,0.385882,102.1,296.656)">
                        <g transform="matrix(1.14833,0,0,1.25,-101.244,-255)">
                            <path d="M332,347.902C332,312.634 321.594,284 308.778,284L146.222,284C133.406,284 123,312.634 123,347.902L123,351.098C123,386.366 133.406,415 146.222,415L308.778,415C321.594,415 332,386.366 332,351.098L332,347.902Z" style="fill:white;stroke:rgb(39,194,120);stroke-width:3.09px;"/>
                        </g>
                        <g transform="matrix(0.666667,0,0,1.99695,-77.3333,-570.976)">
                            <g transform="matrix(32,0,0,32,230.828,389)">
                                <path d="M0.47,-0.166L0.195,-0.166L0.137,0L0.009,0L0.277,-0.711L0.388,-0.711L0.657,0L0.528,0L0.47,-0.166ZM0.229,-0.265L0.436,-0.265L0.333,-0.56L0.229,-0.265Z" style="fill:rgb(45,46,68);fill-rule:nonzero;"/>
                            </g>
                            <g transform="matrix(32,0,0,32,251.375,389)">
                                <path d="M0.171,-0.528L0.174,-0.467C0.213,-0.514 0.265,-0.538 0.328,-0.538C0.438,-0.538 0.494,-0.475 0.496,-0.349L0.496,0L0.377,0L0.377,-0.342C0.377,-0.376 0.37,-0.401 0.356,-0.417C0.341,-0.433 0.318,-0.441 0.285,-0.441C0.237,-0.441 0.201,-0.419 0.178,-0.376L0.178,0L0.059,0L0.059,-0.528L0.171,-0.528Z" style="fill:rgb(45,46,68);fill-rule:nonzero;"/>
                            </g>
                            <g transform="matrix(32,0,0,32,269.172,389)">
                                <path d="M0.171,-0.528L0.174,-0.467C0.213,-0.514 0.265,-0.538 0.328,-0.538C0.438,-0.538 0.494,-0.475 0.496,-0.349L0.496,0L0.377,0L0.377,-0.342C0.377,-0.376 0.37,-0.401 0.356,-0.417C0.341,-0.433 0.318,-0.441 0.285,-0.441C0.237,-0.441 0.201,-0.419 0.178,-0.376L0.178,0L0.059,0L0.059,-0.528L0.171,-0.528Z" style="fill:rgb(45,46,68);fill-rule:nonzero;"/>
                            </g>
                            <g transform="matrix(32,0,0,32,286.969,389)">
                                <path d="M0.039,-0.269C0.039,-0.321 0.049,-0.367 0.069,-0.409C0.09,-0.45 0.119,-0.482 0.156,-0.505C0.193,-0.527 0.236,-0.538 0.284,-0.538C0.355,-0.538 0.413,-0.515 0.457,-0.469C0.502,-0.423 0.526,-0.362 0.529,-0.287L0.53,-0.259C0.53,-0.207 0.52,-0.16 0.5,-0.119C0.48,-0.078 0.451,-0.046 0.414,-0.024C0.377,-0.001 0.333,0.01 0.285,0.01C0.21,0.01 0.15,-0.015 0.106,-0.065C0.061,-0.114 0.039,-0.181 0.039,-0.263L0.039,-0.269ZM0.157,-0.259C0.157,-0.204 0.168,-0.162 0.191,-0.131C0.213,-0.1 0.245,-0.085 0.285,-0.085C0.325,-0.085 0.356,-0.101 0.378,-0.132C0.4,-0.163 0.412,-0.209 0.412,-0.269C0.412,-0.322 0.4,-0.365 0.377,-0.396C0.354,-0.427 0.323,-0.443 0.284,-0.443C0.245,-0.443 0.214,-0.427 0.191,-0.397C0.169,-0.366 0.157,-0.32 0.157,-0.259Z" style="fill:rgb(45,46,68);fill-rule:nonzero;"/>
                            </g>
                            <g transform="matrix(32,0,0,32,305.187,389)">
                                <path d="M0.209,-0.657L0.209,-0.528L0.303,-0.528L0.303,-0.44L0.209,-0.44L0.209,-0.146C0.209,-0.125 0.213,-0.111 0.221,-0.102C0.229,-0.093 0.244,-0.088 0.264,-0.088C0.278,-0.088 0.292,-0.09 0.306,-0.093L0.306,-0.001C0.279,0.006 0.253,0.01 0.228,0.01C0.136,0.01 0.091,-0.041 0.091,-0.141L0.091,-0.44L0.004,-0.44L0.004,-0.528L0.091,-0.528L0.091,-0.657L0.209,-0.657Z" style="fill:rgb(45,46,68);fill-rule:nonzero;"/>
                            </g>
                            <g transform="matrix(32,0,0,32,315.828,389)">
                                <path d="M0.376,0C0.371,-0.01 0.367,-0.027 0.363,-0.049C0.325,-0.01 0.279,0.01 0.224,0.01C0.171,0.01 0.128,-0.005 0.094,-0.036C0.061,-0.066 0.044,-0.103 0.044,-0.148C0.044,-0.204 0.065,-0.247 0.107,-0.278C0.149,-0.308 0.208,-0.323 0.286,-0.323L0.359,-0.323L0.359,-0.357C0.359,-0.385 0.351,-0.407 0.336,-0.423C0.321,-0.44 0.297,-0.448 0.266,-0.448C0.239,-0.448 0.217,-0.441 0.2,-0.427C0.182,-0.414 0.174,-0.397 0.174,-0.376L0.055,-0.376C0.055,-0.405 0.065,-0.432 0.084,-0.457C0.103,-0.483 0.129,-0.502 0.162,-0.517C0.195,-0.531 0.232,-0.538 0.273,-0.538C0.335,-0.538 0.384,-0.523 0.421,-0.491C0.458,-0.46 0.477,-0.417 0.478,-0.36L0.478,-0.122C0.478,-0.075 0.484,-0.037 0.498,-0.008L0.498,0L0.376,0ZM0.246,-0.085C0.27,-0.085 0.292,-0.091 0.312,-0.103C0.333,-0.114 0.348,-0.129 0.359,-0.148L0.359,-0.248L0.295,-0.248C0.251,-0.248 0.218,-0.24 0.196,-0.225C0.174,-0.21 0.163,-0.188 0.163,-0.16C0.163,-0.137 0.17,-0.119 0.185,-0.106C0.2,-0.092 0.221,-0.085 0.246,-0.085Z" style="fill:rgb(45,46,68);fill-rule:nonzero;"/>
                            </g>
                            <g transform="matrix(32,0,0,32,333.141,389)">
                                <path d="M0.209,-0.657L0.209,-0.528L0.303,-0.528L0.303,-0.44L0.209,-0.44L0.209,-0.146C0.209,-0.125 0.213,-0.111 0.221,-0.102C0.229,-0.093 0.244,-0.088 0.264,-0.088C0.278,-0.088 0.292,-0.09 0.306,-0.093L0.306,-0.001C0.279,0.006 0.253,0.01 0.228,0.01C0.136,0.01 0.091,-0.041 0.091,-0.141L0.091,-0.44L0.004,-0.44L0.004,-0.528L0.091,-0.528L0.091,-0.657L0.209,-0.657Z" style="fill:rgb(45,46,68);fill-rule:nonzero;"/>
                            </g>
                            <g transform="matrix(32,0,0,32,343.781,389)">
                                <path d="M0.187,0L0.068,0L0.068,-0.528L0.187,-0.528L0.187,0ZM0.061,-0.666C0.061,-0.684 0.067,-0.699 0.078,-0.711C0.09,-0.723 0.106,-0.729 0.128,-0.729C0.149,-0.729 0.166,-0.723 0.178,-0.711C0.189,-0.699 0.195,-0.684 0.195,-0.666C0.195,-0.648 0.189,-0.633 0.178,-0.621C0.166,-0.609 0.149,-0.603 0.128,-0.603C0.106,-0.603 0.09,-0.609 0.078,-0.621C0.067,-0.633 0.061,-0.648 0.061,-0.666Z" style="fill:rgb(45,46,68);fill-rule:nonzero;"/>
                            </g>
                            <g transform="matrix(32,0,0,32,351.953,389)">
                                <path d="M0.039,-0.269C0.039,-0.321 0.049,-0.367 0.069,-0.409C0.09,-0.45 0.119,-0.482 0.156,-0.505C0.193,-0.527 0.236,-0.538 0.284,-0.538C0.355,-0.538 0.413,-0.515 0.457,-0.469C0.502,-0.423 0.526,-0.362 0.529,-0.287L0.53,-0.259C0.53,-0.207 0.52,-0.16 0.5,-0.119C0.48,-0.078 0.451,-0.046 0.414,-0.024C0.377,-0.001 0.333,0.01 0.285,0.01C0.21,0.01 0.15,-0.015 0.106,-0.065C0.061,-0.114 0.039,-0.181 0.039,-0.263L0.039,-0.269ZM0.157,-0.259C0.157,-0.204 0.168,-0.162 0.191,-0.131C0.213,-0.1 0.245,-0.085 0.285,-0.085C0.325,-0.085 0.356,-0.101 0.378,-0.132C0.4,-0.163 0.412,-0.209 0.412,-0.269C0.412,-0.322 0.4,-0.365 0.377,-0.396C0.354,-0.427 0.323,-0.443 0.284,-0.443C0.245,-0.443 0.214,-0.427 0.191,-0.397C0.169,-0.366 0.157,-0.32 0.157,-0.259Z" style="fill:rgb(45,46,68);fill-rule:nonzero;"/>
                            </g>
                            <g transform="matrix(32,0,0,32,370.172,389)">
                                <path d="M0.171,-0.528L0.174,-0.467C0.213,-0.514 0.265,-0.538 0.328,-0.538C0.438,-0.538 0.494,-0.475 0.496,-0.349L0.496,0L0.377,0L0.377,-0.342C0.377,-0.376 0.37,-0.401 0.356,-0.417C0.341,-0.433 0.318,-0.441 0.285,-0.441C0.237,-0.441 0.201,-0.419 0.178,-0.376L0.178,0L0.059,0L0.059,-0.528L0.171,-0.528Z" style="fill:rgb(45,46,68);fill-rule:nonzero;"/>
                            </g>
                            <g transform="matrix(32,0,0,32,387.969,389)">
                                <path d="M0.323,-0.155L0.503,-0.711L0.639,-0.711L0.383,0L0.264,0L0.009,-0.711L0.144,-0.711L0.323,-0.155Z" style="fill:rgb(45,46,68);fill-rule:nonzero;"/>
                            </g>
                            <g transform="matrix(32,0,0,32,408.672,389)">
                                <path d="M0.187,0L0.068,0L0.068,-0.528L0.187,-0.528L0.187,0ZM0.061,-0.666C0.061,-0.684 0.067,-0.699 0.078,-0.711C0.09,-0.723 0.106,-0.729 0.128,-0.729C0.149,-0.729 0.166,-0.723 0.178,-0.711C0.189,-0.699 0.195,-0.684 0.195,-0.666C0.195,-0.648 0.189,-0.633 0.178,-0.621C0.166,-0.609 0.149,-0.603 0.128,-0.603C0.106,-0.603 0.09,-0.609 0.078,-0.621C0.067,-0.633 0.061,-0.648 0.061,-0.666Z" style="fill:rgb(45,46,68);fill-rule:nonzero;"/>
                            </g>
                            <g transform="matrix(32,0,0,32,416.844,389)">
                                <path d="M0.357,-0.144C0.357,-0.165 0.348,-0.181 0.331,-0.192C0.313,-0.203 0.285,-0.213 0.244,-0.221C0.204,-0.23 0.17,-0.24 0.143,-0.253C0.084,-0.282 0.054,-0.324 0.054,-0.378C0.054,-0.424 0.073,-0.462 0.112,-0.492C0.15,-0.523 0.199,-0.538 0.258,-0.538C0.321,-0.538 0.372,-0.522 0.411,-0.491C0.45,-0.46 0.47,-0.419 0.47,-0.37L0.351,-0.37C0.351,-0.392 0.343,-0.411 0.326,-0.427C0.309,-0.442 0.286,-0.449 0.258,-0.449C0.232,-0.449 0.211,-0.443 0.195,-0.431C0.178,-0.419 0.17,-0.403 0.17,-0.383C0.17,-0.365 0.178,-0.35 0.193,-0.34C0.208,-0.33 0.239,-0.32 0.286,-0.31C0.332,-0.3 0.369,-0.287 0.395,-0.273C0.422,-0.259 0.441,-0.242 0.454,-0.222C0.467,-0.202 0.474,-0.178 0.474,-0.15C0.474,-0.102 0.454,-0.064 0.415,-0.034C0.375,-0.005 0.324,0.01 0.26,0.01C0.216,0.01 0.178,0.002 0.144,-0.014C0.11,-0.029 0.084,-0.051 0.065,-0.078C0.046,-0.105 0.037,-0.135 0.037,-0.167L0.152,-0.167C0.153,-0.139 0.164,-0.117 0.184,-0.102C0.203,-0.087 0.229,-0.079 0.261,-0.079C0.292,-0.079 0.316,-0.085 0.333,-0.097C0.349,-0.109 0.357,-0.124 0.357,-0.144Z" style="fill:rgb(45,46,68);fill-rule:nonzero;"/>
                            </g>
                            <g transform="matrix(32,0,0,32,433.359,389)">
                                <path d="M0.187,0L0.068,0L0.068,-0.528L0.187,-0.528L0.187,0ZM0.061,-0.666C0.061,-0.684 0.067,-0.699 0.078,-0.711C0.09,-0.723 0.106,-0.729 0.128,-0.729C0.149,-0.729 0.166,-0.723 0.178,-0.711C0.189,-0.699 0.195,-0.684 0.195,-0.666C0.195,-0.648 0.189,-0.633 0.178,-0.621C0.166,-0.609 0.149,-0.603 0.128,-0.603C0.106,-0.603 0.09,-0.609 0.078,-0.621C0.067,-0.633 0.061,-0.648 0.061,-0.666Z" style="fill:rgb(45,46,68);fill-rule:nonzero;"/>
                            </g>
                            <g transform="matrix(32,0,0,32,441.531,389)">
                                <path d="M0.209,-0.657L0.209,-0.528L0.303,-0.528L0.303,-0.44L0.209,-0.44L0.209,-0.146C0.209,-0.125 0.213,-0.111 0.221,-0.102C0.229,-0.093 0.244,-0.088 0.264,-0.088C0.278,-0.088 0.292,-0.09 0.306,-0.093L0.306,-0.001C0.279,0.006 0.253,0.01 0.228,0.01C0.136,0.01 0.091,-0.041 0.091,-0.141L0.091,-0.44L0.004,-0.44L0.004,-0.528L0.091,-0.528L0.091,-0.657L0.209,-0.657Z" style="fill:rgb(45,46,68);fill-rule:nonzero;"/>
                            </g>
                            <g transform="matrix(32,0,0,32,451.703,389)">
                                <path d="M0.039,-0.269C0.039,-0.321 0.049,-0.367 0.069,-0.409C0.09,-0.45 0.119,-0.482 0.156,-0.505C0.193,-0.527 0.236,-0.538 0.284,-0.538C0.355,-0.538 0.413,-0.515 0.457,-0.469C0.502,-0.423 0.526,-0.362 0.529,-0.287L0.53,-0.259C0.53,-0.207 0.52,-0.16 0.5,-0.119C0.48,-0.078 0.451,-0.046 0.414,-0.024C0.377,-0.001 0.333,0.01 0.285,0.01C0.21,0.01 0.15,-0.015 0.106,-0.065C0.061,-0.114 0.039,-0.181 0.039,-0.263L0.039,-0.269ZM0.157,-0.259C0.157,-0.204 0.168,-0.162 0.191,-0.131C0.213,-0.1 0.245,-0.085 0.285,-0.085C0.325,-0.085 0.356,-0.101 0.378,-0.132C0.4,-0.163 0.412,-0.209 0.412,-0.269C0.412,-0.322 0.4,-0.365 0.377,-0.396C0.354,-0.427 0.323,-0.443 0.284,-0.443C0.245,-0.443 0.214,-0.427 0.191,-0.397C0.169,-0.366 0.157,-0.32 0.157,-0.259Z" style="fill:rgb(45,46,68);fill-rule:nonzero;"/>
                            </g>
                            <g transform="matrix(32,0,0,32,469.922,389)">
                                <path d="M0.337,-0.42C0.322,-0.423 0.306,-0.424 0.289,-0.424C0.235,-0.424 0.198,-0.403 0.179,-0.361L0.179,0L0.061,0L0.061,-0.528L0.174,-0.528L0.177,-0.469C0.205,-0.515 0.245,-0.538 0.296,-0.538C0.313,-0.538 0.327,-0.536 0.338,-0.531L0.337,-0.42Z" style="fill:rgb(45,46,68);fill-rule:nonzero;"/>
                            </g>
                        </g>
                    </g>
                </g>
            </g>
            <g transform="matrix(0.6,0,0,1.358,-65.6,-356.289)">
                <g transform="matrix(32,0,0,32,275.562,380.023)">
                    <path d="M0.204,-0.711L0.436,-0.131L0.668,-0.711L0.79,-0.711L0.79,0L0.696,0L0.696,-0.277L0.705,-0.576L0.472,0L0.4,0L0.167,-0.574L0.176,-0.277L0.176,0L0.083,0L0.083,-0.711L0.204,-0.711Z" style="fill:white;fill-rule:nonzero;"/>
                </g>
                <g transform="matrix(32,0,0,32,303.5,380.023)">
                    <path d="M0.288,0.01C0.216,0.01 0.158,-0.014 0.113,-0.061C0.068,-0.108 0.045,-0.171 0.045,-0.25L0.045,-0.266C0.045,-0.319 0.055,-0.365 0.075,-0.406C0.095,-0.448 0.123,-0.48 0.159,-0.503C0.195,-0.526 0.234,-0.538 0.276,-0.538C0.345,-0.538 0.398,-0.515 0.437,-0.47C0.475,-0.425 0.494,-0.36 0.494,-0.276L0.494,-0.238L0.136,-0.238C0.137,-0.186 0.152,-0.144 0.181,-0.112C0.211,-0.08 0.248,-0.064 0.292,-0.064C0.324,-0.064 0.351,-0.07 0.374,-0.083C0.396,-0.097 0.415,-0.114 0.432,-0.135L0.487,-0.092C0.443,-0.024 0.376,0.01 0.288,0.01ZM0.276,-0.464C0.24,-0.464 0.209,-0.451 0.185,-0.424C0.16,-0.398 0.145,-0.36 0.139,-0.313L0.403,-0.313L0.403,-0.319C0.401,-0.365 0.388,-0.401 0.366,-0.426C0.344,-0.451 0.314,-0.464 0.276,-0.464Z" style="fill:white;fill-rule:nonzero;"/>
                </g>
                <g transform="matrix(32,0,0,32,320.453,380.023)">
                    <path d="M0.191,-0.656L0.191,-0.528L0.29,-0.528L0.29,-0.458L0.191,-0.458L0.191,-0.131C0.191,-0.11 0.195,-0.094 0.204,-0.083C0.213,-0.073 0.228,-0.067 0.249,-0.067C0.259,-0.067 0.274,-0.069 0.292,-0.073L0.292,0C0.268,0.007 0.245,0.01 0.223,0.01C0.182,0.01 0.152,-0.002 0.131,-0.027C0.111,-0.051 0.101,-0.086 0.101,-0.131L0.101,-0.458L0.004,-0.458L0.004,-0.528L0.101,-0.528L0.101,-0.656L0.191,-0.656Z" style="fill:white;fill-rule:nonzero;"/>
                </g>
                <g transform="matrix(32,0,0,32,330.906,380.023)">
                    <path d="M0.159,-0.464C0.199,-0.514 0.251,-0.538 0.315,-0.538C0.427,-0.538 0.483,-0.475 0.484,-0.349L0.484,0L0.394,0L0.394,-0.35C0.393,-0.388 0.385,-0.416 0.367,-0.434C0.35,-0.452 0.324,-0.461 0.288,-0.461C0.258,-0.461 0.233,-0.454 0.21,-0.438C0.188,-0.422 0.171,-0.402 0.159,-0.376L0.159,0L0.068,0L0.068,-0.75L0.159,-0.75L0.159,-0.464Z" style="fill:white;fill-rule:nonzero;"/>
                </g>
                <g transform="matrix(32,0,0,32,348.531,380.023)">
                    <path d="M0.044,-0.269C0.044,-0.321 0.055,-0.367 0.075,-0.409C0.095,-0.45 0.124,-0.482 0.16,-0.504C0.196,-0.527 0.238,-0.538 0.284,-0.538C0.356,-0.538 0.414,-0.513 0.459,-0.463C0.503,-0.414 0.525,-0.347 0.525,-0.265L0.525,-0.258C0.525,-0.207 0.516,-0.161 0.496,-0.12C0.476,-0.079 0.448,-0.047 0.411,-0.024C0.375,-0.002 0.333,0.01 0.285,0.01C0.214,0.01 0.156,-0.015 0.111,-0.065C0.067,-0.115 0.044,-0.181 0.044,-0.263L0.044,-0.269ZM0.135,-0.258C0.135,-0.2 0.149,-0.153 0.176,-0.117C0.203,-0.082 0.24,-0.064 0.285,-0.064C0.331,-0.064 0.368,-0.082 0.395,-0.118C0.422,-0.154 0.435,-0.204 0.435,-0.269C0.435,-0.327 0.421,-0.374 0.394,-0.41C0.366,-0.446 0.33,-0.464 0.284,-0.464C0.24,-0.464 0.204,-0.446 0.176,-0.411C0.149,-0.375 0.135,-0.324 0.135,-0.258Z" style="fill:white;fill-rule:nonzero;"/>
                </g>
                <g transform="matrix(32,0,0,32,366.781,380.023)">
                    <path d="M0.046,-0.269C0.046,-0.35 0.066,-0.415 0.104,-0.464C0.142,-0.513 0.193,-0.538 0.255,-0.538C0.317,-0.538 0.366,-0.517 0.402,-0.475L0.402,-0.75L0.492,-0.75L0.492,0L0.409,0L0.405,-0.057C0.369,-0.012 0.318,0.01 0.254,0.01C0.193,0.01 0.143,-0.015 0.104,-0.065C0.066,-0.116 0.046,-0.181 0.046,-0.262L0.046,-0.269ZM0.137,-0.258C0.137,-0.198 0.149,-0.152 0.174,-0.118C0.199,-0.084 0.233,-0.067 0.276,-0.067C0.334,-0.067 0.375,-0.093 0.402,-0.144L0.402,-0.387C0.375,-0.437 0.333,-0.461 0.277,-0.461C0.233,-0.461 0.199,-0.444 0.174,-0.41C0.149,-0.376 0.137,-0.325 0.137,-0.258Z" style="fill:white;fill-rule:nonzero;"/>
                </g>
                <g transform="matrix(32,0,0,32,384.828,380.023)">
                    <path d="M0.318,-0.125L0.521,-0.711L0.624,-0.711L0.36,0L0.277,0L0.014,-0.711L0.116,-0.711L0.318,-0.125Z" style="fill:white;fill-rule:nonzero;"/>
                </g>
                <g transform="matrix(32,0,0,32,405.187,380.023)">
                    <path d="M0.167,0L0.076,0L0.076,-0.528L0.167,-0.528L0.167,0ZM0.069,-0.668C0.069,-0.683 0.073,-0.695 0.082,-0.706C0.091,-0.716 0.104,-0.721 0.122,-0.721C0.14,-0.721 0.153,-0.716 0.162,-0.706C0.171,-0.695 0.176,-0.683 0.176,-0.668C0.176,-0.654 0.171,-0.642 0.162,-0.632C0.153,-0.622 0.14,-0.617 0.122,-0.617C0.104,-0.617 0.091,-0.622 0.082,-0.632C0.073,-0.642 0.069,-0.654 0.069,-0.668Z" style="fill:white;fill-rule:nonzero;"/>
                </g>
                <g transform="matrix(32,0,0,32,412.953,380.023)">
                    <path d="M0.376,-0.14C0.376,-0.165 0.367,-0.184 0.348,-0.197C0.33,-0.211 0.298,-0.222 0.252,-0.232C0.206,-0.242 0.17,-0.253 0.143,-0.267C0.116,-0.281 0.097,-0.297 0.084,-0.316C0.071,-0.335 0.064,-0.357 0.064,-0.383C0.064,-0.427 0.083,-0.463 0.119,-0.493C0.156,-0.523 0.203,-0.538 0.26,-0.538C0.32,-0.538 0.368,-0.523 0.406,-0.492C0.443,-0.461 0.461,-0.421 0.461,-0.373L0.371,-0.373C0.371,-0.398 0.36,-0.419 0.339,-0.437C0.318,-0.455 0.292,-0.464 0.26,-0.464C0.227,-0.464 0.201,-0.457 0.183,-0.442C0.164,-0.428 0.155,-0.409 0.155,-0.386C0.155,-0.364 0.163,-0.348 0.181,-0.337C0.198,-0.326 0.229,-0.315 0.274,-0.305C0.319,-0.295 0.356,-0.283 0.384,-0.269C0.412,-0.255 0.433,-0.238 0.446,-0.219C0.46,-0.199 0.466,-0.175 0.466,-0.146C0.466,-0.099 0.447,-0.061 0.41,-0.033C0.372,-0.004 0.323,0.01 0.263,0.01C0.22,0.01 0.183,0.002 0.15,-0.013C0.118,-0.028 0.092,-0.049 0.074,-0.075C0.056,-0.102 0.046,-0.131 0.046,-0.163L0.137,-0.163C0.138,-0.132 0.15,-0.108 0.173,-0.091C0.196,-0.073 0.226,-0.064 0.263,-0.064C0.297,-0.064 0.324,-0.071 0.345,-0.085C0.366,-0.099 0.376,-0.117 0.376,-0.14Z" style="fill:white;fill-rule:nonzero;"/>
                </g>
                <g transform="matrix(32,0,0,32,429.453,380.023)">
                    <path d="M0.167,0L0.076,0L0.076,-0.528L0.167,-0.528L0.167,0ZM0.069,-0.668C0.069,-0.683 0.073,-0.695 0.082,-0.706C0.091,-0.716 0.104,-0.721 0.122,-0.721C0.14,-0.721 0.153,-0.716 0.162,-0.706C0.171,-0.695 0.176,-0.683 0.176,-0.668C0.176,-0.654 0.171,-0.642 0.162,-0.632C0.153,-0.622 0.14,-0.617 0.122,-0.617C0.104,-0.617 0.091,-0.622 0.082,-0.632C0.073,-0.642 0.069,-0.654 0.069,-0.668Z" style="fill:white;fill-rule:nonzero;"/>
                </g>
                <g transform="matrix(32,0,0,32,437.219,380.023)">
                    <path d="M0.191,-0.656L0.191,-0.528L0.29,-0.528L0.29,-0.458L0.191,-0.458L0.191,-0.131C0.191,-0.11 0.195,-0.094 0.204,-0.083C0.213,-0.073 0.228,-0.067 0.249,-0.067C0.259,-0.067 0.274,-0.069 0.292,-0.073L0.292,0C0.268,0.007 0.245,0.01 0.223,0.01C0.182,0.01 0.152,-0.002 0.131,-0.027C0.111,-0.051 0.101,-0.086 0.101,-0.131L0.101,-0.458L0.004,-0.458L0.004,-0.528L0.101,-0.528L0.101,-0.656L0.191,-0.656Z" style="fill:white;fill-rule:nonzero;"/>
                </g>
                <g transform="matrix(32,0,0,32,447.359,380.023)">
                    <path d="M0.044,-0.269C0.044,-0.321 0.055,-0.367 0.075,-0.409C0.095,-0.45 0.124,-0.482 0.16,-0.504C0.196,-0.527 0.238,-0.538 0.284,-0.538C0.356,-0.538 0.414,-0.513 0.459,-0.463C0.503,-0.414 0.525,-0.347 0.525,-0.265L0.525,-0.258C0.525,-0.207 0.516,-0.161 0.496,-0.12C0.476,-0.079 0.448,-0.047 0.411,-0.024C0.375,-0.002 0.333,0.01 0.285,0.01C0.214,0.01 0.156,-0.015 0.111,-0.065C0.067,-0.115 0.044,-0.181 0.044,-0.263L0.044,-0.269ZM0.135,-0.258C0.135,-0.2 0.149,-0.153 0.176,-0.117C0.203,-0.082 0.24,-0.064 0.285,-0.064C0.331,-0.064 0.368,-0.082 0.395,-0.118C0.422,-0.154 0.435,-0.204 0.435,-0.269C0.435,-0.327 0.421,-0.374 0.394,-0.41C0.366,-0.446 0.33,-0.464 0.284,-0.464C0.24,-0.464 0.204,-0.446 0.176,-0.411C0.149,-0.375 0.135,-0.324 0.135,-0.258Z" style="fill:white;fill-rule:nonzero;"/>
                </g>
                <g transform="matrix(32,0,0,32,465.609,380.023)">
                    <path d="M0.324,-0.447C0.31,-0.45 0.295,-0.451 0.279,-0.451C0.22,-0.451 0.18,-0.425 0.159,-0.375L0.159,0L0.068,0L0.068,-0.528L0.156,-0.528L0.158,-0.467C0.187,-0.514 0.229,-0.538 0.284,-0.538C0.301,-0.538 0.315,-0.536 0.324,-0.531L0.324,-0.447Z" style="fill:white;fill-rule:nonzero;"/>
                </g>
            </g>
        </g>
    </g>
</svg>
