<svg clip-rule="evenodd" fill-rule="evenodd" stroke-linecap="round" stroke-linejoin="round" stroke-miterlimit="1.5" viewBox="0 0 1080 560" xmlns="http://www.w3.org/2000/svg" xmlns:xlink="http://www.w3.org/1999/xlink"><clipPath id="a"><path clip-rule="evenodd" d="m332 316.75c0-18.075-9.787-32.75-21.842-32.75h-165.316c-12.055 0-21.842 14.675-21.842 32.75v65.5c0 18.075 9.787 32.75 21.842 32.75h165.316c12.055 0 21.842-14.675 21.842-32.75z"/></clipPath><clipPath id="b"><path clip-rule="evenodd" d="m332 316.75c0-18.075-9.95-32.75-22.206-32.75h-164.588c-12.256 0-22.206 14.675-22.206 32.75v65.5c0 18.075 9.95 32.75 22.206 32.75h164.588c12.256 0 22.206-14.675 22.206-32.75z"/></clipPath><path d="m332 316.75c0-18.075-9.365-32.75-20.9-32.75h-167.2c-11.535 0-20.9 14.675-20.9 32.75v65.5c0 18.075 9.365 32.75 20.9 32.75h167.2c11.535 0 20.9-14.675 20.9-32.75z" fill="#27c278" transform="matrix(.95694128389 0 0 .610687 -77.703296252 66.564592)"/><path d="m.605-.226c-.008.076-.036.134-.083.174-.046.041-.109.062-.186.062-.084 0-.151-.03-.202-.091-.051-.06-.076-.14-.076-.241v-.069c0-.066.012-.124.036-.174.023-.05.057-.089.1-.115.043-.027.093-.041.15-.041.076 0 .136.021.182.064.045.042.072.1.079.175h-.094c-.008-.057-.026-.098-.053-.123-.027-.026-.065-.039-.114-.039-.06 0-.107.023-.141.067s-.051.107-.051.189v.069c0 .077.016.138.049.184.032.045.077.068.135.068.052 0 .092-.012.12-.035.028-.024.046-.065.055-.124z" fill="#fff" fill-rule="nonzero" transform="matrix(31.9999872 0 0 31.9999988 50.554985778 291.99969805)"/><path d="m.076-.75h.09v.75h-.09z" fill="#fff" fill-rule="nonzero" transform="matrix(31.9999872 0 0 31.9999988 71.3829774468 291.99969805)"/><path d="m.395 0c-.006-.01-.01-.029-.013-.056-.042.044-.092.066-.151.066-.052 0-.094-.015-.128-.044-.033-.03-.05-.067-.05-.112 0-.055.021-.098.063-.129.042-.03.101-.045.176-.045h.088v-.042c0-.031-.009-.057-.028-.075-.019-.019-.047-.028-.083-.028-.033 0-.06.008-.081.024-.022.016-.033.036-.033.059h-.091c0-.026.009-.052.028-.076.019-.025.044-.044.076-.059.032-.014.068-.021.106-.021.061 0 .108.015.143.046.034.03.052.072.054.125v.243c0 .049.006.088.018.116v.008zm-.15-.069c.028 0 .055-.007.08-.022.026-.014.044-.034.055-.057v-.108h-.07c-.111 0-.166.032-.166.097 0 .028.009.05.028.066s.043.024.073.024z" fill="#fff" fill-rule="nonzero" transform="matrix(31.9999872 0 0 31.9999988 79.1479743408 291.99969805)"/><path d="m.376-.14c0-.025-.009-.044-.028-.057-.018-.014-.05-.025-.096-.035s-.082-.021-.109-.035-.046-.03-.059-.049-.02-.041-.02-.067c0-.044.019-.08.055-.11.037-.03.084-.045.141-.045.06 0 .108.015.146.046.037.031.055.071.055.119h-.09c0-.025-.011-.046-.032-.064s-.047-.027-.079-.027c-.033 0-.059.007-.077.022-.019.014-.028.033-.028.056 0 .022.008.038.026.049.017.011.048.022.093.032s.082.022.11.036.049.031.062.05c.014.02.02.044.02.073 0 .047-.019.085-.056.113-.038.029-.087.043-.147.043-.043 0-.08-.008-.113-.023-.032-.015-.058-.036-.076-.062-.018-.027-.028-.056-.028-.088h.091c.001.031.013.055.036.072.023.018.053.027.09.027.034 0 .061-.007.082-.021s.031-.032.031-.055z" fill="#fff" fill-rule="nonzero" transform="matrix(31.9999872 0 0 31.9999988 96.554967378 291.99969805)"/><path d="m.376-.14c0-.025-.009-.044-.028-.057-.018-.014-.05-.025-.096-.035s-.082-.021-.109-.035-.046-.03-.059-.049-.02-.041-.02-.067c0-.044.019-.08.055-.11.037-.03.084-.045.141-.045.06 0 .108.015.146.046.037.031.055.071.055.119h-.09c0-.025-.011-.046-.032-.064s-.047-.027-.079-.027c-.033 0-.059.007-.077.022-.019.014-.028.033-.028.056 0 .022.008.038.026.049.017.011.048.022.093.032s.082.022.11.036.049.031.062.05c.014.02.02.044.02.073 0 .047-.019.085-.056.113-.038.029-.087.043-.147.043-.043 0-.08-.008-.113-.023-.032-.015-.058-.036-.076-.062-.018-.027-.028-.056-.028-.088h.091c.001.031.013.055.036.072.023.018.053.027.09.027.034 0 .061-.007.082-.021s.031-.032.031-.055z" fill="#fff" fill-rule="nonzero" transform="matrix(31.9999872 0 0 31.9999988 113.054960778 291.99969805)"/><path d="m.343-.288h-.167v.288h-.094v-.711h.235c.08 0 .142.018.185.055.043.036.065.089.065.159 0 .044-.012.083-.036.116s-.057.057-.1.073l.167.302v.006h-.1zm-.167-.076h.144c.047 0 .084-.012.111-.036.028-.024.042-.057.042-.097 0-.044-.013-.078-.04-.101-.026-.024-.064-.035-.113-.036h-.144z" fill="#fff" fill-rule="nonzero" transform="matrix(31.9999872 0 0 31.9999988 129.554954178 291.99969805)"/><path d="m.288.01c-.072 0-.13-.024-.175-.071s-.068-.11-.068-.189v-.016c0-.053.01-.099.03-.14.02-.042.048-.074.084-.097s.075-.035.117-.035c.069 0 .122.023.161.068.038.045.057.11.057.194v.038h-.358c.001.052.016.094.045.126.03.032.067.048.111.048.032 0 .059-.006.082-.019.022-.014.041-.031.058-.052l.055.043c-.044.068-.111.102-.199.102zm-.012-.474c-.036 0-.067.013-.091.04-.025.026-.04.064-.046.111h.264v-.006c-.002-.046-.015-.082-.037-.107s-.052-.038-.09-.038z" fill="#fff" fill-rule="nonzero" transform="matrix(31.9999872 0 0 31.9999988 149.2579462968 291.99969805)"/><path d="m.395 0c-.006-.01-.01-.029-.013-.056-.042.044-.092.066-.151.066-.052 0-.094-.015-.128-.044-.033-.03-.05-.067-.05-.112 0-.055.021-.098.063-.129.042-.03.101-.045.176-.045h.088v-.042c0-.031-.009-.057-.028-.075-.019-.019-.047-.028-.083-.028-.033 0-.06.008-.081.024-.022.016-.033.036-.033.059h-.091c0-.026.009-.052.028-.076.019-.025.044-.044.076-.059.032-.014.068-.021.106-.021.061 0 .108.015.143.046.034.03.052.072.054.125v.243c0 .049.006.088.018.116v.008zm-.15-.069c.028 0 .055-.007.08-.022.026-.014.044-.034.055-.057v-.108h-.07c-.111 0-.166.032-.166.097 0 .028.009.05.028.066s.043.024.073.024z" fill="#fff" fill-rule="nonzero" transform="matrix(31.9999872 0 0 31.9999988 166.2109395156 291.99969805)"/><path d="m.046-.269c0-.081.02-.146.058-.195s.089-.074.151-.074.111.021.147.063v-.275h.09v.75h-.083l-.004-.057c-.036.045-.087.067-.151.067-.061 0-.111-.025-.15-.075-.038-.051-.058-.116-.058-.197zm.091.011c0 .06.012.106.037.14s.059.051.102.051c.058 0 .099-.026.126-.077v-.243c-.027-.05-.069-.074-.125-.074-.044 0-.078.017-.103.051s-.037.085-.037.152z" fill="#fff" fill-rule="nonzero" transform="matrix(31.9999872 0 0 31.9999988 183.6169325532 291.99969805)"/><path d="m.288.01c-.072 0-.13-.024-.175-.071s-.068-.11-.068-.189v-.016c0-.053.01-.099.03-.14.02-.042.048-.074.084-.097s.075-.035.117-.035c.069 0 .122.023.161.068.038.045.057.11.057.194v.038h-.358c.001.052.016.094.045.126.03.032.067.048.111.048.032 0 .059-.006.082-.019.022-.014.041-.031.058-.052l.055.043c-.044.068-.111.102-.199.102zm-.012-.474c-.036 0-.067.013-.091.04-.025.026-.04.064-.046.111h.264v-.006c-.002-.046-.015-.082-.037-.107s-.052-.038-.09-.038z" fill="#fff" fill-rule="nonzero" transform="matrix(31.9999872 0 0 31.9999988 201.6639253344 291.99969805)"/><path d="m.324-.447c-.014-.003-.029-.004-.045-.004-.059 0-.099.026-.12.076v.375h-.091v-.528h.088l.002.061c.029-.047.071-.071.126-.071.017 0 .031.002.04.007z" fill="#fff" fill-rule="nonzero" transform="matrix(31.9999872 0 0 31.9999988 218.6169185532 291.99969805)"/><path d="m129.058 314.875v-4.75h42.065v-7.125l5.877 9.5-5.877 9.5v-7.125z" fill="#2d2e44" transform="matrix(1.61652 0 0 1 31.3753 -32.5)"/><path d="m129.058 314.875v-4.75h42.065v-7.125l5.877 9.5-5.877 9.5v-7.125z" fill="#2d2e44" transform="matrix(1.61652 0 0 1 553.875 -32.5)"/><path d="m332 316.75c0-18.075-9.365-32.75-20.9-32.75h-167.2c-11.535 0-20.9 14.675-20.9 32.75v65.5c0 18.075 9.365 32.75 20.9 32.75h167.2c11.535 0 20.9-14.675 20.9-32.75z" fill="#27c278" transform="matrix(.95694128389 0 0 .610687 722.297033748 66.564592)"/><path d="m.605-.226c-.008.076-.036.134-.083.174-.046.041-.109.062-.186.062-.084 0-.151-.03-.202-.091-.051-.06-.076-.14-.076-.241v-.069c0-.066.012-.124.036-.174.023-.05.057-.089.1-.115.043-.027.093-.041.15-.041.076 0 .136.021.182.064.045.042.072.1.079.175h-.094c-.008-.057-.026-.098-.053-.123-.027-.026-.065-.039-.114-.039-.06 0-.107.023-.141.067s-.051.107-.051.189v.069c0 .077.016.138.049.184.032.045.077.068.135.068.052 0 .092-.012.12-.035.028-.024.046-.065.055-.124z" fill="#fff" fill-rule="nonzero" transform="matrix(31.9999872 0 0 31.9999988 858.055312778 291.99969805)"/><path d="m.076-.75h.09v.75h-.09z" fill="#fff" fill-rule="nonzero" transform="matrix(31.9999872 0 0 31.9999988 878.8833044468 291.99969805)"/><path d="m.395 0c-.006-.01-.01-.029-.013-.056-.042.044-.092.066-.151.066-.052 0-.094-.015-.128-.044-.033-.03-.05-.067-.05-.112 0-.055.021-.098.063-.129.042-.03.101-.045.176-.045h.088v-.042c0-.031-.009-.057-.028-.075-.019-.019-.047-.028-.083-.028-.033 0-.06.008-.081.024-.022.016-.033.036-.033.059h-.091c0-.026.009-.052.028-.076.019-.025.044-.044.076-.059.032-.014.068-.021.106-.021.061 0 .108.015.143.046.034.03.052.072.054.125v.243c0 .049.006.088.018.116v.008zm-.15-.069c.028 0 .055-.007.08-.022.026-.014.044-.034.055-.057v-.108h-.07c-.111 0-.166.032-.166.097 0 .028.009.05.028.066s.043.024.073.024z" fill="#fff" fill-rule="nonzero" transform="matrix(31.9999872 0 0 31.9999988 886.6483013408 291.99969805)"/><path d="m.376-.14c0-.025-.009-.044-.028-.057-.018-.014-.05-.025-.096-.035s-.082-.021-.109-.035-.046-.03-.059-.049-.02-.041-.02-.067c0-.044.019-.08.055-.11.037-.03.084-.045.141-.045.06 0 .108.015.146.046.037.031.055.071.055.119h-.09c0-.025-.011-.046-.032-.064s-.047-.027-.079-.027c-.033 0-.059.007-.077.022-.019.014-.028.033-.028.056 0 .022.008.038.026.049.017.011.048.022.093.032s.082.022.11.036.049.031.062.05c.014.02.02.044.02.073 0 .047-.019.085-.056.113-.038.029-.087.043-.147.043-.043 0-.08-.008-.113-.023-.032-.015-.058-.036-.076-.062-.018-.027-.028-.056-.028-.088h.091c.001.031.013.055.036.072.023.018.053.027.09.027.034 0 .061-.007.082-.021s.031-.032.031-.055z" fill="#fff" fill-rule="nonzero" transform="matrix(31.9999872 0 0 31.9999988 904.055294378 291.99969805)"/><path d="m.376-.14c0-.025-.009-.044-.028-.057-.018-.014-.05-.025-.096-.035s-.082-.021-.109-.035-.046-.03-.059-.049-.02-.041-.02-.067c0-.044.019-.08.055-.11.037-.03.084-.045.141-.045.06 0 .108.015.146.046.037.031.055.071.055.119h-.09c0-.025-.011-.046-.032-.064s-.047-.027-.079-.027c-.033 0-.059.007-.077.022-.019.014-.028.033-.028.056 0 .022.008.038.026.049.017.011.048.022.093.032s.082.022.11.036.049.031.062.05c.014.02.02.044.02.073 0 .047-.019.085-.056.113-.038.029-.087.043-.147.043-.043 0-.08-.008-.113-.023-.032-.015-.058-.036-.076-.062-.018-.027-.028-.056-.028-.088h.091c.001.031.013.055.036.072.023.018.053.027.09.027.034 0 .061-.007.082-.021s.031-.032.031-.055z" fill="#fff" fill-rule="nonzero" transform="matrix(31.9999872 0 0 31.9999988 920.555287778 291.99969805)"/><path d="m.236-.224.014.094.02-.085.14-.496h.079l.137.496.02.086.015-.096.11-.486h.095l-.173.711h-.085l-.147-.518-.011-.054-.011.054-.152.518h-.085l-.172-.711h.094z" fill="#fff" fill-rule="nonzero" transform="matrix(31.9999872 0 0 31.9999988 937.055281178 291.99969805)"/><path d="m.324-.447c-.014-.003-.029-.004-.045-.004-.059 0-.099.026-.12.076v.375h-.091v-.528h.088l.002.061c.029-.047.071-.071.126-.071.017 0 .031.002.04.007z" fill="#fff" fill-rule="nonzero" transform="matrix(31.9999872 0 0 31.9999988 965.1172699532 291.99969805)"/><path d="m.167 0h-.091v-.528h.091zm-.098-.668c0-.015.004-.027.013-.038.009-.01.022-.015.04-.015s.031.005.04.015c.009.011.014.023.014.038 0 .014-.005.026-.014.036s-.022.015-.04.015-.031-.005-.04-.015-.013-.022-.013-.036z" fill="#fff" fill-rule="nonzero" transform="matrix(31.9999872 0 0 31.9999988 975.945265622 291.99969805)"/><path d="m.191-.656v.128h.099v.07h-.099v.327c0 .021.004.037.013.048.009.01.024.016.045.016.01 0 .025-.002.043-.006v.073c-.024.007-.047.01-.069.01-.041 0-.071-.012-.092-.037-.02-.024-.03-.059-.03-.104v-.327h-.097v-.07h.097v-.128z" fill="#fff" fill-rule="nonzero" transform="matrix(31.9999872 0 0 31.9999988 983.7112625156 291.99969805)"/><path d="m.288.01c-.072 0-.13-.024-.175-.071s-.068-.11-.068-.189v-.016c0-.053.01-.099.03-.14.02-.042.048-.074.084-.097s.075-.035.117-.035c.069 0 .122.023.161.068.038.045.057.11.057.194v.038h-.358c.001.052.016.094.045.126.03.032.067.048.111.048.032 0 .059-.006.082-.019.022-.014.041-.031.058-.052l.055.043c-.044.068-.111.102-.199.102zm-.012-.474c-.036 0-.067.013-.091.04-.025.026-.04.064-.046.111h.264v-.006c-.002-.046-.015-.082-.037-.107s-.052-.038-.09-.038z" fill="#fff" fill-rule="nonzero" transform="matrix(31.9999872 0 0 31.9999988 994.1642583344 291.99969805)"/><path d="m.324-.447c-.014-.003-.029-.004-.045-.004-.059 0-.099.026-.12.076v.375h-.091v-.528h.088l.002.061c.029-.047.071-.071.126-.071.017 0 .031.002.04.007z" fill="#fff" fill-rule="nonzero" transform="matrix(31.9999872 0 0 31.9999988 1011.1172515532 291.99969805)"/><path d="m332 294.917c0-6.025-8.514-10.917-19-10.917h-171c-10.486 0-19 4.892-19 10.917v109.166c0 6.025 8.514 10.917 19 10.917h171c10.486 0 19-4.892 19-10.917z" fill="#fff" stroke="#27c278" stroke-width="1.34" transform="matrix(2.1052678389 0 0 3.664125 61.05333748 -1000.6115)"/><path d="m.615-.231c-.007.075-.035.135-.084.177-.049.043-.114.064-.195.064-.057 0-.107-.014-.15-.041-.043-.026-.076-.065-.1-.114-.023-.049-.035-.107-.036-.172v-.067c0-.067.012-.126.035-.177.024-.051.058-.091.103-.118.044-.028.096-.042.154-.042.078 0 .141.022.189.064.048.043.076.103.084.181h-.123c-.006-.051-.021-.088-.045-.111-.024-.022-.059-.034-.105-.034-.054 0-.095.02-.124.059s-.044.097-.044.173v.063c0 .077.014.135.041.176.028.04.068.06.121.06.048 0 .085-.011.109-.033.025-.021.04-.058.047-.108z" fill="#2d2e44" fill-rule="nonzero" transform="matrix(31.9999684848 0 0 32.0000406336 453.69521499688 105.1430830762)"/><path d="m.068-.75h.119v.75h-.119z" fill="#2d2e44" fill-rule="nonzero" transform="matrix(31.9999684848 0 0 32.0000406336 474.58619442238 105.1430830762)"/><path d="m.376 0c-.005-.01-.009-.027-.013-.049-.038.039-.084.059-.139.059-.053 0-.096-.015-.13-.046-.033-.03-.05-.067-.05-.112 0-.056.021-.099.063-.13.042-.03.101-.045.179-.045h.073v-.034c0-.028-.008-.05-.023-.066-.015-.017-.039-.025-.07-.025-.027 0-.049.007-.066.021-.018.013-.026.03-.026.051h-.119c0-.029.01-.056.029-.081.019-.026.045-.045.078-.06.033-.014.07-.021.111-.021.062 0 .111.015.148.047.037.031.056.074.057.131v.238c0 .047.006.085.02.114v.008zm-.13-.085c.024 0 .046-.006.066-.018.021-.011.036-.026.047-.045v-.1h-.064c-.044 0-.077.008-.099.023s-.033.037-.033.065c0 .023.007.041.022.054.015.014.036.021.061.021z" fill="#2d2e44" fill-rule="nonzero" transform="matrix(31.9999684848 0 0 32.0000406336 482.75818637418 105.1430830762)"/><path d="m.357-.144c0-.021-.009-.037-.026-.048-.018-.011-.046-.021-.087-.029-.04-.009-.074-.019-.101-.032-.059-.029-.089-.071-.089-.125 0-.046.019-.084.058-.114.038-.031.087-.046.146-.046.063 0 .114.016.153.047s.059.072.059.121h-.119c0-.022-.008-.041-.025-.057-.017-.015-.04-.022-.068-.022-.026 0-.047.006-.063.018-.017.012-.025.028-.025.048 0 .018.008.033.023.043s.046.02.093.03c.046.01.083.023.109.037.027.014.046.031.059.051s.02.044.02.072c0 .048-.02.086-.059.116-.04.029-.091.044-.155.044-.044 0-.082-.008-.116-.024-.034-.015-.06-.037-.079-.064s-.028-.057-.028-.089h.115c.001.028.012.05.032.065.019.015.045.023.077.023.031 0 .055-.006.072-.018.016-.012.024-.027.024-.047z" fill="#2d2e44" fill-rule="nonzero" transform="matrix(31.9999684848 0 0 32.0000406336 500.07016932446 105.1430830762)"/><path d="m.357-.144c0-.021-.009-.037-.026-.048-.018-.011-.046-.021-.087-.029-.04-.009-.074-.019-.101-.032-.059-.029-.089-.071-.089-.125 0-.046.019-.084.058-.114.038-.031.087-.046.146-.046.063 0 .114.016.153.047s.059.072.059.121h-.119c0-.022-.008-.041-.025-.057-.017-.015-.04-.022-.068-.022-.026 0-.047.006-.063.018-.017.012-.025.028-.025.048 0 .018.008.033.023.043s.046.02.093.03c.046.01.083.023.109.037.027.014.046.031.059.051s.02.044.02.072c0 .048-.02.086-.059.116-.04.029-.091.044-.155.044-.044 0-.082-.008-.116-.024-.034-.015-.06-.037-.079-.064s-.028-.057-.028-.089h.115c.001.028.012.05.032.065.019.015.045.023.077.023.031 0 .055-.006.072-.018.016-.012.024-.027.024-.047z" fill="#2d2e44" fill-rule="nonzero" transform="matrix(31.9999684848 0 0 32.0000406336 516.58615305868 105.1430830762)"/><path d="m.323-.155.18-.556h.136l-.256.711h-.119l-.255-.711h.135z" fill="#2d2e44" fill-rule="nonzero" transform="matrix(31.9999684848 0 0 32.0000406336 533.1021367929 105.1430830762)"/><path d="m.187 0h-.119v-.528h.119zm-.126-.666c0-.018.006-.033.017-.045.012-.012.028-.018.05-.018.021 0 .038.006.05.018.011.012.017.027.017.045s-.006.033-.017.045c-.012.012-.029.018-.05.018-.022 0-.038-.006-.05-.018-.011-.012-.017-.027-.017-.045z" fill="#2d2e44" fill-rule="nonzero" transform="matrix(31.9999684848 0 0 32.0000406336 553.80511640355 105.1430830762)"/><path d="m.357-.144c0-.021-.009-.037-.026-.048-.018-.011-.046-.021-.087-.029-.04-.009-.074-.019-.101-.032-.059-.029-.089-.071-.089-.125 0-.046.019-.084.058-.114.038-.031.087-.046.146-.046.063 0 .114.016.153.047s.059.072.059.121h-.119c0-.022-.008-.041-.025-.057-.017-.015-.04-.022-.068-.022-.026 0-.047.006-.063.018-.017.012-.025.028-.025.048 0 .018.008.033.023.043s.046.02.093.03c.046.01.083.023.109.037.027.014.046.031.059.051s.02.044.02.072c0 .048-.02.086-.059.116-.04.029-.091.044-.155.044-.044 0-.082-.008-.116-.024-.034-.015-.06-.037-.079-.064s-.028-.057-.028-.089h.115c.001.028.012.05.032.065.019.015.045.023.077.023.031 0 .055-.006.072-.018.016-.012.024-.027.024-.047z" fill="#2d2e44" fill-rule="nonzero" transform="matrix(31.9999684848 0 0 32.0000406336 561.97710835535 105.1430830762)"/><path d="m.187 0h-.119v-.528h.119zm-.126-.666c0-.018.006-.033.017-.045.012-.012.028-.018.05-.018.021 0 .038.006.05.018.011.012.017.027.017.045s-.006.033-.017.045c-.012.012-.029.018-.05.018-.022 0-.038-.006-.05-.018-.011-.012-.017-.027-.017-.045z" fill="#2d2e44" fill-rule="nonzero" transform="matrix(31.9999684848 0 0 32.0000406336 578.49209209055 105.1430830762)"/><path d="m.209-.657v.129h.094v.088h-.094v.294c0 .021.004.035.012.044s.023.014.043.014c.014 0 .028-.002.042-.005v.092c-.027.007-.053.011-.078.011-.092 0-.137-.051-.137-.151v-.299h-.087v-.088h.087v-.129z" fill="#2d2e44" fill-rule="nonzero" transform="matrix(31.9999684848 0 0 32.0000406336 586.66408404236 105.1430830762)"/><path d="m.039-.269c0-.052.01-.098.03-.14.021-.041.05-.073.087-.096.037-.022.08-.033.128-.033.071 0 .129.023.173.069.045.046.069.107.072.182l.001.028c0 .052-.01.099-.03.14s-.049.073-.086.095c-.037.023-.081.034-.129.034-.075 0-.135-.025-.179-.075-.045-.049-.067-.116-.067-.198zm.118.01c0 .055.011.097.034.128.022.031.054.046.094.046s.071-.016.093-.047.034-.077.034-.137c0-.053-.012-.096-.035-.127s-.054-.047-.093-.047-.07.016-.093.046c-.022.031-.034.077-.034.138z" fill="#2d2e44" fill-rule="nonzero" transform="matrix(31.9999684848 0 0 32.0000406336 596.83607402447 105.1430830762)"/><path d="m.337-.42c-.015-.003-.031-.004-.048-.004-.054 0-.091.021-.11.063v.361h-.118v-.528h.113l.003.059c.028-.046.068-.069.119-.069.017 0 .031.002.042.007z" fill="#2d2e44" fill-rule="nonzero" transform="matrix(31.9999684848 0 0 32.0000406336 615.05505608148 105.1430830762)"/><g transform="matrix(1.91388004493 0 0 1.27644042972 104.59399144103 -224.14756198576)"><path d="m332 316.75c0-18.075-9.787-32.75-21.842-32.75h-165.316c-12.055 0-21.842 14.675-21.842 32.75v65.5c0 18.075 9.787 32.75 21.842 32.75h165.316c12.055 0 21.842-14.675 21.842-32.75z" fill="#27c278"/><g clip-path="url(#a)"><path d="m332 348.967c0-35.856-10.406-64.967-23.222-64.967h-162.556c-12.816 0-23.222 29.111-23.222 64.967v1.066c0 35.856 10.406 64.967 23.222 64.967h162.556c12.816 0 23.222-29.111 23.222-64.967z" fill="#fff" stroke="#27c278" stroke-width="3.09" transform="matrix(.9000036375 0 0 .4823525 22.750015 198.25609)"/><g fill="#2d2e44" fill-rule="nonzero"><path d="m.47-.166h-.275l-.058.166h-.128l.268-.711h.111l.269.711h-.129zm-.241-.099h.207l-.103-.295z" transform="matrix(16.72000836 0 0 25.06973481152 162.09771642881 376.2388201335)"/><path d="m.171-.528.003.061c.039-.047.091-.071.154-.071.11 0 .166.063.168.189v.349h-.119v-.342c0-.034-.007-.059-.021-.075-.015-.016-.038-.024-.071-.024-.048 0-.084.022-.107.065v.376h-.119v-.528z" transform="matrix(16.72000836 0 0 25.06973481152 172.83352929672 376.2388201335)"/><path d="m.171-.528.003.061c.039-.047.091-.071.154-.071.11 0 .166.063.168.189v.349h-.119v-.342c0-.034-.007-.059-.021-.075-.015-.016-.038-.024-.071-.024-.048 0-.084.022-.107.065v.376h-.119v-.528z" transform="matrix(16.72000836 0 0 25.06973481152 182.13246644619 376.2388201335)"/><path d="m.039-.269c0-.052.01-.098.03-.14.021-.041.05-.073.087-.096.037-.022.08-.033.128-.033.071 0 .129.023.173.069.045.046.069.107.072.182l.001.028c0 .052-.01.099-.03.14s-.049.073-.086.095c-.037.023-.081.034-.129.034-.075 0-.135-.025-.179-.075-.045-.049-.067-.116-.067-.198zm.118.01c0 .055.011.097.034.128.022.031.054.046.094.046s.071-.016.093-.047.034-.077.034-.137c0-.053-.012-.096-.035-.127s-.054-.047-.093-.047-.07.016-.093.046c-.022.031-.034.077-.034.138z" transform="matrix(16.72000836 0 0 25.06973481152 191.43140359565 376.2388201335)"/><path d="m.209-.657v.129h.094v.088h-.094v.294c0 .021.004.035.012.044s.023.014.043.014c.014 0 .028-.002.042-.005v.092c-.027.007-.053.011-.078.011-.092 0-.137-.051-.137-.151v-.299h-.087v-.088h.087v-.129z" transform="matrix(16.72000836 0 0 25.06973481152 200.9503133551 376.2388201335)"/><path d="m.376 0c-.005-.01-.009-.027-.013-.049-.038.039-.084.059-.139.059-.053 0-.096-.015-.13-.046-.033-.03-.05-.067-.05-.112 0-.056.021-.099.063-.13.042-.03.101-.045.179-.045h.073v-.034c0-.028-.008-.05-.023-.066-.015-.017-.039-.025-.07-.025-.027 0-.049.007-.066.021-.018.013-.026.03-.026.051h-.119c0-.029.01-.056.029-.081.019-.026.045-.045.078-.06.033-.014.07-.021.111-.021.062 0 .111.015.148.047.037.031.056.074.057.131v.238c0 .047.006.085.02.114v.008zm-.13-.085c.024 0 .046-.006.066-.018.021-.011.036-.026.047-.045v-.1h-.064c-.044 0-.077.008-.099.023s-.033.037-.033.065c0 .023.007.041.022.054.015.014.036.021.061.021z" transform="matrix(16.72000836 0 0 25.06973481152 206.51023863506 376.2388201335)"/><path d="m.209-.657v.129h.094v.088h-.094v.294c0 .021.004.035.012.044s.023.014.043.014c.014 0 .028-.002.042-.005v.092c-.027.007-.053.011-.078.011-.092 0-.137-.051-.137-.151v-.299h-.087v-.088h.087v-.129z" transform="matrix(16.72000836 0 0 25.06973481152 215.55628565809 376.2388201335)"/><path d="m.187 0h-.119v-.528h.119zm-.126-.666c0-.018.006-.033.017-.045.012-.012.028-.018.05-.018.021 0 .038.006.05.018.011.012.017.027.017.045s-.006.033-.017.045c-.012.012-.029.018-.05.018-.022 0-.038-.006-.05-.018-.011-.012-.017-.027-.017-.045z" transform="matrix(16.72000836 0 0 25.06973481152 221.11568843779 376.2388201335)"/><path d="m.039-.269c0-.052.01-.098.03-.14.021-.041.05-.073.087-.096.037-.022.08-.033.128-.033.071 0 .129.023.173.069.045.046.069.107.072.182l.001.028c0 .052-.01.099-.03.14s-.049.073-.086.095c-.037.023-.081.034-.129.034-.075 0-.135-.025-.179-.075-.045-.049-.067-.116-.067-.198zm.118.01c0 .055.011.097.034.128.022.031.054.046.094.046s.071-.016.093-.047.034-.077.034-.137c0-.053-.012-.096-.035-.127s-.054-.047-.093-.047-.07.016-.093.046c-.022.031-.034.077-.034.138z" transform="matrix(16.72000836 0 0 25.06973481152 225.38556057272 376.2388201335)"/><path d="m.171-.528.003.061c.039-.047.091-.071.154-.071.11 0 .166.063.168.189v.349h-.119v-.342c0-.034-.007-.059-.021-.075-.015-.016-.038-.024-.071-.024-.048 0-.084.022-.107.065v.376h-.119v-.528z" transform="matrix(16.72000836 0 0 25.06973481152 234.90499283243 376.2388201335)"/><path d="m.323-.155.18-.556h.136l-.256.711h-.119l-.255-.711h.135z" transform="matrix(16.72000836 0 0 25.06973481152 244.2039299819 376.2388201335)"/><path d="m.187 0h-.119v-.528h.119zm-.126-.666c0-.018.006-.033.017-.045.012-.012.028-.018.05-.018.021 0 .038.006.05.018.011.012.017.027.017.045s-.006.033-.017.045c-.012.012-.029.018-.05.018-.022 0-.038-.006-.05-.018-.011-.012-.017-.027-.017-.045z" transform="matrix(16.72000836 0 0 25.06973481152 255.02125289056 376.2388201335)"/><path d="m.357-.144c0-.021-.009-.037-.026-.048-.018-.011-.046-.021-.087-.029-.04-.009-.074-.019-.101-.032-.059-.029-.089-.071-.089-.125 0-.046.019-.084.058-.114.038-.031.087-.046.146-.046.063 0 .114.016.153.047s.059.072.059.121h-.119c0-.022-.008-.041-.025-.057-.017-.015-.04-.022-.068-.022-.026 0-.047.006-.063.018-.017.012-.025.028-.025.048 0 .018.008.033.023.043s.046.02.093.03c.046.01.083.023.109.037.027.014.046.031.059.051s.02.044.02.072c0 .048-.02.086-.059.116-.04.029-.091.044-.155.044-.044 0-.082-.008-.116-.024-.034-.015-.06-.037-.079-.064s-.028-.057-.028-.089h.115c.001.028.012.05.032.065.019.015.045.023.077.023.031 0 .055-.006.072-.018.016-.012.024-.027.024-.047z" transform="matrix(16.72000836 0 0 25.06973481152 259.29112502549 376.2388201335)"/><path d="m.187 0h-.119v-.528h.119zm-.126-.666c0-.018.006-.033.017-.045.012-.012.028-.018.05-.018.021 0 .038.006.05.018.011.012.017.027.017.045s-.006.033-.017.045c-.012.012-.029.018-.05.018-.022 0-.038-.006-.05-.018-.011-.012-.017-.027-.017-.045z" transform="matrix(16.72000836 0 0 25.06973481152 267.92021684004 376.2388201335)"/><path d="m.209-.657v.129h.094v.088h-.094v.294c0 .021.004.035.012.044s.023.014.043.014c.014 0 .028-.002.042-.005v.092c-.027.007-.053.011-.078.011-.092 0-.137-.051-.137-.151v-.299h-.087v-.088h.087v-.129z" transform="matrix(16.72000836 0 0 25.06973481152 272.19008897497 376.2388201335)"/><path d="m.039-.269c0-.052.01-.098.03-.14.021-.041.05-.073.087-.096.037-.022.08-.033.128-.033.071 0 .129.023.173.069.045.046.069.107.072.182l.001.028c0 .052-.01.099-.03.14s-.049.073-.086.095c-.037.023-.081.034-.129.034-.075 0-.135-.025-.179-.075-.045-.049-.067-.116-.067-.198zm.118.01c0 .055.011.097.034.128.022.031.054.046.094.046s.071-.016.093-.047.034-.077.034-.137c0-.053-.012-.096-.035-.127s-.054-.047-.093-.047-.07.016-.093.046c-.022.031-.034.077-.034.138z" transform="matrix(16.72000836 0 0 25.06973481152 277.50496163241 376.2388201335)"/><path d="m.337-.42c-.015-.003-.031-.004-.048-.004-.054 0-.091.021-.11.063v.361h-.118v-.528h.113l.003.059c.028-.046.068-.069.119-.069.017 0 .031.002.042.007z" transform="matrix(16.72000836 0 0 25.06973481152 287.02439389212 376.2388201335)"/></g></g></g><path d="m.475-.314h-.299v.314h-.093v-.711h.44v.077h-.347v.243h.299z" fill="#fff" fill-rule="nonzero" transform="matrix(31.99994501818 0 0 32.00008561334 460.0860473066 181.85952054115)"/><path d="m.167 0h-.091v-.528h.091zm-.098-.668c0-.015.004-.027.013-.038.009-.01.022-.015.04-.015s.031.005.04.015c.009.011.014.023.014.038 0 .014-.005.026-.014.036s-.022.015-.04.015-.031-.005-.04-.015-.013-.022-.013-.036z" fill="#fff" fill-rule="nonzero" transform="matrix(31.99994501818 0 0 32.00008561334 477.77301691711 181.85952054115)"/><path d="m.288.01c-.072 0-.13-.024-.175-.071s-.068-.11-.068-.189v-.016c0-.053.01-.099.03-.14.02-.042.048-.074.084-.097s.075-.035.117-.035c.069 0 .122.023.161.068.038.045.057.11.057.194v.038h-.358c.001.052.016.094.045.126.03.032.067.048.111.048.032 0 .059-.006.082-.019.022-.014.041-.031.058-.052l.055.043c-.044.068-.111.102-.199.102zm-.012-.474c-.036 0-.067.013-.091.04-.025.026-.04.064-.046.111h.264v-.006c-.002-.046-.015-.082-.037-.107s-.052-.038-.09-.038z" fill="#fff" fill-rule="nonzero" transform="matrix(31.99994501818 0 0 32.00008561334 485.53900357371 181.85952054115)"/><path d="m.076-.75h.09v.75h-.09z" fill="#fff" fill-rule="nonzero" transform="matrix(31.99994501818 0 0 32.00008561334 502.49197444537 181.85952054115)"/><path d="m.046-.269c0-.081.02-.146.058-.195s.089-.074.151-.074.111.021.147.063v-.275h.09v.75h-.083l-.004-.057c-.036.045-.087.067-.151.067-.061 0-.111-.025-.15-.075-.038-.051-.058-.116-.058-.197zm.091.011c0 .06.012.106.037.14s.059.051.102.051c.058 0 .099-.026.126-.077v-.243c-.027-.05-.069-.074-.125-.074-.044 0-.078.017-.103.051s-.037.085-.037.152z" fill="#fff" fill-rule="nonzero" transform="matrix(31.99994501818 0 0 32.00008561334 510.25796110197 181.85952054115)"/><path d="m.318-.125.203-.586h.103l-.264.711h-.083l-.263-.711h.102z" fill="#fff" fill-rule="nonzero" transform="matrix(31.99994501818 0 0 32.00008561334 528.30493009394 181.85952054115)"/><path d="m.167 0h-.091v-.528h.091zm-.098-.668c0-.015.004-.027.013-.038.009-.01.022-.015.04-.015s.031.005.04.015c.009.011.014.023.014.038 0 .014-.005.026-.014.036s-.022.015-.04.015-.031-.005-.04-.015-.013-.022-.013-.036z" fill="#fff" fill-rule="nonzero" transform="matrix(31.99994501818 0 0 32.00008561334 548.66389511347 181.85952054115)"/><path d="m.376-.14c0-.025-.009-.044-.028-.057-.018-.014-.05-.025-.096-.035s-.082-.021-.109-.035-.046-.03-.059-.049-.02-.041-.02-.067c0-.044.019-.08.055-.11.037-.03.084-.045.141-.045.06 0 .108.015.146.046.037.031.055.071.055.119h-.09c0-.025-.011-.046-.032-.064s-.047-.027-.079-.027c-.033 0-.059.007-.077.022-.019.014-.028.033-.028.056 0 .022.008.038.026.049.017.011.048.022.093.032s.082.022.11.036.049.031.062.05c.014.02.02.044.02.073 0 .047-.019.085-.056.113-.038.029-.087.043-.147.043-.043 0-.08-.008-.113-.023-.032-.015-.058-.036-.076-.062-.018-.027-.028-.056-.028-.088h.091c.001.031.013.055.036.072.023.018.053.027.09.027.034 0 .061-.007.082-.021s.031-.032.031-.055z" fill="#fff" fill-rule="nonzero" transform="matrix(31.99994501818 0 0 32.00008561334 556.42988177007 181.85952054115)"/><path d="m.167 0h-.091v-.528h.091zm-.098-.668c0-.015.004-.027.013-.038.009-.01.022-.015.04-.015s.031.005.04.015c.009.011.014.023.014.038 0 .014-.005.026-.014.036s-.022.015-.04.015-.031-.005-.04-.015-.013-.022-.013-.036z" fill="#fff" fill-rule="nonzero" transform="matrix(31.99994501818 0 0 32.00008561334 572.92985342007 181.85952054115)"/><path d="m.191-.656v.128h.099v.07h-.099v.327c0 .021.004.037.013.048.009.01.024.016.045.016.01 0 .025-.002.043-.006v.073c-.024.007-.047.01-.069.01-.041 0-.071-.012-.092-.037-.02-.024-.03-.059-.03-.104v-.327h-.097v-.07h.097v-.128z" fill="#fff" fill-rule="nonzero" transform="matrix(31.99994501818 0 0 32.00008561334 580.69484007838 181.85952054115)"/><path d="m.044-.269c0-.052.011-.098.031-.14.02-.041.049-.073.085-.095.036-.023.078-.034.124-.034.072 0 .13.025.175.075.044.049.066.116.066.198v.007c0 .051-.009.097-.029.138s-.048.073-.085.096c-.036.022-.078.034-.126.034-.071 0-.129-.025-.174-.075-.044-.05-.067-.116-.067-.198zm.091.011c0 .058.014.105.041.141.027.035.064.053.109.053.046 0 .083-.018.11-.054s.04-.086.04-.151c0-.058-.014-.105-.041-.141-.028-.036-.064-.054-.11-.054-.044 0-.08.018-.108.053-.027.036-.041.087-.041.153z" fill="#fff" fill-rule="nonzero" transform="matrix(31.99994501818 0 0 32.00008561334 590.8358226543 181.85952054115)"/><path d="m.324-.447c-.014-.003-.029-.004-.045-.004-.059 0-.099.026-.12.076v.375h-.091v-.528h.088l.002.061c.029-.047.071-.071.126-.071.017 0 .031.002.04.007z" fill="#fff" fill-rule="nonzero" transform="matrix(31.99994501818 0 0 32.00008561334 609.08579129748 181.85952054115)"/><g transform="matrix(1.91388004493 0 0 1.29771331762 104.59399144103 -38.55003382372)"><path d="m332 316.75c0-18.075-9.95-32.75-22.206-32.75h-164.588c-12.256 0-22.206 14.675-22.206 32.75v65.5c0 18.075 9.95 32.75 22.206 32.75h164.588c12.256 0 22.206-14.675 22.206-32.75z" fill="#27c278"/><g clip-path="url(#b)"><path d="m332 347.902c0-35.268-10.406-63.902-23.222-63.902h-162.556c-12.816 0-23.222 28.634-23.222 63.902v3.196c0 35.268 10.406 63.902 23.222 63.902h162.556c12.816 0 23.222-28.634 23.222-63.902z" fill="#fff" stroke="#27c278" stroke-width="3.09" transform="matrix(.9000036375 0 0 .4823525 22.750015 198.25609)"/><g fill="#2d2e44" fill-rule="nonzero"><path d="m.47-.166h-.275l-.058.166h-.128l.268-.711h.111l.269.711h-.129zm-.241-.099h.207l-.103-.295z" transform="matrix(16.72000836 0 0 24.6587859168 162.09771642881 376.0850054691)"/><path d="m.171-.528.003.061c.039-.047.091-.071.154-.071.11 0 .166.063.168.189v.349h-.119v-.342c0-.034-.007-.059-.021-.075-.015-.016-.038-.024-.071-.024-.048 0-.084.022-.107.065v.376h-.119v-.528z" transform="matrix(16.72000836 0 0 24.6587859168 172.83352929672 376.0850054691)"/><path d="m.171-.528.003.061c.039-.047.091-.071.154-.071.11 0 .166.063.168.189v.349h-.119v-.342c0-.034-.007-.059-.021-.075-.015-.016-.038-.024-.071-.024-.048 0-.084.022-.107.065v.376h-.119v-.528z" transform="matrix(16.72000836 0 0 24.6587859168 182.13246644619 376.0850054691)"/><path d="m.039-.269c0-.052.01-.098.03-.14.021-.041.05-.073.087-.096.037-.022.08-.033.128-.033.071 0 .129.023.173.069.045.046.069.107.072.182l.001.028c0 .052-.01.099-.03.14s-.049.073-.086.095c-.037.023-.081.034-.129.034-.075 0-.135-.025-.179-.075-.045-.049-.067-.116-.067-.198zm.118.01c0 .055.011.097.034.128.022.031.054.046.094.046s.071-.016.093-.047.034-.077.034-.137c0-.053-.012-.096-.035-.127s-.054-.047-.093-.047-.07.016-.093.046c-.022.031-.034.077-.034.138z" transform="matrix(16.72000836 0 0 24.6587859168 191.43140359565 376.0850054691)"/><path d="m.209-.657v.129h.094v.088h-.094v.294c0 .021.004.035.012.044s.023.014.043.014c.014 0 .028-.002.042-.005v.092c-.027.007-.053.011-.078.011-.092 0-.137-.051-.137-.151v-.299h-.087v-.088h.087v-.129z" transform="matrix(16.72000836 0 0 24.6587859168 200.9503133551 376.0850054691)"/><path d="m.376 0c-.005-.01-.009-.027-.013-.049-.038.039-.084.059-.139.059-.053 0-.096-.015-.13-.046-.033-.03-.05-.067-.05-.112 0-.056.021-.099.063-.13.042-.03.101-.045.179-.045h.073v-.034c0-.028-.008-.05-.023-.066-.015-.017-.039-.025-.07-.025-.027 0-.049.007-.066.021-.018.013-.026.03-.026.051h-.119c0-.029.01-.056.029-.081.019-.026.045-.045.078-.06.033-.014.07-.021.111-.021.062 0 .111.015.148.047.037.031.056.074.057.131v.238c0 .047.006.085.02.114v.008zm-.13-.085c.024 0 .046-.006.066-.018.021-.011.036-.026.047-.045v-.1h-.064c-.044 0-.077.008-.099.023s-.033.037-.033.065c0 .023.007.041.022.054.015.014.036.021.061.021z" transform="matrix(16.72000836 0 0 24.6587859168 206.51023863506 376.0850054691)"/><path d="m.209-.657v.129h.094v.088h-.094v.294c0 .021.004.035.012.044s.023.014.043.014c.014 0 .028-.002.042-.005v.092c-.027.007-.053.011-.078.011-.092 0-.137-.051-.137-.151v-.299h-.087v-.088h.087v-.129z" transform="matrix(16.72000836 0 0 24.6587859168 215.55628565809 376.0850054691)"/><path d="m.187 0h-.119v-.528h.119zm-.126-.666c0-.018.006-.033.017-.045.012-.012.028-.018.05-.018.021 0 .038.006.05.018.011.012.017.027.017.045s-.006.033-.017.045c-.012.012-.029.018-.05.018-.022 0-.038-.006-.05-.018-.011-.012-.017-.027-.017-.045z" transform="matrix(16.72000836 0 0 24.6587859168 221.11568843779 376.0850054691)"/><path d="m.039-.269c0-.052.01-.098.03-.14.021-.041.05-.073.087-.096.037-.022.08-.033.128-.033.071 0 .129.023.173.069.045.046.069.107.072.182l.001.028c0 .052-.01.099-.03.14s-.049.073-.086.095c-.037.023-.081.034-.129.034-.075 0-.135-.025-.179-.075-.045-.049-.067-.116-.067-.198zm.118.01c0 .055.011.097.034.128.022.031.054.046.094.046s.071-.016.093-.047.034-.077.034-.137c0-.053-.012-.096-.035-.127s-.054-.047-.093-.047-.07.016-.093.046c-.022.031-.034.077-.034.138z" transform="matrix(16.72000836 0 0 24.6587859168 225.38556057272 376.0850054691)"/><path d="m.171-.528.003.061c.039-.047.091-.071.154-.071.11 0 .166.063.168.189v.349h-.119v-.342c0-.034-.007-.059-.021-.075-.015-.016-.038-.024-.071-.024-.048 0-.084.022-.107.065v.376h-.119v-.528z" transform="matrix(16.72000836 0 0 24.6587859168 234.90499283243 376.0850054691)"/><path d="m.323-.155.18-.556h.136l-.256.711h-.119l-.255-.711h.135z" transform="matrix(16.72000836 0 0 24.6587859168 244.2039299819 376.0850054691)"/><path d="m.187 0h-.119v-.528h.119zm-.126-.666c0-.018.006-.033.017-.045.012-.012.028-.018.05-.018.021 0 .038.006.05.018.011.012.017.027.017.045s-.006.033-.017.045c-.012.012-.029.018-.05.018-.022 0-.038-.006-.05-.018-.011-.012-.017-.027-.017-.045z" transform="matrix(16.72000836 0 0 24.6587859168 255.02125289056 376.0850054691)"/><path d="m.357-.144c0-.021-.009-.037-.026-.048-.018-.011-.046-.021-.087-.029-.04-.009-.074-.019-.101-.032-.059-.029-.089-.071-.089-.125 0-.046.019-.084.058-.114.038-.031.087-.046.146-.046.063 0 .114.016.153.047s.059.072.059.121h-.119c0-.022-.008-.041-.025-.057-.017-.015-.04-.022-.068-.022-.026 0-.047.006-.063.018-.017.012-.025.028-.025.048 0 .018.008.033.023.043s.046.02.093.03c.046.01.083.023.109.037.027.014.046.031.059.051s.02.044.02.072c0 .048-.02.086-.059.116-.04.029-.091.044-.155.044-.044 0-.082-.008-.116-.024-.034-.015-.06-.037-.079-.064s-.028-.057-.028-.089h.115c.001.028.012.05.032.065.019.015.045.023.077.023.031 0 .055-.006.072-.018.016-.012.024-.027.024-.047z" transform="matrix(16.72000836 0 0 24.6587859168 259.29112502549 376.0850054691)"/><path d="m.187 0h-.119v-.528h.119zm-.126-.666c0-.018.006-.033.017-.045.012-.012.028-.018.05-.018.021 0 .038.006.05.018.011.012.017.027.017.045s-.006.033-.017.045c-.012.012-.029.018-.05.018-.022 0-.038-.006-.05-.018-.011-.012-.017-.027-.017-.045z" transform="matrix(16.72000836 0 0 24.6587859168 267.92021684004 376.0850054691)"/><path d="m.209-.657v.129h.094v.088h-.094v.294c0 .021.004.035.012.044s.023.014.043.014c.014 0 .028-.002.042-.005v.092c-.027.007-.053.011-.078.011-.092 0-.137-.051-.137-.151v-.299h-.087v-.088h.087v-.129z" transform="matrix(16.72000836 0 0 24.6587859168 272.19008897497 376.0850054691)"/><path d="m.039-.269c0-.052.01-.098.03-.14.021-.041.05-.073.087-.096.037-.022.08-.033.128-.033.071 0 .129.023.173.069.045.046.069.107.072.182l.001.028c0 .052-.01.099-.03.14s-.049.073-.086.095c-.037.023-.081.034-.129.034-.075 0-.135-.025-.179-.075-.045-.049-.067-.116-.067-.198zm.118.01c0 .055.011.097.034.128.022.031.054.046.094.046s.071-.016.093-.047.034-.077.034-.137c0-.053-.012-.096-.035-.127s-.054-.047-.093-.047-.07.016-.093.046c-.022.031-.034.077-.034.138z" transform="matrix(16.72000836 0 0 24.6587859168 277.50496163241 376.0850054691)"/><path d="m.337-.42c-.015-.003-.031-.004-.048-.004-.054 0-.091.021-.11.063v.361h-.118v-.528h.113l.003.059c.028-.046.068-.069.119-.069.017 0 .031.002.042.007z" transform="matrix(16.72000836 0 0 24.6587859168 287.02439389212 376.0850054691)"/></g></g></g><g fill="#fff"><path d="m.204-.711.232.58.232-.58h.122v.711h-.094v-.277l.009-.299-.233.576h-.072l-.233-.574.009.297v.277h-.093v-.711z" fill-rule="nonzero" transform="matrix(31.99994501818 0 0 31.99990349566 439.56208257056 374.02179559237)"/><path d="m.288.01c-.072 0-.13-.024-.175-.071s-.068-.11-.068-.189v-.016c0-.053.01-.099.03-.14.02-.042.048-.074.084-.097s.075-.035.117-.035c.069 0 .122.023.161.068.038.045.057.11.057.194v.038h-.358c.001.052.016.094.045.126.03.032.067.048.111.048.032 0 .059-.006.082-.019.022-.014.041-.031.058-.052l.055.043c-.044.068-.111.102-.199.102zm-.012-.474c-.036 0-.067.013-.091.04-.025.026-.04.064-.046.111h.264v-.006c-.002-.046-.015-.082-.037-.107s-.052-.038-.09-.038z" fill-rule="nonzero" transform="matrix(31.99994501818 0 0 31.99990349566 467.500034568 374.02179559237)"/><path d="m.191-.656v.128h.099v.07h-.099v.327c0 .021.004.037.013.048.009.01.024.016.045.016.01 0 .025-.002.043-.006v.073c-.024.007-.047.01-.069.01-.041 0-.071-.012-.092-.037-.02-.024-.03-.059-.03-.104v-.327h-.097v-.07h.097v-.128z" fill-rule="nonzero" transform="matrix(31.99994501818 0 0 31.99990349566 484.45300543966 374.02179559237)"/><path d="m.159-.464c.04-.05.092-.074.156-.074.112 0 .168.063.169.189v.349h-.09v-.35c-.001-.038-.009-.066-.027-.084-.017-.018-.043-.027-.079-.027-.03 0-.055.007-.078.023-.022.016-.039.036-.051.062v.376h-.091v-.75h.091z" fill-rule="nonzero" transform="matrix(31.99994501818 0 0 31.99990349566 494.9059874795 374.02179559237)"/><path d="m.044-.269c0-.052.011-.098.031-.14.02-.041.049-.073.085-.095.036-.023.078-.034.124-.034.072 0 .13.025.175.075.044.049.066.116.066.198v.007c0 .051-.009.097-.029.138s-.048.073-.085.096c-.036.022-.078.034-.126.034-.071 0-.129-.025-.174-.075-.044-.05-.067-.116-.067-.198zm.091.011c0 .058.014.105.041.141.027.035.064.053.109.053.046 0 .083-.018.11-.054s.04-.086.04-.151c0-.058-.014-.105-.041-.141-.028-.036-.064-.054-.11-.054-.044 0-.08.018-.108.053-.027.036-.041.087-.041.153z" fill-rule="nonzero" transform="matrix(31.99994501818 0 0 31.99990349566 512.53095719654 374.02179559237)"/><path d="m.046-.269c0-.081.02-.146.058-.195s.089-.074.151-.074.111.021.147.063v-.275h.09v.75h-.083l-.004-.057c-.036.045-.087.067-.151.067-.061 0-.111-.025-.15-.075-.038-.051-.058-.116-.058-.197zm.091.011c0 .06.012.106.037.14s.059.051.102.051c.058 0 .099-.026.126-.077v-.243c-.027-.05-.069-.074-.125-.074-.044 0-.078.017-.103.051s-.037.085-.037.152z" fill-rule="nonzero" transform="matrix(31.99994501818 0 0 31.99990349566 530.78092583972 374.02179559237)"/><path d="m.318-.125.203-.586h.103l-.264.711h-.083l-.263-.711h.102z" fill-rule="nonzero" transform="matrix(31.99994501818 0 0 31.99990349566 548.82789483169 374.02179559237)"/><path d="m.167 0h-.091v-.528h.091zm-.098-.668c0-.015.004-.027.013-.038.009-.01.022-.015.04-.015s.031.005.04.015c.009.011.014.023.014.038 0 .014-.005.026-.014.036s-.022.015-.04.015-.031-.005-.04-.015-.013-.022-.013-.036z" fill-rule="nonzero" transform="matrix(31.99994501818 0 0 31.99990349566 569.18685985122 374.02179559237)"/><path d="m.376-.14c0-.025-.009-.044-.028-.057-.018-.014-.05-.025-.096-.035s-.082-.021-.109-.035-.046-.03-.059-.049-.02-.041-.02-.067c0-.044.019-.08.055-.11.037-.03.084-.045.141-.045.06 0 .108.015.146.046.037.031.055.071.055.119h-.09c0-.025-.011-.046-.032-.064s-.047-.027-.079-.027c-.033 0-.059.007-.077.022-.019.014-.028.033-.028.056 0 .022.008.038.026.049.017.011.048.022.093.032s.082.022.11.036.049.031.062.05c.014.02.02.044.02.073 0 .047-.019.085-.056.113-.038.029-.087.043-.147.043-.043 0-.08-.008-.113-.023-.032-.015-.058-.036-.076-.062-.018-.027-.028-.056-.028-.088h.091c.001.031.013.055.036.072.023.018.053.027.09.027.034 0 .061-.007.082-.021s.031-.032.031-.055z" fill-rule="nonzero" transform="matrix(31.99994501818 0 0 31.99990349566 576.95284650782 374.02179559237)"/><path d="m.167 0h-.091v-.528h.091zm-.098-.668c0-.015.004-.027.013-.038.009-.01.022-.015.04-.015s.031.005.04.015c.009.011.014.023.014.038 0 .014-.005.026-.014.036s-.022.015-.04.015-.031-.005-.04-.015-.013-.022-.013-.036z" fill-rule="nonzero" transform="matrix(31.99994501818 0 0 31.99990349566 593.45281815782 374.02179559237)"/><path d="m.191-.656v.128h.099v.07h-.099v.327c0 .021.004.037.013.048.009.01.024.016.045.016.01 0 .025-.002.043-.006v.073c-.024.007-.047.01-.069.01-.041 0-.071-.012-.092-.037-.02-.024-.03-.059-.03-.104v-.327h-.097v-.07h.097v-.128z" fill-rule="nonzero" transform="matrix(31.99994501818 0 0 31.99990349566 601.21880481442 374.02179559237)"/><path d="m.044-.269c0-.052.011-.098.031-.14.02-.041.049-.073.085-.095.036-.023.078-.034.124-.034.072 0 .13.025.175.075.044.049.066.116.066.198v.007c0 .051-.009.097-.029.138s-.048.073-.085.096c-.036.022-.078.034-.126.034-.071 0-.129-.025-.174-.075-.044-.05-.067-.116-.067-.198zm.091.011c0 .058.014.105.041.141.027.035.064.053.109.053.046 0 .083-.018.11-.054s.04-.086.04-.151c0-.058-.014-.105-.041-.141-.028-.036-.064-.054-.11-.054-.044 0-.08.018-.108.053-.027.036-.041.087-.041.153z" fill-rule="nonzero" transform="matrix(31.99994501818 0 0 31.99990349566 611.35878739205 374.02179559237)"/><path d="m.324-.447c-.014-.003-.029-.004-.045-.004-.059 0-.099.026-.12.076v.375h-.091v-.528h.088l.002.061c.029-.047.071-.071.126-.071.017 0 .031.002.04.007z" fill-rule="nonzero" transform="matrix(31.99994501818 0 0 31.99990349566 629.60875603523 374.02179559237)"/></g></svg>