<svg clip-rule="evenodd" fill-rule="evenodd" stroke-linecap="round" stroke-linejoin="round" stroke-miterlimit="1.5" viewBox="0 0 1000 520" xmlns="http://www.w3.org/2000/svg"><path d="m332 304.96c0-11.568-13.379-20.96-29.857-20.96h-149.286c-16.478 0-29.857 9.392-29.857 20.96v89.08c0 11.568 13.379 20.96 29.857 20.96h149.286c16.478 0 29.857-9.392 29.857-20.96z" fill="#fff" stroke="#27c278" stroke-width="2.43" transform="matrix(1.3397221611 0 0 1.9083904144 -124.78500748 -410.98348288)"/><g fill="#2d2e44"><path d="m.47-.166h-.275l-.058.166h-.128l.268-.711h.111l.269.711h-.129zm-.241-.099h.207l-.103-.295z" fill-rule="nonzero" transform="matrix(32.00009676192 0 0 31.99990797824 99.09450468959 178.9992088992)"/><path d="m.523-.259c0 .082-.018.147-.055.196-.037.048-.087.073-.15.073-.058 0-.104-.019-.139-.057v.25h-.118v-.731h.109l.005.053c.035-.042.082-.063.142-.063.064 0 .115.024.152.072.036.048.054.115.054.2zm-.118-.01c0-.053-.01-.095-.031-.126-.021-.03-.051-.046-.09-.046-.049 0-.084.02-.105.06v.235c.022.041.057.061.106.061.037 0 .067-.015.088-.046.022-.03.032-.076.032-.138z" fill-rule="nonzero" transform="matrix(32.00009676192 0 0 31.99990797824 119.64156681981 178.9992088992)"/><path d="m.523-.259c0 .082-.018.147-.055.196-.037.048-.087.073-.15.073-.058 0-.104-.019-.139-.057v.25h-.118v-.731h.109l.005.053c.035-.042.082-.063.142-.063.064 0 .115.024.152.072.036.048.054.115.054.2zm-.118-.01c0-.053-.01-.095-.031-.126-.021-.03-.051-.046-.09-.046-.049 0-.084.02-.105.06v.235c.022.041.057.061.106.061.037 0 .067-.015.088-.046.022-.03.032-.076.032-.138z" fill-rule="nonzero" transform="matrix(32.00009676192 0 0 31.99990797824 137.65662129375 178.9992088992)"/><path d="m.068-.75h.119v.75h-.119z" fill-rule="nonzero" transform="matrix(32.00009676192 0 0 31.99990797824 155.67267577071 178.9992088992)"/><path d="m.187 0h-.119v-.528h.119zm-.126-.666c0-.018.006-.033.017-.045.012-.012.028-.018.05-.018.021 0 .038.006.05.018.011.012.017.027.017.045s-.006.033-.017.045c-.012.012-.029.018-.05.018-.022 0-.038-.006-.05-.018-.011-.012-.017-.027-.017-.045z" fill-rule="nonzero" transform="matrix(32.00009676192 0 0 31.99990797824 163.84470048129 178.9992088992)"/><path d="m.278-.085c.029 0 .054-.009.074-.026.019-.017.03-.038.031-.064h.112c-.002.033-.012.064-.031.092-.019.029-.045.051-.078.068-.033.016-.069.025-.107.025-.074 0-.132-.024-.175-.072-.044-.048-.065-.114-.065-.198v-.012c0-.081.021-.145.064-.194.043-.048.102-.072.176-.072.063 0 .114.018.153.055.04.036.061.085.063.144h-.112c-.001-.03-.012-.055-.031-.075-.02-.019-.044-.029-.074-.029-.039 0-.068.014-.089.042s-.031.07-.032.127v.019c0 .057.011.1.031.128.021.028.051.042.09.042z" fill-rule="nonzero" transform="matrix(32.00009676192 0 0 31.99990797824 172.01672519186 178.9992088992)"/><path d="m.376 0c-.005-.01-.009-.027-.013-.049-.038.039-.084.059-.139.059-.053 0-.096-.015-.13-.046-.033-.03-.05-.067-.05-.112 0-.056.021-.099.063-.13.042-.03.101-.045.179-.045h.073v-.034c0-.028-.008-.05-.023-.066-.015-.017-.039-.025-.07-.025-.027 0-.049.007-.066.021-.018.013-.026.03-.026.051h-.119c0-.029.01-.056.029-.081.019-.026.045-.045.078-.06.033-.014.07-.021.111-.021.062 0 .111.015.148.047.037.031.056.074.057.131v.238c0 .047.006.085.02.114v.008zm-.13-.085c.024 0 .046-.006.066-.018.021-.011.036-.026.047-.045v-.1h-.064c-.044 0-.077.008-.099.023s-.033.037-.033.065c0 .023.007.041.022.054.015.014.036.021.061.021z" fill-rule="nonzero" transform="matrix(32.00009676192 0 0 31.99990797824 188.76677584068 178.9992088992)"/><path d="m.209-.657v.129h.094v.088h-.094v.294c0 .021.004.035.012.044s.023.014.043.014c.014 0 .028-.002.042-.005v.092c-.027.007-.053.011-.078.011-.092 0-.137-.051-.137-.151v-.299h-.087v-.088h.087v-.129z" fill-rule="nonzero" transform="matrix(32.00009676192 0 0 31.99990797824 206.07882818888 178.9992088992)"/><path d="m.187 0h-.119v-.528h.119zm-.126-.666c0-.018.006-.033.017-.045.012-.012.028-.018.05-.018.021 0 .038.006.05.018.011.012.017.027.017.045s-.006.033-.017.045c-.012.012-.029.018-.05.018-.022 0-.038-.006-.05-.018-.011-.012-.017-.027-.017-.045z" fill-rule="nonzero" transform="matrix(32.00009676192 0 0 31.99990797824 216.71986036524 178.9992088992)"/><path d="m.039-.269c0-.052.01-.098.03-.14.021-.041.05-.073.087-.096.037-.022.08-.033.128-.033.071 0 .129.023.173.069.045.046.069.107.072.182l.001.028c0 .052-.01.099-.03.14s-.049.073-.086.095c-.037.023-.081.034-.129.034-.075 0-.135-.025-.179-.075-.045-.049-.067-.116-.067-.198zm.118.01c0 .055.011.097.034.128.022.031.054.046.094.046s.071-.016.093-.047.034-.077.034-.137c0-.053-.012-.096-.035-.127s-.054-.047-.093-.047-.07.016-.093.046c-.022.031-.034.077-.034.138z" fill-rule="nonzero" transform="matrix(32.00009676192 0 0 31.99990797824 224.89188507581 178.9992088992)"/><path d="m.171-.528.003.061c.039-.047.091-.071.154-.071.11 0 .166.063.168.189v.349h-.119v-.342c0-.034-.007-.059-.021-.075-.015-.016-.038-.024-.071-.024-.048 0-.084.022-.107.065v.376h-.119v-.528z" fill-rule="nonzero" transform="matrix(32.00009676192 0 0 31.99990797824 243.10994016359 178.9992088992)"/><path d="m.232-.711.206.545.204-.545h.16v.711h-.123v-.234l.012-.314-.21.548h-.088l-.21-.547.012.313v.234h-.123v-.711z" fill-rule="nonzero" transform="matrix(32.00009676192 0 0 31.99990797824 126.2895869221 210.99911687744)"/><path d="m.039-.269c0-.052.01-.098.03-.14.021-.041.05-.073.087-.096.037-.022.08-.033.128-.033.071 0 .129.023.173.069.045.046.069.107.072.182l.001.028c0 .052-.01.099-.03.14s-.049.073-.086.095c-.037.023-.081.034-.129.034-.075 0-.135-.025-.179-.075-.045-.049-.067-.116-.067-.198zm.118.01c0 .055.011.097.034.128.022.031.054.046.094.046s.071-.016.093-.047.034-.077.034-.137c0-.053-.012-.096-.035-.127s-.054-.047-.093-.047-.07.016-.093.046c-.022.031-.034.077-.034.138z" fill-rule="nonzero" transform="matrix(32.00009676192 0 0 31.99990797824 154.30567163716 210.99911687744)"/><path d="m.039-.268c0-.081.018-.147.056-.196s.089-.074.152-.074c.056 0 .101.019.136.059v-.271h.118v.75h-.107l-.006-.055c-.035.043-.083.065-.142.065-.062 0-.112-.025-.15-.075s-.057-.117-.057-.203zm.118.01c0 .054.011.096.031.126.021.03.05.045.088.045.049 0 .084-.022.107-.065v-.225c-.022-.043-.057-.064-.106-.064-.038 0-.068.015-.089.046-.02.03-.031.076-.031.137z" fill-rule="nonzero" transform="matrix(32.00009676192 0 0 31.99990797824 172.52372672493 210.99911687744)"/><path d="m.381-.052c-.035.041-.084.062-.149.062-.057 0-.1-.017-.13-.051-.029-.033-.044-.082-.044-.145v-.342h.119v.34c0 .068.028.101.083.101.058 0 .097-.021.117-.062v-.379h.119v.528h-.112z" fill-rule="nonzero" transform="matrix(32.00009676192 0 0 31.99990797824 190.58678134401 210.99911687744)"/><path d="m.068-.75h.119v.75h-.119z" fill-rule="nonzero" transform="matrix(32.00009676192 0 0 31.99990797824 208.36783511038 210.99911687744)"/><path d="m.293.01c-.075 0-.136-.024-.182-.071-.047-.048-.07-.111-.07-.189v-.015c0-.053.01-.1.03-.141.02-.042.049-.074.086-.097.037-.024.078-.035.123-.035.072 0 .127.023.167.069.039.046.058.111.058.195v.047h-.345c.004.044.018.079.044.104.025.025.058.038.096.038.055 0 .099-.022.133-.066l.064.061c-.021.032-.049.056-.085.074-.035.017-.075.026-.119.026zm-.014-.453c-.032 0-.059.012-.079.034-.02.023-.032.055-.038.096h.226v-.009c-.002-.04-.013-.07-.032-.09-.018-.021-.044-.031-.077-.031z" fill-rule="nonzero" transform="matrix(32.00009676192 0 0 31.99990797824 216.53985982095 210.99911687744)"/></g><path d="m332 303.104c0-10.544-7.449-19.104-16.625-19.104h-175.75c-9.176 0-16.625 8.56-16.625 19.104v92.792c0 10.544 7.449 19.104 16.625 19.104h175.75c9.176 0 16.625-8.56 16.625-19.104z" fill="#27c278" transform="matrix(1.05263845809 0 0 .9160308615 -59.47380379576 -24.15309043)"/><path d="m.475-.314h-.299v.314h-.093v-.711h.44v.077h-.347v.243h.299z" fill="#fff" fill-rule="nonzero" transform="matrix(32.00010645891 0 0 31.999955856 126.35251985537 291.999126756)"/><path d="m.288.01c-.072 0-.13-.024-.175-.071s-.068-.11-.068-.189v-.016c0-.053.01-.099.03-.14.02-.042.048-.074.084-.097s.075-.035.117-.035c.069 0 .122.023.161.068.038.045.057.11.057.194v.038h-.358c.001.052.016.094.045.126.03.032.067.048.111.048.032 0 .059-.006.082-.019.022-.014.041-.031.058-.052l.055.043c-.044.068-.111.102-.199.102zm-.012-.474c-.036 0-.067.013-.091.04-.025.026-.04.064-.046.111h.264v-.006c-.002-.046-.015-.082-.037-.107s-.052-.038-.09-.038z" fill="#fff" fill-rule="nonzero" transform="matrix(32.00010645891 0 0 31.999955856 143.711577606 291.999126756)"/><path d="m.395 0c-.006-.01-.01-.029-.013-.056-.042.044-.092.066-.151.066-.052 0-.094-.015-.128-.044-.033-.03-.05-.067-.05-.112 0-.055.021-.098.063-.129.042-.03.101-.045.176-.045h.088v-.042c0-.031-.009-.057-.028-.075-.019-.019-.047-.028-.083-.028-.033 0-.06.008-.081.024-.022.016-.033.036-.033.059h-.091c0-.026.009-.052.028-.076.019-.025.044-.044.076-.059.032-.014.068-.021.106-.021.061 0 .108.015.143.046.034.03.052.072.054.125v.243c0 .049.006.088.018.116v.008zm-.15-.069c.028 0 .055-.007.08-.022.026-.014.044-.034.055-.057v-.108h-.07c-.111 0-.166.032-.166.097 0 .028.009.05.028.066s.043.024.073.024z" fill="#fff" fill-rule="nonzero" transform="matrix(32.00010645891 0 0 31.999955856 160.66463400593 291.999126756)"/><path d="m.191-.656v.128h.099v.07h-.099v.327c0 .021.004.037.013.048.009.01.024.016.045.016.01 0 .025-.002.043-.006v.073c-.024.007-.047.01-.069.01-.041 0-.071-.012-.092-.037-.02-.024-.03-.059-.03-.104v-.327h-.097v-.07h.097v-.128z" fill="#fff" fill-rule="nonzero" transform="matrix(32.00010645891 0 0 31.999955856 178.07069191292 291.999126756)"/><path d="m.395-.052c-.036.041-.087.062-.155.062-.057 0-.099-.017-.129-.049-.029-.033-.044-.081-.045-.146v-.343h.091v.341c0 .08.032.12.097.12.069 0 .115-.026.138-.077v-.384h.09v.528h-.086z" fill="#fff" fill-rule="nonzero" transform="matrix(32.00010645891 0 0 31.999955856 188.52372668839 291.999126756)"/><path d="m.324-.447c-.014-.003-.029-.004-.045-.004-.059 0-.099.026-.12.076v.375h-.091v-.528h.088l.002.061c.029-.047.071-.071.126-.071.017 0 .031.002.04.007z" fill="#fff" fill-rule="nonzero" transform="matrix(32.00010645891 0 0 31.999955856 206.16478537719 291.999126756)"/><path d="m.288.01c-.072 0-.13-.024-.175-.071s-.068-.11-.068-.189v-.016c0-.053.01-.099.03-.14.02-.042.048-.074.084-.097s.075-.035.117-.035c.069 0 .122.023.161.068.038.045.057.11.057.194v.038h-.358c.001.052.016.094.045.126.03.032.067.048.111.048.032 0 .059-.006.082-.019.022-.014.041-.031.058-.052l.055.043c-.044.068-.111.102-.199.102zm-.012-.474c-.036 0-.067.013-.091.04-.025.026-.04.064-.046.111h.264v-.006c-.002-.046-.015-.082-.037-.107s-.052-.038-.09-.038z" fill="#fff" fill-rule="nonzero" transform="matrix(32.00010645891 0 0 31.999955856 216.69582041215 291.999126756)"/><path d="m.204-.711.232.58.232-.58h.122v.711h-.094v-.277l.009-.299-.233.576h-.072l-.233-.574.009.297v.277h-.093v-.711z" fill="#fff" fill-rule="nonzero" transform="matrix(32.00010645891 0 0 31.999955856 116.93048850987 323.999082612)"/><path d="m.395 0c-.006-.01-.01-.029-.013-.056-.042.044-.092.066-.151.066-.052 0-.094-.015-.128-.044-.033-.03-.05-.067-.05-.112 0-.055.021-.098.063-.129.042-.03.101-.045.176-.045h.088v-.042c0-.031-.009-.057-.028-.075-.019-.019-.047-.028-.083-.028-.033 0-.06.008-.081.024-.022.016-.033.036-.033.059h-.091c0-.026.009-.052.028-.076.019-.025.044-.044.076-.059.032-.014.068-.021.106-.021.061 0 .108.015.143.046.034.03.052.072.054.125v.243c0 .049.006.088.018.116v.008zm-.15-.069c.028 0 .055-.007.08-.022.026-.014.044-.034.055-.057v-.108h-.07c-.111 0-.166.032-.166.097 0 .028.009.05.028.066s.043.024.073.024z" fill="#fff" fill-rule="nonzero" transform="matrix(32.00010645891 0 0 31.999955856 144.86758145183 323.999082612)"/><path d="m.154-.528.003.066c.04-.051.093-.076.158-.076.112 0 .168.063.169.189v.349h-.09v-.35c-.001-.038-.009-.066-.027-.084-.017-.018-.043-.027-.079-.027-.03 0-.055.007-.078.023-.022.016-.039.036-.051.062v.376h-.091v-.528z" fill="#fff" fill-rule="nonzero" transform="matrix(32.00010645891 0 0 31.999955856 162.27363935882 323.999082612)"/><path d="m.395 0c-.006-.01-.01-.029-.013-.056-.042.044-.092.066-.151.066-.052 0-.094-.015-.128-.044-.033-.03-.05-.067-.05-.112 0-.055.021-.098.063-.129.042-.03.101-.045.176-.045h.088v-.042c0-.031-.009-.057-.028-.075-.019-.019-.047-.028-.083-.028-.033 0-.06.008-.081.024-.022.016-.033.036-.033.059h-.091c0-.026.009-.052.028-.076.019-.025.044-.044.076-.059.032-.014.068-.021.106-.021.061 0 .108.015.143.046.034.03.052.072.054.125v.243c0 .049.006.088.018.116v.008zm-.15-.069c.028 0 .055-.007.08-.022.026-.014.044-.034.055-.057v-.108h-.07c-.111 0-.166.032-.166.097 0 .028.009.05.028.066s.043.024.073.024z" fill="#fff" fill-rule="nonzero" transform="matrix(32.00010645891 0 0 31.999955856 179.93069810085 323.999082612)"/><path d="m.047-.269c0-.082.019-.147.057-.196s.089-.073.151-.073c.065 0 .115.023.151.068l.005-.058h.082v.515c0 .069-.02.123-.061.162-.04.039-.095.059-.163.059-.038 0-.075-.008-.112-.024-.036-.017-.064-.039-.083-.067l.047-.054c.038.047.086.071.142.071.044 0 .078-.012.102-.037.025-.025.037-.059.037-.104v-.046c-.036.042-.085.063-.148.063-.061 0-.112-.025-.15-.075s-.057-.118-.057-.204zm.091.011c0 .059.012.106.036.14.025.034.059.051.103.051.057 0 .099-.026.125-.078v-.241c-.027-.05-.069-.075-.124-.075-.044 0-.078.017-.103.051s-.037.085-.037.152z" fill="#fff" fill-rule="nonzero" transform="matrix(32.00010645891 0 0 31.999955856 197.33675600784 323.999082612)"/><path d="m.288.01c-.072 0-.13-.024-.175-.071s-.068-.11-.068-.189v-.016c0-.053.01-.099.03-.14.02-.042.048-.074.084-.097s.075-.035.117-.035c.069 0 .122.023.161.068.038.045.057.11.057.194v.038h-.358c.001.052.016.094.045.126.03.032.067.048.111.048.032 0 .059-.006.082-.019.022-.014.041-.031.058-.052l.055.043c-.044.068-.111.102-.199.102zm-.012-.474c-.036 0-.067.013-.091.04-.025.026-.04.064-.046.111h.264v-.006c-.002-.046-.015-.082-.037-.107s-.052-.038-.09-.038z" fill="#fff" fill-rule="nonzero" transform="matrix(32.00010645891 0 0 31.999955856 215.28981573461 323.999082612)"/><path d="m.324-.447c-.014-.003-.029-.004-.045-.004-.059 0-.099.026-.12.076v.375h-.091v-.528h.088l.002.061c.029-.047.071-.071.126-.071.017 0 .031.002.04.007z" fill="#fff" fill-rule="nonzero" transform="matrix(32.00010645891 0 0 31.999955856 232.24287213455 323.999082612)"/><path d="m332 310.2c0-14.46-13.379-26.2-29.857-26.2h-149.286c-16.478 0-29.857 11.74-29.857 26.2v78.6c0 14.46 13.379 26.2 29.857 26.2h149.286c16.478 0 29.857-11.74 29.857-26.2z" fill="#fff" stroke="#27c278" stroke-width="2.79" transform="matrix(1.3397221611 0 0 1.52671404144 195.21466252 -393.58612432)"/><path d="m.482-.301h-.286v.301h-.124v-.711h.452v.1h-.328v.211h.286z" fill="#2d2e44" fill-rule="nonzero" transform="matrix(32.00009676192 0 0 31.99990797824 436.76622812636 87.9996088992)"/><path d="m.293.01c-.075 0-.136-.024-.182-.071-.047-.048-.07-.111-.07-.189v-.015c0-.053.01-.1.03-.141.02-.042.049-.074.086-.097.037-.024.078-.035.123-.035.072 0 .127.023.167.069.039.046.058.111.058.195v.047h-.345c.004.044.018.079.044.104.025.025.058.038.096.038.055 0 .099-.022.133-.066l.064.061c-.021.032-.049.056-.085.074-.035.017-.075.026-.119.026zm-.014-.453c-.032 0-.059.012-.079.034-.02.023-.032.055-.038.096h.226v-.009c-.002-.04-.013-.07-.032-.09-.018-.021-.044-.031-.077-.031z" fill="#2d2e44" fill-rule="nonzero" transform="matrix(32.00009676192 0 0 31.99990797824 454.01628028708 87.9996088992)"/><path d="m.376 0c-.005-.01-.009-.027-.013-.049-.038.039-.084.059-.139.059-.053 0-.096-.015-.13-.046-.033-.03-.05-.067-.05-.112 0-.056.021-.099.063-.13.042-.03.101-.045.179-.045h.073v-.034c0-.028-.008-.05-.023-.066-.015-.017-.039-.025-.07-.025-.027 0-.049.007-.066.021-.018.013-.026.03-.026.051h-.119c0-.029.01-.056.029-.081.019-.026.045-.045.078-.06.033-.014.07-.021.111-.021.062 0 .111.015.148.047.037.031.056.074.057.131v.238c0 .047.006.085.02.114v.008zm-.13-.085c.024 0 .046-.006.066-.018.021-.011.036-.026.047-.045v-.1h-.064c-.044 0-.077.008-.099.023s-.033.037-.033.065c0 .023.007.041.022.054.015.014.036.021.061.021z" fill="#2d2e44" fill-rule="nonzero" transform="matrix(32.00009676192 0 0 31.99990797824 471.18833221195 87.9996088992)"/><path d="m.209-.657v.129h.094v.088h-.094v.294c0 .021.004.035.012.044s.023.014.043.014c.014 0 .028-.002.042-.005v.092c-.027.007-.053.011-.078.011-.092 0-.137-.051-.137-.151v-.299h-.087v-.088h.087v-.129z" fill="#2d2e44" fill-rule="nonzero" transform="matrix(32.00009676192 0 0 31.99990797824 488.50038456015 87.9996088992)"/><path d="m.381-.052c-.035.041-.084.062-.149.062-.057 0-.1-.017-.13-.051-.029-.033-.044-.082-.044-.145v-.342h.119v.34c0 .068.028.101.083.101.058 0 .097-.021.117-.062v-.379h.119v.528h-.112z" fill="#2d2e44" fill-rule="nonzero" transform="matrix(32.00009676192 0 0 31.99990797824 499.14141673651 87.9996088992)"/><path d="m.337-.42c-.015-.003-.031-.004-.048-.004-.054 0-.091.021-.11.063v.361h-.118v-.528h.113l.003.059c.028-.046.068-.069.119-.069.017 0 .031.002.042.007z" fill="#2d2e44" fill-rule="nonzero" transform="matrix(32.00009676192 0 0 31.99990797824 516.92247050287 87.9996088992)"/><path d="m.293.01c-.075 0-.136-.024-.182-.071-.047-.048-.07-.111-.07-.189v-.015c0-.053.01-.1.03-.141.02-.042.049-.074.086-.097.037-.024.078-.035.123-.035.072 0 .127.023.167.069.039.046.058.111.058.195v.047h-.345c.004.044.018.079.044.104.025.025.058.038.096.038.055 0 .099-.022.133-.066l.064.061c-.021.032-.049.056-.085.074-.035.017-.075.026-.119.026zm-.014-.453c-.032 0-.059.012-.079.034-.02.023-.032.055-.038.096h.226v-.009c-.002-.04-.013-.07-.032-.09-.018-.021-.044-.031-.077-.031z" fill="#2d2e44" fill-rule="nonzero" transform="matrix(32.00009676192 0 0 31.99990797824 527.87550362266 87.9996088992)"/><path d="m.375 0h-.119v-.571l-.174.06v-.1l.277-.102h.016z" fill="#2d2e44" fill-rule="nonzero" transform="matrix(32.00009676192 0 0 31.99990797824 545.04755554753 87.9996088992)"/><path d="m.232-.711.206.545.204-.545h.16v.711h-.123v-.234l.012-.314-.21.548h-.088l-.21-.547.012.313v.234h-.123v-.711z" fill="#2d2e44" fill-rule="nonzero" transform="matrix(32.00009676192 0 0 31.99990797824 446.2892569221 119.99951687744)"/><path d="m.039-.269c0-.052.01-.098.03-.14.021-.041.05-.073.087-.096.037-.022.08-.033.128-.033.071 0 .129.023.173.069.045.046.069.107.072.182l.001.028c0 .052-.01.099-.03.14s-.049.073-.086.095c-.037.023-.081.034-.129.034-.075 0-.135-.025-.179-.075-.045-.049-.067-.116-.067-.198zm.118.01c0 .055.011.097.034.128.022.031.054.046.094.046s.071-.016.093-.047.034-.077.034-.137c0-.053-.012-.096-.035-.127s-.054-.047-.093-.047-.07.016-.093.046c-.022.031-.034.077-.034.138z" fill="#2d2e44" fill-rule="nonzero" transform="matrix(32.00009676192 0 0 31.99990797824 474.30534163716 119.99951687744)"/><path d="m.039-.268c0-.081.018-.147.056-.196s.089-.074.152-.074c.056 0 .101.019.136.059v-.271h.118v.75h-.107l-.006-.055c-.035.043-.083.065-.142.065-.062 0-.112-.025-.15-.075s-.057-.117-.057-.203zm.118.01c0 .054.011.096.031.126.021.03.05.045.088.045.049 0 .084-.022.107-.065v-.225c-.022-.043-.057-.064-.106-.064-.038 0-.068.015-.089.046-.02.03-.031.076-.031.137z" fill="#2d2e44" fill-rule="nonzero" transform="matrix(32.00009676192 0 0 31.99990797824 492.52339672493 119.99951687744)"/><path d="m.381-.052c-.035.041-.084.062-.149.062-.057 0-.1-.017-.13-.051-.029-.033-.044-.082-.044-.145v-.342h.119v.34c0 .068.028.101.083.101.058 0 .097-.021.117-.062v-.379h.119v.528h-.112z" fill="#2d2e44" fill-rule="nonzero" transform="matrix(32.00009676192 0 0 31.99990797824 510.58645134401 119.99951687744)"/><path d="m.068-.75h.119v.75h-.119z" fill="#2d2e44" fill-rule="nonzero" transform="matrix(32.00009676192 0 0 31.99990797824 528.36750511038 119.99951687744)"/><path d="m.293.01c-.075 0-.136-.024-.182-.071-.047-.048-.07-.111-.07-.189v-.015c0-.053.01-.1.03-.141.02-.042.049-.074.086-.097.037-.024.078-.035.123-.035.072 0 .127.023.167.069.039.046.058.111.058.195v.047h-.345c.004.044.018.079.044.104.025.025.058.038.096.038.055 0 .099-.022.133-.066l.064.061c-.021.032-.049.056-.085.074-.035.017-.075.026-.119.026zm-.014-.453c-.032 0-.059.012-.079.034-.02.023-.032.055-.038.096h.226v-.009c-.002-.04-.013-.07-.032-.09-.018-.021-.044-.031-.077-.031z" fill="#2d2e44" fill-rule="nonzero" transform="matrix(32.00009676192 0 0 31.99990797824 536.53952982095 119.99951687744)"/><path d="m332 316.75c0-18.075-7.449-32.75-16.625-32.75h-175.75c-9.176 0-16.625 14.675-16.625 32.75v65.5c0 18.075 7.449 32.75 16.625 32.75h175.75c9.176 0 16.625-14.675 16.625-32.75z" fill="#27c278" transform="matrix(1.05263845809 0 0 .53435 260.52586620424 -6.75605248)"/><path d="m.475-.314h-.299v.314h-.093v-.711h.44v.077h-.347v.243h.299z" fill="#fff" fill-rule="nonzero" transform="matrix(32.00010645891 0 0 31.999955856 437.3671599637 191.9995391715)"/><path d="m.288.01c-.072 0-.13-.024-.175-.071s-.068-.11-.068-.189v-.016c0-.053.01-.099.03-.14.02-.042.048-.074.084-.097s.075-.035.117-.035c.069 0 .122.023.161.068.038.045.057.11.057.194v.038h-.358c.001.052.016.094.045.126.03.032.067.048.111.048.032 0 .059-.006.082-.019.022-.014.041-.031.058-.052l.055.043c-.044.068-.111.102-.199.102zm-.012-.474c-.036 0-.067.013-.091.04-.025.026-.04.064-.046.111h.264v-.006c-.002-.046-.015-.082-.037-.107s-.052-.038-.09-.038z" fill="#fff" fill-rule="nonzero" transform="matrix(32.00010645891 0 0 31.999955856 454.72721771766 191.9995391715)"/><path d="m.395 0c-.006-.01-.01-.029-.013-.056-.042.044-.092.066-.151.066-.052 0-.094-.015-.128-.044-.033-.03-.05-.067-.05-.112 0-.055.021-.098.063-.129.042-.03.101-.045.176-.045h.088v-.042c0-.031-.009-.057-.028-.075-.019-.019-.047-.028-.083-.028-.033 0-.06.008-.081.024-.022.016-.033.036-.033.059h-.091c0-.026.009-.052.028-.076.019-.025.044-.044.076-.059.032-.014.068-.021.106-.021.061 0 .108.015.143.046.034.03.052.072.054.125v.243c0 .049.006.088.018.116v.008zm-.15-.069c.028 0 .055-.007.08-.022.026-.014.044-.034.055-.057v-.108h-.07c-.111 0-.166.032-.166.097 0 .028.009.05.028.066s.043.024.073.024z" fill="#fff" fill-rule="nonzero" transform="matrix(32.00010645891 0 0 31.999955856 471.68027411759 191.9995391715)"/><path d="m.191-.656v.128h.099v.07h-.099v.327c0 .021.004.037.013.048.009.01.024.016.045.016.01 0 .025-.002.043-.006v.073c-.024.007-.047.01-.069.01-.041 0-.071-.012-.092-.037-.02-.024-.03-.059-.03-.104v-.327h-.097v-.07h.097v-.128z" fill="#fff" fill-rule="nonzero" transform="matrix(32.00010645891 0 0 31.999955856 489.08633202459 191.9995391715)"/><path d="m.395-.052c-.036.041-.087.062-.155.062-.057 0-.099-.017-.129-.049-.029-.033-.044-.081-.045-.146v-.343h.091v.341c0 .08.032.12.097.12.069 0 .115-.026.138-.077v-.384h.09v.528h-.086z" fill="#fff" fill-rule="nonzero" transform="matrix(32.00010645891 0 0 31.999955856 499.53936680005 191.9995391715)"/><path d="m.324-.447c-.014-.003-.029-.004-.045-.004-.059 0-.099.026-.12.076v.375h-.091v-.528h.088l.002.061c.029-.047.071-.071.126-.071.017 0 .031.002.04.007z" fill="#fff" fill-rule="nonzero" transform="matrix(32.00010645891 0 0 31.999955856 517.18042548885 191.9995391715)"/><path d="m.288.01c-.072 0-.13-.024-.175-.071s-.068-.11-.068-.189v-.016c0-.053.01-.099.03-.14.02-.042.048-.074.084-.097s.075-.035.117-.035c.069 0 .122.023.161.068.038.045.057.11.057.194v.038h-.358c.001.052.016.094.045.126.03.032.067.048.111.048.032 0 .059-.006.082-.019.022-.014.041-.031.058-.052l.055.043c-.044.068-.111.102-.199.102zm-.012-.474c-.036 0-.067.013-.091.04-.025.026-.04.064-.046.111h.264v-.006c-.002-.046-.015-.082-.037-.107s-.052-.038-.09-.038z" fill="#fff" fill-rule="nonzero" transform="matrix(32.00010645891 0 0 31.999955856 527.71146052381 191.9995391715)"/><path d="m.356 0h-.091v-.602l-.182.067v-.082l.259-.097h.014z" fill="#fff" fill-rule="nonzero" transform="matrix(32.00010645891 0 0 31.999955856 544.66451692375 191.9995391715)"/><path d="m332 310.2c0-14.46-13.379-26.2-29.857-26.2h-149.286c-16.478 0-29.857 11.74-29.857 26.2v78.6c0 14.46 13.379 26.2 29.857 26.2h149.286c16.478 0 29.857-11.74 29.857-26.2z" fill="#fff" stroke="#27c278" stroke-width="2.79" transform="matrix(1.3397221611 0 0 1.52671404144 195.21466252 -153.58612432)"/><path d="m.482-.301h-.286v.301h-.124v-.711h.452v.1h-.328v.211h.286z" fill="#2d2e44" fill-rule="nonzero" transform="matrix(32.00009676192 0 0 31.99990797824 436.76622812636 327.9996088992)"/><path d="m.293.01c-.075 0-.136-.024-.182-.071-.047-.048-.07-.111-.07-.189v-.015c0-.053.01-.1.03-.141.02-.042.049-.074.086-.097.037-.024.078-.035.123-.035.072 0 .127.023.167.069.039.046.058.111.058.195v.047h-.345c.004.044.018.079.044.104.025.025.058.038.096.038.055 0 .099-.022.133-.066l.064.061c-.021.032-.049.056-.085.074-.035.017-.075.026-.119.026zm-.014-.453c-.032 0-.059.012-.079.034-.02.023-.032.055-.038.096h.226v-.009c-.002-.04-.013-.07-.032-.09-.018-.021-.044-.031-.077-.031z" fill="#2d2e44" fill-rule="nonzero" transform="matrix(32.00009676192 0 0 31.99990797824 454.01628028708 327.9996088992)"/><path d="m.376 0c-.005-.01-.009-.027-.013-.049-.038.039-.084.059-.139.059-.053 0-.096-.015-.13-.046-.033-.03-.05-.067-.05-.112 0-.056.021-.099.063-.13.042-.03.101-.045.179-.045h.073v-.034c0-.028-.008-.05-.023-.066-.015-.017-.039-.025-.07-.025-.027 0-.049.007-.066.021-.018.013-.026.03-.026.051h-.119c0-.029.01-.056.029-.081.019-.026.045-.045.078-.06.033-.014.07-.021.111-.021.062 0 .111.015.148.047.037.031.056.074.057.131v.238c0 .047.006.085.02.114v.008zm-.13-.085c.024 0 .046-.006.066-.018.021-.011.036-.026.047-.045v-.1h-.064c-.044 0-.077.008-.099.023s-.033.037-.033.065c0 .023.007.041.022.054.015.014.036.021.061.021z" fill="#2d2e44" fill-rule="nonzero" transform="matrix(32.00009676192 0 0 31.99990797824 471.18833221195 327.9996088992)"/><path d="m.209-.657v.129h.094v.088h-.094v.294c0 .021.004.035.012.044s.023.014.043.014c.014 0 .028-.002.042-.005v.092c-.027.007-.053.011-.078.011-.092 0-.137-.051-.137-.151v-.299h-.087v-.088h.087v-.129z" fill="#2d2e44" fill-rule="nonzero" transform="matrix(32.00009676192 0 0 31.99990797824 488.50038456015 327.9996088992)"/><path d="m.381-.052c-.035.041-.084.062-.149.062-.057 0-.1-.017-.13-.051-.029-.033-.044-.082-.044-.145v-.342h.119v.34c0 .068.028.101.083.101.058 0 .097-.021.117-.062v-.379h.119v.528h-.112z" fill="#2d2e44" fill-rule="nonzero" transform="matrix(32.00009676192 0 0 31.99990797824 499.14141673651 327.9996088992)"/><path d="m.337-.42c-.015-.003-.031-.004-.048-.004-.054 0-.091.021-.11.063v.361h-.118v-.528h.113l.003.059c.028-.046.068-.069.119-.069.017 0 .031.002.042.007z" fill="#2d2e44" fill-rule="nonzero" transform="matrix(32.00009676192 0 0 31.99990797824 516.92247050287 327.9996088992)"/><path d="m.293.01c-.075 0-.136-.024-.182-.071-.047-.048-.07-.111-.07-.189v-.015c0-.053.01-.1.03-.141.02-.042.049-.074.086-.097.037-.024.078-.035.123-.035.072 0 .127.023.167.069.039.046.058.111.058.195v.047h-.345c.004.044.018.079.044.104.025.025.058.038.096.038.055 0 .099-.022.133-.066l.064.061c-.021.032-.049.056-.085.074-.035.017-.075.026-.119.026zm-.014-.453c-.032 0-.059.012-.079.034-.02.023-.032.055-.038.096h.226v-.009c-.002-.04-.013-.07-.032-.09-.018-.021-.044-.031-.077-.031z" fill="#2d2e44" fill-rule="nonzero" transform="matrix(32.00009676192 0 0 31.99990797824 527.87550362266 327.9996088992)"/><path d="m.531 0h-.478v-.082l.237-.258c.034-.038.059-.07.073-.095.015-.026.022-.051.022-.077 0-.034-.01-.061-.029-.082s-.044-.031-.077-.031c-.038 0-.068.011-.089.035-.021.023-.032.055-.032.096h-.118c0-.043.009-.082.029-.117s.048-.062.085-.081c.036-.019.078-.029.126-.029.069 0 .124.018.164.052.039.035.059.083.059.144 0 .036-.01.073-.03.112s-.052.083-.098.132l-.174.186h.33z" fill="#2d2e44" fill-rule="nonzero" transform="matrix(32.00009676192 0 0 31.99990797824 545.04755554753 327.9996088992)"/><path d="m.232-.711.206.545.204-.545h.16v.711h-.123v-.234l.012-.314-.21.548h-.088l-.21-.547.012.313v.234h-.123v-.711z" fill="#2d2e44" fill-rule="nonzero" transform="matrix(32.00009676192 0 0 31.99990797824 446.2892569221 359.99951687744)"/><path d="m.039-.269c0-.052.01-.098.03-.14.021-.041.05-.073.087-.096.037-.022.08-.033.128-.033.071 0 .129.023.173.069.045.046.069.107.072.182l.001.028c0 .052-.01.099-.03.14s-.049.073-.086.095c-.037.023-.081.034-.129.034-.075 0-.135-.025-.179-.075-.045-.049-.067-.116-.067-.198zm.118.01c0 .055.011.097.034.128.022.031.054.046.094.046s.071-.016.093-.047.034-.077.034-.137c0-.053-.012-.096-.035-.127s-.054-.047-.093-.047-.07.016-.093.046c-.022.031-.034.077-.034.138z" fill="#2d2e44" fill-rule="nonzero" transform="matrix(32.00009676192 0 0 31.99990797824 474.30534163716 359.99951687744)"/><path d="m.039-.268c0-.081.018-.147.056-.196s.089-.074.152-.074c.056 0 .101.019.136.059v-.271h.118v.75h-.107l-.006-.055c-.035.043-.083.065-.142.065-.062 0-.112-.025-.15-.075s-.057-.117-.057-.203zm.118.01c0 .054.011.096.031.126.021.03.05.045.088.045.049 0 .084-.022.107-.065v-.225c-.022-.043-.057-.064-.106-.064-.038 0-.068.015-.089.046-.02.03-.031.076-.031.137z" fill="#2d2e44" fill-rule="nonzero" transform="matrix(32.00009676192 0 0 31.99990797824 492.52339672493 359.99951687744)"/><path d="m.381-.052c-.035.041-.084.062-.149.062-.057 0-.1-.017-.13-.051-.029-.033-.044-.082-.044-.145v-.342h.119v.34c0 .068.028.101.083.101.058 0 .097-.021.117-.062v-.379h.119v.528h-.112z" fill="#2d2e44" fill-rule="nonzero" transform="matrix(32.00009676192 0 0 31.99990797824 510.58645134401 359.99951687744)"/><path d="m.068-.75h.119v.75h-.119z" fill="#2d2e44" fill-rule="nonzero" transform="matrix(32.00009676192 0 0 31.99990797824 528.36750511038 359.99951687744)"/><path d="m.293.01c-.075 0-.136-.024-.182-.071-.047-.048-.07-.111-.07-.189v-.015c0-.053.01-.1.03-.141.02-.042.049-.074.086-.097.037-.024.078-.035.123-.035.072 0 .127.023.167.069.039.046.058.111.058.195v.047h-.345c.004.044.018.079.044.104.025.025.058.038.096.038.055 0 .099-.022.133-.066l.064.061c-.021.032-.049.056-.085.074-.035.017-.075.026-.119.026zm-.014-.453c-.032 0-.059.012-.079.034-.02.023-.032.055-.038.096h.226v-.009c-.002-.04-.013-.07-.032-.09-.018-.021-.044-.031-.077-.031z" fill="#2d2e44" fill-rule="nonzero" transform="matrix(32.00009676192 0 0 31.99990797824 536.53952982095 359.99951687744)"/><path d="m332 316.75c0-18.075-7.449-32.75-16.625-32.75h-175.75c-9.176 0-16.625 14.675-16.625 32.75v65.5c0 18.075 7.449 32.75 16.625 32.75h175.75c9.176 0 16.625-14.675 16.625-32.75z" fill="#27c278" transform="matrix(1.05263845809 0 0 .53435 260.52586620424 233.24394752)"/><path d="m.475-.314h-.299v.314h-.093v-.711h.44v.077h-.347v.243h.299z" fill="#fff" fill-rule="nonzero" transform="matrix(32.00010645891 0 0 31.999955856 437.3671599637 431.9995391715)"/><path d="m.288.01c-.072 0-.13-.024-.175-.071s-.068-.11-.068-.189v-.016c0-.053.01-.099.03-.14.02-.042.048-.074.084-.097s.075-.035.117-.035c.069 0 .122.023.161.068.038.045.057.11.057.194v.038h-.358c.001.052.016.094.045.126.03.032.067.048.111.048.032 0 .059-.006.082-.019.022-.014.041-.031.058-.052l.055.043c-.044.068-.111.102-.199.102zm-.012-.474c-.036 0-.067.013-.091.04-.025.026-.04.064-.046.111h.264v-.006c-.002-.046-.015-.082-.037-.107s-.052-.038-.09-.038z" fill="#fff" fill-rule="nonzero" transform="matrix(32.00010645891 0 0 31.999955856 454.72721771766 431.9995391715)"/><path d="m.395 0c-.006-.01-.01-.029-.013-.056-.042.044-.092.066-.151.066-.052 0-.094-.015-.128-.044-.033-.03-.05-.067-.05-.112 0-.055.021-.098.063-.129.042-.03.101-.045.176-.045h.088v-.042c0-.031-.009-.057-.028-.075-.019-.019-.047-.028-.083-.028-.033 0-.06.008-.081.024-.022.016-.033.036-.033.059h-.091c0-.026.009-.052.028-.076.019-.025.044-.044.076-.059.032-.014.068-.021.106-.021.061 0 .108.015.143.046.034.03.052.072.054.125v.243c0 .049.006.088.018.116v.008zm-.15-.069c.028 0 .055-.007.08-.022.026-.014.044-.034.055-.057v-.108h-.07c-.111 0-.166.032-.166.097 0 .028.009.05.028.066s.043.024.073.024z" fill="#fff" fill-rule="nonzero" transform="matrix(32.00010645891 0 0 31.999955856 471.68027411759 431.9995391715)"/><path d="m.191-.656v.128h.099v.07h-.099v.327c0 .021.004.037.013.048.009.01.024.016.045.016.01 0 .025-.002.043-.006v.073c-.024.007-.047.01-.069.01-.041 0-.071-.012-.092-.037-.02-.024-.03-.059-.03-.104v-.327h-.097v-.07h.097v-.128z" fill="#fff" fill-rule="nonzero" transform="matrix(32.00010645891 0 0 31.999955856 489.08633202459 431.9995391715)"/><path d="m.395-.052c-.036.041-.087.062-.155.062-.057 0-.099-.017-.129-.049-.029-.033-.044-.081-.045-.146v-.343h.091v.341c0 .08.032.12.097.12.069 0 .115-.026.138-.077v-.384h.09v.528h-.086z" fill="#fff" fill-rule="nonzero" transform="matrix(32.00010645891 0 0 31.999955856 499.53936680005 431.9995391715)"/><path d="m.324-.447c-.014-.003-.029-.004-.045-.004-.059 0-.099.026-.12.076v.375h-.091v-.528h.088l.002.061c.029-.047.071-.071.126-.071.017 0 .031.002.04.007z" fill="#fff" fill-rule="nonzero" transform="matrix(32.00010645891 0 0 31.999955856 517.18042548885 431.9995391715)"/><path d="m.288.01c-.072 0-.13-.024-.175-.071s-.068-.11-.068-.189v-.016c0-.053.01-.099.03-.14.02-.042.048-.074.084-.097s.075-.035.117-.035c.069 0 .122.023.161.068.038.045.057.11.057.194v.038h-.358c.001.052.016.094.045.126.03.032.067.048.111.048.032 0 .059-.006.082-.019.022-.014.041-.031.058-.052l.055.043c-.044.068-.111.102-.199.102zm-.012-.474c-.036 0-.067.013-.091.04-.025.026-.04.064-.046.111h.264v-.006c-.002-.046-.015-.082-.037-.107s-.052-.038-.09-.038z" fill="#fff" fill-rule="nonzero" transform="matrix(32.00010645891 0 0 31.999955856 527.71146052381 431.9995391715)"/><path d="m.525 0h-.466v-.065l.246-.273c.037-.042.062-.075.076-.101.013-.026.02-.053.02-.081 0-.037-.011-.067-.033-.091-.023-.024-.053-.035-.09-.035-.045 0-.08.012-.105.038-.025.025-.037.061-.037.107h-.091c0-.066.021-.119.064-.159.042-.041.098-.061.169-.061.066 0 .118.018.157.052.038.035.057.081.057.139 0 .07-.044.153-.134.25l-.19.206h.357z" fill="#fff" fill-rule="nonzero" transform="matrix(32.00010645891 0 0 31.999955856 544.66451692375 431.9995391715)"/><path d="m332 310.2c0-14.46-13.379-26.2-29.857-26.2h-149.286c-16.478 0-29.857 11.74-29.857 26.2v78.6c0 14.46 13.379 26.2 29.857 26.2h149.286c16.478 0 29.857-11.74 29.857-26.2z" fill="#fff" stroke="#27c278" stroke-width="2.79" transform="matrix(1.3397221611 0 0 1.52671404144 515.21466252 -277.58652432)"/><path d="m.47-.166h-.275l-.058.166h-.128l.268-.711h.111l.269.711h-.129zm-.241-.099h.207l-.103-.295z" fill="#2d2e44" fill-rule="nonzero" transform="matrix(32.00009676192 0 0 31.99990797824 794.6093425564 205.4223753152)"/><path d="m.196-.264v.264h-.124v-.711h.272c.08 0 .143.021.189.062.047.041.071.096.071.164 0 .07-.023.124-.069.163-.046.038-.11.058-.192.058zm0-.099h.148c.044 0 .078-.011.101-.031.023-.021.034-.051.034-.09 0-.038-.011-.069-.035-.092-.023-.023-.055-.035-.096-.035h-.152z" fill="#2d2e44" fill-rule="nonzero" transform="matrix(32.00009676192 0 0 31.99990797824 815.90640695448 205.4223753152)"/><path d="m.08-.711h.123v.711h-.123z" fill="#2d2e44" fill-rule="nonzero" transform="matrix(32.00009676192 0 0 31.99990797824 836.35946880047 205.4223753152)"/><path d="m.232-.711.206.545.204-.545h.16v.711h-.123v-.234l.012-.314-.21.548h-.088l-.21-.547.012.313v.234h-.123v-.711z" fill="#2d2e44" fill-rule="nonzero" transform="matrix(32.00009676192 0 0 31.99990797824 766.2892569221 237.42228329344)"/><path d="m.039-.269c0-.052.01-.098.03-.14.021-.041.05-.073.087-.096.037-.022.08-.033.128-.033.071 0 .129.023.173.069.045.046.069.107.072.182l.001.028c0 .052-.01.099-.03.14s-.049.073-.086.095c-.037.023-.081.034-.129.034-.075 0-.135-.025-.179-.075-.045-.049-.067-.116-.067-.198zm.118.01c0 .055.011.097.034.128.022.031.054.046.094.046s.071-.016.093-.047.034-.077.034-.137c0-.053-.012-.096-.035-.127s-.054-.047-.093-.047-.07.016-.093.046c-.022.031-.034.077-.034.138z" fill="#2d2e44" fill-rule="nonzero" transform="matrix(32.00009676192 0 0 31.99990797824 794.30534163716 237.42228329344)"/><path d="m.039-.268c0-.081.018-.147.056-.196s.089-.074.152-.074c.056 0 .101.019.136.059v-.271h.118v.75h-.107l-.006-.055c-.035.043-.083.065-.142.065-.062 0-.112-.025-.15-.075s-.057-.117-.057-.203zm.118.01c0 .054.011.096.031.126.021.03.05.045.088.045.049 0 .084-.022.107-.065v-.225c-.022-.043-.057-.064-.106-.064-.038 0-.068.015-.089.046-.02.03-.031.076-.031.137z" fill="#2d2e44" fill-rule="nonzero" transform="matrix(32.00009676192 0 0 31.99990797824 812.52339672493 237.42228329344)"/><path d="m.381-.052c-.035.041-.084.062-.149.062-.057 0-.1-.017-.13-.051-.029-.033-.044-.082-.044-.145v-.342h.119v.34c0 .068.028.101.083.101.058 0 .097-.021.117-.062v-.379h.119v.528h-.112z" fill="#2d2e44" fill-rule="nonzero" transform="matrix(32.00009676192 0 0 31.99990797824 830.58645134401 237.42228329344)"/><path d="m.068-.75h.119v.75h-.119z" fill="#2d2e44" fill-rule="nonzero" transform="matrix(32.00009676192 0 0 31.99990797824 848.36750511038 237.42228329344)"/><path d="m.293.01c-.075 0-.136-.024-.182-.071-.047-.048-.07-.111-.07-.189v-.015c0-.053.01-.1.03-.141.02-.042.049-.074.086-.097.037-.024.078-.035.123-.035.072 0 .127.023.167.069.039.046.058.111.058.195v.047h-.345c.004.044.018.079.044.104.025.025.058.038.096.038.055 0 .099-.022.133-.066l.064.061c-.021.032-.049.056-.085.074-.035.017-.075.026-.119.026zm-.014-.453c-.032 0-.059.012-.079.034-.02.023-.032.055-.038.096h.226v-.009c-.002-.04-.013-.07-.032-.09-.018-.021-.044-.031-.077-.031z" fill="#2d2e44" fill-rule="nonzero" transform="matrix(32.00009676192 0 0 31.99990797824 856.53952982095 237.42228329344)"/><path d="m332 316.75c0-18.075-7.449-32.75-16.625-32.75h-175.75c-9.176 0-16.625 14.675-16.625 32.75v65.5c0 18.075 7.449 32.75 16.625 32.75h175.75c9.176 0 16.625-14.675 16.625-32.75z" fill="#27c278" transform="matrix(1.05263845809 0 0 .53435 580.52586620424 109.24354752)"/><path d="m.475-.314h-.299v.314h-.093v-.711h.44v.077h-.347v.243h.299z" fill="#fff" fill-rule="nonzero" transform="matrix(32.00010645891 0 0 31.999955856 766.35218985537 307.9991391715)"/><path d="m.288.01c-.072 0-.13-.024-.175-.071s-.068-.11-.068-.189v-.016c0-.053.01-.099.03-.14.02-.042.048-.074.084-.097s.075-.035.117-.035c.069 0 .122.023.161.068.038.045.057.11.057.194v.038h-.358c.001.052.016.094.045.126.03.032.067.048.111.048.032 0 .059-.006.082-.019.022-.014.041-.031.058-.052l.055.043c-.044.068-.111.102-.199.102zm-.012-.474c-.036 0-.067.013-.091.04-.025.026-.04.064-.046.111h.264v-.006c-.002-.046-.015-.082-.037-.107s-.052-.038-.09-.038z" fill="#fff" fill-rule="nonzero" transform="matrix(32.00010645891 0 0 31.999955856 783.711247606 307.9991391715)"/><path d="m.395 0c-.006-.01-.01-.029-.013-.056-.042.044-.092.066-.151.066-.052 0-.094-.015-.128-.044-.033-.03-.05-.067-.05-.112 0-.055.021-.098.063-.129.042-.03.101-.045.176-.045h.088v-.042c0-.031-.009-.057-.028-.075-.019-.019-.047-.028-.083-.028-.033 0-.06.008-.081.024-.022.016-.033.036-.033.059h-.091c0-.026.009-.052.028-.076.019-.025.044-.044.076-.059.032-.014.068-.021.106-.021.061 0 .108.015.143.046.034.03.052.072.054.125v.243c0 .049.006.088.018.116v.008zm-.15-.069c.028 0 .055-.007.08-.022.026-.014.044-.034.055-.057v-.108h-.07c-.111 0-.166.032-.166.097 0 .028.009.05.028.066s.043.024.073.024z" fill="#fff" fill-rule="nonzero" transform="matrix(32.00010645891 0 0 31.999955856 800.66430400593 307.9991391715)"/><path d="m.191-.656v.128h.099v.07h-.099v.327c0 .021.004.037.013.048.009.01.024.016.045.016.01 0 .025-.002.043-.006v.073c-.024.007-.047.01-.069.01-.041 0-.071-.012-.092-.037-.02-.024-.03-.059-.03-.104v-.327h-.097v-.07h.097v-.128z" fill="#fff" fill-rule="nonzero" transform="matrix(32.00010645891 0 0 31.999955856 818.07036191292 307.9991391715)"/><path d="m.395-.052c-.036.041-.087.062-.155.062-.057 0-.099-.017-.129-.049-.029-.033-.044-.081-.045-.146v-.343h.091v.341c0 .08.032.12.097.12.069 0 .115-.026.138-.077v-.384h.09v.528h-.086z" fill="#fff" fill-rule="nonzero" transform="matrix(32.00010645891 0 0 31.999955856 828.52339668839 307.9991391715)"/><path d="m.324-.447c-.014-.003-.029-.004-.045-.004-.059 0-.099.026-.12.076v.375h-.091v-.528h.088l.002.061c.029-.047.071-.071.126-.071.017 0 .031.002.04.007z" fill="#fff" fill-rule="nonzero" transform="matrix(32.00010645891 0 0 31.999955856 846.16445537719 307.9991391715)"/><path d="m.288.01c-.072 0-.13-.024-.175-.071s-.068-.11-.068-.189v-.016c0-.053.01-.099.03-.14.02-.042.048-.074.084-.097s.075-.035.117-.035c.069 0 .122.023.161.068.038.045.057.11.057.194v.038h-.358c.001.052.016.094.045.126.03.032.067.048.111.048.032 0 .059-.006.082-.019.022-.014.041-.031.058-.052l.055.043c-.044.068-.111.102-.199.102zm-.012-.474c-.036 0-.067.013-.091.04-.025.026-.04.064-.046.111h.264v-.006c-.002-.046-.015-.082-.037-.107s-.052-.038-.09-.038z" fill="#fff" fill-rule="nonzero" transform="matrix(32.00010645891 0 0 31.999955856 856.69549041215 307.9991391715)"/><path d="m129.058 314.875v-4.75h45.412v-7.125l2.53 9.5-2.53 9.5v-7.125z" fill="#2d2e44" transform="matrix(3.75451 0 0 1 -304.548 -220.5)"/><path d="m129.058 314.875v-4.75h45.412v-7.125l2.53 9.5-2.53 9.5v-7.125z" fill="#2d2e44" transform="matrix(3.75451 0 0 1 -304.548 107.5)"/><path d="m129.058 314.875v-4.75h40.867v-7.125l7.075 9.5-7.075 9.5v-7.125z" fill="#2d2e44" transform="matrix(0 -1.34276 1 0 507.5 595.668)"/><path d="m129.058 314.875v-4.75h40.867v-7.125l7.075 9.5-7.075 9.5v-7.125z" fill="#2d2e44" transform="matrix(0 1.34276 -1 0 1132.5 -83.6681)"/><path d="m129.058 310.125h47.942v4.75h-47.942z" fill="#2d2e44" transform="matrix(0 -.763938 1 0 -130.125 229.592)"/><path d="m129.058 310.125h47.942v4.75h-47.942z" fill="#2d2e44" transform="matrix(0 -.763938 1 0 -130.125 518.592)"/><path d="m129.058 310.125h47.942v4.75h-47.942z" fill="#2d2e44" transform="matrix(3.75451 0 0 1 157.827 107.5)"/><path d="m129.058 310.125h47.942v4.75h-47.942z" fill="#2d2e44" transform="matrix(3.75451 0 0 1 157.827 -222.875)"/></svg>