<?xml version="1.0" encoding="UTF-8" standalone="no"?>
<!DOCTYPE svg PUBLIC "-//W3C//DTD SVG 1.1//EN" "http://www.w3.org/Graphics/SVG/1.1/DTD/svg11.dtd">
<svg width="100%" height="100%" viewBox="0 0 1000 520" version="1.1" xmlns="http://www.w3.org/2000/svg" xmlns:xlink="http://www.w3.org/1999/xlink" xml:space="preserve" xmlns:serif="http://www.serif.com/" style="fill-rule:evenodd;clip-rule:evenodd;stroke-linecap:round;stroke-linejoin:round;stroke-miterlimit:1.5;">
    <g transform="matrix(1.16667,0,0,1.70992,-6.66667,-39.9924)">
        <g transform="matrix(1.14833,0,0,1.11607,-101.244,-216.964)">
            <path d="M332,304.96C332,293.392 318.621,284 302.143,284L152.857,284C136.379,284 123,293.392 123,304.96L123,394.04C123,405.608 136.379,415 152.857,415L302.143,415C318.621,415 332,405.608 332,394.04L332,304.96Z" style="fill:white;stroke:rgb(39,194,120);stroke-width:2.43px;"/>
        </g>
        <g transform="matrix(0.857143,0,0,0.584821,-110.857,-82.4643)">
            <g transform="matrix(32,0,0,32,235.094,360)">
                <path d="M0.47,-0.166L0.195,-0.166L0.137,0L0.009,0L0.277,-0.711L0.388,-0.711L0.657,0L0.528,0L0.47,-0.166ZM0.229,-0.265L0.436,-0.265L0.333,-0.56L0.229,-0.265Z" style="fill:rgb(45,46,68);fill-rule:nonzero;"/>
            </g>
            <g transform="matrix(32,0,0,32,255.641,360)">
                <path d="M0.523,-0.259C0.523,-0.177 0.505,-0.112 0.468,-0.063C0.431,-0.015 0.381,0.01 0.318,0.01C0.26,0.01 0.214,-0.009 0.179,-0.047L0.179,0.203L0.061,0.203L0.061,-0.528L0.17,-0.528L0.175,-0.475C0.21,-0.517 0.257,-0.538 0.317,-0.538C0.381,-0.538 0.432,-0.514 0.469,-0.466C0.505,-0.418 0.523,-0.351 0.523,-0.266L0.523,-0.259ZM0.405,-0.269C0.405,-0.322 0.395,-0.364 0.374,-0.395C0.353,-0.425 0.323,-0.441 0.284,-0.441C0.235,-0.441 0.2,-0.421 0.179,-0.381L0.179,-0.146C0.201,-0.105 0.236,-0.085 0.285,-0.085C0.322,-0.085 0.352,-0.1 0.373,-0.131C0.395,-0.161 0.405,-0.207 0.405,-0.269Z" style="fill:rgb(45,46,68);fill-rule:nonzero;"/>
            </g>
            <g transform="matrix(32,0,0,32,273.656,360)">
                <path d="M0.523,-0.259C0.523,-0.177 0.505,-0.112 0.468,-0.063C0.431,-0.015 0.381,0.01 0.318,0.01C0.26,0.01 0.214,-0.009 0.179,-0.047L0.179,0.203L0.061,0.203L0.061,-0.528L0.17,-0.528L0.175,-0.475C0.21,-0.517 0.257,-0.538 0.317,-0.538C0.381,-0.538 0.432,-0.514 0.469,-0.466C0.505,-0.418 0.523,-0.351 0.523,-0.266L0.523,-0.259ZM0.405,-0.269C0.405,-0.322 0.395,-0.364 0.374,-0.395C0.353,-0.425 0.323,-0.441 0.284,-0.441C0.235,-0.441 0.2,-0.421 0.179,-0.381L0.179,-0.146C0.201,-0.105 0.236,-0.085 0.285,-0.085C0.322,-0.085 0.352,-0.1 0.373,-0.131C0.395,-0.161 0.405,-0.207 0.405,-0.269Z" style="fill:rgb(45,46,68);fill-rule:nonzero;"/>
            </g>
            <g transform="matrix(32,0,0,32,291.672,360)">
                <rect x="0.068" y="-0.75" width="0.119" height="0.75" style="fill:rgb(45,46,68);fill-rule:nonzero;"/>
            </g>
            <g transform="matrix(32,0,0,32,299.844,360)">
                <path d="M0.187,0L0.068,0L0.068,-0.528L0.187,-0.528L0.187,0ZM0.061,-0.666C0.061,-0.684 0.067,-0.699 0.078,-0.711C0.09,-0.723 0.106,-0.729 0.128,-0.729C0.149,-0.729 0.166,-0.723 0.178,-0.711C0.189,-0.699 0.195,-0.684 0.195,-0.666C0.195,-0.648 0.189,-0.633 0.178,-0.621C0.166,-0.609 0.149,-0.603 0.128,-0.603C0.106,-0.603 0.09,-0.609 0.078,-0.621C0.067,-0.633 0.061,-0.648 0.061,-0.666Z" style="fill:rgb(45,46,68);fill-rule:nonzero;"/>
            </g>
            <g transform="matrix(32,0,0,32,308.016,360)">
                <path d="M0.278,-0.085C0.307,-0.085 0.332,-0.094 0.352,-0.111C0.371,-0.128 0.382,-0.149 0.383,-0.175L0.495,-0.175C0.493,-0.142 0.483,-0.111 0.464,-0.083C0.445,-0.054 0.419,-0.032 0.386,-0.015C0.353,0.001 0.317,0.01 0.279,0.01C0.205,0.01 0.147,-0.014 0.104,-0.062C0.06,-0.11 0.039,-0.176 0.039,-0.26L0.039,-0.272C0.039,-0.353 0.06,-0.417 0.103,-0.466C0.146,-0.514 0.205,-0.538 0.279,-0.538C0.342,-0.538 0.393,-0.52 0.432,-0.483C0.472,-0.447 0.493,-0.398 0.495,-0.339L0.383,-0.339C0.382,-0.369 0.371,-0.394 0.352,-0.414C0.332,-0.433 0.308,-0.443 0.278,-0.443C0.239,-0.443 0.21,-0.429 0.189,-0.401C0.168,-0.373 0.158,-0.331 0.157,-0.274L0.157,-0.255C0.157,-0.198 0.168,-0.155 0.188,-0.127C0.209,-0.099 0.239,-0.085 0.278,-0.085Z" style="fill:rgb(45,46,68);fill-rule:nonzero;"/>
            </g>
            <g transform="matrix(32,0,0,32,324.766,360)">
                <path d="M0.376,0C0.371,-0.01 0.367,-0.027 0.363,-0.049C0.325,-0.01 0.279,0.01 0.224,0.01C0.171,0.01 0.128,-0.005 0.094,-0.036C0.061,-0.066 0.044,-0.103 0.044,-0.148C0.044,-0.204 0.065,-0.247 0.107,-0.278C0.149,-0.308 0.208,-0.323 0.286,-0.323L0.359,-0.323L0.359,-0.357C0.359,-0.385 0.351,-0.407 0.336,-0.423C0.321,-0.44 0.297,-0.448 0.266,-0.448C0.239,-0.448 0.217,-0.441 0.2,-0.427C0.182,-0.414 0.174,-0.397 0.174,-0.376L0.055,-0.376C0.055,-0.405 0.065,-0.432 0.084,-0.457C0.103,-0.483 0.129,-0.502 0.162,-0.517C0.195,-0.531 0.232,-0.538 0.273,-0.538C0.335,-0.538 0.384,-0.523 0.421,-0.491C0.458,-0.46 0.477,-0.417 0.478,-0.36L0.478,-0.122C0.478,-0.075 0.484,-0.037 0.498,-0.008L0.498,0L0.376,0ZM0.246,-0.085C0.27,-0.085 0.292,-0.091 0.312,-0.103C0.333,-0.114 0.348,-0.129 0.359,-0.148L0.359,-0.248L0.295,-0.248C0.251,-0.248 0.218,-0.24 0.196,-0.225C0.174,-0.21 0.163,-0.188 0.163,-0.16C0.163,-0.137 0.17,-0.119 0.185,-0.106C0.2,-0.092 0.221,-0.085 0.246,-0.085Z" style="fill:rgb(45,46,68);fill-rule:nonzero;"/>
            </g>
            <g transform="matrix(32,0,0,32,342.078,360)">
                <path d="M0.209,-0.657L0.209,-0.528L0.303,-0.528L0.303,-0.44L0.209,-0.44L0.209,-0.146C0.209,-0.125 0.213,-0.111 0.221,-0.102C0.229,-0.093 0.244,-0.088 0.264,-0.088C0.278,-0.088 0.292,-0.09 0.306,-0.093L0.306,-0.001C0.279,0.006 0.253,0.01 0.228,0.01C0.136,0.01 0.091,-0.041 0.091,-0.141L0.091,-0.44L0.004,-0.44L0.004,-0.528L0.091,-0.528L0.091,-0.657L0.209,-0.657Z" style="fill:rgb(45,46,68);fill-rule:nonzero;"/>
            </g>
            <g transform="matrix(32,0,0,32,352.719,360)">
                <path d="M0.187,0L0.068,0L0.068,-0.528L0.187,-0.528L0.187,0ZM0.061,-0.666C0.061,-0.684 0.067,-0.699 0.078,-0.711C0.09,-0.723 0.106,-0.729 0.128,-0.729C0.149,-0.729 0.166,-0.723 0.178,-0.711C0.189,-0.699 0.195,-0.684 0.195,-0.666C0.195,-0.648 0.189,-0.633 0.178,-0.621C0.166,-0.609 0.149,-0.603 0.128,-0.603C0.106,-0.603 0.09,-0.609 0.078,-0.621C0.067,-0.633 0.061,-0.648 0.061,-0.666Z" style="fill:rgb(45,46,68);fill-rule:nonzero;"/>
            </g>
            <g transform="matrix(32,0,0,32,360.891,360)">
                <path d="M0.039,-0.269C0.039,-0.321 0.049,-0.367 0.069,-0.409C0.09,-0.45 0.119,-0.482 0.156,-0.505C0.193,-0.527 0.236,-0.538 0.284,-0.538C0.355,-0.538 0.413,-0.515 0.457,-0.469C0.502,-0.423 0.526,-0.362 0.529,-0.287L0.53,-0.259C0.53,-0.207 0.52,-0.16 0.5,-0.119C0.48,-0.078 0.451,-0.046 0.414,-0.024C0.377,-0.001 0.333,0.01 0.285,0.01C0.21,0.01 0.15,-0.015 0.106,-0.065C0.061,-0.114 0.039,-0.181 0.039,-0.263L0.039,-0.269ZM0.157,-0.259C0.157,-0.204 0.168,-0.162 0.191,-0.131C0.213,-0.1 0.245,-0.085 0.285,-0.085C0.325,-0.085 0.356,-0.101 0.378,-0.132C0.4,-0.163 0.412,-0.209 0.412,-0.269C0.412,-0.322 0.4,-0.365 0.377,-0.396C0.354,-0.427 0.323,-0.443 0.284,-0.443C0.245,-0.443 0.214,-0.427 0.191,-0.397C0.169,-0.366 0.157,-0.32 0.157,-0.259Z" style="fill:rgb(45,46,68);fill-rule:nonzero;"/>
            </g>
            <g transform="matrix(32,0,0,32,379.109,360)">
                <path d="M0.171,-0.528L0.174,-0.467C0.213,-0.514 0.265,-0.538 0.328,-0.538C0.438,-0.538 0.494,-0.475 0.496,-0.349L0.496,0L0.377,0L0.377,-0.342C0.377,-0.376 0.37,-0.401 0.356,-0.417C0.341,-0.433 0.318,-0.441 0.285,-0.441C0.237,-0.441 0.201,-0.419 0.178,-0.376L0.178,0L0.059,0L0.059,-0.528L0.171,-0.528Z" style="fill:rgb(45,46,68);fill-rule:nonzero;"/>
            </g>
            <g transform="matrix(32,0,0,32,262.289,392)">
                <path d="M0.232,-0.711L0.438,-0.166L0.642,-0.711L0.802,-0.711L0.802,0L0.679,0L0.679,-0.234L0.691,-0.548L0.481,0L0.393,0L0.183,-0.547L0.195,-0.234L0.195,0L0.072,0L0.072,-0.711L0.232,-0.711Z" style="fill:rgb(45,46,68);fill-rule:nonzero;"/>
            </g>
            <g transform="matrix(32,0,0,32,290.305,392)">
                <path d="M0.039,-0.269C0.039,-0.321 0.049,-0.367 0.069,-0.409C0.09,-0.45 0.119,-0.482 0.156,-0.505C0.193,-0.527 0.236,-0.538 0.284,-0.538C0.355,-0.538 0.413,-0.515 0.457,-0.469C0.502,-0.423 0.526,-0.362 0.529,-0.287L0.53,-0.259C0.53,-0.207 0.52,-0.16 0.5,-0.119C0.48,-0.078 0.451,-0.046 0.414,-0.024C0.377,-0.001 0.333,0.01 0.285,0.01C0.21,0.01 0.15,-0.015 0.106,-0.065C0.061,-0.114 0.039,-0.181 0.039,-0.263L0.039,-0.269ZM0.157,-0.259C0.157,-0.204 0.168,-0.162 0.191,-0.131C0.213,-0.1 0.245,-0.085 0.285,-0.085C0.325,-0.085 0.356,-0.101 0.378,-0.132C0.4,-0.163 0.412,-0.209 0.412,-0.269C0.412,-0.322 0.4,-0.365 0.377,-0.396C0.354,-0.427 0.323,-0.443 0.284,-0.443C0.245,-0.443 0.214,-0.427 0.191,-0.397C0.169,-0.366 0.157,-0.32 0.157,-0.259Z" style="fill:rgb(45,46,68);fill-rule:nonzero;"/>
            </g>
            <g transform="matrix(32,0,0,32,308.523,392)">
                <path d="M0.039,-0.268C0.039,-0.349 0.057,-0.415 0.095,-0.464C0.133,-0.513 0.184,-0.538 0.247,-0.538C0.303,-0.538 0.348,-0.519 0.383,-0.479L0.383,-0.75L0.501,-0.75L0.501,0L0.394,0L0.388,-0.055C0.353,-0.012 0.305,0.01 0.246,0.01C0.184,0.01 0.134,-0.015 0.096,-0.065C0.058,-0.115 0.039,-0.182 0.039,-0.268ZM0.157,-0.258C0.157,-0.204 0.168,-0.162 0.188,-0.132C0.209,-0.102 0.238,-0.087 0.276,-0.087C0.325,-0.087 0.36,-0.109 0.383,-0.152L0.383,-0.377C0.361,-0.42 0.326,-0.441 0.277,-0.441C0.239,-0.441 0.209,-0.426 0.188,-0.395C0.168,-0.365 0.157,-0.319 0.157,-0.258Z" style="fill:rgb(45,46,68);fill-rule:nonzero;"/>
            </g>
            <g transform="matrix(32,0,0,32,326.586,392)">
                <path d="M0.381,-0.052C0.346,-0.011 0.297,0.01 0.232,0.01C0.175,0.01 0.132,-0.007 0.102,-0.041C0.073,-0.074 0.058,-0.123 0.058,-0.186L0.058,-0.528L0.177,-0.528L0.177,-0.188C0.177,-0.12 0.205,-0.087 0.26,-0.087C0.318,-0.087 0.357,-0.108 0.377,-0.149L0.377,-0.528L0.496,-0.528L0.496,0L0.384,0L0.381,-0.052Z" style="fill:rgb(45,46,68);fill-rule:nonzero;"/>
            </g>
            <g transform="matrix(32,0,0,32,344.367,392)">
                <rect x="0.068" y="-0.75" width="0.119" height="0.75" style="fill:rgb(45,46,68);fill-rule:nonzero;"/>
            </g>
            <g transform="matrix(32,0,0,32,352.539,392)">
                <path d="M0.293,0.01C0.218,0.01 0.157,-0.014 0.111,-0.061C0.064,-0.109 0.041,-0.172 0.041,-0.25L0.041,-0.265C0.041,-0.318 0.051,-0.365 0.071,-0.406C0.091,-0.448 0.12,-0.48 0.157,-0.503C0.194,-0.527 0.235,-0.538 0.28,-0.538C0.352,-0.538 0.407,-0.515 0.447,-0.469C0.486,-0.423 0.505,-0.358 0.505,-0.274L0.505,-0.227L0.16,-0.227C0.164,-0.183 0.178,-0.148 0.204,-0.123C0.229,-0.098 0.262,-0.085 0.3,-0.085C0.355,-0.085 0.399,-0.107 0.433,-0.151L0.497,-0.09C0.476,-0.058 0.448,-0.034 0.412,-0.016C0.377,0.001 0.337,0.01 0.293,0.01ZM0.279,-0.443C0.247,-0.443 0.22,-0.431 0.2,-0.409C0.18,-0.386 0.168,-0.354 0.162,-0.313L0.388,-0.313L0.388,-0.322C0.386,-0.362 0.375,-0.392 0.356,-0.412C0.338,-0.433 0.312,-0.443 0.279,-0.443Z" style="fill:rgb(45,46,68);fill-rule:nonzero;"/>
            </g>
        </g>
        <g transform="matrix(0.785714,0,0,0.3125,34.2857,130.156)">
            <g transform="matrix(1.14833,0,0,1.71429,-101.244,-386.857)">
                <path d="M332,303.104C332,292.56 324.551,284 315.375,284L139.625,284C130.449,284 123,292.56 123,303.104L123,395.896C123,406.44 130.449,415 139.625,415L315.375,415C324.551,415 332,406.44 332,395.896L332,303.104Z" style="fill:rgb(39,194,120);"/>
            </g>
            <g transform="matrix(1.09091,0,0,1.87143,-152,-528.8)">
                <g transform="matrix(32,0,0,32,232.352,392)">
                    <path d="M0.475,-0.314L0.176,-0.314L0.176,0L0.083,0L0.083,-0.711L0.523,-0.711L0.523,-0.634L0.176,-0.634L0.176,-0.391L0.475,-0.391L0.475,-0.314Z" style="fill:white;fill-rule:nonzero;"/>
                </g>
                <g transform="matrix(32,0,0,32,249.711,392)">
                    <path d="M0.288,0.01C0.216,0.01 0.158,-0.014 0.113,-0.061C0.068,-0.108 0.045,-0.171 0.045,-0.25L0.045,-0.266C0.045,-0.319 0.055,-0.365 0.075,-0.406C0.095,-0.448 0.123,-0.48 0.159,-0.503C0.195,-0.526 0.234,-0.538 0.276,-0.538C0.345,-0.538 0.398,-0.515 0.437,-0.47C0.475,-0.425 0.494,-0.36 0.494,-0.276L0.494,-0.238L0.136,-0.238C0.137,-0.186 0.152,-0.144 0.181,-0.112C0.211,-0.08 0.248,-0.064 0.292,-0.064C0.324,-0.064 0.351,-0.07 0.374,-0.083C0.396,-0.097 0.415,-0.114 0.432,-0.135L0.487,-0.092C0.443,-0.024 0.376,0.01 0.288,0.01ZM0.276,-0.464C0.24,-0.464 0.209,-0.451 0.185,-0.424C0.16,-0.398 0.145,-0.36 0.139,-0.313L0.403,-0.313L0.403,-0.319C0.401,-0.365 0.388,-0.401 0.366,-0.426C0.344,-0.451 0.314,-0.464 0.276,-0.464Z" style="fill:white;fill-rule:nonzero;"/>
                </g>
                <g transform="matrix(32,0,0,32,266.664,392)">
                    <path d="M0.395,0C0.389,-0.01 0.385,-0.029 0.382,-0.056C0.34,-0.012 0.29,0.01 0.231,0.01C0.179,0.01 0.137,-0.005 0.103,-0.034C0.07,-0.064 0.053,-0.101 0.053,-0.146C0.053,-0.201 0.074,-0.244 0.116,-0.275C0.158,-0.305 0.217,-0.32 0.292,-0.32L0.38,-0.32L0.38,-0.362C0.38,-0.393 0.371,-0.419 0.352,-0.437C0.333,-0.456 0.305,-0.465 0.269,-0.465C0.236,-0.465 0.209,-0.457 0.188,-0.441C0.166,-0.425 0.155,-0.405 0.155,-0.382L0.064,-0.382C0.064,-0.408 0.073,-0.434 0.092,-0.458C0.111,-0.483 0.136,-0.502 0.168,-0.517C0.2,-0.531 0.236,-0.538 0.274,-0.538C0.335,-0.538 0.382,-0.523 0.417,-0.492C0.451,-0.462 0.469,-0.42 0.471,-0.367L0.471,-0.124C0.471,-0.075 0.477,-0.036 0.489,-0.008L0.489,0L0.395,0ZM0.245,-0.069C0.273,-0.069 0.3,-0.076 0.325,-0.091C0.351,-0.105 0.369,-0.125 0.38,-0.148L0.38,-0.256L0.31,-0.256C0.199,-0.256 0.144,-0.224 0.144,-0.159C0.144,-0.131 0.153,-0.109 0.172,-0.093C0.191,-0.077 0.215,-0.069 0.245,-0.069Z" style="fill:white;fill-rule:nonzero;"/>
                </g>
                <g transform="matrix(32,0,0,32,284.07,392)">
                    <path d="M0.191,-0.656L0.191,-0.528L0.29,-0.528L0.29,-0.458L0.191,-0.458L0.191,-0.131C0.191,-0.11 0.195,-0.094 0.204,-0.083C0.213,-0.073 0.228,-0.067 0.249,-0.067C0.259,-0.067 0.274,-0.069 0.292,-0.073L0.292,0C0.268,0.007 0.245,0.01 0.223,0.01C0.182,0.01 0.152,-0.002 0.131,-0.027C0.111,-0.051 0.101,-0.086 0.101,-0.131L0.101,-0.458L0.004,-0.458L0.004,-0.528L0.101,-0.528L0.101,-0.656L0.191,-0.656Z" style="fill:white;fill-rule:nonzero;"/>
                </g>
                <g transform="matrix(32,0,0,32,294.523,392)">
                    <path d="M0.395,-0.052C0.359,-0.011 0.308,0.01 0.24,0.01C0.183,0.01 0.141,-0.007 0.111,-0.039C0.082,-0.072 0.067,-0.12 0.066,-0.185L0.066,-0.528L0.157,-0.528L0.157,-0.187C0.157,-0.107 0.189,-0.067 0.254,-0.067C0.323,-0.067 0.369,-0.093 0.392,-0.144L0.392,-0.528L0.482,-0.528L0.482,0L0.396,0L0.395,-0.052Z" style="fill:white;fill-rule:nonzero;"/>
                </g>
                <g transform="matrix(32,0,0,32,312.164,392)">
                    <path d="M0.324,-0.447C0.31,-0.45 0.295,-0.451 0.279,-0.451C0.22,-0.451 0.18,-0.425 0.159,-0.375L0.159,0L0.068,0L0.068,-0.528L0.156,-0.528L0.158,-0.467C0.187,-0.514 0.229,-0.538 0.284,-0.538C0.301,-0.538 0.315,-0.536 0.324,-0.531L0.324,-0.447Z" style="fill:white;fill-rule:nonzero;"/>
                </g>
                <g transform="matrix(32,0,0,32,322.695,392)">
                    <path d="M0.288,0.01C0.216,0.01 0.158,-0.014 0.113,-0.061C0.068,-0.108 0.045,-0.171 0.045,-0.25L0.045,-0.266C0.045,-0.319 0.055,-0.365 0.075,-0.406C0.095,-0.448 0.123,-0.48 0.159,-0.503C0.195,-0.526 0.234,-0.538 0.276,-0.538C0.345,-0.538 0.398,-0.515 0.437,-0.47C0.475,-0.425 0.494,-0.36 0.494,-0.276L0.494,-0.238L0.136,-0.238C0.137,-0.186 0.152,-0.144 0.181,-0.112C0.211,-0.08 0.248,-0.064 0.292,-0.064C0.324,-0.064 0.351,-0.07 0.374,-0.083C0.396,-0.097 0.415,-0.114 0.432,-0.135L0.487,-0.092C0.443,-0.024 0.376,0.01 0.288,0.01ZM0.276,-0.464C0.24,-0.464 0.209,-0.451 0.185,-0.424C0.16,-0.398 0.145,-0.36 0.139,-0.313L0.403,-0.313L0.403,-0.319C0.401,-0.365 0.388,-0.401 0.366,-0.426C0.344,-0.451 0.314,-0.464 0.276,-0.464Z" style="fill:white;fill-rule:nonzero;"/>
                </g>
                <g transform="matrix(32,0,0,32,222.93,424)">
                    <path d="M0.204,-0.711L0.436,-0.131L0.668,-0.711L0.79,-0.711L0.79,0L0.696,0L0.696,-0.277L0.705,-0.576L0.472,0L0.4,0L0.167,-0.574L0.176,-0.277L0.176,0L0.083,0L0.083,-0.711L0.204,-0.711Z" style="fill:white;fill-rule:nonzero;"/>
                </g>
                <g transform="matrix(32,0,0,32,250.867,424)">
                    <path d="M0.395,0C0.389,-0.01 0.385,-0.029 0.382,-0.056C0.34,-0.012 0.29,0.01 0.231,0.01C0.179,0.01 0.137,-0.005 0.103,-0.034C0.07,-0.064 0.053,-0.101 0.053,-0.146C0.053,-0.201 0.074,-0.244 0.116,-0.275C0.158,-0.305 0.217,-0.32 0.292,-0.32L0.38,-0.32L0.38,-0.362C0.38,-0.393 0.371,-0.419 0.352,-0.437C0.333,-0.456 0.305,-0.465 0.269,-0.465C0.236,-0.465 0.209,-0.457 0.188,-0.441C0.166,-0.425 0.155,-0.405 0.155,-0.382L0.064,-0.382C0.064,-0.408 0.073,-0.434 0.092,-0.458C0.111,-0.483 0.136,-0.502 0.168,-0.517C0.2,-0.531 0.236,-0.538 0.274,-0.538C0.335,-0.538 0.382,-0.523 0.417,-0.492C0.451,-0.462 0.469,-0.42 0.471,-0.367L0.471,-0.124C0.471,-0.075 0.477,-0.036 0.489,-0.008L0.489,0L0.395,0ZM0.245,-0.069C0.273,-0.069 0.3,-0.076 0.325,-0.091C0.351,-0.105 0.369,-0.125 0.38,-0.148L0.38,-0.256L0.31,-0.256C0.199,-0.256 0.144,-0.224 0.144,-0.159C0.144,-0.131 0.153,-0.109 0.172,-0.093C0.191,-0.077 0.215,-0.069 0.245,-0.069Z" style="fill:white;fill-rule:nonzero;"/>
                </g>
                <g transform="matrix(32,0,0,32,268.273,424)">
                    <path d="M0.154,-0.528L0.157,-0.462C0.197,-0.513 0.25,-0.538 0.315,-0.538C0.427,-0.538 0.483,-0.475 0.484,-0.349L0.484,0L0.394,0L0.394,-0.35C0.393,-0.388 0.385,-0.416 0.367,-0.434C0.35,-0.452 0.324,-0.461 0.288,-0.461C0.258,-0.461 0.233,-0.454 0.21,-0.438C0.188,-0.422 0.171,-0.402 0.159,-0.376L0.159,0L0.068,0L0.068,-0.528L0.154,-0.528Z" style="fill:white;fill-rule:nonzero;"/>
                </g>
                <g transform="matrix(32,0,0,32,285.93,424)">
                    <path d="M0.395,0C0.389,-0.01 0.385,-0.029 0.382,-0.056C0.34,-0.012 0.29,0.01 0.231,0.01C0.179,0.01 0.137,-0.005 0.103,-0.034C0.07,-0.064 0.053,-0.101 0.053,-0.146C0.053,-0.201 0.074,-0.244 0.116,-0.275C0.158,-0.305 0.217,-0.32 0.292,-0.32L0.38,-0.32L0.38,-0.362C0.38,-0.393 0.371,-0.419 0.352,-0.437C0.333,-0.456 0.305,-0.465 0.269,-0.465C0.236,-0.465 0.209,-0.457 0.188,-0.441C0.166,-0.425 0.155,-0.405 0.155,-0.382L0.064,-0.382C0.064,-0.408 0.073,-0.434 0.092,-0.458C0.111,-0.483 0.136,-0.502 0.168,-0.517C0.2,-0.531 0.236,-0.538 0.274,-0.538C0.335,-0.538 0.382,-0.523 0.417,-0.492C0.451,-0.462 0.469,-0.42 0.471,-0.367L0.471,-0.124C0.471,-0.075 0.477,-0.036 0.489,-0.008L0.489,0L0.395,0ZM0.245,-0.069C0.273,-0.069 0.3,-0.076 0.325,-0.091C0.351,-0.105 0.369,-0.125 0.38,-0.148L0.38,-0.256L0.31,-0.256C0.199,-0.256 0.144,-0.224 0.144,-0.159C0.144,-0.131 0.153,-0.109 0.172,-0.093C0.191,-0.077 0.215,-0.069 0.245,-0.069Z" style="fill:white;fill-rule:nonzero;"/>
                </g>
                <g transform="matrix(32,0,0,32,303.336,424)">
                    <path d="M0.047,-0.269C0.047,-0.351 0.066,-0.416 0.104,-0.465C0.142,-0.514 0.193,-0.538 0.255,-0.538C0.32,-0.538 0.37,-0.515 0.406,-0.47L0.411,-0.528L0.493,-0.528L0.493,-0.013C0.493,0.056 0.473,0.11 0.432,0.149C0.392,0.188 0.337,0.208 0.269,0.208C0.231,0.208 0.194,0.2 0.157,0.184C0.121,0.167 0.093,0.145 0.074,0.117L0.121,0.063C0.159,0.11 0.207,0.134 0.263,0.134C0.307,0.134 0.341,0.122 0.365,0.097C0.39,0.072 0.402,0.038 0.402,-0.007L0.402,-0.053C0.366,-0.011 0.317,0.01 0.254,0.01C0.193,0.01 0.142,-0.015 0.104,-0.065C0.066,-0.115 0.047,-0.183 0.047,-0.269ZM0.138,-0.258C0.138,-0.199 0.15,-0.152 0.174,-0.118C0.199,-0.084 0.233,-0.067 0.277,-0.067C0.334,-0.067 0.376,-0.093 0.402,-0.145L0.402,-0.386C0.375,-0.436 0.333,-0.461 0.278,-0.461C0.234,-0.461 0.2,-0.444 0.175,-0.41C0.15,-0.376 0.138,-0.325 0.138,-0.258Z" style="fill:white;fill-rule:nonzero;"/>
                </g>
                <g transform="matrix(32,0,0,32,321.289,424)">
                    <path d="M0.288,0.01C0.216,0.01 0.158,-0.014 0.113,-0.061C0.068,-0.108 0.045,-0.171 0.045,-0.25L0.045,-0.266C0.045,-0.319 0.055,-0.365 0.075,-0.406C0.095,-0.448 0.123,-0.48 0.159,-0.503C0.195,-0.526 0.234,-0.538 0.276,-0.538C0.345,-0.538 0.398,-0.515 0.437,-0.47C0.475,-0.425 0.494,-0.36 0.494,-0.276L0.494,-0.238L0.136,-0.238C0.137,-0.186 0.152,-0.144 0.181,-0.112C0.211,-0.08 0.248,-0.064 0.292,-0.064C0.324,-0.064 0.351,-0.07 0.374,-0.083C0.396,-0.097 0.415,-0.114 0.432,-0.135L0.487,-0.092C0.443,-0.024 0.376,0.01 0.288,0.01ZM0.276,-0.464C0.24,-0.464 0.209,-0.451 0.185,-0.424C0.16,-0.398 0.145,-0.36 0.139,-0.313L0.403,-0.313L0.403,-0.319C0.401,-0.365 0.388,-0.401 0.366,-0.426C0.344,-0.451 0.314,-0.464 0.276,-0.464Z" style="fill:white;fill-rule:nonzero;"/>
                </g>
                <g transform="matrix(32,0,0,32,338.242,424)">
                    <path d="M0.324,-0.447C0.31,-0.45 0.295,-0.451 0.279,-0.451C0.22,-0.451 0.18,-0.425 0.159,-0.375L0.159,0L0.068,0L0.068,-0.528L0.156,-0.528L0.158,-0.467C0.187,-0.514 0.229,-0.538 0.284,-0.538C0.301,-0.538 0.315,-0.536 0.324,-0.531L0.324,-0.447Z" style="fill:white;fill-rule:nonzero;"/>
                </g>
            </g>
        </g>
    </g>
    <g transform="matrix(1.16667,0,0,1.70992,313.333,-130.992)">
        <g transform="matrix(1.14833,0,0,0.892857,-101.244,-153.571)">
            <path d="M332,310.2C332,295.74 318.621,284 302.143,284L152.857,284C136.379,284 123,295.74 123,310.2L123,388.8C123,403.26 136.379,415 152.857,415L302.143,415C318.621,415 332,403.26 332,388.8L332,310.2Z" style="fill:white;stroke:rgb(39,194,120);stroke-width:2.79px;"/>
        </g>
        <g transform="matrix(0.857143,0,0,0.584821,-110.857,-82.4643)">
            <g transform="matrix(32,0,0,32,252.766,360)">
                <path d="M0.482,-0.301L0.196,-0.301L0.196,0L0.072,0L0.072,-0.711L0.524,-0.711L0.524,-0.611L0.196,-0.611L0.196,-0.4L0.482,-0.4L0.482,-0.301Z" style="fill:rgb(45,46,68);fill-rule:nonzero;"/>
            </g>
            <g transform="matrix(32,0,0,32,270.016,360)">
                <path d="M0.293,0.01C0.218,0.01 0.157,-0.014 0.111,-0.061C0.064,-0.109 0.041,-0.172 0.041,-0.25L0.041,-0.265C0.041,-0.318 0.051,-0.365 0.071,-0.406C0.091,-0.448 0.12,-0.48 0.157,-0.503C0.194,-0.527 0.235,-0.538 0.28,-0.538C0.352,-0.538 0.407,-0.515 0.447,-0.469C0.486,-0.423 0.505,-0.358 0.505,-0.274L0.505,-0.227L0.16,-0.227C0.164,-0.183 0.178,-0.148 0.204,-0.123C0.229,-0.098 0.262,-0.085 0.3,-0.085C0.355,-0.085 0.399,-0.107 0.433,-0.151L0.497,-0.09C0.476,-0.058 0.448,-0.034 0.412,-0.016C0.377,0.001 0.337,0.01 0.293,0.01ZM0.279,-0.443C0.247,-0.443 0.22,-0.431 0.2,-0.409C0.18,-0.386 0.168,-0.354 0.162,-0.313L0.388,-0.313L0.388,-0.322C0.386,-0.362 0.375,-0.392 0.356,-0.412C0.338,-0.433 0.312,-0.443 0.279,-0.443Z" style="fill:rgb(45,46,68);fill-rule:nonzero;"/>
            </g>
            <g transform="matrix(32,0,0,32,287.188,360)">
                <path d="M0.376,0C0.371,-0.01 0.367,-0.027 0.363,-0.049C0.325,-0.01 0.279,0.01 0.224,0.01C0.171,0.01 0.128,-0.005 0.094,-0.036C0.061,-0.066 0.044,-0.103 0.044,-0.148C0.044,-0.204 0.065,-0.247 0.107,-0.278C0.149,-0.308 0.208,-0.323 0.286,-0.323L0.359,-0.323L0.359,-0.357C0.359,-0.385 0.351,-0.407 0.336,-0.423C0.321,-0.44 0.297,-0.448 0.266,-0.448C0.239,-0.448 0.217,-0.441 0.2,-0.427C0.182,-0.414 0.174,-0.397 0.174,-0.376L0.055,-0.376C0.055,-0.405 0.065,-0.432 0.084,-0.457C0.103,-0.483 0.129,-0.502 0.162,-0.517C0.195,-0.531 0.232,-0.538 0.273,-0.538C0.335,-0.538 0.384,-0.523 0.421,-0.491C0.458,-0.46 0.477,-0.417 0.478,-0.36L0.478,-0.122C0.478,-0.075 0.484,-0.037 0.498,-0.008L0.498,0L0.376,0ZM0.246,-0.085C0.27,-0.085 0.292,-0.091 0.312,-0.103C0.333,-0.114 0.348,-0.129 0.359,-0.148L0.359,-0.248L0.295,-0.248C0.251,-0.248 0.218,-0.24 0.196,-0.225C0.174,-0.21 0.163,-0.188 0.163,-0.16C0.163,-0.137 0.17,-0.119 0.185,-0.106C0.2,-0.092 0.221,-0.085 0.246,-0.085Z" style="fill:rgb(45,46,68);fill-rule:nonzero;"/>
            </g>
            <g transform="matrix(32,0,0,32,304.5,360)">
                <path d="M0.209,-0.657L0.209,-0.528L0.303,-0.528L0.303,-0.44L0.209,-0.44L0.209,-0.146C0.209,-0.125 0.213,-0.111 0.221,-0.102C0.229,-0.093 0.244,-0.088 0.264,-0.088C0.278,-0.088 0.292,-0.09 0.306,-0.093L0.306,-0.001C0.279,0.006 0.253,0.01 0.228,0.01C0.136,0.01 0.091,-0.041 0.091,-0.141L0.091,-0.44L0.004,-0.44L0.004,-0.528L0.091,-0.528L0.091,-0.657L0.209,-0.657Z" style="fill:rgb(45,46,68);fill-rule:nonzero;"/>
            </g>
            <g transform="matrix(32,0,0,32,315.141,360)">
                <path d="M0.381,-0.052C0.346,-0.011 0.297,0.01 0.232,0.01C0.175,0.01 0.132,-0.007 0.102,-0.041C0.073,-0.074 0.058,-0.123 0.058,-0.186L0.058,-0.528L0.177,-0.528L0.177,-0.188C0.177,-0.12 0.205,-0.087 0.26,-0.087C0.318,-0.087 0.357,-0.108 0.377,-0.149L0.377,-0.528L0.496,-0.528L0.496,0L0.384,0L0.381,-0.052Z" style="fill:rgb(45,46,68);fill-rule:nonzero;"/>
            </g>
            <g transform="matrix(32,0,0,32,332.922,360)">
                <path d="M0.337,-0.42C0.322,-0.423 0.306,-0.424 0.289,-0.424C0.235,-0.424 0.198,-0.403 0.179,-0.361L0.179,0L0.061,0L0.061,-0.528L0.174,-0.528L0.177,-0.469C0.205,-0.515 0.245,-0.538 0.296,-0.538C0.313,-0.538 0.327,-0.536 0.338,-0.531L0.337,-0.42Z" style="fill:rgb(45,46,68);fill-rule:nonzero;"/>
            </g>
            <g transform="matrix(32,0,0,32,343.875,360)">
                <path d="M0.293,0.01C0.218,0.01 0.157,-0.014 0.111,-0.061C0.064,-0.109 0.041,-0.172 0.041,-0.25L0.041,-0.265C0.041,-0.318 0.051,-0.365 0.071,-0.406C0.091,-0.448 0.12,-0.48 0.157,-0.503C0.194,-0.527 0.235,-0.538 0.28,-0.538C0.352,-0.538 0.407,-0.515 0.447,-0.469C0.486,-0.423 0.505,-0.358 0.505,-0.274L0.505,-0.227L0.16,-0.227C0.164,-0.183 0.178,-0.148 0.204,-0.123C0.229,-0.098 0.262,-0.085 0.3,-0.085C0.355,-0.085 0.399,-0.107 0.433,-0.151L0.497,-0.09C0.476,-0.058 0.448,-0.034 0.412,-0.016C0.377,0.001 0.337,0.01 0.293,0.01ZM0.279,-0.443C0.247,-0.443 0.22,-0.431 0.2,-0.409C0.18,-0.386 0.168,-0.354 0.162,-0.313L0.388,-0.313L0.388,-0.322C0.386,-0.362 0.375,-0.392 0.356,-0.412C0.338,-0.433 0.312,-0.443 0.279,-0.443Z" style="fill:rgb(45,46,68);fill-rule:nonzero;"/>
            </g>
            <g transform="matrix(32,0,0,32,361.047,360)">
                <path d="M0.375,0L0.256,0L0.256,-0.571L0.082,-0.511L0.082,-0.611L0.359,-0.713L0.375,-0.713L0.375,0Z" style="fill:rgb(45,46,68);fill-rule:nonzero;"/>
            </g>
            <g transform="matrix(32,0,0,32,262.289,392)">
                <path d="M0.232,-0.711L0.438,-0.166L0.642,-0.711L0.802,-0.711L0.802,0L0.679,0L0.679,-0.234L0.691,-0.548L0.481,0L0.393,0L0.183,-0.547L0.195,-0.234L0.195,0L0.072,0L0.072,-0.711L0.232,-0.711Z" style="fill:rgb(45,46,68);fill-rule:nonzero;"/>
            </g>
            <g transform="matrix(32,0,0,32,290.305,392)">
                <path d="M0.039,-0.269C0.039,-0.321 0.049,-0.367 0.069,-0.409C0.09,-0.45 0.119,-0.482 0.156,-0.505C0.193,-0.527 0.236,-0.538 0.284,-0.538C0.355,-0.538 0.413,-0.515 0.457,-0.469C0.502,-0.423 0.526,-0.362 0.529,-0.287L0.53,-0.259C0.53,-0.207 0.52,-0.16 0.5,-0.119C0.48,-0.078 0.451,-0.046 0.414,-0.024C0.377,-0.001 0.333,0.01 0.285,0.01C0.21,0.01 0.15,-0.015 0.106,-0.065C0.061,-0.114 0.039,-0.181 0.039,-0.263L0.039,-0.269ZM0.157,-0.259C0.157,-0.204 0.168,-0.162 0.191,-0.131C0.213,-0.1 0.245,-0.085 0.285,-0.085C0.325,-0.085 0.356,-0.101 0.378,-0.132C0.4,-0.163 0.412,-0.209 0.412,-0.269C0.412,-0.322 0.4,-0.365 0.377,-0.396C0.354,-0.427 0.323,-0.443 0.284,-0.443C0.245,-0.443 0.214,-0.427 0.191,-0.397C0.169,-0.366 0.157,-0.32 0.157,-0.259Z" style="fill:rgb(45,46,68);fill-rule:nonzero;"/>
            </g>
            <g transform="matrix(32,0,0,32,308.523,392)">
                <path d="M0.039,-0.268C0.039,-0.349 0.057,-0.415 0.095,-0.464C0.133,-0.513 0.184,-0.538 0.247,-0.538C0.303,-0.538 0.348,-0.519 0.383,-0.479L0.383,-0.75L0.501,-0.75L0.501,0L0.394,0L0.388,-0.055C0.353,-0.012 0.305,0.01 0.246,0.01C0.184,0.01 0.134,-0.015 0.096,-0.065C0.058,-0.115 0.039,-0.182 0.039,-0.268ZM0.157,-0.258C0.157,-0.204 0.168,-0.162 0.188,-0.132C0.209,-0.102 0.238,-0.087 0.276,-0.087C0.325,-0.087 0.36,-0.109 0.383,-0.152L0.383,-0.377C0.361,-0.42 0.326,-0.441 0.277,-0.441C0.239,-0.441 0.209,-0.426 0.188,-0.395C0.168,-0.365 0.157,-0.319 0.157,-0.258Z" style="fill:rgb(45,46,68);fill-rule:nonzero;"/>
            </g>
            <g transform="matrix(32,0,0,32,326.586,392)">
                <path d="M0.381,-0.052C0.346,-0.011 0.297,0.01 0.232,0.01C0.175,0.01 0.132,-0.007 0.102,-0.041C0.073,-0.074 0.058,-0.123 0.058,-0.186L0.058,-0.528L0.177,-0.528L0.177,-0.188C0.177,-0.12 0.205,-0.087 0.26,-0.087C0.318,-0.087 0.357,-0.108 0.377,-0.149L0.377,-0.528L0.496,-0.528L0.496,0L0.384,0L0.381,-0.052Z" style="fill:rgb(45,46,68);fill-rule:nonzero;"/>
            </g>
            <g transform="matrix(32,0,0,32,344.367,392)">
                <rect x="0.068" y="-0.75" width="0.119" height="0.75" style="fill:rgb(45,46,68);fill-rule:nonzero;"/>
            </g>
            <g transform="matrix(32,0,0,32,352.539,392)">
                <path d="M0.293,0.01C0.218,0.01 0.157,-0.014 0.111,-0.061C0.064,-0.109 0.041,-0.172 0.041,-0.25L0.041,-0.265C0.041,-0.318 0.051,-0.365 0.071,-0.406C0.091,-0.448 0.12,-0.48 0.157,-0.503C0.194,-0.527 0.235,-0.538 0.28,-0.538C0.352,-0.538 0.407,-0.515 0.447,-0.469C0.486,-0.423 0.505,-0.358 0.505,-0.274L0.505,-0.227L0.16,-0.227C0.164,-0.183 0.178,-0.148 0.204,-0.123C0.229,-0.098 0.262,-0.085 0.3,-0.085C0.355,-0.085 0.399,-0.107 0.433,-0.151L0.497,-0.09C0.476,-0.058 0.448,-0.034 0.412,-0.016C0.377,0.001 0.337,0.01 0.293,0.01ZM0.279,-0.443C0.247,-0.443 0.22,-0.431 0.2,-0.409C0.18,-0.386 0.168,-0.354 0.162,-0.313L0.388,-0.313L0.388,-0.322C0.386,-0.362 0.375,-0.392 0.356,-0.412C0.338,-0.433 0.312,-0.443 0.279,-0.443Z" style="fill:rgb(45,46,68);fill-rule:nonzero;"/>
            </g>
        </g>
        <g transform="matrix(0.785714,0,0,0.3125,34.2857,130.156)">
            <g transform="matrix(1.14833,0,0,1,-101.244,-184)">
                <path d="M332,316.75C332,298.675 324.551,284 315.375,284L139.625,284C130.449,284 123,298.675 123,316.75L123,382.25C123,400.325 130.449,415 139.625,415L315.375,415C324.551,415 332,400.325 332,382.25L332,316.75Z" style="fill:rgb(39,194,120);"/>
            </g>
            <g transform="matrix(1.09091,0,0,1.87143,-152,-528.8)">
                <g transform="matrix(32,0,0,32,223.367,383)">
                    <path d="M0.475,-0.314L0.176,-0.314L0.176,0L0.083,0L0.083,-0.711L0.523,-0.711L0.523,-0.634L0.176,-0.634L0.176,-0.391L0.475,-0.391L0.475,-0.314Z" style="fill:white;fill-rule:nonzero;"/>
                </g>
                <g transform="matrix(32,0,0,32,240.727,383)">
                    <path d="M0.288,0.01C0.216,0.01 0.158,-0.014 0.113,-0.061C0.068,-0.108 0.045,-0.171 0.045,-0.25L0.045,-0.266C0.045,-0.319 0.055,-0.365 0.075,-0.406C0.095,-0.448 0.123,-0.48 0.159,-0.503C0.195,-0.526 0.234,-0.538 0.276,-0.538C0.345,-0.538 0.398,-0.515 0.437,-0.47C0.475,-0.425 0.494,-0.36 0.494,-0.276L0.494,-0.238L0.136,-0.238C0.137,-0.186 0.152,-0.144 0.181,-0.112C0.211,-0.08 0.248,-0.064 0.292,-0.064C0.324,-0.064 0.351,-0.07 0.374,-0.083C0.396,-0.097 0.415,-0.114 0.432,-0.135L0.487,-0.092C0.443,-0.024 0.376,0.01 0.288,0.01ZM0.276,-0.464C0.24,-0.464 0.209,-0.451 0.185,-0.424C0.16,-0.398 0.145,-0.36 0.139,-0.313L0.403,-0.313L0.403,-0.319C0.401,-0.365 0.388,-0.401 0.366,-0.426C0.344,-0.451 0.314,-0.464 0.276,-0.464Z" style="fill:white;fill-rule:nonzero;"/>
                </g>
                <g transform="matrix(32,0,0,32,257.68,383)">
                    <path d="M0.395,0C0.389,-0.01 0.385,-0.029 0.382,-0.056C0.34,-0.012 0.29,0.01 0.231,0.01C0.179,0.01 0.137,-0.005 0.103,-0.034C0.07,-0.064 0.053,-0.101 0.053,-0.146C0.053,-0.201 0.074,-0.244 0.116,-0.275C0.158,-0.305 0.217,-0.32 0.292,-0.32L0.38,-0.32L0.38,-0.362C0.38,-0.393 0.371,-0.419 0.352,-0.437C0.333,-0.456 0.305,-0.465 0.269,-0.465C0.236,-0.465 0.209,-0.457 0.188,-0.441C0.166,-0.425 0.155,-0.405 0.155,-0.382L0.064,-0.382C0.064,-0.408 0.073,-0.434 0.092,-0.458C0.111,-0.483 0.136,-0.502 0.168,-0.517C0.2,-0.531 0.236,-0.538 0.274,-0.538C0.335,-0.538 0.382,-0.523 0.417,-0.492C0.451,-0.462 0.469,-0.42 0.471,-0.367L0.471,-0.124C0.471,-0.075 0.477,-0.036 0.489,-0.008L0.489,0L0.395,0ZM0.245,-0.069C0.273,-0.069 0.3,-0.076 0.325,-0.091C0.351,-0.105 0.369,-0.125 0.38,-0.148L0.38,-0.256L0.31,-0.256C0.199,-0.256 0.144,-0.224 0.144,-0.159C0.144,-0.131 0.153,-0.109 0.172,-0.093C0.191,-0.077 0.215,-0.069 0.245,-0.069Z" style="fill:white;fill-rule:nonzero;"/>
                </g>
                <g transform="matrix(32,0,0,32,275.086,383)">
                    <path d="M0.191,-0.656L0.191,-0.528L0.29,-0.528L0.29,-0.458L0.191,-0.458L0.191,-0.131C0.191,-0.11 0.195,-0.094 0.204,-0.083C0.213,-0.073 0.228,-0.067 0.249,-0.067C0.259,-0.067 0.274,-0.069 0.292,-0.073L0.292,0C0.268,0.007 0.245,0.01 0.223,0.01C0.182,0.01 0.152,-0.002 0.131,-0.027C0.111,-0.051 0.101,-0.086 0.101,-0.131L0.101,-0.458L0.004,-0.458L0.004,-0.528L0.101,-0.528L0.101,-0.656L0.191,-0.656Z" style="fill:white;fill-rule:nonzero;"/>
                </g>
                <g transform="matrix(32,0,0,32,285.539,383)">
                    <path d="M0.395,-0.052C0.359,-0.011 0.308,0.01 0.24,0.01C0.183,0.01 0.141,-0.007 0.111,-0.039C0.082,-0.072 0.067,-0.12 0.066,-0.185L0.066,-0.528L0.157,-0.528L0.157,-0.187C0.157,-0.107 0.189,-0.067 0.254,-0.067C0.323,-0.067 0.369,-0.093 0.392,-0.144L0.392,-0.528L0.482,-0.528L0.482,0L0.396,0L0.395,-0.052Z" style="fill:white;fill-rule:nonzero;"/>
                </g>
                <g transform="matrix(32,0,0,32,303.18,383)">
                    <path d="M0.324,-0.447C0.31,-0.45 0.295,-0.451 0.279,-0.451C0.22,-0.451 0.18,-0.425 0.159,-0.375L0.159,0L0.068,0L0.068,-0.528L0.156,-0.528L0.158,-0.467C0.187,-0.514 0.229,-0.538 0.284,-0.538C0.301,-0.538 0.315,-0.536 0.324,-0.531L0.324,-0.447Z" style="fill:white;fill-rule:nonzero;"/>
                </g>
                <g transform="matrix(32,0,0,32,313.711,383)">
                    <path d="M0.288,0.01C0.216,0.01 0.158,-0.014 0.113,-0.061C0.068,-0.108 0.045,-0.171 0.045,-0.25L0.045,-0.266C0.045,-0.319 0.055,-0.365 0.075,-0.406C0.095,-0.448 0.123,-0.48 0.159,-0.503C0.195,-0.526 0.234,-0.538 0.276,-0.538C0.345,-0.538 0.398,-0.515 0.437,-0.47C0.475,-0.425 0.494,-0.36 0.494,-0.276L0.494,-0.238L0.136,-0.238C0.137,-0.186 0.152,-0.144 0.181,-0.112C0.211,-0.08 0.248,-0.064 0.292,-0.064C0.324,-0.064 0.351,-0.07 0.374,-0.083C0.396,-0.097 0.415,-0.114 0.432,-0.135L0.487,-0.092C0.443,-0.024 0.376,0.01 0.288,0.01ZM0.276,-0.464C0.24,-0.464 0.209,-0.451 0.185,-0.424C0.16,-0.398 0.145,-0.36 0.139,-0.313L0.403,-0.313L0.403,-0.319C0.401,-0.365 0.388,-0.401 0.366,-0.426C0.344,-0.451 0.314,-0.464 0.276,-0.464Z" style="fill:white;fill-rule:nonzero;"/>
                </g>
                <g transform="matrix(32,0,0,32,330.664,383)">
                    <path d="M0.356,0L0.265,0L0.265,-0.602L0.083,-0.535L0.083,-0.617L0.342,-0.714L0.356,-0.714L0.356,0Z" style="fill:white;fill-rule:nonzero;"/>
                </g>
            </g>
        </g>
    </g>
    <g transform="matrix(1.16667,0,0,1.70992,313.333,109.008)">
        <g transform="matrix(1.14833,0,0,0.892857,-101.244,-153.571)">
            <path d="M332,310.2C332,295.74 318.621,284 302.143,284L152.857,284C136.379,284 123,295.74 123,310.2L123,388.8C123,403.26 136.379,415 152.857,415L302.143,415C318.621,415 332,403.26 332,388.8L332,310.2Z" style="fill:white;stroke:rgb(39,194,120);stroke-width:2.79px;"/>
        </g>
        <g transform="matrix(0.857143,0,0,0.584821,-110.857,-82.4643)">
            <g transform="matrix(32,0,0,32,252.766,360)">
                <path d="M0.482,-0.301L0.196,-0.301L0.196,0L0.072,0L0.072,-0.711L0.524,-0.711L0.524,-0.611L0.196,-0.611L0.196,-0.4L0.482,-0.4L0.482,-0.301Z" style="fill:rgb(45,46,68);fill-rule:nonzero;"/>
            </g>
            <g transform="matrix(32,0,0,32,270.016,360)">
                <path d="M0.293,0.01C0.218,0.01 0.157,-0.014 0.111,-0.061C0.064,-0.109 0.041,-0.172 0.041,-0.25L0.041,-0.265C0.041,-0.318 0.051,-0.365 0.071,-0.406C0.091,-0.448 0.12,-0.48 0.157,-0.503C0.194,-0.527 0.235,-0.538 0.28,-0.538C0.352,-0.538 0.407,-0.515 0.447,-0.469C0.486,-0.423 0.505,-0.358 0.505,-0.274L0.505,-0.227L0.16,-0.227C0.164,-0.183 0.178,-0.148 0.204,-0.123C0.229,-0.098 0.262,-0.085 0.3,-0.085C0.355,-0.085 0.399,-0.107 0.433,-0.151L0.497,-0.09C0.476,-0.058 0.448,-0.034 0.412,-0.016C0.377,0.001 0.337,0.01 0.293,0.01ZM0.279,-0.443C0.247,-0.443 0.22,-0.431 0.2,-0.409C0.18,-0.386 0.168,-0.354 0.162,-0.313L0.388,-0.313L0.388,-0.322C0.386,-0.362 0.375,-0.392 0.356,-0.412C0.338,-0.433 0.312,-0.443 0.279,-0.443Z" style="fill:rgb(45,46,68);fill-rule:nonzero;"/>
            </g>
            <g transform="matrix(32,0,0,32,287.188,360)">
                <path d="M0.376,0C0.371,-0.01 0.367,-0.027 0.363,-0.049C0.325,-0.01 0.279,0.01 0.224,0.01C0.171,0.01 0.128,-0.005 0.094,-0.036C0.061,-0.066 0.044,-0.103 0.044,-0.148C0.044,-0.204 0.065,-0.247 0.107,-0.278C0.149,-0.308 0.208,-0.323 0.286,-0.323L0.359,-0.323L0.359,-0.357C0.359,-0.385 0.351,-0.407 0.336,-0.423C0.321,-0.44 0.297,-0.448 0.266,-0.448C0.239,-0.448 0.217,-0.441 0.2,-0.427C0.182,-0.414 0.174,-0.397 0.174,-0.376L0.055,-0.376C0.055,-0.405 0.065,-0.432 0.084,-0.457C0.103,-0.483 0.129,-0.502 0.162,-0.517C0.195,-0.531 0.232,-0.538 0.273,-0.538C0.335,-0.538 0.384,-0.523 0.421,-0.491C0.458,-0.46 0.477,-0.417 0.478,-0.36L0.478,-0.122C0.478,-0.075 0.484,-0.037 0.498,-0.008L0.498,0L0.376,0ZM0.246,-0.085C0.27,-0.085 0.292,-0.091 0.312,-0.103C0.333,-0.114 0.348,-0.129 0.359,-0.148L0.359,-0.248L0.295,-0.248C0.251,-0.248 0.218,-0.24 0.196,-0.225C0.174,-0.21 0.163,-0.188 0.163,-0.16C0.163,-0.137 0.17,-0.119 0.185,-0.106C0.2,-0.092 0.221,-0.085 0.246,-0.085Z" style="fill:rgb(45,46,68);fill-rule:nonzero;"/>
            </g>
            <g transform="matrix(32,0,0,32,304.5,360)">
                <path d="M0.209,-0.657L0.209,-0.528L0.303,-0.528L0.303,-0.44L0.209,-0.44L0.209,-0.146C0.209,-0.125 0.213,-0.111 0.221,-0.102C0.229,-0.093 0.244,-0.088 0.264,-0.088C0.278,-0.088 0.292,-0.09 0.306,-0.093L0.306,-0.001C0.279,0.006 0.253,0.01 0.228,0.01C0.136,0.01 0.091,-0.041 0.091,-0.141L0.091,-0.44L0.004,-0.44L0.004,-0.528L0.091,-0.528L0.091,-0.657L0.209,-0.657Z" style="fill:rgb(45,46,68);fill-rule:nonzero;"/>
            </g>
            <g transform="matrix(32,0,0,32,315.141,360)">
                <path d="M0.381,-0.052C0.346,-0.011 0.297,0.01 0.232,0.01C0.175,0.01 0.132,-0.007 0.102,-0.041C0.073,-0.074 0.058,-0.123 0.058,-0.186L0.058,-0.528L0.177,-0.528L0.177,-0.188C0.177,-0.12 0.205,-0.087 0.26,-0.087C0.318,-0.087 0.357,-0.108 0.377,-0.149L0.377,-0.528L0.496,-0.528L0.496,0L0.384,0L0.381,-0.052Z" style="fill:rgb(45,46,68);fill-rule:nonzero;"/>
            </g>
            <g transform="matrix(32,0,0,32,332.922,360)">
                <path d="M0.337,-0.42C0.322,-0.423 0.306,-0.424 0.289,-0.424C0.235,-0.424 0.198,-0.403 0.179,-0.361L0.179,0L0.061,0L0.061,-0.528L0.174,-0.528L0.177,-0.469C0.205,-0.515 0.245,-0.538 0.296,-0.538C0.313,-0.538 0.327,-0.536 0.338,-0.531L0.337,-0.42Z" style="fill:rgb(45,46,68);fill-rule:nonzero;"/>
            </g>
            <g transform="matrix(32,0,0,32,343.875,360)">
                <path d="M0.293,0.01C0.218,0.01 0.157,-0.014 0.111,-0.061C0.064,-0.109 0.041,-0.172 0.041,-0.25L0.041,-0.265C0.041,-0.318 0.051,-0.365 0.071,-0.406C0.091,-0.448 0.12,-0.48 0.157,-0.503C0.194,-0.527 0.235,-0.538 0.28,-0.538C0.352,-0.538 0.407,-0.515 0.447,-0.469C0.486,-0.423 0.505,-0.358 0.505,-0.274L0.505,-0.227L0.16,-0.227C0.164,-0.183 0.178,-0.148 0.204,-0.123C0.229,-0.098 0.262,-0.085 0.3,-0.085C0.355,-0.085 0.399,-0.107 0.433,-0.151L0.497,-0.09C0.476,-0.058 0.448,-0.034 0.412,-0.016C0.377,0.001 0.337,0.01 0.293,0.01ZM0.279,-0.443C0.247,-0.443 0.22,-0.431 0.2,-0.409C0.18,-0.386 0.168,-0.354 0.162,-0.313L0.388,-0.313L0.388,-0.322C0.386,-0.362 0.375,-0.392 0.356,-0.412C0.338,-0.433 0.312,-0.443 0.279,-0.443Z" style="fill:rgb(45,46,68);fill-rule:nonzero;"/>
            </g>
            <g transform="matrix(32,0,0,32,361.047,360)">
                <path d="M0.531,0L0.053,0L0.053,-0.082L0.29,-0.34C0.324,-0.378 0.349,-0.41 0.363,-0.435C0.378,-0.461 0.385,-0.486 0.385,-0.512C0.385,-0.546 0.375,-0.573 0.356,-0.594C0.337,-0.615 0.312,-0.625 0.279,-0.625C0.241,-0.625 0.211,-0.614 0.19,-0.59C0.169,-0.567 0.158,-0.535 0.158,-0.494L0.04,-0.494C0.04,-0.537 0.049,-0.576 0.069,-0.611C0.089,-0.646 0.117,-0.673 0.154,-0.692C0.19,-0.711 0.232,-0.721 0.28,-0.721C0.349,-0.721 0.404,-0.703 0.444,-0.669C0.483,-0.634 0.503,-0.586 0.503,-0.525C0.503,-0.489 0.493,-0.452 0.473,-0.413C0.453,-0.374 0.421,-0.33 0.375,-0.281L0.201,-0.095L0.531,-0.095L0.531,0Z" style="fill:rgb(45,46,68);fill-rule:nonzero;"/>
            </g>
            <g transform="matrix(32,0,0,32,262.289,392)">
                <path d="M0.232,-0.711L0.438,-0.166L0.642,-0.711L0.802,-0.711L0.802,0L0.679,0L0.679,-0.234L0.691,-0.548L0.481,0L0.393,0L0.183,-0.547L0.195,-0.234L0.195,0L0.072,0L0.072,-0.711L0.232,-0.711Z" style="fill:rgb(45,46,68);fill-rule:nonzero;"/>
            </g>
            <g transform="matrix(32,0,0,32,290.305,392)">
                <path d="M0.039,-0.269C0.039,-0.321 0.049,-0.367 0.069,-0.409C0.09,-0.45 0.119,-0.482 0.156,-0.505C0.193,-0.527 0.236,-0.538 0.284,-0.538C0.355,-0.538 0.413,-0.515 0.457,-0.469C0.502,-0.423 0.526,-0.362 0.529,-0.287L0.53,-0.259C0.53,-0.207 0.52,-0.16 0.5,-0.119C0.48,-0.078 0.451,-0.046 0.414,-0.024C0.377,-0.001 0.333,0.01 0.285,0.01C0.21,0.01 0.15,-0.015 0.106,-0.065C0.061,-0.114 0.039,-0.181 0.039,-0.263L0.039,-0.269ZM0.157,-0.259C0.157,-0.204 0.168,-0.162 0.191,-0.131C0.213,-0.1 0.245,-0.085 0.285,-0.085C0.325,-0.085 0.356,-0.101 0.378,-0.132C0.4,-0.163 0.412,-0.209 0.412,-0.269C0.412,-0.322 0.4,-0.365 0.377,-0.396C0.354,-0.427 0.323,-0.443 0.284,-0.443C0.245,-0.443 0.214,-0.427 0.191,-0.397C0.169,-0.366 0.157,-0.32 0.157,-0.259Z" style="fill:rgb(45,46,68);fill-rule:nonzero;"/>
            </g>
            <g transform="matrix(32,0,0,32,308.523,392)">
                <path d="M0.039,-0.268C0.039,-0.349 0.057,-0.415 0.095,-0.464C0.133,-0.513 0.184,-0.538 0.247,-0.538C0.303,-0.538 0.348,-0.519 0.383,-0.479L0.383,-0.75L0.501,-0.75L0.501,0L0.394,0L0.388,-0.055C0.353,-0.012 0.305,0.01 0.246,0.01C0.184,0.01 0.134,-0.015 0.096,-0.065C0.058,-0.115 0.039,-0.182 0.039,-0.268ZM0.157,-0.258C0.157,-0.204 0.168,-0.162 0.188,-0.132C0.209,-0.102 0.238,-0.087 0.276,-0.087C0.325,-0.087 0.36,-0.109 0.383,-0.152L0.383,-0.377C0.361,-0.42 0.326,-0.441 0.277,-0.441C0.239,-0.441 0.209,-0.426 0.188,-0.395C0.168,-0.365 0.157,-0.319 0.157,-0.258Z" style="fill:rgb(45,46,68);fill-rule:nonzero;"/>
            </g>
            <g transform="matrix(32,0,0,32,326.586,392)">
                <path d="M0.381,-0.052C0.346,-0.011 0.297,0.01 0.232,0.01C0.175,0.01 0.132,-0.007 0.102,-0.041C0.073,-0.074 0.058,-0.123 0.058,-0.186L0.058,-0.528L0.177,-0.528L0.177,-0.188C0.177,-0.12 0.205,-0.087 0.26,-0.087C0.318,-0.087 0.357,-0.108 0.377,-0.149L0.377,-0.528L0.496,-0.528L0.496,0L0.384,0L0.381,-0.052Z" style="fill:rgb(45,46,68);fill-rule:nonzero;"/>
            </g>
            <g transform="matrix(32,0,0,32,344.367,392)">
                <rect x="0.068" y="-0.75" width="0.119" height="0.75" style="fill:rgb(45,46,68);fill-rule:nonzero;"/>
            </g>
            <g transform="matrix(32,0,0,32,352.539,392)">
                <path d="M0.293,0.01C0.218,0.01 0.157,-0.014 0.111,-0.061C0.064,-0.109 0.041,-0.172 0.041,-0.25L0.041,-0.265C0.041,-0.318 0.051,-0.365 0.071,-0.406C0.091,-0.448 0.12,-0.48 0.157,-0.503C0.194,-0.527 0.235,-0.538 0.28,-0.538C0.352,-0.538 0.407,-0.515 0.447,-0.469C0.486,-0.423 0.505,-0.358 0.505,-0.274L0.505,-0.227L0.16,-0.227C0.164,-0.183 0.178,-0.148 0.204,-0.123C0.229,-0.098 0.262,-0.085 0.3,-0.085C0.355,-0.085 0.399,-0.107 0.433,-0.151L0.497,-0.09C0.476,-0.058 0.448,-0.034 0.412,-0.016C0.377,0.001 0.337,0.01 0.293,0.01ZM0.279,-0.443C0.247,-0.443 0.22,-0.431 0.2,-0.409C0.18,-0.386 0.168,-0.354 0.162,-0.313L0.388,-0.313L0.388,-0.322C0.386,-0.362 0.375,-0.392 0.356,-0.412C0.338,-0.433 0.312,-0.443 0.279,-0.443Z" style="fill:rgb(45,46,68);fill-rule:nonzero;"/>
            </g>
        </g>
        <g transform="matrix(0.785714,0,0,0.3125,34.2857,130.156)">
            <g transform="matrix(1.14833,0,0,1,-101.244,-184)">
                <path d="M332,316.75C332,298.675 324.551,284 315.375,284L139.625,284C130.449,284 123,298.675 123,316.75L123,382.25C123,400.325 130.449,415 139.625,415L315.375,415C324.551,415 332,400.325 332,382.25L332,316.75Z" style="fill:rgb(39,194,120);"/>
            </g>
            <g transform="matrix(1.09091,0,0,1.87143,-152,-528.8)">
                <g transform="matrix(32,0,0,32,223.367,383)">
                    <path d="M0.475,-0.314L0.176,-0.314L0.176,0L0.083,0L0.083,-0.711L0.523,-0.711L0.523,-0.634L0.176,-0.634L0.176,-0.391L0.475,-0.391L0.475,-0.314Z" style="fill:white;fill-rule:nonzero;"/>
                </g>
                <g transform="matrix(32,0,0,32,240.727,383)">
                    <path d="M0.288,0.01C0.216,0.01 0.158,-0.014 0.113,-0.061C0.068,-0.108 0.045,-0.171 0.045,-0.25L0.045,-0.266C0.045,-0.319 0.055,-0.365 0.075,-0.406C0.095,-0.448 0.123,-0.48 0.159,-0.503C0.195,-0.526 0.234,-0.538 0.276,-0.538C0.345,-0.538 0.398,-0.515 0.437,-0.47C0.475,-0.425 0.494,-0.36 0.494,-0.276L0.494,-0.238L0.136,-0.238C0.137,-0.186 0.152,-0.144 0.181,-0.112C0.211,-0.08 0.248,-0.064 0.292,-0.064C0.324,-0.064 0.351,-0.07 0.374,-0.083C0.396,-0.097 0.415,-0.114 0.432,-0.135L0.487,-0.092C0.443,-0.024 0.376,0.01 0.288,0.01ZM0.276,-0.464C0.24,-0.464 0.209,-0.451 0.185,-0.424C0.16,-0.398 0.145,-0.36 0.139,-0.313L0.403,-0.313L0.403,-0.319C0.401,-0.365 0.388,-0.401 0.366,-0.426C0.344,-0.451 0.314,-0.464 0.276,-0.464Z" style="fill:white;fill-rule:nonzero;"/>
                </g>
                <g transform="matrix(32,0,0,32,257.68,383)">
                    <path d="M0.395,0C0.389,-0.01 0.385,-0.029 0.382,-0.056C0.34,-0.012 0.29,0.01 0.231,0.01C0.179,0.01 0.137,-0.005 0.103,-0.034C0.07,-0.064 0.053,-0.101 0.053,-0.146C0.053,-0.201 0.074,-0.244 0.116,-0.275C0.158,-0.305 0.217,-0.32 0.292,-0.32L0.38,-0.32L0.38,-0.362C0.38,-0.393 0.371,-0.419 0.352,-0.437C0.333,-0.456 0.305,-0.465 0.269,-0.465C0.236,-0.465 0.209,-0.457 0.188,-0.441C0.166,-0.425 0.155,-0.405 0.155,-0.382L0.064,-0.382C0.064,-0.408 0.073,-0.434 0.092,-0.458C0.111,-0.483 0.136,-0.502 0.168,-0.517C0.2,-0.531 0.236,-0.538 0.274,-0.538C0.335,-0.538 0.382,-0.523 0.417,-0.492C0.451,-0.462 0.469,-0.42 0.471,-0.367L0.471,-0.124C0.471,-0.075 0.477,-0.036 0.489,-0.008L0.489,0L0.395,0ZM0.245,-0.069C0.273,-0.069 0.3,-0.076 0.325,-0.091C0.351,-0.105 0.369,-0.125 0.38,-0.148L0.38,-0.256L0.31,-0.256C0.199,-0.256 0.144,-0.224 0.144,-0.159C0.144,-0.131 0.153,-0.109 0.172,-0.093C0.191,-0.077 0.215,-0.069 0.245,-0.069Z" style="fill:white;fill-rule:nonzero;"/>
                </g>
                <g transform="matrix(32,0,0,32,275.086,383)">
                    <path d="M0.191,-0.656L0.191,-0.528L0.29,-0.528L0.29,-0.458L0.191,-0.458L0.191,-0.131C0.191,-0.11 0.195,-0.094 0.204,-0.083C0.213,-0.073 0.228,-0.067 0.249,-0.067C0.259,-0.067 0.274,-0.069 0.292,-0.073L0.292,0C0.268,0.007 0.245,0.01 0.223,0.01C0.182,0.01 0.152,-0.002 0.131,-0.027C0.111,-0.051 0.101,-0.086 0.101,-0.131L0.101,-0.458L0.004,-0.458L0.004,-0.528L0.101,-0.528L0.101,-0.656L0.191,-0.656Z" style="fill:white;fill-rule:nonzero;"/>
                </g>
                <g transform="matrix(32,0,0,32,285.539,383)">
                    <path d="M0.395,-0.052C0.359,-0.011 0.308,0.01 0.24,0.01C0.183,0.01 0.141,-0.007 0.111,-0.039C0.082,-0.072 0.067,-0.12 0.066,-0.185L0.066,-0.528L0.157,-0.528L0.157,-0.187C0.157,-0.107 0.189,-0.067 0.254,-0.067C0.323,-0.067 0.369,-0.093 0.392,-0.144L0.392,-0.528L0.482,-0.528L0.482,0L0.396,0L0.395,-0.052Z" style="fill:white;fill-rule:nonzero;"/>
                </g>
                <g transform="matrix(32,0,0,32,303.18,383)">
                    <path d="M0.324,-0.447C0.31,-0.45 0.295,-0.451 0.279,-0.451C0.22,-0.451 0.18,-0.425 0.159,-0.375L0.159,0L0.068,0L0.068,-0.528L0.156,-0.528L0.158,-0.467C0.187,-0.514 0.229,-0.538 0.284,-0.538C0.301,-0.538 0.315,-0.536 0.324,-0.531L0.324,-0.447Z" style="fill:white;fill-rule:nonzero;"/>
                </g>
                <g transform="matrix(32,0,0,32,313.711,383)">
                    <path d="M0.288,0.01C0.216,0.01 0.158,-0.014 0.113,-0.061C0.068,-0.108 0.045,-0.171 0.045,-0.25L0.045,-0.266C0.045,-0.319 0.055,-0.365 0.075,-0.406C0.095,-0.448 0.123,-0.48 0.159,-0.503C0.195,-0.526 0.234,-0.538 0.276,-0.538C0.345,-0.538 0.398,-0.515 0.437,-0.47C0.475,-0.425 0.494,-0.36 0.494,-0.276L0.494,-0.238L0.136,-0.238C0.137,-0.186 0.152,-0.144 0.181,-0.112C0.211,-0.08 0.248,-0.064 0.292,-0.064C0.324,-0.064 0.351,-0.07 0.374,-0.083C0.396,-0.097 0.415,-0.114 0.432,-0.135L0.487,-0.092C0.443,-0.024 0.376,0.01 0.288,0.01ZM0.276,-0.464C0.24,-0.464 0.209,-0.451 0.185,-0.424C0.16,-0.398 0.145,-0.36 0.139,-0.313L0.403,-0.313L0.403,-0.319C0.401,-0.365 0.388,-0.401 0.366,-0.426C0.344,-0.451 0.314,-0.464 0.276,-0.464Z" style="fill:white;fill-rule:nonzero;"/>
                </g>
                <g transform="matrix(32,0,0,32,330.664,383)">
                    <path d="M0.525,0L0.059,0L0.059,-0.065L0.305,-0.338C0.342,-0.38 0.367,-0.413 0.381,-0.439C0.394,-0.465 0.401,-0.492 0.401,-0.52C0.401,-0.557 0.39,-0.587 0.368,-0.611C0.345,-0.635 0.315,-0.646 0.278,-0.646C0.233,-0.646 0.198,-0.634 0.173,-0.608C0.148,-0.583 0.136,-0.547 0.136,-0.501L0.045,-0.501C0.045,-0.567 0.066,-0.62 0.109,-0.66C0.151,-0.701 0.207,-0.721 0.278,-0.721C0.344,-0.721 0.396,-0.703 0.435,-0.669C0.473,-0.634 0.492,-0.588 0.492,-0.53C0.492,-0.46 0.448,-0.377 0.358,-0.28L0.168,-0.074L0.525,-0.074L0.525,0Z" style="fill:white;fill-rule:nonzero;"/>
                </g>
            </g>
        </g>
    </g>
    <g transform="matrix(1.16667,0,0,1.70992,633.333,-14.9924)">
        <g transform="matrix(1.14833,0,0,0.892857,-101.244,-153.571)">
            <path d="M332,310.2C332,295.74 318.621,284 302.143,284L152.857,284C136.379,284 123,295.74 123,310.2L123,388.8C123,403.26 136.379,415 152.857,415L302.143,415C318.621,415 332,403.26 332,388.8L332,310.2Z" style="fill:white;stroke:rgb(39,194,120);stroke-width:2.79px;"/>
        </g>
        <g transform="matrix(0.857143,0,0,0.584821,-110.857,-81.632)">
            <g transform="matrix(32,0,0,32,290.609,360)">
                <path d="M0.47,-0.166L0.195,-0.166L0.137,0L0.009,0L0.277,-0.711L0.388,-0.711L0.657,0L0.528,0L0.47,-0.166ZM0.229,-0.265L0.436,-0.265L0.333,-0.56L0.229,-0.265Z" style="fill:rgb(45,46,68);fill-rule:nonzero;"/>
            </g>
            <g transform="matrix(32,0,0,32,311.906,360)">
                <path d="M0.196,-0.264L0.196,0L0.072,0L0.072,-0.711L0.344,-0.711C0.424,-0.711 0.487,-0.69 0.533,-0.649C0.58,-0.608 0.604,-0.553 0.604,-0.485C0.604,-0.415 0.581,-0.361 0.535,-0.322C0.489,-0.284 0.425,-0.264 0.343,-0.264L0.196,-0.264ZM0.196,-0.363L0.344,-0.363C0.388,-0.363 0.422,-0.374 0.445,-0.394C0.468,-0.415 0.479,-0.445 0.479,-0.484C0.479,-0.522 0.468,-0.553 0.444,-0.576C0.421,-0.599 0.389,-0.611 0.348,-0.611L0.196,-0.611L0.196,-0.363Z" style="fill:rgb(45,46,68);fill-rule:nonzero;"/>
            </g>
            <g transform="matrix(32,0,0,32,332.359,360)">
                <rect x="0.08" y="-0.711" width="0.123" height="0.711" style="fill:rgb(45,46,68);fill-rule:nonzero;"/>
            </g>
            <g transform="matrix(32,0,0,32,262.289,392)">
                <path d="M0.232,-0.711L0.438,-0.166L0.642,-0.711L0.802,-0.711L0.802,0L0.679,0L0.679,-0.234L0.691,-0.548L0.481,0L0.393,0L0.183,-0.547L0.195,-0.234L0.195,0L0.072,0L0.072,-0.711L0.232,-0.711Z" style="fill:rgb(45,46,68);fill-rule:nonzero;"/>
            </g>
            <g transform="matrix(32,0,0,32,290.305,392)">
                <path d="M0.039,-0.269C0.039,-0.321 0.049,-0.367 0.069,-0.409C0.09,-0.45 0.119,-0.482 0.156,-0.505C0.193,-0.527 0.236,-0.538 0.284,-0.538C0.355,-0.538 0.413,-0.515 0.457,-0.469C0.502,-0.423 0.526,-0.362 0.529,-0.287L0.53,-0.259C0.53,-0.207 0.52,-0.16 0.5,-0.119C0.48,-0.078 0.451,-0.046 0.414,-0.024C0.377,-0.001 0.333,0.01 0.285,0.01C0.21,0.01 0.15,-0.015 0.106,-0.065C0.061,-0.114 0.039,-0.181 0.039,-0.263L0.039,-0.269ZM0.157,-0.259C0.157,-0.204 0.168,-0.162 0.191,-0.131C0.213,-0.1 0.245,-0.085 0.285,-0.085C0.325,-0.085 0.356,-0.101 0.378,-0.132C0.4,-0.163 0.412,-0.209 0.412,-0.269C0.412,-0.322 0.4,-0.365 0.377,-0.396C0.354,-0.427 0.323,-0.443 0.284,-0.443C0.245,-0.443 0.214,-0.427 0.191,-0.397C0.169,-0.366 0.157,-0.32 0.157,-0.259Z" style="fill:rgb(45,46,68);fill-rule:nonzero;"/>
            </g>
            <g transform="matrix(32,0,0,32,308.523,392)">
                <path d="M0.039,-0.268C0.039,-0.349 0.057,-0.415 0.095,-0.464C0.133,-0.513 0.184,-0.538 0.247,-0.538C0.303,-0.538 0.348,-0.519 0.383,-0.479L0.383,-0.75L0.501,-0.75L0.501,0L0.394,0L0.388,-0.055C0.353,-0.012 0.305,0.01 0.246,0.01C0.184,0.01 0.134,-0.015 0.096,-0.065C0.058,-0.115 0.039,-0.182 0.039,-0.268ZM0.157,-0.258C0.157,-0.204 0.168,-0.162 0.188,-0.132C0.209,-0.102 0.238,-0.087 0.276,-0.087C0.325,-0.087 0.36,-0.109 0.383,-0.152L0.383,-0.377C0.361,-0.42 0.326,-0.441 0.277,-0.441C0.239,-0.441 0.209,-0.426 0.188,-0.395C0.168,-0.365 0.157,-0.319 0.157,-0.258Z" style="fill:rgb(45,46,68);fill-rule:nonzero;"/>
            </g>
            <g transform="matrix(32,0,0,32,326.586,392)">
                <path d="M0.381,-0.052C0.346,-0.011 0.297,0.01 0.232,0.01C0.175,0.01 0.132,-0.007 0.102,-0.041C0.073,-0.074 0.058,-0.123 0.058,-0.186L0.058,-0.528L0.177,-0.528L0.177,-0.188C0.177,-0.12 0.205,-0.087 0.26,-0.087C0.318,-0.087 0.357,-0.108 0.377,-0.149L0.377,-0.528L0.496,-0.528L0.496,0L0.384,0L0.381,-0.052Z" style="fill:rgb(45,46,68);fill-rule:nonzero;"/>
            </g>
            <g transform="matrix(32,0,0,32,344.367,392)">
                <rect x="0.068" y="-0.75" width="0.119" height="0.75" style="fill:rgb(45,46,68);fill-rule:nonzero;"/>
            </g>
            <g transform="matrix(32,0,0,32,352.539,392)">
                <path d="M0.293,0.01C0.218,0.01 0.157,-0.014 0.111,-0.061C0.064,-0.109 0.041,-0.172 0.041,-0.25L0.041,-0.265C0.041,-0.318 0.051,-0.365 0.071,-0.406C0.091,-0.448 0.12,-0.48 0.157,-0.503C0.194,-0.527 0.235,-0.538 0.28,-0.538C0.352,-0.538 0.407,-0.515 0.447,-0.469C0.486,-0.423 0.505,-0.358 0.505,-0.274L0.505,-0.227L0.16,-0.227C0.164,-0.183 0.178,-0.148 0.204,-0.123C0.229,-0.098 0.262,-0.085 0.3,-0.085C0.355,-0.085 0.399,-0.107 0.433,-0.151L0.497,-0.09C0.476,-0.058 0.448,-0.034 0.412,-0.016C0.377,0.001 0.337,0.01 0.293,0.01ZM0.279,-0.443C0.247,-0.443 0.22,-0.431 0.2,-0.409C0.18,-0.386 0.168,-0.354 0.162,-0.313L0.388,-0.313L0.388,-0.322C0.386,-0.362 0.375,-0.392 0.356,-0.412C0.338,-0.433 0.312,-0.443 0.279,-0.443Z" style="fill:rgb(45,46,68);fill-rule:nonzero;"/>
            </g>
        </g>
        <g transform="matrix(0.785714,0,0,0.3125,34.2857,130.156)">
            <g transform="matrix(1.14833,0,0,1,-101.244,-184)">
                <path d="M332,316.75C332,298.675 324.551,284 315.375,284L139.625,284C130.449,284 123,298.675 123,316.75L123,382.25C123,400.325 130.449,415 139.625,415L315.375,415C324.551,415 332,400.325 332,382.25L332,316.75Z" style="fill:rgb(39,194,120);"/>
            </g>
            <g transform="matrix(1.09091,0,0,1.87143,-152,-528.8)">
                <g transform="matrix(32,0,0,32,232.352,383)">
                    <path d="M0.475,-0.314L0.176,-0.314L0.176,0L0.083,0L0.083,-0.711L0.523,-0.711L0.523,-0.634L0.176,-0.634L0.176,-0.391L0.475,-0.391L0.475,-0.314Z" style="fill:white;fill-rule:nonzero;"/>
                </g>
                <g transform="matrix(32,0,0,32,249.711,383)">
                    <path d="M0.288,0.01C0.216,0.01 0.158,-0.014 0.113,-0.061C0.068,-0.108 0.045,-0.171 0.045,-0.25L0.045,-0.266C0.045,-0.319 0.055,-0.365 0.075,-0.406C0.095,-0.448 0.123,-0.48 0.159,-0.503C0.195,-0.526 0.234,-0.538 0.276,-0.538C0.345,-0.538 0.398,-0.515 0.437,-0.47C0.475,-0.425 0.494,-0.36 0.494,-0.276L0.494,-0.238L0.136,-0.238C0.137,-0.186 0.152,-0.144 0.181,-0.112C0.211,-0.08 0.248,-0.064 0.292,-0.064C0.324,-0.064 0.351,-0.07 0.374,-0.083C0.396,-0.097 0.415,-0.114 0.432,-0.135L0.487,-0.092C0.443,-0.024 0.376,0.01 0.288,0.01ZM0.276,-0.464C0.24,-0.464 0.209,-0.451 0.185,-0.424C0.16,-0.398 0.145,-0.36 0.139,-0.313L0.403,-0.313L0.403,-0.319C0.401,-0.365 0.388,-0.401 0.366,-0.426C0.344,-0.451 0.314,-0.464 0.276,-0.464Z" style="fill:white;fill-rule:nonzero;"/>
                </g>
                <g transform="matrix(32,0,0,32,266.664,383)">
                    <path d="M0.395,0C0.389,-0.01 0.385,-0.029 0.382,-0.056C0.34,-0.012 0.29,0.01 0.231,0.01C0.179,0.01 0.137,-0.005 0.103,-0.034C0.07,-0.064 0.053,-0.101 0.053,-0.146C0.053,-0.201 0.074,-0.244 0.116,-0.275C0.158,-0.305 0.217,-0.32 0.292,-0.32L0.38,-0.32L0.38,-0.362C0.38,-0.393 0.371,-0.419 0.352,-0.437C0.333,-0.456 0.305,-0.465 0.269,-0.465C0.236,-0.465 0.209,-0.457 0.188,-0.441C0.166,-0.425 0.155,-0.405 0.155,-0.382L0.064,-0.382C0.064,-0.408 0.073,-0.434 0.092,-0.458C0.111,-0.483 0.136,-0.502 0.168,-0.517C0.2,-0.531 0.236,-0.538 0.274,-0.538C0.335,-0.538 0.382,-0.523 0.417,-0.492C0.451,-0.462 0.469,-0.42 0.471,-0.367L0.471,-0.124C0.471,-0.075 0.477,-0.036 0.489,-0.008L0.489,0L0.395,0ZM0.245,-0.069C0.273,-0.069 0.3,-0.076 0.325,-0.091C0.351,-0.105 0.369,-0.125 0.38,-0.148L0.38,-0.256L0.31,-0.256C0.199,-0.256 0.144,-0.224 0.144,-0.159C0.144,-0.131 0.153,-0.109 0.172,-0.093C0.191,-0.077 0.215,-0.069 0.245,-0.069Z" style="fill:white;fill-rule:nonzero;"/>
                </g>
                <g transform="matrix(32,0,0,32,284.07,383)">
                    <path d="M0.191,-0.656L0.191,-0.528L0.29,-0.528L0.29,-0.458L0.191,-0.458L0.191,-0.131C0.191,-0.11 0.195,-0.094 0.204,-0.083C0.213,-0.073 0.228,-0.067 0.249,-0.067C0.259,-0.067 0.274,-0.069 0.292,-0.073L0.292,0C0.268,0.007 0.245,0.01 0.223,0.01C0.182,0.01 0.152,-0.002 0.131,-0.027C0.111,-0.051 0.101,-0.086 0.101,-0.131L0.101,-0.458L0.004,-0.458L0.004,-0.528L0.101,-0.528L0.101,-0.656L0.191,-0.656Z" style="fill:white;fill-rule:nonzero;"/>
                </g>
                <g transform="matrix(32,0,0,32,294.523,383)">
                    <path d="M0.395,-0.052C0.359,-0.011 0.308,0.01 0.24,0.01C0.183,0.01 0.141,-0.007 0.111,-0.039C0.082,-0.072 0.067,-0.12 0.066,-0.185L0.066,-0.528L0.157,-0.528L0.157,-0.187C0.157,-0.107 0.189,-0.067 0.254,-0.067C0.323,-0.067 0.369,-0.093 0.392,-0.144L0.392,-0.528L0.482,-0.528L0.482,0L0.396,0L0.395,-0.052Z" style="fill:white;fill-rule:nonzero;"/>
                </g>
                <g transform="matrix(32,0,0,32,312.164,383)">
                    <path d="M0.324,-0.447C0.31,-0.45 0.295,-0.451 0.279,-0.451C0.22,-0.451 0.18,-0.425 0.159,-0.375L0.159,0L0.068,0L0.068,-0.528L0.156,-0.528L0.158,-0.467C0.187,-0.514 0.229,-0.538 0.284,-0.538C0.301,-0.538 0.315,-0.536 0.324,-0.531L0.324,-0.447Z" style="fill:white;fill-rule:nonzero;"/>
                </g>
                <g transform="matrix(32,0,0,32,322.695,383)">
                    <path d="M0.288,0.01C0.216,0.01 0.158,-0.014 0.113,-0.061C0.068,-0.108 0.045,-0.171 0.045,-0.25L0.045,-0.266C0.045,-0.319 0.055,-0.365 0.075,-0.406C0.095,-0.448 0.123,-0.48 0.159,-0.503C0.195,-0.526 0.234,-0.538 0.276,-0.538C0.345,-0.538 0.398,-0.515 0.437,-0.47C0.475,-0.425 0.494,-0.36 0.494,-0.276L0.494,-0.238L0.136,-0.238C0.137,-0.186 0.152,-0.144 0.181,-0.112C0.211,-0.08 0.248,-0.064 0.292,-0.064C0.324,-0.064 0.351,-0.07 0.374,-0.083C0.396,-0.097 0.415,-0.114 0.432,-0.135L0.487,-0.092C0.443,-0.024 0.376,0.01 0.288,0.01ZM0.276,-0.464C0.24,-0.464 0.209,-0.451 0.185,-0.424C0.16,-0.398 0.145,-0.36 0.139,-0.313L0.403,-0.313L0.403,-0.319C0.401,-0.365 0.388,-0.401 0.366,-0.426C0.344,-0.451 0.314,-0.464 0.276,-0.464Z" style="fill:white;fill-rule:nonzero;"/>
                </g>
            </g>
        </g>
    </g>
    <g transform="matrix(3.75451,0,0,1,-304.548,-220.5)">
        <path d="M129.058,314.875L129.058,310.125L174.47,310.125L174.47,303L177,312.5L174.47,322L174.47,314.875L129.058,314.875Z" style="fill:rgb(45,46,68);"/>
    </g>
    <g transform="matrix(3.75451,0,0,1,-304.548,107.5)">
        <path d="M129.058,314.875L129.058,310.125L174.47,310.125L174.47,303L177,312.5L174.47,322L174.47,314.875L129.058,314.875Z" style="fill:rgb(45,46,68);"/>
    </g>
    <g transform="matrix(8.22202e-17,-1.34276,1,6.12323e-17,507.5,595.668)">
        <path d="M129.058,314.875L129.058,310.125L169.925,310.125L169.925,303L177,312.5L169.925,322L169.925,314.875L129.058,314.875Z" style="fill:rgb(45,46,68);"/>
    </g>
    <g transform="matrix(8.22202e-17,1.34276,-1,6.12323e-17,1132.5,-83.6681)">
        <path d="M129.058,314.875L129.058,310.125L169.925,310.125L169.925,303L177,312.5L169.925,322L169.925,314.875L129.058,314.875Z" style="fill:rgb(45,46,68);"/>
    </g>
    <g transform="matrix(4.67777e-17,-0.763938,1,6.12323e-17,-130.125,229.592)">
        <rect x="129.058" y="310.125" width="47.942" height="4.75" style="fill:rgb(45,46,68);"/>
    </g>
    <g transform="matrix(4.67777e-17,-0.763938,1,6.12323e-17,-130.125,518.592)">
        <rect x="129.058" y="310.125" width="47.942" height="4.75" style="fill:rgb(45,46,68);"/>
    </g>
    <g transform="matrix(3.75451,-6.16298e-33,0,1,157.827,107.5)">
        <rect x="129.058" y="310.125" width="47.942" height="4.75" style="fill:rgb(45,46,68);"/>
    </g>
    <g transform="matrix(3.75451,-6.16298e-33,0,1,157.827,-222.875)">
        <rect x="129.058" y="310.125" width="47.942" height="4.75" style="fill:rgb(45,46,68);"/>
    </g>
</svg>
