<?xml version="1.0" encoding="UTF-8" standalone="no"?>
<!DOCTYPE svg PUBLIC "-//W3C//DTD SVG 1.1//EN" "http://www.w3.org/Graphics/SVG/1.1/DTD/svg11.dtd">
<svg width="100%" height="100%" viewBox="0 0 540 390" version="1.1" xmlns="http://www.w3.org/2000/svg" xmlns:xlink="http://www.w3.org/1999/xlink" xml:space="preserve" xmlns:serif="http://www.serif.com/" style="fill-rule:evenodd;clip-rule:evenodd;stroke-linejoin:round;stroke-miterlimit:2;">
    <g transform="matrix(0.989277,0,0,1,-99.9234,-25.5052)">
        <g transform="matrix(-0.0272936,0,0,-0.0272936,329.689,394.809)">
            <path d="M2767,12786C2697,12760 2670,12720 2670,12638C2670,12576 2707,12463 2729,12455C2738,12452 2753,12443 2763,12436C2780,12423 2779,12419 2741,12362C2660,12243 2649,12168 2708,12124C2723,12113 2724,12024 2711,11478C2705,11203 2704,11191 2683,11168C2649,11131 2649,11104 2685,11061L2711,11031L2690,10991C2664,10939 2665,10920 2696,10841C2715,10794 2722,10759 2721,10713C2720,10625 2695,10292 2640,9630C2623,9435 2610,9250 2610,9220C2610,9159 2639,9086 2683,9034L2709,9003L2684,8979C2624,8923 2615,8864 2659,8819L2688,8790L2667,8728C2643,8659 2645,8743 2637,7240L2635,6745L2585,6742C2558,6741 2227,6699 1850,6649C1049,6544 463,6446 375,6403L320,6376L320,6155L320,5935L435,5901L550,5867L545,5836C542,5819 510,5562 475,5265C439,4968 403,4671 395,4605C379,4470 363,4338 290,3740C263,3512 227,3179 210,3000C194,2821 149,2331 110,1910C71,1489 31,1047 19,926C8,806 0,707 2,705C4,704 68,681 144,654L284,604L345,637L406,669L423,812C438,943 469,1193 635,2555C705,3130 696,3080 729,3074C743,3072 960,3045 1210,3015C2206,2895 2655,2840 2665,2836C2680,2831 2666,2558 2634,2218C2619,2059 2608,1928 2611,1926C2618,1919 2885,1872 2890,1877C2892,1879 2919,2087 2950,2338L3006,2795L3040,2792C3059,2790 3311,2760 3600,2725C3889,2690 4296,2640 4505,2615C4713,2589 4888,2566 4892,2564C4896,2561 4900,2527 4900,2489C4900,2450 4918,2265 4940,2077C4962,1889 5007,1501 5040,1215C5073,929 5119,540 5141,351C5163,161 5182,5 5184,3C5186,1 5262,7 5354,17L5522,34L5516,125C5513,174 5505,375 5499,570C5487,971 5388,2950 5365,3254C5357,3364 5351,3455 5353,3456C5358,3461 6175,3368 6181,3361C6184,3358 6222,3144 6264,2885C6335,2456 6533,1444 6548,1429C6554,1423 6843,1398 6846,1403C6851,1413 6812,1814 6780,2090C6758,2280 6713,2666 6680,2948C6647,3230 6605,3561 6586,3683C6425,4713 6360,5111 6292,5467L6214,5879L6590,6013L6591,6069C6592,6156 6590,6225 6584,6352L6578,6468L6527,6489C6500,6501 6469,6510 6459,6510C6449,6510 6439,6514 6436,6519C6431,6526 6565,7159 6705,7790C6743,7964 6762,8097 6785,8345C6795,8451 6806,8520 6814,8530C6858,8580 6874,8666 6845,8706C6832,8726 6835,8735 6879,8821C6919,8899 6930,8933 6944,9020C6964,9144 7079,9884 7146,10330C7183,10569 7198,10648 7211,10658C7274,10711 7280,10720 7280,10757C7280,10779 7289,10813 7300,10835C7323,10879 7325,10912 7309,10939C7299,10953 7309,11005 7358,11196C7413,11414 7420,11455 7440,11663L7461,11891L7496,11936C7526,11976 7530,11989 7530,12040C7530,12076 7522,12122 7509,12156C7484,12222 7486,12227 7558,12322C7678,12481 7663,12584 7512,12630C7378,12671 7261,12648 7217,12572C7180,12508 7178,12457 7206,12303C7211,12279 7202,12247 7170,12173C7134,12088 7129,12068 7132,12016C7135,11957 7135,11956 7105,11948C7089,11944 6625,11937 6075,11934L5075,11928L4350,11984C3951,12014 3504,12049 3355,12060C3207,12071 3071,12083 3053,12086L3021,12091L3046,12127C3079,12176 3079,12246 3045,12318C3012,12389 3013,12407 3056,12492C3115,12610 3113,12705 3050,12750C2988,12794 2842,12812 2767,12786ZM3403,11139C3602,11123 3768,11106 3771,11102C3774,11098 3766,10913 3754,10690C3687,9480 3680,9237 3659,7640C3653,7137 3646,6723 3643,6721C3638,6715 3580,6718 3295,6740C3163,6750 3029,6755 2997,6753L2939,6747L2944,6806C2948,6839 2959,7029 2970,7230C2982,7431 2999,7744 3009,7925C3028,8267 3027,8337 2996,8635C2983,8756 2984,8766 3000,8785C3054,8846 3053,8906 2998,8966C2979,8987 2979,8988 3001,9041C3055,9179 3055,9128 3020,10458L3009,10852L3040,10886C3074,10925 3077,10948 3055,10989C3042,11015 3042,11019 3056,11031C3096,11064 3088,11129 3041,11155C3027,11163 3021,11169 3028,11170C3036,11170 3204,11156 3403,11139ZM4110,11081C4179,11075 4298,11065 4375,11060C4452,11054 4533,11047 4555,11044L4596,11039L4573,10802C4560,10672 4505,10111 4450,9555C4395,9000 4346,8489 4340,8420C4326,8244 4264,7322 4244,6975C4235,6816 4225,6682 4221,6679C4216,6673 3849,6697 3845,6703C3844,6704 3846,6809 3851,6935C3884,7890 3891,8236 3915,10410C3918,10677 3923,10940 3926,10996L3932,11096L3958,11094C3973,11092 4041,11086 4110,11081ZM5098,11011C5248,11006 5373,11000 5376,10997C5379,10994 5314,10484 5231,9864C5148,9243 5069,8648 5055,8542C5042,8436 4996,8026 4955,7632C4852,6647 4850,6637 4846,6633C4842,6628 4525,6648 4474,6656L4444,6660L4452,6733C4469,6901 4571,8041 4585,8225C4614,8620 4670,9578 4715,10435C4729,10705 4743,10949 4746,10979L4752,11032L4788,11026C4809,11022 4948,11015 5098,11011ZM6170,11006C6170,11000 6032,10129 5929,9485C5885,9210 5813,8765 5769,8495C5724,8226 5642,7686 5586,7296L5485,6587L5415,6589C5377,6591 5280,6597 5200,6604C5064,6614 5055,6616 5057,6635C5059,6646 5073,6770 5090,6910C5161,7518 5221,8046 5249,8320C5266,8482 5307,8878 5340,9200C5399,9777 5520,10983 5520,10994C5520,10997 5652,11001 5813,11003C5973,11004 6120,11006 6138,11008C6155,11009 6170,11008 6170,11006ZM6906,10988C6887,10961 6886,10943 6904,10909C6915,10887 6915,10881 6898,10860C6881,10839 6880,10826 6885,10736C6893,10616 6913,10708 6586,9377C6495,9008 6488,8958 6514,8848C6525,8798 6525,8789 6513,8778C6472,8744 6458,8664 6484,8605C6495,8578 6494,8569 6463,8505C6428,8429 6445,8525 6210,7090C6166,6823 6128,6590 6125,6571L6119,6537L6047,6543C6007,6547 5925,6552 5863,6556C5802,6560 5746,6566 5740,6570C5731,6575 5737,6633 5764,6796C5843,7280 5894,7656 6015,8650C6123,9535 6301,10967 6305,10988L6310,11010L6921,11010L6906,10988ZM1398,5745C1753,5701 2424,5620 2818,5574L2871,5568L2865,5526C2862,5504 2842,5265 2820,4996C2797,4726 2778,4505 2777,4504C2774,4502 868,4698 866,4702C864,4704 903,5499 919,5788C920,5794 927,5800 936,5800C944,5800 1152,5775 1398,5745ZM5900,5755C5900,5752 5923,5554 5951,5314C5978,5074 5999,4875 5996,4872C5989,4866 5262,4931 5235,4941C5217,4947 5210,4980 5167,5236C5140,5395 5116,5532 5114,5541C5110,5555 5125,5558 5209,5563C5317,5571 5428,5601 5720,5704C5869,5757 5900,5766 5900,5755ZM4310,5529C4522,5529 4719,5532 4748,5536L4800,5543L4800,5261C4800,4988 4799,4980 4780,4980C4769,4980 4516,5003 4218,5030C3397,5106 3235,5121 3235,5123C3235,5124 3236,5219 3238,5334L3242,5543L3583,5536C3771,5533 4098,5529 4310,5529ZM4021,4810C4446,4772 4794,4739 4795,4738C4796,4736 4800,4636 4804,4515L4811,4294L4693,4307C4628,4313 4397,4337 4180,4359C3963,4382 3653,4413 3491,4430C3329,4446 3196,4461 3194,4463C3192,4464 3200,4551 3210,4655C3221,4760 3230,4853 3230,4863C3230,4872 3234,4880 3240,4880C3245,4880 3597,4849 4021,4810ZM5680,4659C5870,4642 6026,4627 6027,4626C6030,4623 6147,3616 6145,3612C6143,3609 5337,3699 5335,3703C5334,3704 5318,3910 5301,4160C5284,4410 5267,4634 5264,4658L5258,4701L5296,4695C5318,4692 5490,4676 5680,4659ZM1825,4309C2331,4259 2747,4216 2749,4214C2752,4211 2746,4109 2737,3987C2727,3865 2713,3619 2704,3440C2696,3261 2686,3113 2684,3111C2670,3097 816,3330 745,3354C738,3356 753,3506 786,3776C815,4007 841,4244 845,4303L852,4411L879,4406C893,4403 1319,4359 1825,4309ZM4020,4089C4463,4045 4826,4008 4826,4007C4827,4006 4830,3950 4833,3883C4838,3791 4836,3760 4827,3760C4820,3759 4438,3801 3977,3852L3139,3945L3144,3990C3147,4015 3152,4065 3156,4103C3162,4167 3163,4170 3189,4170C3203,4170 3577,4134 4020,4089ZM3581,3660C4077,3603 4692,3534 4788,3524C4836,3519 4850,3514 4850,3501C4850,3492 4857,3359 4865,3205C4873,3051 4880,2909 4880,2890L4880,2854L3963,2959C3458,3016 3044,3064 3042,3065C3039,3068 3108,3650 3116,3688C3118,3700 3124,3710 3129,3710C3134,3710 3338,3687 3581,3660Z" style="fill:rgb(150,151,161);fill-rule:nonzero;"/>
        </g>
        <g transform="matrix(0.53685,0,0,0.706394,153.537,61.8231)">
            <g transform="matrix(1.14833,0,0,1,-101.244,-184)">
                <path d="M332,316.75C332,298.675 315.003,284 294.067,284L160.933,284C139.997,284 123,298.675 123,316.75L123,382.25C123,400.325 139.997,415 160.933,415L294.067,415C315.003,415 332,400.325 332,382.25L332,316.75Z" style="fill:rgb(39,194,120);"/>
            </g>
            <g transform="matrix(7.84546,0,0,5.89851,-1340.8,-1881.9)">
                <g transform="matrix(5.76,0,0,5.76,185.22,343.505)">
                    <path d="M0.38,-0.711L0.475,-0.711L0.475,-0.208C0.475,-0.139 0.454,-0.086 0.413,-0.048C0.372,-0.009 0.318,0.01 0.25,0.01C0.179,0.01 0.124,-0.008 0.085,-0.044C0.046,-0.081 0.026,-0.131 0.026,-0.196L0.12,-0.196C0.12,-0.156 0.131,-0.124 0.153,-0.101C0.175,-0.078 0.208,-0.067 0.25,-0.067C0.289,-0.067 0.32,-0.079 0.344,-0.104C0.368,-0.128 0.38,-0.162 0.38,-0.206L0.38,-0.711Z" style="fill:white;fill-rule:nonzero;"/>
                </g>
                <g transform="matrix(5.76,0,0,5.76,188.399,343.505)">
                    <path d="M0.395,0C0.389,-0.01 0.385,-0.029 0.382,-0.056C0.34,-0.012 0.29,0.01 0.231,0.01C0.179,0.01 0.137,-0.005 0.103,-0.034C0.07,-0.064 0.053,-0.101 0.053,-0.146C0.053,-0.201 0.074,-0.244 0.116,-0.275C0.158,-0.305 0.217,-0.32 0.292,-0.32L0.38,-0.32L0.38,-0.362C0.38,-0.393 0.371,-0.419 0.352,-0.437C0.333,-0.456 0.305,-0.465 0.269,-0.465C0.236,-0.465 0.209,-0.457 0.188,-0.441C0.166,-0.425 0.155,-0.405 0.155,-0.382L0.064,-0.382C0.064,-0.408 0.073,-0.434 0.092,-0.458C0.111,-0.483 0.136,-0.502 0.168,-0.517C0.2,-0.531 0.236,-0.538 0.274,-0.538C0.335,-0.538 0.382,-0.523 0.417,-0.492C0.451,-0.462 0.469,-0.42 0.471,-0.367L0.471,-0.124C0.471,-0.075 0.477,-0.036 0.489,-0.008L0.489,0L0.395,0ZM0.245,-0.069C0.273,-0.069 0.3,-0.076 0.325,-0.091C0.351,-0.105 0.369,-0.125 0.38,-0.148L0.38,-0.256L0.31,-0.256C0.199,-0.256 0.144,-0.224 0.144,-0.159C0.144,-0.131 0.153,-0.109 0.172,-0.093C0.191,-0.077 0.215,-0.069 0.245,-0.069Z" style="fill:white;fill-rule:nonzero;"/>
                </g>
                <g transform="matrix(5.76,0,0,5.76,191.49,343.505)">
                    <path d="M0.243,-0.123L0.374,-0.528L0.466,-0.528L0.276,0L0.208,0L0.016,-0.528L0.108,-0.528L0.243,-0.123Z" style="fill:white;fill-rule:nonzero;"/>
                </g>
                <g transform="matrix(5.76,0,0,5.76,194.237,343.505)">
                    <path d="M0.395,0C0.389,-0.01 0.385,-0.029 0.382,-0.056C0.34,-0.012 0.29,0.01 0.231,0.01C0.179,0.01 0.137,-0.005 0.103,-0.034C0.07,-0.064 0.053,-0.101 0.053,-0.146C0.053,-0.201 0.074,-0.244 0.116,-0.275C0.158,-0.305 0.217,-0.32 0.292,-0.32L0.38,-0.32L0.38,-0.362C0.38,-0.393 0.371,-0.419 0.352,-0.437C0.333,-0.456 0.305,-0.465 0.269,-0.465C0.236,-0.465 0.209,-0.457 0.188,-0.441C0.166,-0.425 0.155,-0.405 0.155,-0.382L0.064,-0.382C0.064,-0.408 0.073,-0.434 0.092,-0.458C0.111,-0.483 0.136,-0.502 0.168,-0.517C0.2,-0.531 0.236,-0.538 0.274,-0.538C0.335,-0.538 0.382,-0.523 0.417,-0.492C0.451,-0.462 0.469,-0.42 0.471,-0.367L0.471,-0.124C0.471,-0.075 0.477,-0.036 0.489,-0.008L0.489,0L0.395,0ZM0.245,-0.069C0.273,-0.069 0.3,-0.076 0.325,-0.091C0.351,-0.105 0.369,-0.125 0.38,-0.148L0.38,-0.256L0.31,-0.256C0.199,-0.256 0.144,-0.224 0.144,-0.159C0.144,-0.131 0.153,-0.109 0.172,-0.093C0.191,-0.077 0.215,-0.069 0.245,-0.069Z" style="fill:white;fill-rule:nonzero;"/>
                </g>
                <g transform="matrix(5.76,0,0,5.76,189.663,349.265)">
                    <path d="M0.327,-0.381L0.525,-0.381L0.525,-0.296L0.327,-0.296L0.327,-0.071L0.236,-0.071L0.236,-0.296L0.038,-0.296L0.038,-0.381L0.236,-0.381L0.236,-0.589L0.327,-0.589L0.327,-0.381Z" style="fill:white;fill-rule:nonzero;"/>
                </g>
                <g transform="matrix(5.76,0,0,5.76,182.108,355.025)">
                    <path d="M0.083,0L0.083,-0.711L0.283,-0.711C0.345,-0.711 0.4,-0.697 0.447,-0.67C0.495,-0.643 0.531,-0.604 0.557,-0.553C0.583,-0.503 0.596,-0.445 0.597,-0.379L0.597,-0.334C0.597,-0.267 0.584,-0.208 0.558,-0.158C0.532,-0.107 0.495,-0.069 0.447,-0.042C0.399,-0.014 0.343,-0.001 0.279,0L0.083,0ZM0.176,-0.634L0.176,-0.077L0.275,-0.077C0.347,-0.077 0.403,-0.099 0.444,-0.144C0.484,-0.189 0.504,-0.253 0.504,-0.336L0.504,-0.377C0.504,-0.458 0.485,-0.521 0.447,-0.566C0.409,-0.61 0.355,-0.633 0.286,-0.634L0.176,-0.634Z" style="fill:white;fill-rule:nonzero;"/>
                </g>
                <g transform="matrix(5.76,0,0,5.76,185.886,355.025)">
                    <path d="M0.395,0C0.389,-0.01 0.385,-0.029 0.382,-0.056C0.34,-0.012 0.29,0.01 0.231,0.01C0.179,0.01 0.137,-0.005 0.103,-0.034C0.07,-0.064 0.053,-0.101 0.053,-0.146C0.053,-0.201 0.074,-0.244 0.116,-0.275C0.158,-0.305 0.217,-0.32 0.292,-0.32L0.38,-0.32L0.38,-0.362C0.38,-0.393 0.371,-0.419 0.352,-0.437C0.333,-0.456 0.305,-0.465 0.269,-0.465C0.236,-0.465 0.209,-0.457 0.188,-0.441C0.166,-0.425 0.155,-0.405 0.155,-0.382L0.064,-0.382C0.064,-0.408 0.073,-0.434 0.092,-0.458C0.111,-0.483 0.136,-0.502 0.168,-0.517C0.2,-0.531 0.236,-0.538 0.274,-0.538C0.335,-0.538 0.382,-0.523 0.417,-0.492C0.451,-0.462 0.469,-0.42 0.471,-0.367L0.471,-0.124C0.471,-0.075 0.477,-0.036 0.489,-0.008L0.489,0L0.395,0ZM0.245,-0.069C0.273,-0.069 0.3,-0.076 0.325,-0.091C0.351,-0.105 0.369,-0.125 0.38,-0.148L0.38,-0.256L0.31,-0.256C0.199,-0.256 0.144,-0.224 0.144,-0.159C0.144,-0.131 0.153,-0.109 0.172,-0.093C0.191,-0.077 0.215,-0.069 0.245,-0.069Z" style="fill:white;fill-rule:nonzero;"/>
                </g>
                <g transform="matrix(5.76,0,0,5.76,189.019,355.025)">
                    <path d="M0.047,-0.269C0.047,-0.351 0.066,-0.416 0.104,-0.465C0.142,-0.514 0.193,-0.538 0.255,-0.538C0.32,-0.538 0.37,-0.515 0.406,-0.47L0.411,-0.528L0.493,-0.528L0.493,-0.013C0.493,0.056 0.473,0.11 0.432,0.149C0.392,0.188 0.337,0.208 0.269,0.208C0.231,0.208 0.194,0.2 0.157,0.184C0.121,0.167 0.093,0.145 0.074,0.117L0.121,0.063C0.159,0.11 0.207,0.134 0.263,0.134C0.307,0.134 0.341,0.122 0.365,0.097C0.39,0.072 0.402,0.038 0.402,-0.007L0.402,-0.053C0.366,-0.011 0.317,0.01 0.254,0.01C0.193,0.01 0.142,-0.015 0.104,-0.065C0.066,-0.115 0.047,-0.183 0.047,-0.269ZM0.138,-0.258C0.138,-0.199 0.15,-0.152 0.174,-0.118C0.199,-0.084 0.233,-0.067 0.277,-0.067C0.334,-0.067 0.376,-0.093 0.402,-0.145L0.402,-0.386C0.375,-0.436 0.333,-0.461 0.278,-0.461C0.234,-0.461 0.2,-0.444 0.175,-0.41C0.15,-0.376 0.138,-0.325 0.138,-0.258Z" style="fill:white;fill-rule:nonzero;"/>
                </g>
                <g transform="matrix(5.76,0,0,5.76,192.25,355.025)">
                    <path d="M0.047,-0.269C0.047,-0.351 0.066,-0.416 0.104,-0.465C0.142,-0.514 0.193,-0.538 0.255,-0.538C0.32,-0.538 0.37,-0.515 0.406,-0.47L0.411,-0.528L0.493,-0.528L0.493,-0.013C0.493,0.056 0.473,0.11 0.432,0.149C0.392,0.188 0.337,0.208 0.269,0.208C0.231,0.208 0.194,0.2 0.157,0.184C0.121,0.167 0.093,0.145 0.074,0.117L0.121,0.063C0.159,0.11 0.207,0.134 0.263,0.134C0.307,0.134 0.341,0.122 0.365,0.097C0.39,0.072 0.402,0.038 0.402,-0.007L0.402,-0.053C0.366,-0.011 0.317,0.01 0.254,0.01C0.193,0.01 0.142,-0.015 0.104,-0.065C0.066,-0.115 0.047,-0.183 0.047,-0.269ZM0.138,-0.258C0.138,-0.199 0.15,-0.152 0.174,-0.118C0.199,-0.084 0.233,-0.067 0.277,-0.067C0.334,-0.067 0.376,-0.093 0.402,-0.145L0.402,-0.386C0.375,-0.436 0.333,-0.461 0.278,-0.461C0.234,-0.461 0.2,-0.444 0.175,-0.41C0.15,-0.376 0.138,-0.325 0.138,-0.258Z" style="fill:white;fill-rule:nonzero;"/>
                </g>
                <g transform="matrix(5.76,0,0,5.76,195.482,355.025)">
                    <path d="M0.288,0.01C0.216,0.01 0.158,-0.014 0.113,-0.061C0.068,-0.108 0.045,-0.171 0.045,-0.25L0.045,-0.266C0.045,-0.319 0.055,-0.365 0.075,-0.406C0.095,-0.448 0.123,-0.48 0.159,-0.503C0.195,-0.526 0.234,-0.538 0.276,-0.538C0.345,-0.538 0.398,-0.515 0.437,-0.47C0.475,-0.425 0.494,-0.36 0.494,-0.276L0.494,-0.238L0.136,-0.238C0.137,-0.186 0.152,-0.144 0.181,-0.112C0.211,-0.08 0.248,-0.064 0.292,-0.064C0.324,-0.064 0.351,-0.07 0.374,-0.083C0.396,-0.097 0.415,-0.114 0.432,-0.135L0.487,-0.092C0.443,-0.024 0.376,0.01 0.288,0.01ZM0.276,-0.464C0.24,-0.464 0.209,-0.451 0.185,-0.424C0.16,-0.398 0.145,-0.36 0.139,-0.313L0.403,-0.313L0.403,-0.319C0.401,-0.365 0.388,-0.401 0.366,-0.426C0.344,-0.451 0.314,-0.464 0.276,-0.464Z" style="fill:white;fill-rule:nonzero;"/>
                </g>
                <g transform="matrix(5.76,0,0,5.76,198.533,355.025)">
                    <path d="M0.324,-0.447C0.31,-0.45 0.295,-0.451 0.279,-0.451C0.22,-0.451 0.18,-0.425 0.159,-0.375L0.159,0L0.068,0L0.068,-0.528L0.156,-0.528L0.158,-0.467C0.187,-0.514 0.229,-0.538 0.284,-0.538C0.301,-0.538 0.315,-0.536 0.324,-0.531L0.324,-0.447Z" style="fill:white;fill-rule:nonzero;"/>
                </g>
            </g>
        </g>
    </g>
    <g transform="matrix(-0.989277,0,0,1,639.923,-25.5052)">
        <g transform="matrix(-0.0272936,0,0,-0.0272936,329.689,394.809)">
            <path d="M2767,12786C2697,12760 2670,12720 2670,12638C2670,12576 2707,12463 2729,12455C2738,12452 2753,12443 2763,12436C2780,12423 2779,12419 2741,12362C2660,12243 2649,12168 2708,12124C2723,12113 2724,12024 2711,11478C2705,11203 2704,11191 2683,11168C2649,11131 2649,11104 2685,11061L2711,11031L2690,10991C2664,10939 2665,10920 2696,10841C2715,10794 2722,10759 2721,10713C2720,10625 2695,10292 2640,9630C2623,9435 2610,9250 2610,9220C2610,9159 2639,9086 2683,9034L2709,9003L2684,8979C2624,8923 2615,8864 2659,8819L2688,8790L2667,8728C2643,8659 2645,8743 2637,7240L2635,6745L2585,6742C2558,6741 2227,6699 1850,6649C1049,6544 463,6446 375,6403L320,6376L320,6155L320,5935L435,5901L550,5867L545,5836C542,5819 510,5562 475,5265C439,4968 403,4671 395,4605C379,4470 363,4338 290,3740C263,3512 227,3179 210,3000C194,2821 149,2331 110,1910C71,1489 31,1047 19,926C8,806 0,707 2,705C4,704 68,681 144,654L284,604L345,637L406,669L423,812C438,943 469,1193 635,2555C705,3130 696,3080 729,3074C743,3072 960,3045 1210,3015C2206,2895 2655,2840 2665,2836C2680,2831 2666,2558 2634,2218C2619,2059 2608,1928 2611,1926C2618,1919 2885,1872 2890,1877C2892,1879 2919,2087 2950,2338L3006,2795L3040,2792C3059,2790 3311,2760 3600,2725C3889,2690 4296,2640 4505,2615C4713,2589 4888,2566 4892,2564C4896,2561 4900,2527 4900,2489C4900,2450 4918,2265 4940,2077C4962,1889 5007,1501 5040,1215C5073,929 5119,540 5141,351C5163,161 5182,5 5184,3C5186,1 5262,7 5354,17L5522,34L5516,125C5513,174 5505,375 5499,570C5487,971 5388,2950 5365,3254C5357,3364 5351,3455 5353,3456C5358,3461 6175,3368 6181,3361C6184,3358 6222,3144 6264,2885C6335,2456 6533,1444 6548,1429C6554,1423 6843,1398 6846,1403C6851,1413 6812,1814 6780,2090C6758,2280 6713,2666 6680,2948C6647,3230 6605,3561 6586,3683C6425,4713 6360,5111 6292,5467L6214,5879L6590,6013L6591,6069C6592,6156 6590,6225 6584,6352L6578,6468L6527,6489C6500,6501 6469,6510 6459,6510C6449,6510 6439,6514 6436,6519C6431,6526 6565,7159 6705,7790C6743,7964 6762,8097 6785,8345C6795,8451 6806,8520 6814,8530C6858,8580 6874,8666 6845,8706C6832,8726 6835,8735 6879,8821C6919,8899 6930,8933 6944,9020C6964,9144 7079,9884 7146,10330C7183,10569 7198,10648 7211,10658C7274,10711 7280,10720 7280,10757C7280,10779 7289,10813 7300,10835C7323,10879 7325,10912 7309,10939C7299,10953 7309,11005 7358,11196C7413,11414 7420,11455 7440,11663L7461,11891L7496,11936C7526,11976 7530,11989 7530,12040C7530,12076 7522,12122 7509,12156C7484,12222 7486,12227 7558,12322C7678,12481 7663,12584 7512,12630C7378,12671 7261,12648 7217,12572C7180,12508 7178,12457 7206,12303C7211,12279 7202,12247 7170,12173C7134,12088 7129,12068 7132,12016C7135,11957 7135,11956 7105,11948C7089,11944 6625,11937 6075,11934L5075,11928L4350,11984C3951,12014 3504,12049 3355,12060C3207,12071 3071,12083 3053,12086L3021,12091L3046,12127C3079,12176 3079,12246 3045,12318C3012,12389 3013,12407 3056,12492C3115,12610 3113,12705 3050,12750C2988,12794 2842,12812 2767,12786ZM3403,11139C3602,11123 3768,11106 3771,11102C3774,11098 3766,10913 3754,10690C3687,9480 3680,9237 3659,7640C3653,7137 3646,6723 3643,6721C3638,6715 3580,6718 3295,6740C3163,6750 3029,6755 2997,6753L2939,6747L2944,6806C2948,6839 2959,7029 2970,7230C2982,7431 2999,7744 3009,7925C3028,8267 3027,8337 2996,8635C2983,8756 2984,8766 3000,8785C3054,8846 3053,8906 2998,8966C2979,8987 2979,8988 3001,9041C3055,9179 3055,9128 3020,10458L3009,10852L3040,10886C3074,10925 3077,10948 3055,10989C3042,11015 3042,11019 3056,11031C3096,11064 3088,11129 3041,11155C3027,11163 3021,11169 3028,11170C3036,11170 3204,11156 3403,11139ZM4110,11081C4179,11075 4298,11065 4375,11060C4452,11054 4533,11047 4555,11044L4596,11039L4573,10802C4560,10672 4505,10111 4450,9555C4395,9000 4346,8489 4340,8420C4326,8244 4264,7322 4244,6975C4235,6816 4225,6682 4221,6679C4216,6673 3849,6697 3845,6703C3844,6704 3846,6809 3851,6935C3884,7890 3891,8236 3915,10410C3918,10677 3923,10940 3926,10996L3932,11096L3958,11094C3973,11092 4041,11086 4110,11081ZM5098,11011C5248,11006 5373,11000 5376,10997C5379,10994 5314,10484 5231,9864C5148,9243 5069,8648 5055,8542C5042,8436 4996,8026 4955,7632C4852,6647 4850,6637 4846,6633C4842,6628 4525,6648 4474,6656L4444,6660L4452,6733C4469,6901 4571,8041 4585,8225C4614,8620 4670,9578 4715,10435C4729,10705 4743,10949 4746,10979L4752,11032L4788,11026C4809,11022 4948,11015 5098,11011ZM6170,11006C6170,11000 6032,10129 5929,9485C5885,9210 5813,8765 5769,8495C5724,8226 5642,7686 5586,7296L5485,6587L5415,6589C5377,6591 5280,6597 5200,6604C5064,6614 5055,6616 5057,6635C5059,6646 5073,6770 5090,6910C5161,7518 5221,8046 5249,8320C5266,8482 5307,8878 5340,9200C5399,9777 5520,10983 5520,10994C5520,10997 5652,11001 5813,11003C5973,11004 6120,11006 6138,11008C6155,11009 6170,11008 6170,11006ZM6906,10988C6887,10961 6886,10943 6904,10909C6915,10887 6915,10881 6898,10860C6881,10839 6880,10826 6885,10736C6893,10616 6913,10708 6586,9377C6495,9008 6488,8958 6514,8848C6525,8798 6525,8789 6513,8778C6472,8744 6458,8664 6484,8605C6495,8578 6494,8569 6463,8505C6428,8429 6445,8525 6210,7090C6166,6823 6128,6590 6125,6571L6119,6537L6047,6543C6007,6547 5925,6552 5863,6556C5802,6560 5746,6566 5740,6570C5731,6575 5737,6633 5764,6796C5843,7280 5894,7656 6015,8650C6123,9535 6301,10967 6305,10988L6310,11010L6921,11010L6906,10988ZM1398,5745C1753,5701 2424,5620 2818,5574L2871,5568L2865,5526C2862,5504 2842,5265 2820,4996C2797,4726 2778,4505 2777,4504C2774,4502 868,4698 866,4702C864,4704 903,5499 919,5788C920,5794 927,5800 936,5800C944,5800 1152,5775 1398,5745ZM5900,5755C5900,5752 5923,5554 5951,5314C5978,5074 5999,4875 5996,4872C5989,4866 5262,4931 5235,4941C5217,4947 5210,4980 5167,5236C5140,5395 5116,5532 5114,5541C5110,5555 5125,5558 5209,5563C5317,5571 5428,5601 5720,5704C5869,5757 5900,5766 5900,5755ZM4310,5529C4522,5529 4719,5532 4748,5536L4800,5543L4800,5261C4800,4988 4799,4980 4780,4980C4769,4980 4516,5003 4218,5030C3397,5106 3235,5121 3235,5123C3235,5124 3236,5219 3238,5334L3242,5543L3583,5536C3771,5533 4098,5529 4310,5529ZM4021,4810C4446,4772 4794,4739 4795,4738C4796,4736 4800,4636 4804,4515L4811,4294L4693,4307C4628,4313 4397,4337 4180,4359C3963,4382 3653,4413 3491,4430C3329,4446 3196,4461 3194,4463C3192,4464 3200,4551 3210,4655C3221,4760 3230,4853 3230,4863C3230,4872 3234,4880 3240,4880C3245,4880 3597,4849 4021,4810ZM5680,4659C5870,4642 6026,4627 6027,4626C6030,4623 6147,3616 6145,3612C6143,3609 5337,3699 5335,3703C5334,3704 5318,3910 5301,4160C5284,4410 5267,4634 5264,4658L5258,4701L5296,4695C5318,4692 5490,4676 5680,4659ZM1825,4309C2331,4259 2747,4216 2749,4214C2752,4211 2746,4109 2737,3987C2727,3865 2713,3619 2704,3440C2696,3261 2686,3113 2684,3111C2670,3097 816,3330 745,3354C738,3356 753,3506 786,3776C815,4007 841,4244 845,4303L852,4411L879,4406C893,4403 1319,4359 1825,4309ZM4020,4089C4463,4045 4826,4008 4826,4007C4827,4006 4830,3950 4833,3883C4838,3791 4836,3760 4827,3760C4820,3759 4438,3801 3977,3852L3139,3945L3144,3990C3147,4015 3152,4065 3156,4103C3162,4167 3163,4170 3189,4170C3203,4170 3577,4134 4020,4089ZM3581,3660C4077,3603 4692,3534 4788,3524C4836,3519 4850,3514 4850,3501C4850,3492 4857,3359 4865,3205C4873,3051 4880,2909 4880,2890L4880,2854L3963,2959C3458,3016 3044,3064 3042,3065C3039,3068 3108,3650 3116,3688C3118,3700 3124,3710 3129,3710C3134,3710 3338,3687 3581,3660Z" style="fill:rgb(150,151,161);fill-rule:nonzero;"/>
        </g>
        <g transform="matrix(-0.53685,0,0,0.706394,325.329,61.8231)">
            <g transform="matrix(1.14833,0,0,1,-101.244,-184)">
                <path d="M332,316.75C332,298.675 315.003,284 294.067,284L160.933,284C139.997,284 123,298.675 123,316.75L123,382.25C123,400.325 139.997,415 160.933,415L294.067,415C315.003,415 332,400.325 332,382.25L332,316.75Z" style="fill:rgb(39,194,120);"/>
            </g>
            <g transform="matrix(7.84546,0,0,5.89851,-1340.8,-1881.9)">
                <g transform="matrix(5.76,0,0,5.76,183.958,343.505)">
                    <path d="M0.263,-0.331L0.176,-0.24L0.176,0L0.083,0L0.083,-0.711L0.176,-0.711L0.176,-0.359L0.492,-0.711L0.605,-0.711L0.326,-0.397L0.627,0L0.515,0L0.263,-0.331Z" style="fill:white;fill-rule:nonzero;"/>
                </g>
                <g transform="matrix(5.76,0,0,5.76,187.493,343.505)">
                    <path d="M0.044,-0.269C0.044,-0.321 0.055,-0.367 0.075,-0.409C0.095,-0.45 0.124,-0.482 0.16,-0.504C0.196,-0.527 0.238,-0.538 0.284,-0.538C0.356,-0.538 0.414,-0.513 0.459,-0.463C0.503,-0.414 0.525,-0.347 0.525,-0.265L0.525,-0.258C0.525,-0.207 0.516,-0.161 0.496,-0.12C0.476,-0.079 0.448,-0.047 0.411,-0.024C0.375,-0.002 0.333,0.01 0.285,0.01C0.214,0.01 0.156,-0.015 0.111,-0.065C0.067,-0.115 0.044,-0.181 0.044,-0.263L0.044,-0.269ZM0.135,-0.258C0.135,-0.2 0.149,-0.153 0.176,-0.117C0.203,-0.082 0.24,-0.064 0.285,-0.064C0.331,-0.064 0.368,-0.082 0.395,-0.118C0.422,-0.154 0.435,-0.204 0.435,-0.269C0.435,-0.327 0.421,-0.374 0.394,-0.41C0.366,-0.446 0.33,-0.464 0.284,-0.464C0.24,-0.464 0.204,-0.446 0.176,-0.411C0.149,-0.375 0.135,-0.324 0.135,-0.258Z" style="fill:white;fill-rule:nonzero;"/>
                </g>
                <g transform="matrix(5.76,0,0,5.76,190.778,343.505)">
                    <path d="M0.191,-0.656L0.191,-0.528L0.29,-0.528L0.29,-0.458L0.191,-0.458L0.191,-0.131C0.191,-0.11 0.195,-0.094 0.204,-0.083C0.213,-0.073 0.228,-0.067 0.249,-0.067C0.259,-0.067 0.274,-0.069 0.292,-0.073L0.292,0C0.268,0.007 0.245,0.01 0.223,0.01C0.182,0.01 0.152,-0.002 0.131,-0.027C0.111,-0.051 0.101,-0.086 0.101,-0.131L0.101,-0.458L0.004,-0.458L0.004,-0.528L0.101,-0.528L0.101,-0.656L0.191,-0.656Z" style="fill:white;fill-rule:nonzero;"/>
                </g>
                <g transform="matrix(5.76,0,0,5.76,192.66,343.505)">
                    <rect x="0.076" y="-0.75" width="0.09" height="0.75" style="fill:white;fill-rule:nonzero;"/>
                </g>
                <g transform="matrix(5.76,0,0,5.76,194.057,343.505)">
                    <path d="M0.167,0L0.076,0L0.076,-0.528L0.167,-0.528L0.167,0ZM0.069,-0.668C0.069,-0.683 0.073,-0.695 0.082,-0.706C0.091,-0.716 0.104,-0.721 0.122,-0.721C0.14,-0.721 0.153,-0.716 0.162,-0.706C0.171,-0.695 0.176,-0.683 0.176,-0.668C0.176,-0.654 0.171,-0.642 0.162,-0.632C0.153,-0.622 0.14,-0.617 0.122,-0.617C0.104,-0.617 0.091,-0.622 0.082,-0.632C0.073,-0.642 0.069,-0.654 0.069,-0.668Z" style="fill:white;fill-rule:nonzero;"/>
                </g>
                <g transform="matrix(5.76,0,0,5.76,195.455,343.505)">
                    <path d="M0.154,-0.528L0.157,-0.462C0.197,-0.513 0.25,-0.538 0.315,-0.538C0.427,-0.538 0.483,-0.475 0.484,-0.349L0.484,0L0.394,0L0.394,-0.35C0.393,-0.388 0.385,-0.416 0.367,-0.434C0.35,-0.452 0.324,-0.461 0.288,-0.461C0.258,-0.461 0.233,-0.454 0.21,-0.438C0.188,-0.422 0.171,-0.402 0.159,-0.376L0.159,0L0.068,0L0.068,-0.528L0.154,-0.528Z" style="fill:white;fill-rule:nonzero;"/>
                </g>
                <g transform="matrix(5.76,0,0,5.76,189.663,349.265)">
                    <path d="M0.327,-0.381L0.525,-0.381L0.525,-0.296L0.327,-0.296L0.327,-0.071L0.236,-0.071L0.236,-0.296L0.038,-0.296L0.038,-0.381L0.236,-0.381L0.236,-0.589L0.327,-0.589L0.327,-0.381Z" style="fill:white;fill-rule:nonzero;"/>
                </g>
                <g transform="matrix(5.76,0,0,5.76,184.014,355.025)">
                    <path d="M0.607,-0.093C0.583,-0.059 0.55,-0.033 0.507,-0.016C0.463,0.001 0.413,0.01 0.356,0.01C0.298,0.01 0.247,-0.004 0.202,-0.031C0.157,-0.058 0.122,-0.097 0.097,-0.147C0.073,-0.197 0.06,-0.255 0.06,-0.321L0.06,-0.383C0.06,-0.49 0.085,-0.573 0.135,-0.632C0.184,-0.691 0.255,-0.721 0.345,-0.721C0.419,-0.721 0.479,-0.702 0.524,-0.664C0.57,-0.626 0.597,-0.572 0.607,-0.502L0.514,-0.502C0.496,-0.597 0.44,-0.644 0.346,-0.644C0.283,-0.644 0.235,-0.622 0.203,-0.577C0.17,-0.533 0.154,-0.469 0.154,-0.386L0.154,-0.328C0.154,-0.248 0.172,-0.184 0.208,-0.137C0.245,-0.09 0.294,-0.067 0.356,-0.067C0.392,-0.067 0.422,-0.071 0.449,-0.079C0.475,-0.086 0.497,-0.1 0.514,-0.118L0.514,-0.278L0.35,-0.278L0.35,-0.354L0.607,-0.354L0.607,-0.093Z" style="fill:white;fill-rule:nonzero;"/>
                </g>
                <g transform="matrix(5.76,0,0,5.76,187.937,355.025)">
                    <path d="M0.395,-0.052C0.359,-0.011 0.308,0.01 0.24,0.01C0.183,0.01 0.141,-0.007 0.111,-0.039C0.082,-0.072 0.067,-0.12 0.066,-0.185L0.066,-0.528L0.157,-0.528L0.157,-0.187C0.157,-0.107 0.189,-0.067 0.254,-0.067C0.323,-0.067 0.369,-0.093 0.392,-0.144L0.392,-0.528L0.482,-0.528L0.482,0L0.396,0L0.395,-0.052Z" style="fill:white;fill-rule:nonzero;"/>
                </g>
                <g transform="matrix(5.76,0,0,5.76,191.113,355.025)">
                    <path d="M0.167,0L0.076,0L0.076,-0.528L0.167,-0.528L0.167,0ZM0.069,-0.668C0.069,-0.683 0.073,-0.695 0.082,-0.706C0.091,-0.716 0.104,-0.721 0.122,-0.721C0.14,-0.721 0.153,-0.716 0.162,-0.706C0.171,-0.695 0.176,-0.683 0.176,-0.668C0.176,-0.654 0.171,-0.642 0.162,-0.632C0.153,-0.622 0.14,-0.617 0.122,-0.617C0.104,-0.617 0.091,-0.622 0.082,-0.632C0.073,-0.642 0.069,-0.654 0.069,-0.668Z" style="fill:white;fill-rule:nonzero;"/>
                </g>
                <g transform="matrix(5.76,0,0,5.76,192.51,355.025)">
                    <path d="M0.28,-0.064C0.313,-0.064 0.341,-0.074 0.365,-0.093C0.389,-0.113 0.402,-0.137 0.405,-0.167L0.49,-0.167C0.489,-0.136 0.478,-0.107 0.459,-0.08C0.44,-0.053 0.414,-0.031 0.382,-0.015C0.35,0.002 0.316,0.01 0.28,0.01C0.208,0.01 0.151,-0.014 0.109,-0.062C0.066,-0.11 0.045,-0.176 0.045,-0.259L0.045,-0.274C0.045,-0.326 0.054,-0.372 0.073,-0.412C0.092,-0.452 0.119,-0.483 0.155,-0.505C0.19,-0.527 0.232,-0.538 0.28,-0.538C0.339,-0.538 0.388,-0.52 0.427,-0.485C0.467,-0.449 0.488,-0.403 0.49,-0.347L0.405,-0.347C0.402,-0.381 0.389,-0.409 0.366,-0.431C0.343,-0.453 0.314,-0.464 0.28,-0.464C0.234,-0.464 0.198,-0.447 0.173,-0.414C0.148,-0.381 0.135,-0.333 0.135,-0.271L0.135,-0.254C0.135,-0.193 0.148,-0.146 0.173,-0.113C0.198,-0.08 0.234,-0.064 0.28,-0.064Z" style="fill:white;fill-rule:nonzero;"/>
                </g>
                <g transform="matrix(5.76,0,0,5.76,195.525,355.025)">
                    <path d="M0.288,0.01C0.216,0.01 0.158,-0.014 0.113,-0.061C0.068,-0.108 0.045,-0.171 0.045,-0.25L0.045,-0.266C0.045,-0.319 0.055,-0.365 0.075,-0.406C0.095,-0.448 0.123,-0.48 0.159,-0.503C0.195,-0.526 0.234,-0.538 0.276,-0.538C0.345,-0.538 0.398,-0.515 0.437,-0.47C0.475,-0.425 0.494,-0.36 0.494,-0.276L0.494,-0.238L0.136,-0.238C0.137,-0.186 0.152,-0.144 0.181,-0.112C0.211,-0.08 0.248,-0.064 0.292,-0.064C0.324,-0.064 0.351,-0.07 0.374,-0.083C0.396,-0.097 0.415,-0.114 0.432,-0.135L0.487,-0.092C0.443,-0.024 0.376,0.01 0.288,0.01ZM0.276,-0.464C0.24,-0.464 0.209,-0.451 0.185,-0.424C0.16,-0.398 0.145,-0.36 0.139,-0.313L0.403,-0.313L0.403,-0.319C0.401,-0.365 0.388,-0.401 0.366,-0.426C0.344,-0.451 0.314,-0.464 0.276,-0.464Z" style="fill:white;fill-rule:nonzero;"/>
                </g>
                <rect x="184.014" y="353.585" width="14.563" height="0.287" style="fill:white;"/>
            </g>
        </g>
    </g>
</svg>
