<svg clip-rule="evenodd" fill-rule="evenodd" stroke-linejoin="round" stroke-miterlimit="2" viewBox="0 0 540 390" xmlns="http://www.w3.org/2000/svg"><path d="m2767 12786c-70-26-97-66-97-148 0-62 37-175 59-183 9-3 24-12 34-19 17-13 16-17-22-74-81-119-92-194-33-238 15-11 16-100 3-646-6-275-7-287-28-310-34-37-34-64 2-107l26-30-21-40c-26-52-25-71 6-150 19-47 26-82 25-128-1-88-26-421-81-1083-17-195-30-380-30-410 0-61 29-134 73-186l26-31-25-24c-60-56-69-115-25-160l29-29-21-62c-24-69-22 15-30-1488l-2-495-50-3c-27-1-358-43-735-93-801-105-1387-203-1475-246l-55-27v-221-220l115-34 115-34-5-31c-3-17-35-274-70-571-36-297-72-594-80-660-16-135-32-267-105-865-27-228-63-561-80-740-16-179-61-669-100-1090s-79-863-91-984c-11-120-19-219-17-221 2-1 66-24 142-51l140-50 61 33 61 32 17 143c15 131 46 381 212 1743 70 575 61 525 94 519 14-2 231-29 481-59 996-120 1445-175 1455-179 15-5 1-278-31-618-15-159-26-290-23-292 7-7 274-54 279-49 2 2 29 210 60 461l56 457 34-3c19-2 271-32 560-67s696-85 905-110c208-26 383-49 387-51 4-3 8-37 8-75 0-39 18-224 40-412s67-576 100-862 79-675 101-864c22-190 41-346 43-348s78 4 170 14l168 17-6 91c-3 49-11 250-17 445-12 401-111 2380-134 2684-8 110-14 201-12 202 5 5 822-88 828-95 3-3 41-217 83-476 71-429 269-1441 284-1456 6-6 295-31 298-26 5 10-34 411-66 687-22 190-67 576-100 858s-75 613-94 735c-161 1030-226 1428-294 1784l-78 412 376 134 1 56c1 87-1 156-7 283l-6 116-51 21c-27 12-58 21-68 21s-20 4-23 9c-5 7 129 640 269 1271 38 174 57 307 80 555 10 106 21 175 29 185 44 50 60 136 31 176-13 20-10 29 34 115 40 78 51 112 65 199 20 124 135 864 202 1310 37 239 52 318 65 328 63 53 69 62 69 99 0 22 9 56 20 78 23 44 25 77 9 104-10 14 0 66 49 257 55 218 62 259 82 467l21 228 35 45c30 40 34 53 34 104 0 36-8 82-21 116-25 66-23 71 49 166 120 159 105 262-46 308-134 41-251 18-295-58-37-64-39-115-11-269 5-24-4-56-36-130-36-85-41-105-38-157 3-59 3-60-27-68-16-4-480-11-1030-14l-1000-6-725 56c-399 30-846 65-995 76-148 11-284 23-302 26l-32 5 25 36c33 49 33 119-1 191-33 71-32 89 11 174 59 118 57 213-6 258-62 44-208 62-283 36zm636-1647c199-16 365-33 368-37s-5-189-17-412c-67-1210-74-1453-95-3050-6-503-13-917-16-919-5-6-63-3-348 19-132 10-266 15-298 13l-58-6 5 59c4 33 15 223 26 424 12 201 29 514 39 695 19 342 18 412-13 710-13 121-12 131 4 150 54 61 53 121-2 181-19 21-19 22 3 75 54 138 54 87 19 1417l-11 394 31 34c34 39 37 62 15 103-13 26-13 30 1 42 40 33 32 98-15 124-14 8-20 14-13 15 8 0 176-14 375-31zm707-58c69-6 188-16 265-21 77-6 158-13 180-16l41-5-23-237c-13-130-68-691-123-1247-55-555-104-1066-110-1135-14-176-76-1098-96-1445-9-159-19-293-23-296-5-6-372 18-376 24-1 1 1 106 6 232 33 955 40 1301 64 3475 3 267 8 530 11 586l6 100 26-2c15-2 83-8 152-13zm988-70c150-5 275-11 278-14s-62-513-145-1133c-83-621-162-1216-176-1322-13-106-59-516-100-910-103-985-105-995-109-999-4-5-321 15-372 23l-30 4 8 73c17 168 119 1308 133 1492 29 395 85 1353 130 2210 14 270 28 514 31 544l6 53 36-6c21-4 160-11 310-15zm1072-5c0-6-138-877-241-1521-44-275-116-720-160-990-45-269-127-809-183-1199l-101-709-70 2c-38 2-135 8-215 15-136 10-145 12-143 31 2 11 16 135 33 275 71 608 131 1136 159 1410 17 162 58 558 91 880 59 577 180 1783 180 1794 0 3 132 7 293 9 160 1 307 3 325 5 17 1 32 0 32-2zm736-18c-19-27-20-45-2-79 11-22 11-28-6-49s-18-34-13-124c8-120 28-28-299-1359-91-369-98-419-72-529 11-50 11-59-1-70-41-34-55-114-29-173 11-27 10-36-21-100-35-76-18 20-253-1415-44-267-82-500-85-519l-6-34-72 6c-40 4-122 9-184 13-61 4-117 10-123 14-9 5-3 63 24 226 79 484 130 860 251 1854 108 885 286 2317 290 2338l5 22h611zm-5508-5243c355-44 1026-125 1420-171l53-6-6-42c-3-22-23-261-45-530-23-270-42-491-43-492-3-2-1909 194-1911 198-2 2 37 797 53 1086 1 6 8 12 17 12 8 0 216-25 462-55zm4502 10c0-3 23-201 51-441 27-240 48-439 45-442-7-6-734 59-761 69-18 6-25 39-68 295-27 159-51 296-53 305-4 14 11 17 95 22 108 8 219 38 511 141 149 53 180 62 180 51zm-1590-226c212 0 409 3 438 7l52 7v-282c0-273-1-281-20-281-11 0-264 23-562 50-821 76-983 91-983 93 0 1 1 96 3 211l4 209 341-7c188-3 515-7 727-7zm-289-719c425-38 773-71 774-72 1-2 5-102 9-223l7-221-118 13c-65 6-296 30-513 52-217 23-527 54-689 71-162 16-295 31-297 33-2 1 6 88 16 192 11 105 20 198 20 208 0 9 4 17 10 17 5 0 357-31 781-70zm1659-151c190-17 346-32 347-33 3-3 120-1010 118-1014-2-3-808 87-810 91-1 1-17 207-34 457s-34 474-37 498l-6 43 38-6c22-3 194-19 384-36zm-3855-350c506-50 922-93 924-95 3-3-3-105-12-227-10-122-24-368-33-547-8-179-18-327-20-329-14-14-1868 219-1939 243-7 2 8 152 41 422 29 231 55 468 59 527l7 108 27-5c14-3 440-47 946-97zm2195-220c443-44 806-81 806-82 1-1 4-57 7-124 5-92 3-123-6-123-7-1-389 41-850 92l-838 93 5 45c3 25 8 75 12 113 6 64 7 67 33 67 14 0 388-36 831-81zm-439-429c496-57 1111-126 1207-136 48-5 62-10 62-23 0-9 7-142 15-296s15-296 15-315v-36l-917 105c-505 57-919 105-921 106-3 3 66 585 74 623 2 12 8 22 13 22s209-23 452-50z" fill="#9697a1" fill-rule="nonzero" transform="matrix(-.02700093073 0 0 -.0272936 226.230344853 369.3038)"/><path d="m332 316.75c0-18.075-16.997-32.75-37.933-32.75h-133.134c-20.936 0-37.933 14.675-37.933 32.75v65.5c0 18.075 16.997 32.75 37.933 32.75h133.134c20.936 0 37.933-14.675 37.933-32.75z" fill="#27c278" transform="matrix(.60987043516 0 0 .706394 -1.80279313267 -93.658596)"/><g fill-rule="nonzero"><path d="m.38-.711h.095v.503c0 .069-.021.122-.062.16-.041.039-.095.058-.163.058-.071 0-.126-.018-.165-.054-.039-.037-.059-.087-.059-.152h.094c0 .04.011.072.033.095s.055.034.097.034c.039 0 .07-.012.094-.037.024-.024.036-.058.036-.102z" fill="#fff" transform="matrix(24.00002894672 0 0 24.00003114013 111.62817989815 138.22772181525)"/><path d="m.395 0c-.006-.01-.01-.029-.013-.056-.042.044-.092.066-.151.066-.052 0-.094-.015-.128-.044-.033-.03-.05-.067-.05-.112 0-.055.021-.098.063-.129.042-.03.101-.045.176-.045h.088v-.042c0-.031-.009-.057-.028-.075-.019-.019-.047-.028-.083-.028-.033 0-.06.008-.081.024-.022.016-.033.036-.033.059h-.091c0-.026.009-.052.028-.076.019-.025.044-.044.076-.059.032-.014.068-.021.106-.021.061 0 .108.015.143.046.034.03.052.072.054.125v.243c0 .049.006.088.018.116v.008zm-.15-.069c.028 0 .055-.007.08-.022.026-.014.044-.034.055-.057v-.108h-.07c-.111 0-.166.032-.166.097 0 .028.009.05.028.066s.043.024.073.024z" fill="#fff" transform="matrix(24.00002894672 0 0 24.00003114013 124.87402920746 138.22772181525)"/><path d="m.243-.123.131-.405h.092l-.19.528h-.068l-.192-.528h.092z" fill="#fff" transform="matrix(24.00002894672 0 0 24.00003114013 137.75321140787 138.22772181525)"/><path d="m.395 0c-.006-.01-.01-.029-.013-.056-.042.044-.092.066-.151.066-.052 0-.094-.015-.128-.044-.033-.03-.05-.067-.05-.112 0-.055.021-.098.063-.129.042-.03.101-.045.176-.045h.088v-.042c0-.031-.009-.057-.028-.075-.019-.019-.047-.028-.083-.028-.033 0-.06.008-.081.024-.022.016-.033.036-.033.059h-.091c0-.026.009-.052.028-.076.019-.025.044-.044.076-.059.032-.014.068-.021.106-.021.061 0 .108.015.143.046.034.03.052.072.054.125v.243c0 .049.006.088.018.116v.008zm-.15-.069c.028 0 .055-.007.08-.022.026-.014.044-.034.055-.057v-.108h-.07c-.111 0-.166.032-.166.097 0 .028.009.05.028.066s.043.024.073.024z" fill="#fff" transform="matrix(24.00002894672 0 0 24.00003114013 149.19905854617 138.22772181525)"/><path d="m.327-.381h.198v.085h-.198v.225h-.091v-.225h-.198v-.085h.198v-.208h.091z" fill="#fff" transform="matrix(24.00002894672 0 0 24.00003114013 130.14070222633 162.22775295539)"/><path d="m.083 0v-.711h.2c.062 0 .117.014.164.041.048.027.084.066.11.117.026.05.039.108.04.174v.045c0 .067-.013.126-.039.176-.026.051-.063.089-.111.116-.048.028-.104.041-.168.042zm.093-.634v.557h.099c.072 0 .128-.022.169-.067.04-.045.06-.109.06-.192v-.041c0-.081-.019-.144-.057-.189-.038-.044-.092-.067-.161-.068z" fill="#fff" transform="matrix(24.00002894672 0 0 24.00003114013 98.66149759221 186.22778409552)"/><path d="m.395 0c-.006-.01-.01-.029-.013-.056-.042.044-.092.066-.151.066-.052 0-.094-.015-.128-.044-.033-.03-.05-.067-.05-.112 0-.055.021-.098.063-.129.042-.03.101-.045.176-.045h.088v-.042c0-.031-.009-.057-.028-.075-.019-.019-.047-.028-.083-.028-.033 0-.06.008-.081.024-.022.016-.033.036-.033.059h-.091c0-.026.009-.052.028-.076.019-.025.044-.044.076-.059.032-.014.068-.021.106-.021.061 0 .108.015.143.046.034.03.052.072.054.125v.243c0 .049.006.088.018.116v.008zm-.15-.069c.028 0 .055-.007.08-.022.026-.014.044-.034.055-.057v-.108h-.07c-.111 0-.166.032-.166.097 0 .028.009.05.028.066s.043.024.073.024z" fill="#fff" transform="matrix(24.00002894672 0 0 24.00003114013 114.40318324512 186.22778409552)"/><path d="m.047-.269c0-.082.019-.147.057-.196s.089-.073.151-.073c.065 0 .115.023.151.068l.005-.058h.082v.515c0 .069-.02.123-.061.162-.04.039-.095.059-.163.059-.038 0-.075-.008-.112-.024-.036-.017-.064-.039-.083-.067l.047-.054c.038.047.086.071.142.071.044 0 .078-.012.102-.037.025-.025.037-.059.037-.104v-.046c-.036.042-.085.063-.148.063-.061 0-.112-.025-.15-.075s-.057-.118-.057-.204zm.091.011c0 .059.012.106.036.14.025.034.059.051.103.051.057 0 .099-.026.125-.078v-.241c-.027-.05-.069-.075-.124-.075-.044 0-.078.017-.103.051s-.037.085-.037.152z" fill="#fff" transform="matrix(24.00002894672 0 0 24.00003114013 127.45736565659 186.22778409552)"/><path d="m.047-.269c0-.082.019-.147.057-.196s.089-.073.151-.073c.065 0 .115.023.151.068l.005-.058h.082v.515c0 .069-.02.123-.061.162-.04.039-.095.059-.163.059-.038 0-.075-.008-.112-.024-.036-.017-.064-.039-.083-.067l.047-.054c.038.047.086.071.142.071.044 0 .078-.012.102-.037.025-.025.037-.059.037-.104v-.046c-.036.042-.085.063-.148.063-.061 0-.112-.025-.15-.075s-.057-.118-.057-.204zm.091.011c0 .059.012.106.036.14.025.034.059.051.103.051.057 0 .099-.026.125-.078v-.241c-.027-.05-.069-.075-.124-.075-.044 0-.078.017-.103.051s-.037.085-.037.152z" fill="#fff" transform="matrix(24.00002894672 0 0 24.00003114013 140.91988189389 186.22778409552)"/><path d="m.288.01c-.072 0-.13-.024-.175-.071s-.068-.11-.068-.189v-.016c0-.053.01-.099.03-.14.02-.042.048-.074.084-.097s.075-.035.117-.035c.069 0 .122.023.161.068.038.045.057.11.057.194v.038h-.358c.001.052.016.094.045.126.03.032.067.048.111.048.032 0 .059-.006.082-.019.022-.014.041-.031.058-.052l.055.043c-.044.068-.111.102-.199.102zm-.012-.474c-.036 0-.067.013-.091.04-.025.026-.04.064-.046.111h.264v-.006c-.002-.046-.015-.082-.037-.107s-.052-.038-.09-.038z" fill="#fff" transform="matrix(24.00002894672 0 0 24.00003114013 154.38656480289 186.22778409552)"/><path d="m.324-.447c-.014-.003-.029-.004-.045-.004-.059 0-.099.026-.12.076v.375h-.091v-.528h.088l.002.061c.029-.047.071-.071.126-.071.017 0 .031.002.04.007z" fill="#fff" transform="matrix(24.00002894672 0 0 24.00003114013 167.09908013561 186.22778409552)"/><path d="m2767 12786c-70-26-97-66-97-148 0-62 37-175 59-183 9-3 24-12 34-19 17-13 16-17-22-74-81-119-92-194-33-238 15-11 16-100 3-646-6-275-7-287-28-310-34-37-34-64 2-107l26-30-21-40c-26-52-25-71 6-150 19-47 26-82 25-128-1-88-26-421-81-1083-17-195-30-380-30-410 0-61 29-134 73-186l26-31-25-24c-60-56-69-115-25-160l29-29-21-62c-24-69-22 15-30-1488l-2-495-50-3c-27-1-358-43-735-93-801-105-1387-203-1475-246l-55-27v-221-220l115-34 115-34-5-31c-3-17-35-274-70-571-36-297-72-594-80-660-16-135-32-267-105-865-27-228-63-561-80-740-16-179-61-669-100-1090s-79-863-91-984c-11-120-19-219-17-221 2-1 66-24 142-51l140-50 61 33 61 32 17 143c15 131 46 381 212 1743 70 575 61 525 94 519 14-2 231-29 481-59 996-120 1445-175 1455-179 15-5 1-278-31-618-15-159-26-290-23-292 7-7 274-54 279-49 2 2 29 210 60 461l56 457 34-3c19-2 271-32 560-67s696-85 905-110c208-26 383-49 387-51 4-3 8-37 8-75 0-39 18-224 40-412s67-576 100-862 79-675 101-864c22-190 41-346 43-348s78 4 170 14l168 17-6 91c-3 49-11 250-17 445-12 401-111 2380-134 2684-8 110-14 201-12 202 5 5 822-88 828-95 3-3 41-217 83-476 71-429 269-1441 284-1456 6-6 295-31 298-26 5 10-34 411-66 687-22 190-67 576-100 858s-75 613-94 735c-161 1030-226 1428-294 1784l-78 412 376 134 1 56c1 87-1 156-7 283l-6 116-51 21c-27 12-58 21-68 21s-20 4-23 9c-5 7 129 640 269 1271 38 174 57 307 80 555 10 106 21 175 29 185 44 50 60 136 31 176-13 20-10 29 34 115 40 78 51 112 65 199 20 124 135 864 202 1310 37 239 52 318 65 328 63 53 69 62 69 99 0 22 9 56 20 78 23 44 25 77 9 104-10 14 0 66 49 257 55 218 62 259 82 467l21 228 35 45c30 40 34 53 34 104 0 36-8 82-21 116-25 66-23 71 49 166 120 159 105 262-46 308-134 41-251 18-295-58-37-64-39-115-11-269 5-24-4-56-36-130-36-85-41-105-38-157 3-59 3-60-27-68-16-4-480-11-1030-14l-1000-6-725 56c-399 30-846 65-995 76-148 11-284 23-302 26l-32 5 25 36c33 49 33 119-1 191-33 71-32 89 11 174 59 118 57 213-6 258-62 44-208 62-283 36zm636-1647c199-16 365-33 368-37s-5-189-17-412c-67-1210-74-1453-95-3050-6-503-13-917-16-919-5-6-63-3-348 19-132 10-266 15-298 13l-58-6 5 59c4 33 15 223 26 424 12 201 29 514 39 695 19 342 18 412-13 710-13 121-12 131 4 150 54 61 53 121-2 181-19 21-19 22 3 75 54 138 54 87 19 1417l-11 394 31 34c34 39 37 62 15 103-13 26-13 30 1 42 40 33 32 98-15 124-14 8-20 14-13 15 8 0 176-14 375-31zm707-58c69-6 188-16 265-21 77-6 158-13 180-16l41-5-23-237c-13-130-68-691-123-1247-55-555-104-1066-110-1135-14-176-76-1098-96-1445-9-159-19-293-23-296-5-6-372 18-376 24-1 1 1 106 6 232 33 955 40 1301 64 3475 3 267 8 530 11 586l6 100 26-2c15-2 83-8 152-13zm988-70c150-5 275-11 278-14s-62-513-145-1133c-83-621-162-1216-176-1322-13-106-59-516-100-910-103-985-105-995-109-999-4-5-321 15-372 23l-30 4 8 73c17 168 119 1308 133 1492 29 395 85 1353 130 2210 14 270 28 514 31 544l6 53 36-6c21-4 160-11 310-15zm1072-5c0-6-138-877-241-1521-44-275-116-720-160-990-45-269-127-809-183-1199l-101-709-70 2c-38 2-135 8-215 15-136 10-145 12-143 31 2 11 16 135 33 275 71 608 131 1136 159 1410 17 162 58 558 91 880 59 577 180 1783 180 1794 0 3 132 7 293 9 160 1 307 3 325 5 17 1 32 0 32-2zm736-18c-19-27-20-45-2-79 11-22 11-28-6-49s-18-34-13-124c8-120 28-28-299-1359-91-369-98-419-72-529 11-50 11-59-1-70-41-34-55-114-29-173 11-27 10-36-21-100-35-76-18 20-253-1415-44-267-82-500-85-519l-6-34-72 6c-40 4-122 9-184 13-61 4-117 10-123 14-9 5-3 63 24 226 79 484 130 860 251 1854 108 885 286 2317 290 2338l5 22h611zm-5508-5243c355-44 1026-125 1420-171l53-6-6-42c-3-22-23-261-45-530-23-270-42-491-43-492-3-2-1909 194-1911 198-2 2 37 797 53 1086 1 6 8 12 17 12 8 0 216-25 462-55zm4502 10c0-3 23-201 51-441 27-240 48-439 45-442-7-6-734 59-761 69-18 6-25 39-68 295-27 159-51 296-53 305-4 14 11 17 95 22 108 8 219 38 511 141 149 53 180 62 180 51zm-1590-226c212 0 409 3 438 7l52 7v-282c0-273-1-281-20-281-11 0-264 23-562 50-821 76-983 91-983 93 0 1 1 96 3 211l4 209 341-7c188-3 515-7 727-7zm-289-719c425-38 773-71 774-72 1-2 5-102 9-223l7-221-118 13c-65 6-296 30-513 52-217 23-527 54-689 71-162 16-295 31-297 33-2 1 6 88 16 192 11 105 20 198 20 208 0 9 4 17 10 17 5 0 357-31 781-70zm1659-151c190-17 346-32 347-33 3-3 120-1010 118-1014-2-3-808 87-810 91-1 1-17 207-34 457s-34 474-37 498l-6 43 38-6c22-3 194-19 384-36zm-3855-350c506-50 922-93 924-95 3-3-3-105-12-227-10-122-24-368-33-547-8-179-18-327-20-329-14-14-1868 219-1939 243-7 2 8 152 41 422 29 231 55 468 59 527l7 108 27-5c14-3 440-47 946-97zm2195-220c443-44 806-81 806-82 1-1 4-57 7-124 5-92 3-123-6-123-7-1-389 41-850 92l-838 93 5 45c3 25 8 75 12 113 6 64 7 67 33 67 14 0 388-36 831-81zm-439-429c496-57 1111-126 1207-136 48-5 62-10 62-23 0-9 7-142 15-296s15-296 15-315v-36l-917 105c-505 57-919 105-921 106-3 3 66 585 74 623 2 12 8 22 13 22s209-23 452-50z" fill="#9697a1" transform="matrix(.02700093073 0 0 -.0272936 313.769255147 369.3038)"/></g><path d="m332 316.75c0-18.075-16.997-32.75-37.933-32.75h-133.134c-20.936 0-37.933 14.675-37.933 32.75v65.5c0 18.075 16.997 32.75 37.933 32.75h133.134c20.936 0 37.933-14.675 37.933-32.75z" fill="#27c278" transform="matrix(.60987043516 0 0 .706394 264.31248698533 -93.658596)"/><g fill="#fff" transform="matrix(4.16667169214 0 0 4.16667207294 -394.00747080196 -1293.0449686)"><g fill-rule="nonzero"><path d="m.263-.331-.087.091v.24h-.093v-.711h.093v.352l.316-.352h.113l-.279.314.301.397h-.112z" transform="matrix(5.76 0 0 5.76 183.958 343.505)"/><path d="m.044-.269c0-.052.011-.098.031-.14.02-.041.049-.073.085-.095.036-.023.078-.034.124-.034.072 0 .13.025.175.075.044.049.066.116.066.198v.007c0 .051-.009.097-.029.138s-.048.073-.085.096c-.036.022-.078.034-.126.034-.071 0-.129-.025-.174-.075-.044-.05-.067-.116-.067-.198zm.091.011c0 .058.014.105.041.141.027.035.064.053.109.053.046 0 .083-.018.11-.054s.04-.086.04-.151c0-.058-.014-.105-.041-.141-.028-.036-.064-.054-.11-.054-.044 0-.08.018-.108.053-.027.036-.041.087-.041.153z" transform="matrix(5.76 0 0 5.76 187.493 343.505)"/><path d="m.191-.656v.128h.099v.07h-.099v.327c0 .021.004.037.013.048.009.01.024.016.045.016.01 0 .025-.002.043-.006v.073c-.024.007-.047.01-.069.01-.041 0-.071-.012-.092-.037-.02-.024-.03-.059-.03-.104v-.327h-.097v-.07h.097v-.128z" transform="matrix(5.76 0 0 5.76 190.778 343.505)"/><path d="m193.09776 339.185h.5184v4.32h-.5184z" stroke-width="5.76"/><path d="m.167 0h-.091v-.528h.091zm-.098-.668c0-.015.004-.027.013-.038.009-.01.022-.015.04-.015s.031.005.04.015c.009.011.014.023.014.038 0 .014-.005.026-.014.036s-.022.015-.04.015-.031-.005-.04-.015-.013-.022-.013-.036z" transform="matrix(5.76 0 0 5.76 194.057 343.505)"/><path d="m.154-.528.003.066c.04-.051.093-.076.158-.076.112 0 .168.063.169.189v.349h-.09v-.35c-.001-.038-.009-.066-.027-.084-.017-.018-.043-.027-.079-.027-.03 0-.055.007-.078.023-.022.016-.039.036-.051.062v.376h-.091v-.528z" transform="matrix(5.76 0 0 5.76 195.455 343.505)"/><path d="m.327-.381h.198v.085h-.198v.225h-.091v-.225h-.198v-.085h.198v-.208h.091z" transform="matrix(5.76 0 0 5.76 189.663 349.265)"/><path d="m.607-.093c-.024.034-.057.06-.1.077-.044.017-.094.026-.151.026-.058 0-.109-.014-.154-.041s-.08-.066-.105-.116c-.024-.05-.037-.108-.037-.174v-.062c0-.107.025-.19.075-.249.049-.059.12-.089.21-.089.074 0 .134.019.179.057.046.038.073.092.083.162h-.093c-.018-.095-.074-.142-.168-.142-.063 0-.111.022-.143.067-.033.044-.049.108-.049.191v.058c0 .08.018.144.054.191.037.047.086.07.148.07.036 0 .066-.004.093-.012.026-.007.048-.021.065-.039v-.16h-.164v-.076h.257z" transform="matrix(5.76 0 0 5.76 184.014 355.025)"/><path d="m.395-.052c-.036.041-.087.062-.155.062-.057 0-.099-.017-.129-.049-.029-.033-.044-.081-.045-.146v-.343h.091v.341c0 .08.032.12.097.12.069 0 .115-.026.138-.077v-.384h.09v.528h-.086z" transform="matrix(5.76 0 0 5.76 187.937 355.025)"/><path d="m.167 0h-.091v-.528h.091zm-.098-.668c0-.015.004-.027.013-.038.009-.01.022-.015.04-.015s.031.005.04.015c.009.011.014.023.014.038 0 .014-.005.026-.014.036s-.022.015-.04.015-.031-.005-.04-.015-.013-.022-.013-.036z" transform="matrix(5.76 0 0 5.76 191.113 355.025)"/><path d="m.28-.064c.033 0 .061-.01.085-.029.024-.02.037-.044.04-.074h.085c-.001.031-.012.06-.031.087s-.045.049-.077.065c-.032.017-.066.025-.102.025-.072 0-.129-.024-.171-.072-.043-.048-.064-.114-.064-.197v-.015c0-.052.009-.098.028-.138s.046-.071.082-.093c.035-.022.077-.033.125-.033.059 0 .108.018.147.053.04.036.061.082.063.138h-.085c-.003-.034-.016-.062-.039-.084s-.052-.033-.086-.033c-.046 0-.082.017-.107.05s-.038.081-.038.143v.017c0 .061.013.108.038.141s.061.049.107.049z" transform="matrix(5.76 0 0 5.76 192.51 355.025)"/><path d="m.288.01c-.072 0-.13-.024-.175-.071s-.068-.11-.068-.189v-.016c0-.053.01-.099.03-.14.02-.042.048-.074.084-.097s.075-.035.117-.035c.069 0 .122.023.161.068.038.045.057.11.057.194v.038h-.358c.001.052.016.094.045.126.03.032.067.048.111.048.032 0 .059-.006.082-.019.022-.014.041-.031.058-.052l.055.043c-.044.068-.111.102-.199.102zm-.012-.474c-.036 0-.067.013-.091.04-.025.026-.04.064-.046.111h.264v-.006c-.002-.046-.015-.082-.037-.107s-.052-.038-.09-.038z" transform="matrix(5.76 0 0 5.76 195.525 355.025)"/></g><path d="m184.014 353.585h14.563v.287h-14.563z"/></g></svg>