<svg clip-rule="evenodd" fill-rule="evenodd" stroke-linejoin="round" stroke-miterlimit="1.41421" viewBox="0 0 120 120" xmlns="http://www.w3.org/2000/svg"><path d="m59.994 1.481c-33.128 0-59.994 26.863-59.994 60.005 0 26.506 17.19 48.996 41.033 56.93 3.001.549 4.095-1.304 4.095-2.891 0-1.425-.051-5.197-.081-10.207-16.689 3.629-20.21-8.04-20.21-8.04-2.73-6.932-6.663-8.778-6.663-8.778-5.448-3.724.412-3.646.412-3.646 6.022.423 9.19 6.18 9.19 6.18 5.352 9.172 14.045 6.524 17.463 4.988.545-3.879 2.096-6.524 3.809-8.023-13.323-1.514-27.331-6.663-27.331-29.654 0-6.549 2.339-11.905 6.177-16.1-.619-1.518-2.678-7.618.589-15.879 0 0 5.035-1.614 16.498 6.151 4.785-1.33 9.919-1.997 15.021-2.019 5.098.022 10.228.689 15.021 2.019 11.455-7.765 16.483-6.151 16.483-6.151 3.274 8.261 1.215 14.361.6 15.879 3.845 4.195 6.166 9.551 6.166 16.1 0 23.05-14.03 28.122-27.393 29.606 2.151 1.853 4.07 5.514 4.07 11.113 0 8.022-.074 14.494-.074 16.461 0 1.602 1.083 3.47 4.126 2.884 23.823-7.949 40.999-30.424 40.999-56.923 0-33.142-26.866-60.005-60.006-60.005z" fill="#181717"/></svg>