<?xml version="1.0" encoding="UTF-8" standalone="no"?>
<!DOCTYPE svg PUBLIC "-//W3C//DTD SVG 1.1//EN" "http://www.w3.org/Graphics/SVG/1.1/DTD/svg11.dtd">
<svg width="100%" height="100%" viewBox="0 0 1260 320" version="1.1" xmlns="http://www.w3.org/2000/svg" xmlns:xlink="http://www.w3.org/1999/xlink" xml:space="preserve" xmlns:serif="http://www.serif.com/" style="fill-rule:evenodd;clip-rule:evenodd;stroke-linejoin:round;stroke-miterlimit:2;">
    <g transform="matrix(0.833333,0,0,0.610687,246.667,18.9313)">
        <g transform="matrix(1.14833,0,0,1,-101.244,-184)">
            <path d="M332,316.75C332,298.675 322.635,284 311.1,284L143.9,284C132.365,284 123,298.675 123,316.75L123,382.25C123,400.325 132.365,415 143.9,415L311.1,415C322.635,415 332,400.325 332,382.25L332,316.75Z" style="fill:rgb(39,194,120);"/>
        </g>
        <g transform="matrix(1.2,0,0,1.6375,-171.2,-450.2)">
            <g transform="matrix(32,0,0,32,244.984,388)">
                <path d="M0.216,-0.245L0.159,-0.186L0.159,0L0.069,0L0.069,-0.75L0.159,-0.75L0.159,-0.296L0.208,-0.354L0.372,-0.528L0.482,-0.528L0.276,-0.308L0.506,0L0.4,0L0.216,-0.245Z" style="fill:white;fill-rule:nonzero;"/>
            </g>
            <g transform="matrix(32,0,0,32,261.203,388)">
                <path d="M0.395,0C0.389,-0.01 0.385,-0.029 0.382,-0.056C0.34,-0.012 0.29,0.01 0.231,0.01C0.179,0.01 0.137,-0.005 0.103,-0.034C0.07,-0.064 0.053,-0.101 0.053,-0.146C0.053,-0.201 0.074,-0.244 0.116,-0.275C0.158,-0.305 0.217,-0.32 0.292,-0.32L0.38,-0.32L0.38,-0.362C0.38,-0.393 0.371,-0.419 0.352,-0.437C0.333,-0.456 0.305,-0.465 0.269,-0.465C0.236,-0.465 0.209,-0.457 0.188,-0.441C0.166,-0.425 0.155,-0.405 0.155,-0.382L0.064,-0.382C0.064,-0.408 0.073,-0.434 0.092,-0.458C0.111,-0.483 0.136,-0.502 0.168,-0.517C0.2,-0.531 0.236,-0.538 0.274,-0.538C0.335,-0.538 0.382,-0.523 0.417,-0.492C0.451,-0.462 0.469,-0.42 0.471,-0.367L0.471,-0.124C0.471,-0.075 0.477,-0.036 0.489,-0.008L0.489,0L0.395,0ZM0.245,-0.069C0.273,-0.069 0.3,-0.076 0.325,-0.091C0.351,-0.105 0.369,-0.125 0.38,-0.148L0.38,-0.256L0.31,-0.256C0.199,-0.256 0.144,-0.224 0.144,-0.159C0.144,-0.131 0.153,-0.109 0.172,-0.093C0.191,-0.077 0.215,-0.069 0.245,-0.069Z" style="fill:white;fill-rule:nonzero;"/>
            </g>
            <g transform="matrix(32,0,0,32,278.609,388)">
                <path d="M0.515,-0.258C0.515,-0.178 0.496,-0.113 0.459,-0.064C0.423,-0.015 0.373,0.01 0.31,0.01C0.246,0.01 0.195,-0.011 0.159,-0.051L0.159,0.203L0.068,0.203L0.068,-0.528L0.151,-0.528L0.155,-0.47C0.192,-0.515 0.243,-0.538 0.309,-0.538C0.372,-0.538 0.422,-0.514 0.459,-0.466C0.496,-0.418 0.515,-0.352 0.515,-0.267L0.515,-0.258ZM0.424,-0.269C0.424,-0.328 0.412,-0.375 0.386,-0.41C0.361,-0.444 0.326,-0.461 0.282,-0.461C0.227,-0.461 0.186,-0.437 0.159,-0.389L0.159,-0.136C0.186,-0.088 0.227,-0.064 0.283,-0.064C0.326,-0.064 0.36,-0.081 0.386,-0.115C0.412,-0.15 0.424,-0.201 0.424,-0.269Z" style="fill:white;fill-rule:nonzero;"/>
            </g>
            <g transform="matrix(32,0,0,32,296.562,388)">
                <path d="M0.191,-0.656L0.191,-0.528L0.29,-0.528L0.29,-0.458L0.191,-0.458L0.191,-0.131C0.191,-0.11 0.195,-0.094 0.204,-0.083C0.213,-0.073 0.228,-0.067 0.249,-0.067C0.259,-0.067 0.274,-0.069 0.292,-0.073L0.292,0C0.268,0.007 0.245,0.01 0.223,0.01C0.182,0.01 0.152,-0.002 0.131,-0.027C0.111,-0.051 0.101,-0.086 0.101,-0.131L0.101,-0.458L0.004,-0.458L0.004,-0.528L0.101,-0.528L0.101,-0.656L0.191,-0.656Z" style="fill:white;fill-rule:nonzero;"/>
            </g>
        </g>
    </g>
    <g transform="matrix(0.833333,0,0,0.610687,486.667,138.931)">
        <g transform="matrix(1.14833,0,0,1,-101.244,-184)">
            <path d="M332,316.75C332,298.675 322.635,284 311.1,284L143.9,284C132.365,284 123,298.675 123,316.75L123,382.25C123,400.325 132.365,415 143.9,415L311.1,415C322.635,415 332,400.325 332,382.25L332,316.75Z" style="fill:rgb(39,194,120);"/>
        </g>
        <g transform="matrix(1.2,0,0,1.6375,-171.2,-450.2)">
            <g transform="matrix(32,0,0,32,238.883,388)">
                <path d="M0.162,-0.528L0.162,0.061C0.162,0.163 0.116,0.213 0.023,0.213C0.004,0.213 -0.015,0.21 -0.032,0.205L-0.032,0.132C-0.021,0.135 -0.008,0.136 0.009,0.136C0.029,0.136 0.045,0.131 0.055,0.12C0.066,0.109 0.071,0.09 0.071,0.063L0.071,-0.528L0.162,-0.528ZM0.062,-0.668C0.062,-0.683 0.066,-0.695 0.075,-0.705C0.084,-0.716 0.097,-0.721 0.115,-0.721C0.132,-0.721 0.146,-0.716 0.155,-0.706C0.164,-0.695 0.168,-0.683 0.168,-0.668C0.168,-0.654 0.164,-0.642 0.155,-0.632C0.146,-0.622 0.132,-0.617 0.115,-0.617C0.097,-0.617 0.084,-0.622 0.075,-0.632C0.066,-0.642 0.062,-0.654 0.062,-0.668Z" style="fill:white;fill-rule:nonzero;"/>
            </g>
            <g transform="matrix(32,0,0,32,246.523,388)">
                <path d="M0.395,0C0.389,-0.01 0.385,-0.029 0.382,-0.056C0.34,-0.012 0.29,0.01 0.231,0.01C0.179,0.01 0.137,-0.005 0.103,-0.034C0.07,-0.064 0.053,-0.101 0.053,-0.146C0.053,-0.201 0.074,-0.244 0.116,-0.275C0.158,-0.305 0.217,-0.32 0.292,-0.32L0.38,-0.32L0.38,-0.362C0.38,-0.393 0.371,-0.419 0.352,-0.437C0.333,-0.456 0.305,-0.465 0.269,-0.465C0.236,-0.465 0.209,-0.457 0.188,-0.441C0.166,-0.425 0.155,-0.405 0.155,-0.382L0.064,-0.382C0.064,-0.408 0.073,-0.434 0.092,-0.458C0.111,-0.483 0.136,-0.502 0.168,-0.517C0.2,-0.531 0.236,-0.538 0.274,-0.538C0.335,-0.538 0.382,-0.523 0.417,-0.492C0.451,-0.462 0.469,-0.42 0.471,-0.367L0.471,-0.124C0.471,-0.075 0.477,-0.036 0.489,-0.008L0.489,0L0.395,0ZM0.245,-0.069C0.273,-0.069 0.3,-0.076 0.325,-0.091C0.351,-0.105 0.369,-0.125 0.38,-0.148L0.38,-0.256L0.31,-0.256C0.199,-0.256 0.144,-0.224 0.144,-0.159C0.144,-0.131 0.153,-0.109 0.172,-0.093C0.191,-0.077 0.215,-0.069 0.245,-0.069Z" style="fill:white;fill-rule:nonzero;"/>
            </g>
            <g transform="matrix(32,0,0,32,263.695,388)">
                <path d="M0.243,-0.123L0.374,-0.528L0.466,-0.528L0.276,0L0.208,0L0.016,-0.528L0.108,-0.528L0.243,-0.123Z" style="fill:white;fill-rule:nonzero;"/>
            </g>
            <g transform="matrix(32,0,0,32,278.961,388)">
                <path d="M0.395,0C0.389,-0.01 0.385,-0.029 0.382,-0.056C0.34,-0.012 0.29,0.01 0.231,0.01C0.179,0.01 0.137,-0.005 0.103,-0.034C0.07,-0.064 0.053,-0.101 0.053,-0.146C0.053,-0.201 0.074,-0.244 0.116,-0.275C0.158,-0.305 0.217,-0.32 0.292,-0.32L0.38,-0.32L0.38,-0.362C0.38,-0.393 0.371,-0.419 0.352,-0.437C0.333,-0.456 0.305,-0.465 0.269,-0.465C0.236,-0.465 0.209,-0.457 0.188,-0.441C0.166,-0.425 0.155,-0.405 0.155,-0.382L0.064,-0.382C0.064,-0.408 0.073,-0.434 0.092,-0.458C0.111,-0.483 0.136,-0.502 0.168,-0.517C0.2,-0.531 0.236,-0.538 0.274,-0.538C0.335,-0.538 0.382,-0.523 0.417,-0.492C0.451,-0.462 0.469,-0.42 0.471,-0.367L0.471,-0.124C0.471,-0.075 0.477,-0.036 0.489,-0.008L0.489,0L0.395,0ZM0.245,-0.069C0.273,-0.069 0.3,-0.076 0.325,-0.091C0.351,-0.105 0.369,-0.125 0.38,-0.148L0.38,-0.256L0.31,-0.256C0.199,-0.256 0.144,-0.224 0.144,-0.159C0.144,-0.131 0.153,-0.109 0.172,-0.093C0.191,-0.077 0.215,-0.069 0.245,-0.069Z" style="fill:white;fill-rule:nonzero;"/>
            </g>
            <g transform="matrix(32,0,0,32,296.367,388)">
                <path d="M0.28,-0.064C0.313,-0.064 0.341,-0.074 0.365,-0.093C0.389,-0.113 0.402,-0.137 0.405,-0.167L0.49,-0.167C0.489,-0.136 0.478,-0.107 0.459,-0.08C0.44,-0.053 0.414,-0.031 0.382,-0.015C0.35,0.002 0.316,0.01 0.28,0.01C0.208,0.01 0.151,-0.014 0.109,-0.062C0.066,-0.11 0.045,-0.176 0.045,-0.259L0.045,-0.274C0.045,-0.326 0.054,-0.372 0.073,-0.412C0.092,-0.452 0.119,-0.483 0.155,-0.505C0.19,-0.527 0.232,-0.538 0.28,-0.538C0.339,-0.538 0.388,-0.52 0.427,-0.485C0.467,-0.449 0.488,-0.403 0.49,-0.347L0.405,-0.347C0.402,-0.381 0.389,-0.409 0.366,-0.431C0.343,-0.453 0.314,-0.464 0.28,-0.464C0.234,-0.464 0.198,-0.447 0.173,-0.414C0.148,-0.381 0.135,-0.333 0.135,-0.271L0.135,-0.254C0.135,-0.193 0.148,-0.146 0.173,-0.113C0.198,-0.08 0.234,-0.064 0.28,-0.064Z" style="fill:white;fill-rule:nonzero;"/>
            </g>
        </g>
    </g>
    <g transform="matrix(0.833333,0,0,0.610687,726.667,18.9313)">
        <g transform="matrix(1.14833,0,0,1,-101.244,-184)">
            <path d="M332,316.75C332,298.675 322.635,284 311.1,284L143.9,284C132.365,284 123,298.675 123,316.75L123,382.25C123,400.325 132.365,415 143.9,415L311.1,415C322.635,415 332,400.325 332,382.25L332,316.75Z" style="fill:rgb(39,194,120);"/>
        </g>
        <g transform="matrix(1.2,0,0,1.6375,-171.2,-450.2)">
            <g transform="matrix(32,0,0,32,228.57,388)">
                <path d="M0.216,-0.245L0.159,-0.186L0.159,0L0.069,0L0.069,-0.75L0.159,-0.75L0.159,-0.296L0.208,-0.354L0.372,-0.528L0.482,-0.528L0.276,-0.308L0.506,0L0.4,0L0.216,-0.245Z" style="fill:white;fill-rule:nonzero;"/>
            </g>
            <g transform="matrix(32,0,0,32,244.789,388)">
                <path d="M0.044,-0.269C0.044,-0.321 0.055,-0.367 0.075,-0.409C0.095,-0.45 0.124,-0.482 0.16,-0.504C0.196,-0.527 0.238,-0.538 0.284,-0.538C0.356,-0.538 0.414,-0.513 0.459,-0.463C0.503,-0.414 0.525,-0.347 0.525,-0.265L0.525,-0.258C0.525,-0.207 0.516,-0.161 0.496,-0.12C0.476,-0.079 0.448,-0.047 0.411,-0.024C0.375,-0.002 0.333,0.01 0.285,0.01C0.214,0.01 0.156,-0.015 0.111,-0.065C0.067,-0.115 0.044,-0.181 0.044,-0.263L0.044,-0.269ZM0.135,-0.258C0.135,-0.2 0.149,-0.153 0.176,-0.117C0.203,-0.082 0.24,-0.064 0.285,-0.064C0.331,-0.064 0.368,-0.082 0.395,-0.118C0.422,-0.154 0.435,-0.204 0.435,-0.269C0.435,-0.327 0.421,-0.374 0.394,-0.41C0.366,-0.446 0.33,-0.464 0.284,-0.464C0.24,-0.464 0.204,-0.446 0.176,-0.411C0.149,-0.375 0.135,-0.324 0.135,-0.258Z" style="fill:white;fill-rule:nonzero;"/>
            </g>
            <g transform="matrix(32,0,0,32,263.039,388)">
                <path d="M0.191,-0.656L0.191,-0.528L0.29,-0.528L0.29,-0.458L0.191,-0.458L0.191,-0.131C0.191,-0.11 0.195,-0.094 0.204,-0.083C0.213,-0.073 0.228,-0.067 0.249,-0.067C0.259,-0.067 0.274,-0.069 0.292,-0.073L0.292,0C0.268,0.007 0.245,0.01 0.223,0.01C0.182,0.01 0.152,-0.002 0.131,-0.027C0.111,-0.051 0.101,-0.086 0.101,-0.131L0.101,-0.458L0.004,-0.458L0.004,-0.528L0.101,-0.528L0.101,-0.656L0.191,-0.656Z" style="fill:white;fill-rule:nonzero;"/>
            </g>
            <g transform="matrix(32,0,0,32,273.492,388)">
                <rect x="0.076" y="-0.75" width="0.09" height="0.75" style="fill:white;fill-rule:nonzero;"/>
            </g>
            <g transform="matrix(32,0,0,32,281.258,388)">
                <path d="M0.167,0L0.076,0L0.076,-0.528L0.167,-0.528L0.167,0ZM0.069,-0.668C0.069,-0.683 0.073,-0.695 0.082,-0.706C0.091,-0.716 0.104,-0.721 0.122,-0.721C0.14,-0.721 0.153,-0.716 0.162,-0.706C0.171,-0.695 0.176,-0.683 0.176,-0.668C0.176,-0.654 0.171,-0.642 0.162,-0.632C0.153,-0.622 0.14,-0.617 0.122,-0.617C0.104,-0.617 0.091,-0.622 0.082,-0.632C0.073,-0.642 0.069,-0.654 0.069,-0.668Z" style="fill:white;fill-rule:nonzero;"/>
            </g>
            <g transform="matrix(32,0,0,32,289.023,388)">
                <path d="M0.154,-0.528L0.157,-0.462C0.197,-0.513 0.25,-0.538 0.315,-0.538C0.427,-0.538 0.483,-0.475 0.484,-0.349L0.484,0L0.394,0L0.394,-0.35C0.393,-0.388 0.385,-0.416 0.367,-0.434C0.35,-0.452 0.324,-0.461 0.288,-0.461C0.258,-0.461 0.233,-0.454 0.21,-0.438C0.188,-0.422 0.171,-0.402 0.159,-0.376L0.159,0L0.068,0L0.068,-0.528L0.154,-0.528Z" style="fill:white;fill-rule:nonzero;"/>
            </g>
            <g transform="matrix(32,0,0,32,306.68,388)">
                <path d="M0.28,-0.064C0.313,-0.064 0.341,-0.074 0.365,-0.093C0.389,-0.113 0.402,-0.137 0.405,-0.167L0.49,-0.167C0.489,-0.136 0.478,-0.107 0.459,-0.08C0.44,-0.053 0.414,-0.031 0.382,-0.015C0.35,0.002 0.316,0.01 0.28,0.01C0.208,0.01 0.151,-0.014 0.109,-0.062C0.066,-0.11 0.045,-0.176 0.045,-0.259L0.045,-0.274C0.045,-0.326 0.054,-0.372 0.073,-0.412C0.092,-0.452 0.119,-0.483 0.155,-0.505C0.19,-0.527 0.232,-0.538 0.28,-0.538C0.339,-0.538 0.388,-0.52 0.427,-0.485C0.467,-0.449 0.488,-0.403 0.49,-0.347L0.405,-0.347C0.402,-0.381 0.389,-0.409 0.366,-0.431C0.343,-0.453 0.314,-0.464 0.28,-0.464C0.234,-0.464 0.198,-0.447 0.173,-0.414C0.148,-0.381 0.135,-0.333 0.135,-0.271L0.135,-0.254C0.135,-0.193 0.148,-0.146 0.173,-0.113C0.198,-0.08 0.234,-0.064 0.28,-0.064Z" style="fill:white;fill-rule:nonzero;"/>
            </g>
        </g>
    </g>
    <g transform="matrix(3.38688,0,0,1,522.898,-70.125)">
        <rect x="129.058" y="310.125" width="47.942" height="4.75" style="fill:rgb(45,46,68);"/>
    </g>
    <g transform="matrix(5.10883e-17,0.834335,-1,6.12323e-17,455.375,-67.6773)">
        <rect x="129.058" y="310.125" width="47.942" height="4.75" style="fill:rgb(45,46,68);"/>
    </g>
    <g transform="matrix(0.833333,0,0,0.610687,6.66667,18.9313)">
        <g transform="matrix(1.14833,0,0,1,-101.244,-184)">
            <path d="M332,316.75C332,298.675 322.635,284 311.1,284L143.9,284C132.365,284 123,298.675 123,316.75L123,382.25C123,400.325 132.365,415 143.9,415L311.1,415C322.635,415 332,400.325 332,382.25L332,316.75Z" style="fill:rgb(39,194,120);"/>
        </g>
        <g transform="matrix(1.2,0,0,1.6375,-171.2,-450.2)">
            <g transform="matrix(32,0,0,32,251.562,388)">
                <path d="M0.161,-0.48L0.014,-0.524L0.036,-0.598L0.184,-0.543L0.179,-0.711L0.254,-0.711L0.249,-0.541L0.394,-0.594L0.417,-0.52L0.267,-0.476L0.363,-0.343L0.303,-0.297L0.212,-0.438L0.124,-0.301L0.063,-0.345L0.161,-0.48Z" style="fill:white;fill-rule:nonzero;"/>
            </g>
            <g transform="matrix(32,0,0,32,265.344,388)">
                <path d="M0.07,-0.047C0.07,-0.063 0.075,-0.076 0.084,-0.086C0.094,-0.097 0.107,-0.102 0.126,-0.102C0.145,-0.102 0.159,-0.097 0.168,-0.086C0.178,-0.076 0.183,-0.063 0.183,-0.047C0.183,-0.032 0.178,-0.02 0.168,-0.01C0.159,0 0.145,0.005 0.126,0.005C0.107,0.005 0.094,0 0.084,-0.01C0.075,-0.02 0.07,-0.032 0.07,-0.047Z" style="fill:white;fill-rule:nonzero;"/>
            </g>
            <g transform="matrix(32,0,0,32,273.766,388)">
                <path d="M0.216,-0.245L0.159,-0.186L0.159,0L0.069,0L0.069,-0.75L0.159,-0.75L0.159,-0.296L0.208,-0.354L0.372,-0.528L0.482,-0.528L0.276,-0.308L0.506,0L0.4,0L0.216,-0.245Z" style="fill:white;fill-rule:nonzero;"/>
            </g>
            <g transform="matrix(32,0,0,32,289.984,388)">
                <path d="M0.191,-0.656L0.191,-0.528L0.29,-0.528L0.29,-0.458L0.191,-0.458L0.191,-0.131C0.191,-0.11 0.195,-0.094 0.204,-0.083C0.213,-0.073 0.228,-0.067 0.249,-0.067C0.259,-0.067 0.274,-0.069 0.292,-0.073L0.292,0C0.268,0.007 0.245,0.01 0.223,0.01C0.182,0.01 0.152,-0.002 0.131,-0.027C0.111,-0.051 0.101,-0.086 0.101,-0.131L0.101,-0.458L0.004,-0.458L0.004,-0.528L0.101,-0.528L0.101,-0.656L0.191,-0.656Z" style="fill:white;fill-rule:nonzero;"/>
            </g>
        </g>
    </g>
    <g transform="matrix(0.833333,0,0,0.610687,6.66667,138.931)">
        <g transform="matrix(1.14833,0,0,1,-101.244,-184)">
            <path d="M332,316.75C332,298.675 322.635,284 311.1,284L143.9,284C132.365,284 123,298.675 123,316.75L123,382.25C123,400.325 132.365,415 143.9,415L311.1,415C322.635,415 332,400.325 332,382.25L332,316.75Z" style="fill:rgb(39,194,120);"/>
        </g>
        <g transform="matrix(1.2,0,0,1.6375,-171.2,-450.2)">
            <g transform="matrix(32,0,0,32,236.156,388)">
                <path d="M0.161,-0.48L0.014,-0.524L0.036,-0.598L0.184,-0.543L0.179,-0.711L0.254,-0.711L0.249,-0.541L0.394,-0.594L0.417,-0.52L0.267,-0.476L0.363,-0.343L0.303,-0.297L0.212,-0.438L0.124,-0.301L0.063,-0.345L0.161,-0.48Z" style="fill:white;fill-rule:nonzero;"/>
            </g>
            <g transform="matrix(32,0,0,32,249.938,388)">
                <path d="M0.07,-0.047C0.07,-0.063 0.075,-0.076 0.084,-0.086C0.094,-0.097 0.107,-0.102 0.126,-0.102C0.145,-0.102 0.159,-0.097 0.168,-0.086C0.178,-0.076 0.183,-0.063 0.183,-0.047C0.183,-0.032 0.178,-0.02 0.168,-0.01C0.159,0 0.145,0.005 0.126,0.005C0.107,0.005 0.094,0 0.084,-0.01C0.075,-0.02 0.07,-0.032 0.07,-0.047Z" style="fill:white;fill-rule:nonzero;"/>
            </g>
            <g transform="matrix(32,0,0,32,258.359,388)">
                <path d="M0.162,-0.528L0.162,0.061C0.162,0.163 0.116,0.213 0.023,0.213C0.004,0.213 -0.015,0.21 -0.032,0.205L-0.032,0.132C-0.021,0.135 -0.008,0.136 0.009,0.136C0.029,0.136 0.045,0.131 0.055,0.12C0.066,0.109 0.071,0.09 0.071,0.063L0.071,-0.528L0.162,-0.528ZM0.062,-0.668C0.062,-0.683 0.066,-0.695 0.075,-0.705C0.084,-0.716 0.097,-0.721 0.115,-0.721C0.132,-0.721 0.146,-0.716 0.155,-0.706C0.164,-0.695 0.168,-0.683 0.168,-0.668C0.168,-0.654 0.164,-0.642 0.155,-0.632C0.146,-0.622 0.132,-0.617 0.115,-0.617C0.097,-0.617 0.084,-0.622 0.075,-0.632C0.066,-0.642 0.062,-0.654 0.062,-0.668Z" style="fill:white;fill-rule:nonzero;"/>
            </g>
            <g transform="matrix(32,0,0,32,266,388)">
                <path d="M0.395,0C0.389,-0.01 0.385,-0.029 0.382,-0.056C0.34,-0.012 0.29,0.01 0.231,0.01C0.179,0.01 0.137,-0.005 0.103,-0.034C0.07,-0.064 0.053,-0.101 0.053,-0.146C0.053,-0.201 0.074,-0.244 0.116,-0.275C0.158,-0.305 0.217,-0.32 0.292,-0.32L0.38,-0.32L0.38,-0.362C0.38,-0.393 0.371,-0.419 0.352,-0.437C0.333,-0.456 0.305,-0.465 0.269,-0.465C0.236,-0.465 0.209,-0.457 0.188,-0.441C0.166,-0.425 0.155,-0.405 0.155,-0.382L0.064,-0.382C0.064,-0.408 0.073,-0.434 0.092,-0.458C0.111,-0.483 0.136,-0.502 0.168,-0.517C0.2,-0.531 0.236,-0.538 0.274,-0.538C0.335,-0.538 0.382,-0.523 0.417,-0.492C0.451,-0.462 0.469,-0.42 0.471,-0.367L0.471,-0.124C0.471,-0.075 0.477,-0.036 0.489,-0.008L0.489,0L0.395,0ZM0.245,-0.069C0.273,-0.069 0.3,-0.076 0.325,-0.091C0.351,-0.105 0.369,-0.125 0.38,-0.148L0.38,-0.256L0.31,-0.256C0.199,-0.256 0.144,-0.224 0.144,-0.159C0.144,-0.131 0.153,-0.109 0.172,-0.093C0.191,-0.077 0.215,-0.069 0.245,-0.069Z" style="fill:white;fill-rule:nonzero;"/>
            </g>
            <g transform="matrix(32,0,0,32,283.172,388)">
                <path d="M0.243,-0.123L0.374,-0.528L0.466,-0.528L0.276,0L0.208,0L0.016,-0.528L0.108,-0.528L0.243,-0.123Z" style="fill:white;fill-rule:nonzero;"/>
            </g>
            <g transform="matrix(32,0,0,32,298.438,388)">
                <path d="M0.395,0C0.389,-0.01 0.385,-0.029 0.382,-0.056C0.34,-0.012 0.29,0.01 0.231,0.01C0.179,0.01 0.137,-0.005 0.103,-0.034C0.07,-0.064 0.053,-0.101 0.053,-0.146C0.053,-0.201 0.074,-0.244 0.116,-0.275C0.158,-0.305 0.217,-0.32 0.292,-0.32L0.38,-0.32L0.38,-0.362C0.38,-0.393 0.371,-0.419 0.352,-0.437C0.333,-0.456 0.305,-0.465 0.269,-0.465C0.236,-0.465 0.209,-0.457 0.188,-0.441C0.166,-0.425 0.155,-0.405 0.155,-0.382L0.064,-0.382C0.064,-0.408 0.073,-0.434 0.092,-0.458C0.111,-0.483 0.136,-0.502 0.168,-0.517C0.2,-0.531 0.236,-0.538 0.274,-0.538C0.335,-0.538 0.382,-0.523 0.417,-0.492C0.451,-0.462 0.469,-0.42 0.471,-0.367L0.471,-0.124C0.471,-0.075 0.477,-0.036 0.489,-0.008L0.489,0L0.395,0ZM0.245,-0.069C0.273,-0.069 0.3,-0.076 0.325,-0.091C0.351,-0.105 0.369,-0.125 0.38,-0.148L0.38,-0.256L0.31,-0.256C0.199,-0.256 0.144,-0.224 0.144,-0.159C0.144,-0.131 0.153,-0.109 0.172,-0.093C0.191,-0.077 0.215,-0.069 0.245,-0.069Z" style="fill:white;fill-rule:nonzero;"/>
            </g>
        </g>
    </g>
    <g transform="matrix(0.833333,0,0,0.610687,726.667,138.931)">
        <g transform="matrix(1.14833,0,0,1,-101.244,-184)">
            <path d="M332,316.75C332,298.675 322.635,284 311.1,284L143.9,284C132.365,284 123,298.675 123,316.75L123,382.25C123,400.325 132.365,415 143.9,415L311.1,415C322.635,415 332,400.325 332,382.25L332,316.75Z" style="fill:rgb(39,194,120);"/>
        </g>
        <g transform="matrix(1.2,0,0,1.6375,-171.2,-450.2)">
            <g transform="matrix(32,0,0,32,227.438,388)">
                <path d="M0.161,-0.48L0.014,-0.524L0.036,-0.598L0.184,-0.543L0.179,-0.711L0.254,-0.711L0.249,-0.541L0.394,-0.594L0.417,-0.52L0.267,-0.476L0.363,-0.343L0.303,-0.297L0.212,-0.438L0.124,-0.301L0.063,-0.345L0.161,-0.48Z" style="fill:white;fill-rule:nonzero;"/>
            </g>
            <g transform="matrix(32,0,0,32,241.219,388)">
                <path d="M0.07,-0.047C0.07,-0.063 0.075,-0.076 0.084,-0.086C0.094,-0.097 0.107,-0.102 0.126,-0.102C0.145,-0.102 0.159,-0.097 0.168,-0.086C0.178,-0.076 0.183,-0.063 0.183,-0.047C0.183,-0.032 0.178,-0.02 0.168,-0.01C0.159,0 0.145,0.005 0.126,0.005C0.107,0.005 0.094,0 0.084,-0.01C0.075,-0.02 0.07,-0.032 0.07,-0.047Z" style="fill:white;fill-rule:nonzero;"/>
            </g>
            <g transform="matrix(32,0,0,32,249.641,388)">
                <path d="M0.28,-0.064C0.313,-0.064 0.341,-0.074 0.365,-0.093C0.389,-0.113 0.402,-0.137 0.405,-0.167L0.49,-0.167C0.489,-0.136 0.478,-0.107 0.459,-0.08C0.44,-0.053 0.414,-0.031 0.382,-0.015C0.35,0.002 0.316,0.01 0.28,0.01C0.208,0.01 0.151,-0.014 0.109,-0.062C0.066,-0.11 0.045,-0.176 0.045,-0.259L0.045,-0.274C0.045,-0.326 0.054,-0.372 0.073,-0.412C0.092,-0.452 0.119,-0.483 0.155,-0.505C0.19,-0.527 0.232,-0.538 0.28,-0.538C0.339,-0.538 0.388,-0.52 0.427,-0.485C0.467,-0.449 0.488,-0.403 0.49,-0.347L0.405,-0.347C0.402,-0.381 0.389,-0.409 0.366,-0.431C0.343,-0.453 0.314,-0.464 0.28,-0.464C0.234,-0.464 0.198,-0.447 0.173,-0.414C0.148,-0.381 0.135,-0.333 0.135,-0.271L0.135,-0.254C0.135,-0.193 0.148,-0.146 0.173,-0.113C0.198,-0.08 0.234,-0.064 0.28,-0.064Z" style="fill:white;fill-rule:nonzero;"/>
            </g>
            <g transform="matrix(32,0,0,32,266.391,388)">
                <rect x="0.076" y="-0.75" width="0.09" height="0.75" style="fill:white;fill-rule:nonzero;"/>
            </g>
            <g transform="matrix(32,0,0,32,274.156,388)">
                <path d="M0.395,0C0.389,-0.01 0.385,-0.029 0.382,-0.056C0.34,-0.012 0.29,0.01 0.231,0.01C0.179,0.01 0.137,-0.005 0.103,-0.034C0.07,-0.064 0.053,-0.101 0.053,-0.146C0.053,-0.201 0.074,-0.244 0.116,-0.275C0.158,-0.305 0.217,-0.32 0.292,-0.32L0.38,-0.32L0.38,-0.362C0.38,-0.393 0.371,-0.419 0.352,-0.437C0.333,-0.456 0.305,-0.465 0.269,-0.465C0.236,-0.465 0.209,-0.457 0.188,-0.441C0.166,-0.425 0.155,-0.405 0.155,-0.382L0.064,-0.382C0.064,-0.408 0.073,-0.434 0.092,-0.458C0.111,-0.483 0.136,-0.502 0.168,-0.517C0.2,-0.531 0.236,-0.538 0.274,-0.538C0.335,-0.538 0.382,-0.523 0.417,-0.492C0.451,-0.462 0.469,-0.42 0.471,-0.367L0.471,-0.124C0.471,-0.075 0.477,-0.036 0.489,-0.008L0.489,0L0.395,0ZM0.245,-0.069C0.273,-0.069 0.3,-0.076 0.325,-0.091C0.351,-0.105 0.369,-0.125 0.38,-0.148L0.38,-0.256L0.31,-0.256C0.199,-0.256 0.144,-0.224 0.144,-0.159C0.144,-0.131 0.153,-0.109 0.172,-0.093C0.191,-0.077 0.215,-0.069 0.245,-0.069Z" style="fill:white;fill-rule:nonzero;"/>
            </g>
            <g transform="matrix(32,0,0,32,291.562,388)">
                <path d="M0.376,-0.14C0.376,-0.165 0.367,-0.184 0.348,-0.197C0.33,-0.211 0.298,-0.222 0.252,-0.232C0.206,-0.242 0.17,-0.253 0.143,-0.267C0.116,-0.281 0.097,-0.297 0.084,-0.316C0.071,-0.335 0.064,-0.357 0.064,-0.383C0.064,-0.427 0.083,-0.463 0.119,-0.493C0.156,-0.523 0.203,-0.538 0.26,-0.538C0.32,-0.538 0.368,-0.523 0.406,-0.492C0.443,-0.461 0.461,-0.421 0.461,-0.373L0.371,-0.373C0.371,-0.398 0.36,-0.419 0.339,-0.437C0.318,-0.455 0.292,-0.464 0.26,-0.464C0.227,-0.464 0.201,-0.457 0.183,-0.442C0.164,-0.428 0.155,-0.409 0.155,-0.386C0.155,-0.364 0.163,-0.348 0.181,-0.337C0.198,-0.326 0.229,-0.315 0.274,-0.305C0.319,-0.295 0.356,-0.283 0.384,-0.269C0.412,-0.255 0.433,-0.238 0.446,-0.219C0.46,-0.199 0.466,-0.175 0.466,-0.146C0.466,-0.099 0.447,-0.061 0.41,-0.033C0.372,-0.004 0.323,0.01 0.263,0.01C0.22,0.01 0.183,0.002 0.15,-0.013C0.118,-0.028 0.092,-0.049 0.074,-0.075C0.056,-0.102 0.046,-0.131 0.046,-0.163L0.137,-0.163C0.138,-0.132 0.15,-0.108 0.173,-0.091C0.196,-0.073 0.226,-0.064 0.263,-0.064C0.297,-0.064 0.324,-0.071 0.345,-0.085C0.366,-0.099 0.376,-0.117 0.376,-0.14Z" style="fill:white;fill-rule:nonzero;"/>
            </g>
            <g transform="matrix(32,0,0,32,308.062,388)">
                <path d="M0.376,-0.14C0.376,-0.165 0.367,-0.184 0.348,-0.197C0.33,-0.211 0.298,-0.222 0.252,-0.232C0.206,-0.242 0.17,-0.253 0.143,-0.267C0.116,-0.281 0.097,-0.297 0.084,-0.316C0.071,-0.335 0.064,-0.357 0.064,-0.383C0.064,-0.427 0.083,-0.463 0.119,-0.493C0.156,-0.523 0.203,-0.538 0.26,-0.538C0.32,-0.538 0.368,-0.523 0.406,-0.492C0.443,-0.461 0.461,-0.421 0.461,-0.373L0.371,-0.373C0.371,-0.398 0.36,-0.419 0.339,-0.437C0.318,-0.455 0.292,-0.464 0.26,-0.464C0.227,-0.464 0.201,-0.457 0.183,-0.442C0.164,-0.428 0.155,-0.409 0.155,-0.386C0.155,-0.364 0.163,-0.348 0.181,-0.337C0.198,-0.326 0.229,-0.315 0.274,-0.305C0.319,-0.295 0.356,-0.283 0.384,-0.269C0.412,-0.255 0.433,-0.238 0.446,-0.219C0.46,-0.199 0.466,-0.175 0.466,-0.146C0.466,-0.099 0.447,-0.061 0.41,-0.033C0.372,-0.004 0.323,0.01 0.263,0.01C0.22,0.01 0.183,0.002 0.15,-0.013C0.118,-0.028 0.092,-0.049 0.074,-0.075C0.056,-0.102 0.046,-0.131 0.046,-0.163L0.137,-0.163C0.138,-0.132 0.15,-0.108 0.173,-0.091C0.196,-0.073 0.226,-0.064 0.263,-0.064C0.297,-0.064 0.324,-0.071 0.345,-0.085C0.366,-0.099 0.376,-0.117 0.376,-0.14Z" style="fill:white;fill-rule:nonzero;"/>
            </g>
        </g>
    </g>
    <g transform="matrix(0.833333,0,0,0.610687,486.667,18.9313)">
        <g transform="matrix(1.14833,0,0,1,-101.244,-184)">
            <path d="M332,316.75C332,298.675 322.635,284 311.1,284L143.9,284C132.365,284 123,298.675 123,316.75L123,382.25C123,400.325 132.365,415 143.9,415L311.1,415C322.635,415 332,400.325 332,382.25L332,316.75Z" style="fill:rgb(39,194,120);"/>
        </g>
        <g transform="matrix(1.2,0,0,1.6375,-171.2,-450.2)">
            <g transform="matrix(32,0,0,32,227.438,388)">
                <path d="M0.161,-0.48L0.014,-0.524L0.036,-0.598L0.184,-0.543L0.179,-0.711L0.254,-0.711L0.249,-0.541L0.394,-0.594L0.417,-0.52L0.267,-0.476L0.363,-0.343L0.303,-0.297L0.212,-0.438L0.124,-0.301L0.063,-0.345L0.161,-0.48Z" style="fill:white;fill-rule:nonzero;"/>
            </g>
            <g transform="matrix(32,0,0,32,241.219,388)">
                <path d="M0.07,-0.047C0.07,-0.063 0.075,-0.076 0.084,-0.086C0.094,-0.097 0.107,-0.102 0.126,-0.102C0.145,-0.102 0.159,-0.097 0.168,-0.086C0.178,-0.076 0.183,-0.063 0.183,-0.047C0.183,-0.032 0.178,-0.02 0.168,-0.01C0.159,0 0.145,0.005 0.126,0.005C0.107,0.005 0.094,0 0.084,-0.01C0.075,-0.02 0.07,-0.032 0.07,-0.047Z" style="fill:white;fill-rule:nonzero;"/>
            </g>
            <g transform="matrix(32,0,0,32,249.641,388)">
                <path d="M0.28,-0.064C0.313,-0.064 0.341,-0.074 0.365,-0.093C0.389,-0.113 0.402,-0.137 0.405,-0.167L0.49,-0.167C0.489,-0.136 0.478,-0.107 0.459,-0.08C0.44,-0.053 0.414,-0.031 0.382,-0.015C0.35,0.002 0.316,0.01 0.28,0.01C0.208,0.01 0.151,-0.014 0.109,-0.062C0.066,-0.11 0.045,-0.176 0.045,-0.259L0.045,-0.274C0.045,-0.326 0.054,-0.372 0.073,-0.412C0.092,-0.452 0.119,-0.483 0.155,-0.505C0.19,-0.527 0.232,-0.538 0.28,-0.538C0.339,-0.538 0.388,-0.52 0.427,-0.485C0.467,-0.449 0.488,-0.403 0.49,-0.347L0.405,-0.347C0.402,-0.381 0.389,-0.409 0.366,-0.431C0.343,-0.453 0.314,-0.464 0.28,-0.464C0.234,-0.464 0.198,-0.447 0.173,-0.414C0.148,-0.381 0.135,-0.333 0.135,-0.271L0.135,-0.254C0.135,-0.193 0.148,-0.146 0.173,-0.113C0.198,-0.08 0.234,-0.064 0.28,-0.064Z" style="fill:white;fill-rule:nonzero;"/>
            </g>
            <g transform="matrix(32,0,0,32,266.391,388)">
                <rect x="0.076" y="-0.75" width="0.09" height="0.75" style="fill:white;fill-rule:nonzero;"/>
            </g>
            <g transform="matrix(32,0,0,32,274.156,388)">
                <path d="M0.395,0C0.389,-0.01 0.385,-0.029 0.382,-0.056C0.34,-0.012 0.29,0.01 0.231,0.01C0.179,0.01 0.137,-0.005 0.103,-0.034C0.07,-0.064 0.053,-0.101 0.053,-0.146C0.053,-0.201 0.074,-0.244 0.116,-0.275C0.158,-0.305 0.217,-0.32 0.292,-0.32L0.38,-0.32L0.38,-0.362C0.38,-0.393 0.371,-0.419 0.352,-0.437C0.333,-0.456 0.305,-0.465 0.269,-0.465C0.236,-0.465 0.209,-0.457 0.188,-0.441C0.166,-0.425 0.155,-0.405 0.155,-0.382L0.064,-0.382C0.064,-0.408 0.073,-0.434 0.092,-0.458C0.111,-0.483 0.136,-0.502 0.168,-0.517C0.2,-0.531 0.236,-0.538 0.274,-0.538C0.335,-0.538 0.382,-0.523 0.417,-0.492C0.451,-0.462 0.469,-0.42 0.471,-0.367L0.471,-0.124C0.471,-0.075 0.477,-0.036 0.489,-0.008L0.489,0L0.395,0ZM0.245,-0.069C0.273,-0.069 0.3,-0.076 0.325,-0.091C0.351,-0.105 0.369,-0.125 0.38,-0.148L0.38,-0.256L0.31,-0.256C0.199,-0.256 0.144,-0.224 0.144,-0.159C0.144,-0.131 0.153,-0.109 0.172,-0.093C0.191,-0.077 0.215,-0.069 0.245,-0.069Z" style="fill:white;fill-rule:nonzero;"/>
            </g>
            <g transform="matrix(32,0,0,32,291.562,388)">
                <path d="M0.376,-0.14C0.376,-0.165 0.367,-0.184 0.348,-0.197C0.33,-0.211 0.298,-0.222 0.252,-0.232C0.206,-0.242 0.17,-0.253 0.143,-0.267C0.116,-0.281 0.097,-0.297 0.084,-0.316C0.071,-0.335 0.064,-0.357 0.064,-0.383C0.064,-0.427 0.083,-0.463 0.119,-0.493C0.156,-0.523 0.203,-0.538 0.26,-0.538C0.32,-0.538 0.368,-0.523 0.406,-0.492C0.443,-0.461 0.461,-0.421 0.461,-0.373L0.371,-0.373C0.371,-0.398 0.36,-0.419 0.339,-0.437C0.318,-0.455 0.292,-0.464 0.26,-0.464C0.227,-0.464 0.201,-0.457 0.183,-0.442C0.164,-0.428 0.155,-0.409 0.155,-0.386C0.155,-0.364 0.163,-0.348 0.181,-0.337C0.198,-0.326 0.229,-0.315 0.274,-0.305C0.319,-0.295 0.356,-0.283 0.384,-0.269C0.412,-0.255 0.433,-0.238 0.446,-0.219C0.46,-0.199 0.466,-0.175 0.466,-0.146C0.466,-0.099 0.447,-0.061 0.41,-0.033C0.372,-0.004 0.323,0.01 0.263,0.01C0.22,0.01 0.183,0.002 0.15,-0.013C0.118,-0.028 0.092,-0.049 0.074,-0.075C0.056,-0.102 0.046,-0.131 0.046,-0.163L0.137,-0.163C0.138,-0.132 0.15,-0.108 0.173,-0.091C0.196,-0.073 0.226,-0.064 0.263,-0.064C0.297,-0.064 0.324,-0.071 0.345,-0.085C0.366,-0.099 0.376,-0.117 0.376,-0.14Z" style="fill:white;fill-rule:nonzero;"/>
            </g>
            <g transform="matrix(32,0,0,32,308.062,388)">
                <path d="M0.376,-0.14C0.376,-0.165 0.367,-0.184 0.348,-0.197C0.33,-0.211 0.298,-0.222 0.252,-0.232C0.206,-0.242 0.17,-0.253 0.143,-0.267C0.116,-0.281 0.097,-0.297 0.084,-0.316C0.071,-0.335 0.064,-0.357 0.064,-0.383C0.064,-0.427 0.083,-0.463 0.119,-0.493C0.156,-0.523 0.203,-0.538 0.26,-0.538C0.32,-0.538 0.368,-0.523 0.406,-0.492C0.443,-0.461 0.461,-0.421 0.461,-0.373L0.371,-0.373C0.371,-0.398 0.36,-0.419 0.339,-0.437C0.318,-0.455 0.292,-0.464 0.26,-0.464C0.227,-0.464 0.201,-0.457 0.183,-0.442C0.164,-0.428 0.155,-0.409 0.155,-0.386C0.155,-0.364 0.163,-0.348 0.181,-0.337C0.198,-0.326 0.229,-0.315 0.274,-0.305C0.319,-0.295 0.356,-0.283 0.384,-0.269C0.412,-0.255 0.433,-0.238 0.446,-0.219C0.46,-0.199 0.466,-0.175 0.466,-0.146C0.466,-0.099 0.447,-0.061 0.41,-0.033C0.372,-0.004 0.323,0.01 0.263,0.01C0.22,0.01 0.183,0.002 0.15,-0.013C0.118,-0.028 0.092,-0.049 0.074,-0.075C0.056,-0.102 0.046,-0.131 0.046,-0.163L0.137,-0.163C0.138,-0.132 0.15,-0.108 0.173,-0.091C0.196,-0.073 0.226,-0.064 0.263,-0.064C0.297,-0.064 0.324,-0.071 0.345,-0.085C0.366,-0.099 0.376,-0.117 0.376,-0.14Z" style="fill:white;fill-rule:nonzero;"/>
            </g>
        </g>
    </g>
    <g transform="matrix(0.833333,0,0,0.610687,986.667,18.9313)">
        <g transform="matrix(1.14833,0,0,1,-101.244,-184)">
            <path d="M332,316.75C332,298.675 322.635,284 311.1,284L143.9,284C132.365,284 123,298.675 123,316.75L123,382.25C123,400.325 132.365,415 143.9,415L311.1,415C322.635,415 332,400.325 332,382.25L332,316.75Z" style="fill:rgb(39,194,120);"/>
        </g>
        <g transform="matrix(1.2,0,0,1.6375,-171.2,-450.2)">
            <g transform="matrix(32,0,0,32,229.805,388)">
                <path d="M0.044,-0.269C0.044,-0.321 0.055,-0.367 0.075,-0.409C0.095,-0.45 0.124,-0.482 0.16,-0.504C0.196,-0.527 0.238,-0.538 0.284,-0.538C0.356,-0.538 0.414,-0.513 0.459,-0.463C0.503,-0.414 0.525,-0.347 0.525,-0.265L0.525,-0.258C0.525,-0.207 0.516,-0.161 0.496,-0.12C0.476,-0.079 0.448,-0.047 0.411,-0.024C0.375,-0.002 0.333,0.01 0.285,0.01C0.214,0.01 0.156,-0.015 0.111,-0.065C0.067,-0.115 0.044,-0.181 0.044,-0.263L0.044,-0.269ZM0.135,-0.258C0.135,-0.2 0.149,-0.153 0.176,-0.117C0.203,-0.082 0.24,-0.064 0.285,-0.064C0.331,-0.064 0.368,-0.082 0.395,-0.118C0.422,-0.154 0.435,-0.204 0.435,-0.269C0.435,-0.327 0.421,-0.374 0.394,-0.41C0.366,-0.446 0.33,-0.464 0.284,-0.464C0.24,-0.464 0.204,-0.446 0.176,-0.411C0.149,-0.375 0.135,-0.324 0.135,-0.258Z" style="fill:white;fill-rule:nonzero;"/>
            </g>
            <g transform="matrix(32,0,0,32,248.055,388)">
                <path d="M0.395,-0.052C0.359,-0.011 0.308,0.01 0.24,0.01C0.183,0.01 0.141,-0.007 0.111,-0.039C0.082,-0.072 0.067,-0.12 0.066,-0.185L0.066,-0.528L0.157,-0.528L0.157,-0.187C0.157,-0.107 0.189,-0.067 0.254,-0.067C0.323,-0.067 0.369,-0.093 0.392,-0.144L0.392,-0.528L0.482,-0.528L0.482,0L0.396,0L0.395,-0.052Z" style="fill:white;fill-rule:nonzero;"/>
            </g>
            <g transform="matrix(32,0,0,32,265.695,388)">
                <path d="M0.191,-0.656L0.191,-0.528L0.29,-0.528L0.29,-0.458L0.191,-0.458L0.191,-0.131C0.191,-0.11 0.195,-0.094 0.204,-0.083C0.213,-0.073 0.228,-0.067 0.249,-0.067C0.259,-0.067 0.274,-0.069 0.292,-0.073L0.292,0C0.268,0.007 0.245,0.01 0.223,0.01C0.182,0.01 0.152,-0.002 0.131,-0.027C0.111,-0.051 0.101,-0.086 0.101,-0.131L0.101,-0.458L0.004,-0.458L0.004,-0.528L0.101,-0.528L0.101,-0.656L0.191,-0.656Z" style="fill:white;fill-rule:nonzero;"/>
            </g>
            <g transform="matrix(32,0,0,32,276.148,388)">
                <path d="M0.515,-0.258C0.515,-0.178 0.496,-0.113 0.459,-0.064C0.423,-0.015 0.373,0.01 0.31,0.01C0.246,0.01 0.195,-0.011 0.159,-0.051L0.159,0.203L0.068,0.203L0.068,-0.528L0.151,-0.528L0.155,-0.47C0.192,-0.515 0.243,-0.538 0.309,-0.538C0.372,-0.538 0.422,-0.514 0.459,-0.466C0.496,-0.418 0.515,-0.352 0.515,-0.267L0.515,-0.258ZM0.424,-0.269C0.424,-0.328 0.412,-0.375 0.386,-0.41C0.361,-0.444 0.326,-0.461 0.282,-0.461C0.227,-0.461 0.186,-0.437 0.159,-0.389L0.159,-0.136C0.186,-0.088 0.227,-0.064 0.283,-0.064C0.326,-0.064 0.36,-0.081 0.386,-0.115C0.412,-0.15 0.424,-0.201 0.424,-0.269Z" style="fill:white;fill-rule:nonzero;"/>
            </g>
            <g transform="matrix(32,0,0,32,294.102,388)">
                <path d="M0.395,-0.052C0.359,-0.011 0.308,0.01 0.24,0.01C0.183,0.01 0.141,-0.007 0.111,-0.039C0.082,-0.072 0.067,-0.12 0.066,-0.185L0.066,-0.528L0.157,-0.528L0.157,-0.187C0.157,-0.107 0.189,-0.067 0.254,-0.067C0.323,-0.067 0.369,-0.093 0.392,-0.144L0.392,-0.528L0.482,-0.528L0.482,0L0.396,0L0.395,-0.052Z" style="fill:white;fill-rule:nonzero;"/>
            </g>
            <g transform="matrix(32,0,0,32,311.742,388)">
                <path d="M0.191,-0.656L0.191,-0.528L0.29,-0.528L0.29,-0.458L0.191,-0.458L0.191,-0.131C0.191,-0.11 0.195,-0.094 0.204,-0.083C0.213,-0.073 0.228,-0.067 0.249,-0.067C0.259,-0.067 0.274,-0.069 0.292,-0.073L0.292,0C0.268,0.007 0.245,0.01 0.223,0.01C0.182,0.01 0.152,-0.002 0.131,-0.027C0.111,-0.051 0.101,-0.086 0.101,-0.131L0.101,-0.458L0.004,-0.458L0.004,-0.528L0.101,-0.528L0.101,-0.656L0.191,-0.656Z" style="fill:white;fill-rule:nonzero;"/>
            </g>
        </g>
    </g>
    <g transform="matrix(0.834335,0,-1.2326e-32,1,132.323,-192.5)">
        <path d="M129.058,314.875L129.058,310.125L165.614,310.125L165.614,303L177,312.5L165.614,322L165.614,314.875L129.058,314.875Z" style="fill:rgb(45,46,68);"/>
    </g>
    <g transform="matrix(0.834335,0,-1.2326e-32,1,372.323,-192.5)">
        <path d="M129.058,314.875L129.058,310.125L165.614,310.125L165.614,303L177,312.5L165.614,322L165.614,314.875L129.058,314.875Z" style="fill:rgb(45,46,68);"/>
    </g>
    <g transform="matrix(1.2515,0,-1.84889e-32,1,798.484,-192.5)">
        <path d="M129.058,314.875L129.058,310.125L169.409,310.125L169.409,303L177,312.5L169.409,322L169.409,314.875L129.058,314.875Z" style="fill:rgb(45,46,68);"/>
    </g>
    <g transform="matrix(0.834335,0,-1.2326e-32,1,612.323,-72.5)">
        <path d="M129.058,314.875L129.058,310.125L165.614,310.125L165.614,303L177,312.5L165.614,322L165.614,314.875L129.058,314.875Z" style="fill:rgb(45,46,68);"/>
    </g>
    <g transform="matrix(5.84034,0,-8.62817e-32,1,-513.741,-72.5)">
        <path d="M129.058,314.875L129.058,310.125L175.373,310.125L175.373,303L177,312.5L175.373,322L175.373,314.875L129.058,314.875Z" style="fill:rgb(45,46,68);"/>
    </g>
    <g transform="matrix(15.0076,0,0,1,-1796.34,-270.125)">
        <rect x="129.058" y="310.125" width="47.942" height="4.75" style="fill:rgb(45,46,68);"/>
    </g>
    <g transform="matrix(5.10883e-17,-0.834335,1,6.12323e-17,547.5,307.677)">
        <path d="M129.058,314.875L129.058,310.125L165.614,310.125L165.614,303L177,312.5L165.614,322L165.614,314.875L129.058,314.875Z" style="fill:rgb(45,46,68);"/>
    </g>
    <g transform="matrix(5.10883e-17,0.834335,-1,6.12323e-17,932.5,52.3227)">
        <path d="M129.058,314.875L129.058,310.125L165.614,310.125L165.614,303L177,312.5L165.614,322L165.614,314.875L129.058,314.875Z" style="fill:rgb(45,46,68);"/>
    </g>
    <g transform="matrix(1.02177e-16,-1.66867,1,6.12323e-17,807.5,455.355)">
        <path d="M129.058,314.875L129.058,310.125L171.307,310.125L171.307,303L177,312.5L171.307,322L171.307,314.875L129.058,314.875Z" style="fill:rgb(45,46,68);"/>
    </g>
    <g transform="matrix(5.10883e-17,0.834335,-1,6.12323e-17,1172.5,-67.6773)">
        <path d="M129.058,314.875L129.058,310.125L165.614,310.125L165.614,303L177,312.5L165.614,322L165.614,314.875L129.058,314.875Z" style="fill:rgb(45,46,68);"/>
    </g>
    <g transform="matrix(1,0,0,1,520,54.1099)">
        <g transform="matrix(24,0,0,24,64.5273,18)">
            <path d="M0.274,-0.104C0.3,-0.104 0.321,-0.111 0.337,-0.125C0.354,-0.14 0.362,-0.159 0.363,-0.183L0.495,-0.183C0.495,-0.147 0.485,-0.114 0.466,-0.084C0.447,-0.054 0.42,-0.031 0.387,-0.015C0.354,0.002 0.317,0.01 0.276,0.01C0.201,0.01 0.141,-0.014 0.098,-0.062C0.054,-0.11 0.032,-0.177 0.032,-0.261L0.032,-0.271C0.032,-0.352 0.054,-0.417 0.097,-0.465C0.14,-0.514 0.2,-0.538 0.275,-0.538C0.341,-0.538 0.394,-0.519 0.434,-0.482C0.474,-0.444 0.494,-0.394 0.495,-0.332L0.363,-0.332C0.362,-0.359 0.354,-0.381 0.337,-0.398C0.321,-0.415 0.3,-0.424 0.273,-0.424C0.24,-0.424 0.215,-0.412 0.198,-0.388C0.182,-0.364 0.173,-0.325 0.173,-0.271L0.173,-0.257C0.173,-0.202 0.182,-0.163 0.198,-0.14C0.215,-0.116 0.24,-0.104 0.274,-0.104Z" style="fill:rgb(150,151,161);fill-rule:nonzero;"/>
        </g>
        <g transform="matrix(24,0,0,24,77.043,18)">
            <path d="M0.493,-0.415L0.323,-0.415L0.323,0L0.182,0L0.182,-0.415L0.015,-0.415L0.015,-0.528L0.493,-0.528L0.493,-0.415Z" style="fill:rgb(150,151,161);fill-rule:nonzero;"/>
        </g>
        <g transform="matrix(24,0,0,24,89.0781,18)">
            <path d="M0.36,0C0.354,-0.013 0.349,-0.028 0.346,-0.047C0.312,-0.009 0.268,0.01 0.213,0.01C0.161,0.01 0.118,-0.005 0.084,-0.035C0.05,-0.065 0.033,-0.103 0.033,-0.148C0.033,-0.204 0.054,-0.247 0.095,-0.277C0.137,-0.307 0.197,-0.322 0.275,-0.323L0.34,-0.323L0.34,-0.353C0.34,-0.377 0.334,-0.397 0.322,-0.412C0.309,-0.426 0.289,-0.434 0.262,-0.434C0.238,-0.434 0.22,-0.428 0.206,-0.417C0.193,-0.405 0.186,-0.389 0.186,-0.37L0.045,-0.37C0.045,-0.4 0.054,-0.429 0.073,-0.455C0.092,-0.481 0.119,-0.501 0.153,-0.516C0.188,-0.531 0.227,-0.538 0.27,-0.538C0.335,-0.538 0.386,-0.522 0.425,-0.489C0.463,-0.456 0.482,-0.41 0.482,-0.351L0.482,-0.122C0.482,-0.072 0.489,-0.034 0.503,-0.008L0.503,0L0.36,0ZM0.244,-0.098C0.264,-0.098 0.284,-0.103 0.301,-0.112C0.319,-0.121 0.332,-0.134 0.34,-0.149L0.34,-0.24L0.288,-0.24C0.217,-0.24 0.179,-0.216 0.175,-0.167L0.174,-0.159C0.174,-0.141 0.181,-0.127 0.193,-0.115C0.205,-0.104 0.222,-0.098 0.244,-0.098Z" style="fill:rgb(150,151,161);fill-rule:nonzero;"/>
        </g>
        <g transform="matrix(24,0,0,24,101.945,18)">
            <path d="M0.316,-0.499C0.384,-0.499 0.438,-0.477 0.479,-0.432C0.519,-0.387 0.539,-0.326 0.539,-0.249L0.539,-0.242C0.539,-0.166 0.517,-0.104 0.472,-0.059C0.427,-0.013 0.366,0.01 0.291,0.01C0.214,0.01 0.154,-0.015 0.109,-0.064C0.064,-0.114 0.041,-0.181 0.041,-0.267L0.041,-0.29C0.042,-0.409 0.062,-0.502 0.101,-0.569C0.141,-0.636 0.2,-0.679 0.28,-0.696C0.321,-0.705 0.348,-0.714 0.36,-0.723C0.372,-0.732 0.378,-0.745 0.378,-0.761L0.493,-0.761C0.493,-0.71 0.479,-0.671 0.451,-0.646C0.424,-0.62 0.375,-0.6 0.305,-0.586C0.263,-0.577 0.23,-0.561 0.206,-0.537C0.182,-0.512 0.166,-0.478 0.157,-0.434C0.202,-0.477 0.255,-0.499 0.316,-0.499ZM0.29,-0.385C0.256,-0.385 0.23,-0.374 0.211,-0.351C0.192,-0.329 0.182,-0.292 0.182,-0.242C0.182,-0.197 0.191,-0.163 0.21,-0.139C0.229,-0.115 0.255,-0.104 0.291,-0.104C0.325,-0.104 0.351,-0.115 0.37,-0.138C0.388,-0.161 0.398,-0.195 0.398,-0.24L0.398,-0.252C0.398,-0.295 0.388,-0.328 0.369,-0.351C0.35,-0.373 0.324,-0.385 0.29,-0.385Z" style="fill:rgb(150,151,161);fill-rule:nonzero;"/>
        </g>
        <g transform="matrix(24,0,0,24,115.609,18)">
            <path d="M0.205,-0.374L0.306,-0.374C0.352,-0.374 0.392,-0.366 0.426,-0.351C0.461,-0.335 0.487,-0.313 0.506,-0.285C0.524,-0.256 0.533,-0.223 0.533,-0.186C0.533,-0.13 0.513,-0.085 0.471,-0.051C0.43,-0.017 0.374,0 0.303,0L0.063,0L0.063,-0.528L0.205,-0.528L0.205,-0.374ZM0.758,0L0.617,0L0.617,-0.528L0.758,-0.528L0.758,0ZM0.205,-0.26L0.205,-0.113L0.305,-0.113C0.333,-0.113 0.355,-0.119 0.37,-0.132C0.385,-0.145 0.392,-0.163 0.392,-0.186C0.392,-0.208 0.385,-0.226 0.37,-0.24C0.355,-0.253 0.334,-0.26 0.305,-0.26L0.205,-0.26Z" style="fill:rgb(150,151,161);fill-rule:nonzero;"/>
        </g>
    </g>
    <g transform="matrix(1,0,0,1,520,280)">
        <g transform="matrix(24,0,0,24,76.7617,25.8901)">
            <path d="M0.465,-0.146L0.208,-0.146L0.159,0L0.003,0L0.268,-0.711L0.404,-0.711L0.67,0L0.514,0L0.465,-0.146ZM0.248,-0.265L0.425,-0.265L0.336,-0.531L0.248,-0.265Z" style="fill:rgb(150,151,161);fill-rule:nonzero;"/>
        </g>
        <g transform="matrix(24,0,0,24,92.9102,25.8901)">
            <path d="M0.21,-0.25L0.21,0L0.063,0L0.063,-0.711L0.341,-0.711C0.394,-0.711 0.441,-0.701 0.482,-0.682C0.522,-0.662 0.553,-0.634 0.575,-0.598C0.597,-0.562 0.608,-0.521 0.608,-0.476C0.608,-0.406 0.584,-0.351 0.536,-0.311C0.489,-0.271 0.423,-0.25 0.338,-0.25L0.21,-0.25ZM0.21,-0.369L0.341,-0.369C0.38,-0.369 0.409,-0.378 0.429,-0.396C0.45,-0.415 0.46,-0.441 0.46,-0.475C0.46,-0.509 0.45,-0.538 0.429,-0.559C0.409,-0.581 0.38,-0.592 0.344,-0.592L0.21,-0.592L0.21,-0.369Z" style="fill:rgb(150,151,161);fill-rule:nonzero;"/>
        </g>
        <g transform="matrix(24,0,0,24,108.391,25.8901)">
            <path d="M0.599,-0.592L0.381,-0.592L0.381,0L0.234,0L0.234,-0.592L0.02,-0.592L0.02,-0.711L0.599,-0.711L0.599,-0.592Z" style="fill:rgb(150,151,161);fill-rule:nonzero;"/>
        </g>
    </g>
</svg>
