<svg clip-rule="evenodd" fill-rule="evenodd" stroke-linejoin="round" stroke-miterlimit="2" viewBox="0 0 1260 320" xmlns="http://www.w3.org/2000/svg"><path d="m332 316.75c0-18.075-9.365-32.75-20.9-32.75h-167.2c-11.535 0-20.9 14.675-20.9 32.75v65.5c0 18.075 9.365 32.75 20.9 32.75h167.2c11.535 0 20.9-14.675 20.9-32.75z" fill="#27c278" transform="matrix(.95694128389 0 0 .610687 162.297033748 -93.435108)"/><path d="m.216-.245-.057.059v.186h-.09v-.75h.09v.454l.049-.058.164-.174h.11l-.206.22.23.308h-.106z" fill="#fff" fill-rule="nonzero" transform="matrix(31.9999872 0 0 31.9999988 348.9842924064 131.99999805)"/><path d="m.395 0c-.006-.01-.01-.029-.013-.056-.042.044-.092.066-.151.066-.052 0-.094-.015-.128-.044-.033-.03-.05-.067-.05-.112 0-.055.021-.098.063-.129.042-.03.101-.045.176-.045h.088v-.042c0-.031-.009-.057-.028-.075-.019-.019-.047-.028-.083-.028-.033 0-.06.008-.081.024-.022.016-.033.036-.033.059h-.091c0-.026.009-.052.028-.076.019-.025.044-.044.076-.059.032-.014.068-.021.106-.021.061 0 .108.015.143.046.034.03.052.072.054.125v.243c0 .049.006.088.018.116v.008zm-.15-.069c.028 0 .055-.007.08-.022.026-.014.044-.034.055-.057v-.108h-.07c-.111 0-.166.032-.166.097 0 .028.009.05.028.066s.043.024.073.024z" fill="#fff" fill-rule="nonzero" transform="matrix(31.9999872 0 0 31.9999988 365.2032859188 131.99999805)"/><path d="m.515-.258c0 .08-.019.145-.056.194-.036.049-.086.074-.149.074-.064 0-.115-.021-.151-.061v.254h-.091v-.731h.083l.004.058c.037-.045.088-.068.154-.068.063 0 .113.024.15.072s.056.114.056.199zm-.091-.011c0-.059-.012-.106-.038-.141-.025-.034-.06-.051-.104-.051-.055 0-.096.024-.123.072v.253c.027.048.068.072.124.072.043 0 .077-.017.103-.051.026-.035.038-.086.038-.154z" fill="#fff" fill-rule="nonzero" transform="matrix(31.9999872 0 0 31.9999988 382.6092789564 131.99999805)"/><path d="m.191-.656v.128h.099v.07h-.099v.327c0 .021.004.037.013.048.009.01.024.016.045.016.01 0 .025-.002.043-.006v.073c-.024.007-.047.01-.069.01-.041 0-.071-.012-.092-.037-.02-.024-.03-.059-.03-.104v-.327h-.097v-.07h.097v-.128z" fill="#fff" fill-rule="nonzero" transform="matrix(31.9999872 0 0 31.9999988 400.5622717752 131.99999805)"/><path d="m332 316.75c0-18.075-9.365-32.75-20.9-32.75h-167.2c-11.535 0-20.9 14.675-20.9 32.75v65.5c0 18.075 9.365 32.75 20.9 32.75h167.2c11.535 0 20.9-14.675 20.9-32.75z" fill="#27c278" transform="matrix(.95694128389 0 0 .610687 402.297033748 26.564592)"/><path d="m.162-.528v.589c0 .102-.046.152-.139.152-.019 0-.038-.003-.055-.008v-.073c.011.003.024.004.041.004.02 0 .036-.005.046-.016.011-.011.016-.03.016-.057v-.591zm-.1-.14c0-.015.004-.027.013-.037.009-.011.022-.016.04-.016.017 0 .031.005.04.015.009.011.013.023.013.038 0 .014-.004.026-.013.036s-.023.015-.04.015c-.018 0-.031-.005-.04-.015s-.013-.022-.013-.036z" fill="#fff" fill-rule="nonzero" transform="matrix(31.9999872 0 0 31.9999988 582.8832948468 251.99969805)"/><path d="m.395 0c-.006-.01-.01-.029-.013-.056-.042.044-.092.066-.151.066-.052 0-.094-.015-.128-.044-.033-.03-.05-.067-.05-.112 0-.055.021-.098.063-.129.042-.03.101-.045.176-.045h.088v-.042c0-.031-.009-.057-.028-.075-.019-.019-.047-.028-.083-.028-.033 0-.06.008-.081.024-.022.016-.033.036-.033.059h-.091c0-.026.009-.052.028-.076.019-.025.044-.044.076-.059.032-.014.068-.021.106-.021.061 0 .108.015.143.046.034.03.052.072.054.125v.243c0 .049.006.088.018.116v.008zm-.15-.069c.028 0 .055-.007.08-.022.026-.014.044-.034.055-.057v-.108h-.07c-.111 0-.166.032-.166.097 0 .028.009.05.028.066s.043.024.073.024z" fill="#fff" fill-rule="nonzero" transform="matrix(31.9999872 0 0 31.9999988 590.5232917908 251.99969805)"/><path d="m.243-.123.131-.405h.092l-.19.528h-.068l-.192-.528h.092z" fill="#fff" fill-rule="nonzero" transform="matrix(31.9999872 0 0 31.9999988 607.695284922 251.99969805)"/><path d="m.395 0c-.006-.01-.01-.029-.013-.056-.042.044-.092.066-.151.066-.052 0-.094-.015-.128-.044-.033-.03-.05-.067-.05-.112 0-.055.021-.098.063-.129.042-.03.101-.045.176-.045h.088v-.042c0-.031-.009-.057-.028-.075-.019-.019-.047-.028-.083-.028-.033 0-.06.008-.081.024-.022.016-.033.036-.033.059h-.091c0-.026.009-.052.028-.076.019-.025.044-.044.076-.059.032-.014.068-.021.106-.021.061 0 .108.015.143.046.034.03.052.072.054.125v.243c0 .049.006.088.018.116v.008zm-.15-.069c.028 0 .055-.007.08-.022.026-.014.044-.034.055-.057v-.108h-.07c-.111 0-.166.032-.166.097 0 .028.009.05.028.066s.043.024.073.024z" fill="#fff" fill-rule="nonzero" transform="matrix(31.9999872 0 0 31.9999988 622.9612788156 251.99969805)"/><path d="m.28-.064c.033 0 .061-.01.085-.029.024-.02.037-.044.04-.074h.085c-.001.031-.012.06-.031.087s-.045.049-.077.065c-.032.017-.066.025-.102.025-.072 0-.129-.024-.171-.072-.043-.048-.064-.114-.064-.197v-.015c0-.052.009-.098.028-.138s.046-.071.082-.093c.035-.022.077-.033.125-.033.059 0 .108.018.147.053.04.036.061.082.063.138h-.085c-.003-.034-.016-.062-.039-.084s-.052-.033-.086-.033c-.046 0-.082.017-.107.05s-.038.081-.038.143v.017c0 .061.013.108.038.141s.061.049.107.049z" fill="#fff" fill-rule="nonzero" transform="matrix(31.9999872 0 0 31.9999988 640.3672718532 251.99969805)"/><path d="m332 316.75c0-18.075-9.365-32.75-20.9-32.75h-167.2c-11.535 0-20.9 14.675-20.9 32.75v65.5c0 18.075 9.365 32.75 20.9 32.75h167.2c11.535 0 20.9-14.675 20.9-32.75z" fill="#27c278" transform="matrix(.95694128389 0 0 .610687 642.297033748 -93.435108)"/><path d="m.216-.245-.057.059v.186h-.09v-.75h.09v.454l.049-.058.164-.174h.11l-.206.22.23.308h-.106z" fill="#fff" fill-rule="nonzero" transform="matrix(31.9999872 0 0 31.9999988 812.570298972 131.99999805)"/><path d="m.044-.269c0-.052.011-.098.031-.14.02-.041.049-.073.085-.095.036-.023.078-.034.124-.034.072 0 .13.025.175.075.044.049.066.116.066.198v.007c0 .051-.009.097-.029.138s-.048.073-.085.096c-.036.022-.078.034-.126.034-.071 0-.129-.025-.174-.075-.044-.05-.067-.116-.067-.198zm.091.011c0 .058.014.105.041.141.027.035.064.053.109.053.046 0 .083-.018.11-.054s.04-.086.04-.151c0-.058-.014-.105-.041-.141-.028-.036-.064-.054-.11-.054-.044 0-.08.018-.108.053-.027.036-.041.087-.041.153z" fill="#fff" fill-rule="nonzero" transform="matrix(31.9999872 0 0 31.9999988 828.7892924844 131.99999805)"/><path d="m.191-.656v.128h.099v.07h-.099v.327c0 .021.004.037.013.048.009.01.024.016.045.016.01 0 .025-.002.043-.006v.073c-.024.007-.047.01-.069.01-.041 0-.071-.012-.092-.037-.02-.024-.03-.059-.03-.104v-.327h-.097v-.07h.097v-.128z" fill="#fff" fill-rule="nonzero" transform="matrix(31.9999872 0 0 31.9999988 847.0392851844 131.99999805)"/><path d="m.076-.75h.09v.75h-.09z" fill="#fff" fill-rule="nonzero" transform="matrix(31.9999872 0 0 31.9999988 857.4922810032 131.99999805)"/><path d="m.167 0h-.091v-.528h.091zm-.098-.668c0-.015.004-.027.013-.038.009-.01.022-.015.04-.015s.031.005.04.015c.009.011.014.023.014.038 0 .014-.005.026-.014.036s-.022.015-.04.015-.031-.005-.04-.015-.013-.022-.013-.036z" fill="#fff" fill-rule="nonzero" transform="matrix(31.9999872 0 0 31.9999988 865.2582778968 131.99999805)"/><path d="m.154-.528.003.066c.04-.051.093-.076.158-.076.112 0 .168.063.169.189v.349h-.09v-.35c-.001-.038-.009-.066-.027-.084-.017-.018-.043-.027-.079-.027-.03 0-.055.007-.078.023-.022.016-.039.036-.051.062v.376h-.091v-.528z" fill="#fff" fill-rule="nonzero" transform="matrix(31.9999872 0 0 31.9999988 873.0232747908 131.99999805)"/><path d="m.28-.064c.033 0 .061-.01.085-.029.024-.02.037-.044.04-.074h.085c-.001.031-.012.06-.031.087s-.045.049-.077.065c-.032.017-.066.025-.102.025-.072 0-.129-.024-.171-.072-.043-.048-.064-.114-.064-.197v-.015c0-.052.009-.098.028-.138s.046-.071.082-.093c.035-.022.077-.033.125-.033.059 0 .108.018.147.053.04.036.061.082.063.138h-.085c-.003-.034-.016-.062-.039-.084s-.052-.033-.086-.033c-.046 0-.082.017-.107.05s-.038.081-.038.143v.017c0 .061.013.108.038.141s.061.049.107.049z" fill="#fff" fill-rule="nonzero" transform="matrix(31.9999872 0 0 31.9999988 890.680267728 131.99999805)"/><path d="m129.058 310.125h47.942v4.75h-47.942z" fill="#2d2e44" transform="matrix(3.38688 0 0 1 522.898 -70.125)"/><path d="m129.058 310.125h47.942v4.75h-47.942z" fill="#2d2e44" transform="matrix(0 .834335 -1 0 455.375 -67.6773)"/><path d="m332 316.75c0-18.075-9.365-32.75-20.9-32.75h-167.2c-11.535 0-20.9 14.675-20.9 32.75v65.5c0 18.075 9.365 32.75 20.9 32.75h167.2c11.535 0 20.9-14.675 20.9-32.75z" fill="#27c278" transform="matrix(.95694128389 0 0 .610687 -77.703296252 -93.435108)"/><path d="m.161-.48-.147-.044.022-.074.148.055-.005-.168h.075l-.005.17.145-.053.023.074-.15.044.096.133-.06.046-.091-.141-.088.137-.061-.044z" fill="#fff" fill-rule="nonzero" transform="matrix(31.9999872 0 0 31.9999988 115.5619597752 131.99999805)"/><path d="m.07-.047c0-.016.005-.029.014-.039.01-.011.023-.016.042-.016s.033.005.042.016c.01.01.015.023.015.039 0 .015-.005.027-.015.037-.009.01-.023.015-.042.015s-.032-.005-.042-.015c-.009-.01-.014-.022-.014-.037z" fill="#fff" fill-rule="nonzero" transform="matrix(31.9999872 0 0 31.9999988 129.3439542624 131.99999805)"/><path d="m.216-.245-.057.059v.186h-.09v-.75h.09v.454l.049-.058.164-.174h.11l-.206.22.23.308h-.106z" fill="#fff" fill-rule="nonzero" transform="matrix(31.9999872 0 0 31.9999988 137.7659508936 131.99999805)"/><path d="m.191-.656v.128h.099v.07h-.099v.327c0 .021.004.037.013.048.009.01.024.016.045.016.01 0 .025-.002.043-.006v.073c-.024.007-.047.01-.069.01-.041 0-.071-.012-.092-.037-.02-.024-.03-.059-.03-.104v-.327h-.097v-.07h.097v-.128z" fill="#fff" fill-rule="nonzero" transform="matrix(31.9999872 0 0 31.9999988 153.9839444064 131.99999805)"/><path d="m332 316.75c0-18.075-9.365-32.75-20.9-32.75h-167.2c-11.535 0-20.9 14.675-20.9 32.75v65.5c0 18.075 9.365 32.75 20.9 32.75h167.2c11.535 0 20.9-14.675 20.9-32.75z" fill="#27c278" transform="matrix(.95694128389 0 0 .610687 -77.703296252 26.564592)"/><path d="m.161-.48-.147-.044.022-.074.148.055-.005-.168h.075l-.005.17.145-.053.023.074-.15.044.096.133-.06.046-.091-.141-.088.137-.061-.044z" fill="#fff" fill-rule="nonzero" transform="matrix(31.9999872 0 0 31.9999988 100.1559659376 251.99969805)"/><path d="m.07-.047c0-.016.005-.029.014-.039.01-.011.023-.016.042-.016s.033.005.042.016c.01.01.015.023.015.039 0 .015-.005.027-.015.037-.009.01-.023.015-.042.015s-.032-.005-.042-.015c-.009-.01-.014-.022-.014-.037z" fill="#fff" fill-rule="nonzero" transform="matrix(31.9999872 0 0 31.9999988 113.9379604248 251.99969805)"/><path d="m.162-.528v.589c0 .102-.046.152-.139.152-.019 0-.038-.003-.055-.008v-.073c.011.003.024.004.041.004.02 0 .036-.005.046-.016.011-.011.016-.03.016-.057v-.591zm-.1-.14c0-.015.004-.027.013-.037.009-.011.022-.016.04-.016.017 0 .031.005.04.015.009.011.013.023.013.038 0 .014-.004.026-.013.036s-.023.015-.04.015c-.018 0-.031-.005-.04-.015s-.013-.022-.013-.036z" fill="#fff" fill-rule="nonzero" transform="matrix(31.9999872 0 0 31.9999988 122.3589570564 251.99969805)"/><path d="m.395 0c-.006-.01-.01-.029-.013-.056-.042.044-.092.066-.151.066-.052 0-.094-.015-.128-.044-.033-.03-.05-.067-.05-.112 0-.055.021-.098.063-.129.042-.03.101-.045.176-.045h.088v-.042c0-.031-.009-.057-.028-.075-.019-.019-.047-.028-.083-.028-.033 0-.06.008-.081.024-.022.016-.033.036-.033.059h-.091c0-.026.009-.052.028-.076.019-.025.044-.044.076-.059.032-.014.068-.021.106-.021.061 0 .108.015.143.046.034.03.052.072.054.125v.243c0 .049.006.088.018.116v.008zm-.15-.069c.028 0 .055-.007.08-.022.026-.014.044-.034.055-.057v-.108h-.07c-.111 0-.166.032-.166.097 0 .028.009.05.028.066s.043.024.073.024z" fill="#fff" fill-rule="nonzero" transform="matrix(31.9999872 0 0 31.9999988 129.999954 251.99969805)"/><path d="m.243-.123.131-.405h.092l-.19.528h-.068l-.192-.528h.092z" fill="#fff" fill-rule="nonzero" transform="matrix(31.9999872 0 0 31.9999988 147.1719471312 251.99969805)"/><path d="m.395 0c-.006-.01-.01-.029-.013-.056-.042.044-.092.066-.151.066-.052 0-.094-.015-.128-.044-.033-.03-.05-.067-.05-.112 0-.055.021-.098.063-.129.042-.03.101-.045.176-.045h.088v-.042c0-.031-.009-.057-.028-.075-.019-.019-.047-.028-.083-.028-.033 0-.06.008-.081.024-.022.016-.033.036-.033.059h-.091c0-.026.009-.052.028-.076.019-.025.044-.044.076-.059.032-.014.068-.021.106-.021.061 0 .108.015.143.046.034.03.052.072.054.125v.243c0 .049.006.088.018.116v.008zm-.15-.069c.028 0 .055-.007.08-.022.026-.014.044-.034.055-.057v-.108h-.07c-.111 0-.166.032-.166.097 0 .028.009.05.028.066s.043.024.073.024z" fill="#fff" fill-rule="nonzero" transform="matrix(31.9999872 0 0 31.9999988 162.4379410248 251.99969805)"/><path d="m332 316.75c0-18.075-9.365-32.75-20.9-32.75h-167.2c-11.535 0-20.9 14.675-20.9 32.75v65.5c0 18.075 9.365 32.75 20.9 32.75h167.2c11.535 0 20.9-14.675 20.9-32.75z" fill="#27c278" transform="matrix(.95694128389 0 0 .610687 642.297033748 26.564592)"/><path d="m.161-.48-.147-.044.022-.074.148.055-.005-.168h.075l-.005.17.145-.053.023.074-.15.044.096.133-.06.046-.091-.141-.088.137-.061-.044z" fill="#fff" fill-rule="nonzero" transform="matrix(31.9999872 0 0 31.9999988 811.4382994248 251.99969805)"/><path d="m.07-.047c0-.016.005-.029.014-.039.01-.011.023-.016.042-.016s.033.005.042.016c.01.01.015.023.015.039 0 .015-.005.027-.015.037-.009.01-.023.015-.042.015s-.032-.005-.042-.015c-.009-.01-.014-.022-.014-.037z" fill="#fff" fill-rule="nonzero" transform="matrix(31.9999872 0 0 31.9999988 825.2192939124 251.99969805)"/><path d="m.28-.064c.033 0 .061-.01.085-.029.024-.02.037-.044.04-.074h.085c-.001.031-.012.06-.031.087s-.045.049-.077.065c-.032.017-.066.025-.102.025-.072 0-.129-.024-.171-.072-.043-.048-.064-.114-.064-.197v-.015c0-.052.009-.098.028-.138s.046-.071.082-.093c.035-.022.077-.033.125-.033.059 0 .108.018.147.053.04.036.061.082.063.138h-.085c-.003-.034-.016-.062-.039-.084s-.052-.033-.086-.033c-.046 0-.082.017-.107.05s-.038.081-.038.143v.017c0 .061.013.108.038.141s.061.049.107.049z" fill="#fff" fill-rule="nonzero" transform="matrix(31.9999872 0 0 31.9999988 833.6412905436 251.99969805)"/><path d="m.076-.75h.09v.75h-.09z" fill="#fff" fill-rule="nonzero" transform="matrix(31.9999872 0 0 31.9999988 850.3912838436 251.99969805)"/><path d="m.395 0c-.006-.01-.01-.029-.013-.056-.042.044-.092.066-.151.066-.052 0-.094-.015-.128-.044-.033-.03-.05-.067-.05-.112 0-.055.021-.098.063-.129.042-.03.101-.045.176-.045h.088v-.042c0-.031-.009-.057-.028-.075-.019-.019-.047-.028-.083-.028-.033 0-.06.008-.081.024-.022.016-.033.036-.033.059h-.091c0-.026.009-.052.028-.076.019-.025.044-.044.076-.059.032-.014.068-.021.106-.021.061 0 .108.015.143.046.034.03.052.072.054.125v.243c0 .049.006.088.018.116v.008zm-.15-.069c.028 0 .055-.007.08-.022.026-.014.044-.034.055-.057v-.108h-.07c-.111 0-.166.032-.166.097 0 .028.009.05.028.066s.043.024.073.024z" fill="#fff" fill-rule="nonzero" transform="matrix(31.9999872 0 0 31.9999988 858.1562807376 251.99969805)"/><path d="m.376-.14c0-.025-.009-.044-.028-.057-.018-.014-.05-.025-.096-.035s-.082-.021-.109-.035-.046-.03-.059-.049-.02-.041-.02-.067c0-.044.019-.08.055-.11.037-.03.084-.045.141-.045.06 0 .108.015.146.046.037.031.055.071.055.119h-.09c0-.025-.011-.046-.032-.064s-.047-.027-.079-.027c-.033 0-.059.007-.077.022-.019.014-.028.033-.028.056 0 .022.008.038.026.049.017.011.048.022.093.032s.082.022.11.036.049.031.062.05c.014.02.02.044.02.073 0 .047-.019.085-.056.113-.038.029-.087.043-.147.043-.043 0-.08-.008-.113-.023-.032-.015-.058-.036-.076-.062-.018-.027-.028-.056-.028-.088h.091c.001.031.013.055.036.072.023.018.053.027.09.027.034 0 .061-.007.082-.021s.031-.032.031-.055z" fill="#fff" fill-rule="nonzero" transform="matrix(31.9999872 0 0 31.9999988 875.5622737752 251.99969805)"/><path d="m.376-.14c0-.025-.009-.044-.028-.057-.018-.014-.05-.025-.096-.035s-.082-.021-.109-.035-.046-.03-.059-.049-.02-.041-.02-.067c0-.044.019-.08.055-.11.037-.03.084-.045.141-.045.06 0 .108.015.146.046.037.031.055.071.055.119h-.09c0-.025-.011-.046-.032-.064s-.047-.027-.079-.027c-.033 0-.059.007-.077.022-.019.014-.028.033-.028.056 0 .022.008.038.026.049.017.011.048.022.093.032s.082.022.11.036.049.031.062.05c.014.02.02.044.02.073 0 .047-.019.085-.056.113-.038.029-.087.043-.147.043-.043 0-.08-.008-.113-.023-.032-.015-.058-.036-.076-.062-.018-.027-.028-.056-.028-.088h.091c.001.031.013.055.036.072.023.018.053.027.09.027.034 0 .061-.007.082-.021s.031-.032.031-.055z" fill="#fff" fill-rule="nonzero" transform="matrix(31.9999872 0 0 31.9999988 892.0622671752 251.99969805)"/><path d="m332 316.75c0-18.075-9.365-32.75-20.9-32.75h-167.2c-11.535 0-20.9 14.675-20.9 32.75v65.5c0 18.075 9.365 32.75 20.9 32.75h167.2c11.535 0 20.9-14.675 20.9-32.75z" fill="#27c278" transform="matrix(.95694128389 0 0 .610687 402.297033748 -93.435108)"/><path d="m.161-.48-.147-.044.022-.074.148.055-.005-.168h.075l-.005.17.145-.053.023.074-.15.044.096.133-.06.046-.091-.141-.088.137-.061-.044z" fill="#fff" fill-rule="nonzero" transform="matrix(31.9999872 0 0 31.9999988 571.4382994248 131.99999805)"/><path d="m.07-.047c0-.016.005-.029.014-.039.01-.011.023-.016.042-.016s.033.005.042.016c.01.01.015.023.015.039 0 .015-.005.027-.015.037-.009.01-.023.015-.042.015s-.032-.005-.042-.015c-.009-.01-.014-.022-.014-.037z" fill="#fff" fill-rule="nonzero" transform="matrix(31.9999872 0 0 31.9999988 585.2192939124 131.99999805)"/><path d="m.28-.064c.033 0 .061-.01.085-.029.024-.02.037-.044.04-.074h.085c-.001.031-.012.06-.031.087s-.045.049-.077.065c-.032.017-.066.025-.102.025-.072 0-.129-.024-.171-.072-.043-.048-.064-.114-.064-.197v-.015c0-.052.009-.098.028-.138s.046-.071.082-.093c.035-.022.077-.033.125-.033.059 0 .108.018.147.053.04.036.061.082.063.138h-.085c-.003-.034-.016-.062-.039-.084s-.052-.033-.086-.033c-.046 0-.082.017-.107.05s-.038.081-.038.143v.017c0 .061.013.108.038.141s.061.049.107.049z" fill="#fff" fill-rule="nonzero" transform="matrix(31.9999872 0 0 31.9999988 593.6412905436 131.99999805)"/><path d="m.076-.75h.09v.75h-.09z" fill="#fff" fill-rule="nonzero" transform="matrix(31.9999872 0 0 31.9999988 610.3912838436 131.99999805)"/><path d="m.395 0c-.006-.01-.01-.029-.013-.056-.042.044-.092.066-.151.066-.052 0-.094-.015-.128-.044-.033-.03-.05-.067-.05-.112 0-.055.021-.098.063-.129.042-.03.101-.045.176-.045h.088v-.042c0-.031-.009-.057-.028-.075-.019-.019-.047-.028-.083-.028-.033 0-.06.008-.081.024-.022.016-.033.036-.033.059h-.091c0-.026.009-.052.028-.076.019-.025.044-.044.076-.059.032-.014.068-.021.106-.021.061 0 .108.015.143.046.034.03.052.072.054.125v.243c0 .049.006.088.018.116v.008zm-.15-.069c.028 0 .055-.007.08-.022.026-.014.044-.034.055-.057v-.108h-.07c-.111 0-.166.032-.166.097 0 .028.009.05.028.066s.043.024.073.024z" fill="#fff" fill-rule="nonzero" transform="matrix(31.9999872 0 0 31.9999988 618.1562807376 131.99999805)"/><path d="m.376-.14c0-.025-.009-.044-.028-.057-.018-.014-.05-.025-.096-.035s-.082-.021-.109-.035-.046-.03-.059-.049-.02-.041-.02-.067c0-.044.019-.08.055-.11.037-.03.084-.045.141-.045.06 0 .108.015.146.046.037.031.055.071.055.119h-.09c0-.025-.011-.046-.032-.064s-.047-.027-.079-.027c-.033 0-.059.007-.077.022-.019.014-.028.033-.028.056 0 .022.008.038.026.049.017.011.048.022.093.032s.082.022.11.036.049.031.062.05c.014.02.02.044.02.073 0 .047-.019.085-.056.113-.038.029-.087.043-.147.043-.043 0-.08-.008-.113-.023-.032-.015-.058-.036-.076-.062-.018-.027-.028-.056-.028-.088h.091c.001.031.013.055.036.072.023.018.053.027.09.027.034 0 .061-.007.082-.021s.031-.032.031-.055z" fill="#fff" fill-rule="nonzero" transform="matrix(31.9999872 0 0 31.9999988 635.5622737752 131.99999805)"/><path d="m.376-.14c0-.025-.009-.044-.028-.057-.018-.014-.05-.025-.096-.035s-.082-.021-.109-.035-.046-.03-.059-.049-.02-.041-.02-.067c0-.044.019-.08.055-.11.037-.03.084-.045.141-.045.06 0 .108.015.146.046.037.031.055.071.055.119h-.09c0-.025-.011-.046-.032-.064s-.047-.027-.079-.027c-.033 0-.059.007-.077.022-.019.014-.028.033-.028.056 0 .022.008.038.026.049.017.011.048.022.093.032s.082.022.11.036.049.031.062.05c.014.02.02.044.02.073 0 .047-.019.085-.056.113-.038.029-.087.043-.147.043-.043 0-.08-.008-.113-.023-.032-.015-.058-.036-.076-.062-.018-.027-.028-.056-.028-.088h.091c.001.031.013.055.036.072.023.018.053.027.09.027.034 0 .061-.007.082-.021s.031-.032.031-.055z" fill="#fff" fill-rule="nonzero" transform="matrix(31.9999872 0 0 31.9999988 652.0622671752 131.99999805)"/><path d="m332 316.75c0-18.075-9.365-32.75-20.9-32.75h-167.2c-11.535 0-20.9 14.675-20.9 32.75v65.5c0 18.075 9.365 32.75 20.9 32.75h167.2c11.535 0 20.9-14.675 20.9-32.75z" fill="#27c278" transform="matrix(.95694128389 0 0 .610687 902.297033748 -93.435108)"/><path d="m.044-.269c0-.052.011-.098.031-.14.02-.041.049-.073.085-.095.036-.023.078-.034.124-.034.072 0 .13.025.175.075.044.049.066.116.066.198v.007c0 .051-.009.097-.029.138s-.048.073-.085.096c-.036.022-.078.034-.126.034-.071 0-.129-.025-.174-.075-.044-.05-.067-.116-.067-.198zm.091.011c0 .058.014.105.041.141.027.035.064.053.109.053.046 0 .083-.018.11-.054s.04-.086.04-.151c0-.058-.014-.105-.041-.141-.028-.036-.064-.054-.11-.054-.044 0-.08.018-.108.053-.027.036-.041.087-.041.153z" fill="#fff" fill-rule="nonzero" transform="matrix(31.9999872 0 0 31.9999988 1073.805298478 131.99999805)"/><path d="m.395-.052c-.036.041-.087.062-.155.062-.057 0-.099-.017-.129-.049-.029-.033-.044-.081-.045-.146v-.343h.091v.341c0 .08.032.12.097.12.069 0 .115-.026.138-.077v-.384h.09v.528h-.086z" fill="#fff" fill-rule="nonzero" transform="matrix(31.9999872 0 0 31.9999988 1092.055291178 131.99999805)"/><path d="m.191-.656v.128h.099v.07h-.099v.327c0 .021.004.037.013.048.009.01.024.016.045.016.01 0 .025-.002.043-.006v.073c-.024.007-.047.01-.069.01-.041 0-.071-.012-.092-.037-.02-.024-.03-.059-.03-.104v-.327h-.097v-.07h.097v-.128z" fill="#fff" fill-rule="nonzero" transform="matrix(31.9999872 0 0 31.9999988 1109.695284122 131.99999805)"/><path d="m.515-.258c0 .08-.019.145-.056.194-.036.049-.086.074-.149.074-.064 0-.115-.021-.151-.061v.254h-.091v-.731h.083l.004.058c.037-.045.088-.068.154-.068.063 0 .113.024.15.072s.056.114.056.199zm-.091-.011c0-.059-.012-.106-.038-.141-.025-.034-.06-.051-.104-.051-.055 0-.096.024-.123.072v.253c.027.048.068.072.124.072.043 0 .077-.017.103-.051.026-.035.038-.086.038-.154z" fill="#fff" fill-rule="nonzero" transform="matrix(31.9999872 0 0 31.9999988 1120.1482799408 131.99999805)"/><path d="m.395-.052c-.036.041-.087.062-.155.062-.057 0-.099-.017-.129-.049-.029-.033-.044-.081-.045-.146v-.343h.091v.341c0 .08.032.12.097.12.069 0 .115-.026.138-.077v-.384h.09v.528h-.086z" fill="#fff" fill-rule="nonzero" transform="matrix(31.9999872 0 0 31.9999988 1138.1022727592 131.99999805)"/><path d="m.191-.656v.128h.099v.07h-.099v.327c0 .021.004.037.013.048.009.01.024.016.045.016.01 0 .025-.002.043-.006v.073c-.024.007-.047.01-.069.01-.041 0-.071-.012-.092-.037-.02-.024-.03-.059-.03-.104v-.327h-.097v-.07h.097v-.128z" fill="#fff" fill-rule="nonzero" transform="matrix(31.9999872 0 0 31.9999988 1155.7422657032 131.99999805)"/><g fill="#2d2e44"><path d="m129.058 314.875v-4.75h36.556v-7.125l11.386 9.5-11.386 9.5v-7.125z" transform="matrix(.834335 0 0 1 132.323 -192.5)"/><path d="m129.058 314.875v-4.75h36.556v-7.125l11.386 9.5-11.386 9.5v-7.125z" transform="matrix(.834335 0 0 1 372.323 -192.5)"/><path d="m129.058 314.875v-4.75h40.351v-7.125l7.591 9.5-7.591 9.5v-7.125z" transform="matrix(1.2515 0 0 1 798.484 -192.5)"/><path d="m129.058 314.875v-4.75h36.556v-7.125l11.386 9.5-11.386 9.5v-7.125z" transform="matrix(.834335 0 0 1 612.323 -72.5)"/><path d="m129.058 314.875v-4.75h46.315v-7.125l1.627 9.5-1.627 9.5v-7.125z" transform="matrix(5.84034 0 0 1 -513.741 -72.5)"/><path d="m129.058 310.125h47.942v4.75h-47.942z" transform="matrix(15.0076 0 0 1 -1796.34 -270.125)"/><path d="m129.058 314.875v-4.75h36.556v-7.125l11.386 9.5-11.386 9.5v-7.125z" transform="matrix(0 -.834335 1 0 547.5 307.677)"/><path d="m129.058 314.875v-4.75h36.556v-7.125l11.386 9.5-11.386 9.5v-7.125z" transform="matrix(0 .834335 -1 0 932.5 52.3227)"/><path d="m129.058 314.875v-4.75h42.249v-7.125l5.693 9.5-5.693 9.5v-7.125z" transform="matrix(0 -1.66867 1 0 807.5 455.355)"/><path d="m129.058 314.875v-4.75h36.556v-7.125l11.386 9.5-11.386 9.5v-7.125z" transform="matrix(0 .834335 -1 0 1172.5 -67.6773)"/></g><path d="m.274-.104c.026 0 .047-.007.063-.021.017-.015.025-.034.026-.058h.132c0 .036-.01.069-.029.099s-.046.053-.079.069c-.033.017-.07.025-.111.025-.075 0-.135-.024-.178-.072-.044-.048-.066-.115-.066-.199v-.01c0-.081.022-.146.065-.194.043-.049.103-.073.178-.073.066 0 .119.019.159.056.04.038.06.088.061.15h-.132c-.001-.027-.009-.049-.026-.066-.016-.017-.037-.026-.064-.026-.033 0-.058.012-.075.036-.016.024-.025.063-.025.117v.014c0 .055.009.094.025.117.017.024.042.036.076.036z" fill="#9697a1" fill-rule="nonzero" transform="matrix(24 0 0 24 584.5273 72.1099)"/><path d="m.493-.415h-.17v.415h-.141v-.415h-.167v-.113h.478z" fill="#9697a1" fill-rule="nonzero" transform="matrix(24 0 0 24 597.043 72.1099)"/><path d="m.36 0c-.006-.013-.011-.028-.014-.047-.034.038-.078.057-.133.057-.052 0-.095-.015-.129-.045s-.051-.068-.051-.113c0-.056.021-.099.062-.129.042-.03.102-.045.18-.046h.065v-.03c0-.024-.006-.044-.018-.059-.013-.014-.033-.022-.06-.022-.024 0-.042.006-.056.017-.013.012-.02.028-.02.047h-.141c0-.03.009-.059.028-.085s.046-.046.08-.061c.035-.015.074-.022.117-.022.065 0 .116.016.155.049.038.033.057.079.057.138v.229c0 .05.007.088.021.114v.008zm-.116-.098c.02 0 .04-.005.057-.014.018-.009.031-.022.039-.037v-.091h-.052c-.071 0-.109.024-.113.073l-.001.008c0 .018.007.032.019.044.012.011.029.017.051.017z" fill="#9697a1" fill-rule="nonzero" transform="matrix(24 0 0 24 609.0781 72.1099)"/><path d="m.316-.499c.068 0 .122.022.163.067.04.045.06.106.06.183v.007c0 .076-.022.138-.067.183-.045.046-.106.069-.181.069-.077 0-.137-.025-.182-.074-.045-.05-.068-.117-.068-.203v-.023c.001-.119.021-.212.06-.279.04-.067.099-.11.179-.127.041-.009.068-.018.08-.027s.018-.022.018-.038h.115c0 .051-.014.09-.042.115-.027.026-.076.046-.146.06-.042.009-.075.025-.099.049-.024.025-.04.059-.049.103.045-.043.098-.065.159-.065zm-.026.114c-.034 0-.06.011-.079.034-.019.022-.029.059-.029.109 0 .045.009.079.028.103s.045.035.081.035c.034 0 .06-.011.079-.034.018-.023.028-.057.028-.102v-.012c0-.043-.01-.076-.029-.099-.019-.022-.045-.034-.079-.034z" fill="#9697a1" fill-rule="nonzero" transform="matrix(24 0 0 24 621.945 72.1099)"/><path d="m.205-.374h.101c.046 0 .086.008.12.023.035.016.061.038.08.066.018.029.027.062.027.099 0 .056-.02.101-.062.135-.041.034-.097.051-.168.051h-.24v-.528h.142zm.553.374h-.141v-.528h.141zm-.553-.26v.147h.1c.028 0 .05-.006.065-.019s.022-.031.022-.054c0-.022-.007-.04-.022-.054-.015-.013-.036-.02-.065-.02z" fill="#9697a1" fill-rule="nonzero" transform="matrix(24 0 0 24 635.609 72.1099)"/><path d="m.465-.146h-.257l-.049.146h-.156l.265-.711h.136l.266.711h-.156zm-.217-.119h.177l-.089-.266z" fill="#9697a1" fill-rule="nonzero" transform="matrix(24 0 0 24 596.7617 305.8901)"/><path d="m.21-.25v.25h-.147v-.711h.278c.053 0 .1.01.141.029.04.02.071.048.093.084s.033.077.033.122c0 .07-.024.125-.072.165-.047.04-.113.061-.198.061zm0-.119h.131c.039 0 .068-.009.088-.027.021-.019.031-.045.031-.079s-.01-.063-.031-.084c-.02-.022-.049-.033-.085-.033h-.134z" fill="#9697a1" fill-rule="nonzero" transform="matrix(24 0 0 24 612.9102 305.8901)"/><path d="m.599-.592h-.218v.592h-.147v-.592h-.214v-.119h.579z" fill="#9697a1" fill-rule="nonzero" transform="matrix(24 0 0 24 628.391 305.8901)"/></svg>