<svg clip-rule="evenodd" fill-rule="evenodd" stroke-linecap="round" stroke-linejoin="round" stroke-miterlimit="1.5" viewBox="0 0 802 500" xmlns="http://www.w3.org/2000/svg"><path d="m320 40 90 120-90 120" fill="none" stroke="#2d2e44" stroke-width="40" transform="matrix(.2 0 0 .2 328 218)"/><path d="m332 300.375c0-9.038-13.379-16.375-29.857-16.375h-149.286c-16.478 0-29.857 7.337-29.857 16.375v98.25c0 9.038 13.379 16.375 29.857 16.375h149.286c16.478 0 29.857-7.337 29.857-16.375z" fill="#fff" stroke="#27c278" stroke-width="2.03" transform="matrix(1.3397221611 0 0 2.4427404144 -124.78500748 -603.73888288)"/><g fill="#2d2e44"><path d="m.135-.125c.022 0 .039.006.051.019.012.012.018.028.018.047 0 .018-.006.034-.018.046-.012.012-.029.018-.051.018-.021 0-.038-.006-.051-.018-.012-.012-.018-.027-.018-.046s.006-.035.018-.047c.012-.013.029-.019.051-.019z" fill-rule="nonzero" transform="matrix(32.00009676192 0 0 31.99990797824 166.59470879676 276.99891861456)"/><path d="m.135-.125c.022 0 .039.006.051.019.012.012.018.028.018.047 0 .018-.006.034-.018.046-.012.012-.029.018-.051.018-.021 0-.038-.006-.051-.018-.012-.012-.018-.027-.018-.046s.006-.035.018-.047c.012-.013.029-.019.051-.019z" fill-rule="nonzero" transform="matrix(32.00009676192 0 0 31.99990797824 175.53173582055 276.99891861456)"/><path d="m.135-.125c.022 0 .039.006.051.019.012.012.018.028.018.047 0 .018-.006.034-.018.046-.012.012-.029.018-.051.018-.021 0-.038-.006-.051-.018-.012-.012-.018-.027-.018-.046s.006-.035.018-.047c.012-.013.029-.019.051-.019z" fill-rule="nonzero" transform="matrix(32.00009676192 0 0 31.99990797824 184.46976284737 276.99891861456)"/><path d="m.232-.711.206.545.204-.545h.16v.711h-.123v-.234l.012-.314-.21.548h-.088l-.21-.547.012.313v.234h-.123v-.711z" fill-rule="nonzero" transform="matrix(32.00009676192 0 0 31.99990797824 87.38346927775 137.9992088992)"/><path d="m.246-.17.107-.358h.126l-.209.608c-.033.089-.087.133-.165.133-.017 0-.036-.003-.057-.008v-.092l.023.001c.03 0 .052-.005.067-.016.016-.011.028-.029.036-.055l.017-.045-.185-.526h.128z" fill-rule="nonzero" transform="matrix(32.00009676192 0 0 31.99990797824 115.39855398979 137.9992088992)"/><path d="m.615-.231c-.007.075-.035.135-.084.177-.049.043-.114.064-.195.064-.057 0-.107-.014-.15-.041-.043-.026-.076-.065-.1-.114-.023-.049-.035-.107-.036-.172v-.067c0-.067.012-.126.035-.177.024-.051.058-.091.103-.118.044-.028.096-.042.154-.042.078 0 .141.022.189.064.048.043.076.103.084.181h-.123c-.006-.051-.021-.088-.045-.111-.024-.022-.059-.034-.105-.034-.054 0-.095.02-.124.059s-.044.097-.044.173v.063c0 .077.014.135.041.176.028.04.068.06.121.06.048 0 .085-.011.109-.033.025-.021.04-.058.047-.108z" fill-rule="nonzero" transform="matrix(32.00009676192 0 0 31.99990797824 130.97760109772 137.9992088992)"/><path d="m.068-.75h.119v.75h-.119z" fill-rule="nonzero" transform="matrix(32.00009676192 0 0 31.99990797824 151.86766426511 137.9992088992)"/><path d="m.039-.269c0-.052.01-.098.03-.14.021-.041.05-.073.087-.096.037-.022.08-.033.128-.033.071 0 .129.023.173.069.045.046.069.107.072.182l.001.028c0 .052-.01.099-.03.14s-.049.073-.086.095c-.037.023-.081.034-.129.034-.075 0-.135-.025-.179-.075-.045-.049-.067-.116-.067-.198zm.118.01c0 .055.011.097.034.128.022.031.054.046.094.046s.071-.016.093-.047.034-.077.034-.137c0-.053-.012-.096-.035-.127s-.054-.047-.093-.047-.07.016-.093.046c-.022.031-.034.077-.034.138z" fill-rule="nonzero" transform="matrix(32.00009676192 0 0 31.99990797824 160.03968897569 137.9992088992)"/><path d="m.357-.144c0-.021-.009-.037-.026-.048-.018-.011-.046-.021-.087-.029-.04-.009-.074-.019-.101-.032-.059-.029-.089-.071-.089-.125 0-.046.019-.084.058-.114.038-.031.087-.046.146-.046.063 0 .114.016.153.047s.059.072.059.121h-.119c0-.022-.008-.041-.025-.057-.017-.015-.04-.022-.068-.022-.026 0-.047.006-.063.018-.017.012-.025.028-.025.048 0 .018.008.033.023.043s.046.02.093.03c.046.01.083.023.109.037.027.014.046.031.059.051s.02.044.02.072c0 .048-.02.086-.059.116-.04.029-.091.044-.155.044-.044 0-.082-.008-.116-.024-.034-.015-.06-.037-.079-.064s-.028-.057-.028-.089h.115c.001.028.012.05.032.065.019.015.045.023.077.023.031 0 .055-.006.072-.018.016-.012.024-.027.024-.047z" fill-rule="nonzero" transform="matrix(32.00009676192 0 0 31.99990797824 178.25874406648 137.9992088992)"/><path d="m.293.01c-.075 0-.136-.024-.182-.071-.047-.048-.07-.111-.07-.189v-.015c0-.053.01-.1.03-.141.02-.042.049-.074.086-.097.037-.024.078-.035.123-.035.072 0 .127.023.167.069.039.046.058.111.058.195v.047h-.345c.004.044.018.079.044.104.025.025.058.038.096.038.055 0 .099-.022.133-.066l.064.061c-.021.032-.049.056-.085.074-.035.017-.075.026-.119.026zm-.014-.453c-.032 0-.059.012-.079.034-.02.023-.032.055-.038.096h.226v-.009c-.002-.04-.013-.07-.032-.09-.018-.021-.044-.031-.077-.031z" fill-rule="nonzero" transform="matrix(32.00009676192 0 0 31.99990797824 194.77379400471 137.9992088992)"/><path d="m.376 0c-.005-.01-.009-.027-.013-.049-.038.039-.084.059-.139.059-.053 0-.096-.015-.13-.046-.033-.03-.05-.067-.05-.112 0-.056.021-.099.063-.13.042-.03.101-.045.179-.045h.073v-.034c0-.028-.008-.05-.023-.066-.015-.017-.039-.025-.07-.025-.027 0-.049.007-.066.021-.018.013-.026.03-.026.051h-.119c0-.029.01-.056.029-.081.019-.026.045-.045.078-.06.033-.014.07-.021.111-.021.062 0 .111.015.148.047.037.031.056.074.057.131v.238c0 .047.006.085.02.114v.008zm-.13-.085c.024 0 .046-.006.066-.018.021-.011.036-.026.047-.045v-.1h-.064c-.044 0-.077.008-.099.023s-.033.037-.033.065c0 .023.007.041.022.054.015.014.036.021.061.021z" fill-rule="nonzero" transform="matrix(32.00009676192 0 0 31.99990797824 211.94584592957 137.9992088992)"/><path d="m.524-.259c0 .082-.018.148-.055.196-.036.049-.087.073-.151.073-.061 0-.11-.023-.144-.067l-.006.057h-.107v-.75h.118v.272c.034-.04.08-.06.138-.06.065 0 .115.024.152.072s.055.114.055.2zm-.118-.01c0-.057-.01-.1-.031-.129-.02-.029-.049-.043-.087-.043-.052 0-.088.023-.109.067v.218c.021.046.058.069.11.069.037 0 .065-.014.086-.041.02-.028.03-.07.031-.126z" fill-rule="nonzero" transform="matrix(32.00009676192 0 0 31.99990797824 229.25889828079 137.9992088992)"/><path d="m.068-.75h.119v.75h-.119z" fill-rule="nonzero" transform="matrix(32.00009676192 0 0 31.99990797824 247.27395275473 137.9992088992)"/><path d="m.293.01c-.075 0-.136-.024-.182-.071-.047-.048-.07-.111-.07-.189v-.015c0-.053.01-.1.03-.141.02-.042.049-.074.086-.097.037-.024.078-.035.123-.035.072 0 .127.023.167.069.039.046.058.111.058.195v.047h-.345c.004.044.018.079.044.104.025.025.058.038.096.038.055 0 .099-.022.133-.066l.064.061c-.021.032-.049.056-.085.074-.035.017-.075.026-.119.026zm-.014-.453c-.032 0-.059.012-.079.034-.02.023-.032.055-.038.096h.226v-.009c-.002-.04-.013-.07-.032-.09-.018-.021-.044-.031-.077-.031z" fill-rule="nonzero" transform="matrix(32.00009676192 0 0 31.99990797824 255.44597746531 137.9992088992)"/></g><path d="m332 316.75c0-18.075-7.449-32.75-16.625-32.75h-175.75c-9.176 0-16.625 14.675-16.625 32.75v65.5c0 18.075 7.449 32.75 16.625 32.75h175.75c9.176 0 16.625-14.675 16.625-32.75z" fill="#27c278" transform="matrix(1.05263845809 0 0 .53435 -59.47380379576 18.24451712)"/><path d="m.153-.528.003.058c.038-.045.091-.068.157-.068.073 0 .124.028.15.085.018-.026.041-.046.069-.062.028-.015.061-.023.1-.023.116 0 .175.061.177.184v.354h-.091v-.349c0-.037-.008-.066-.026-.084-.017-.019-.046-.028-.087-.028-.033 0-.061.01-.083.03s-.035.047-.039.08v.351h-.09v-.346c0-.077-.038-.115-.113-.115-.059 0-.1.025-.122.075v.386h-.09v-.528z" fill="#fff" fill-rule="nonzero" transform="matrix(32.00010645891 0 0 31.999955856 105.29744980873 217.0001087715)"/><path d="m.288.01c-.072 0-.13-.024-.175-.071s-.068-.11-.068-.189v-.016c0-.053.01-.099.03-.14.02-.042.048-.074.084-.097s.075-.035.117-.035c.069 0 .122.023.161.068.038.045.057.11.057.194v.038h-.358c.001.052.016.094.045.126.03.032.067.048.111.048.032 0 .059-.006.082-.019.022-.014.041-.031.058-.052l.055.043c-.044.068-.111.102-.199.102zm-.012-.474c-.036 0-.067.013-.091.04-.025.026-.04.064-.046.111h.264v-.006c-.002-.046-.015-.082-.037-.107s-.052-.038-.09-.038z" fill="#fff" fill-rule="nonzero" transform="matrix(32.00010645891 0 0 31.999955856 133.34454311664 217.0001087715)"/><path d="m.191-.656v.128h.099v.07h-.099v.327c0 .021.004.037.013.048.009.01.024.016.045.016.01 0 .025-.002.043-.006v.073c-.024.007-.047.01-.069.01-.041 0-.071-.012-.092-.037-.02-.024-.03-.059-.03-.104v-.327h-.097v-.07h.097v-.128z" fill="#fff" fill-rule="nonzero" transform="matrix(32.00010645891 0 0 31.999955856 150.29759951657 217.0001087715)"/><path d="m.159-.464c.04-.05.092-.074.156-.074.112 0 .168.063.169.189v.349h-.09v-.35c-.001-.038-.009-.066-.027-.084-.017-.018-.043-.027-.079-.027-.03 0-.055.007-.078.023-.022.016-.039.036-.051.062v.376h-.091v-.75h.091z" fill="#fff" fill-rule="nonzero" transform="matrix(32.00010645891 0 0 31.999955856 160.75063429204 217.0001087715)"/><path d="m.044-.269c0-.052.011-.098.031-.14.02-.041.049-.073.085-.095.036-.023.078-.034.124-.034.072 0 .13.025.175.075.044.049.066.116.066.198v.007c0 .051-.009.097-.029.138s-.048.073-.085.096c-.036.022-.078.034-.126.034-.071 0-.129-.025-.174-.075-.044-.05-.067-.116-.067-.198zm.091.011c0 .058.014.105.041.141.027.035.064.053.109.053.046 0 .083-.018.11-.054s.04-.086.04-.151c0-.058-.014-.105-.041-.141-.028-.036-.064-.054-.11-.054-.044 0-.08.018-.108.053-.027.036-.041.087-.041.153z" fill="#fff" fill-rule="nonzero" transform="matrix(32.00010645891 0 0 31.999955856 178.37569292761 217.0001087715)"/><path d="m.046-.269c0-.081.02-.146.058-.195s.089-.074.151-.074.111.021.147.063v-.275h.09v.75h-.083l-.004-.057c-.036.045-.087.067-.151.067-.061 0-.111-.025-.15-.075-.038-.051-.058-.116-.058-.197zm.091.011c0 .06.012.106.037.14s.059.051.102.051c.058 0 .099-.026.126-.077v-.243c-.027-.05-.069-.074-.125-.074-.044 0-.078.017-.103.051s-.037.085-.037.152z" fill="#fff" fill-rule="nonzero" transform="matrix(32.00010645891 0 0 31.999955856 196.62575364246 217.0001087715)"/><path d="m.356 0h-.091v-.602l-.182.067v-.082l.259-.097h.014z" fill="#fff" fill-rule="nonzero" transform="matrix(32.00010645891 0 0 31.999955856 214.67281368195 217.0001087715)"/><path d="m.065-.289c0-.073.01-.144.029-.211.02-.068.05-.13.089-.185s.079-.094.121-.117l.019.059c-.048.037-.087.092-.117.167-.031.075-.047.159-.05.252l-.001.041c0 .126.023.235.069.327.028.056.061.099.099.13l-.019.055c-.043-.024-.084-.064-.124-.121-.077-.11-.115-.243-.115-.397z" fill="#fff" fill-rule="nonzero" transform="matrix(32.00010645891 0 0 31.999955856 232.64187346196 217.0001087715)"/><path d="m.277-.284c0 .073-.01.142-.029.209s-.048.128-.087.184c-.039.057-.08.097-.123.12l-.019-.055c.05-.038.09-.098.12-.179.031-.081.046-.17.047-.269v-.016c0-.068-.007-.131-.021-.19-.015-.059-.035-.112-.06-.158-.026-.047-.055-.083-.086-.109l.019-.055c.043.024.084.063.122.119.039.056.068.117.088.184.019.067.029.139.029.215z" fill="#fff" fill-rule="nonzero" transform="matrix(32.00010645891 0 0 31.999955856 243.57890984762 217.0001087715)"/><path d="m332 316.75c0-18.075-7.449-32.75-16.625-32.75h-175.75c-9.176 0-16.625 14.675-16.625 32.75v65.5c0 18.075 7.449 32.75 16.625 32.75h175.75c9.176 0 16.625-14.675 16.625-32.75z" fill="#27c278" transform="matrix(1.05263845809 0 0 .53435 -59.47380379576 158.24421712)"/><path d="m.153-.528.003.058c.038-.045.091-.068.157-.068.073 0 .124.028.15.085.018-.026.041-.046.069-.062.028-.015.061-.023.1-.023.116 0 .175.061.177.184v.354h-.091v-.349c0-.037-.008-.066-.026-.084-.017-.019-.046-.028-.087-.028-.033 0-.061.01-.083.03s-.035.047-.039.08v.351h-.09v-.346c0-.077-.038-.115-.113-.115-.059 0-.1.025-.122.075v.386h-.09v-.528z" fill="#fff" fill-rule="nonzero" transform="matrix(32.00010645891 0 0 31.999955856 102.87544175113 356.9998087715)"/><path d="m.288.01c-.072 0-.13-.024-.175-.071s-.068-.11-.068-.189v-.016c0-.053.01-.099.03-.14.02-.042.048-.074.084-.097s.075-.035.117-.035c.069 0 .122.023.161.068.038.045.057.11.057.194v.038h-.358c.001.052.016.094.045.126.03.032.067.048.111.048.032 0 .059-.006.082-.019.022-.014.041-.031.058-.052l.055.043c-.044.068-.111.102-.199.102zm-.012-.474c-.036 0-.067.013-.091.04-.025.026-.04.064-.046.111h.264v-.006c-.002-.046-.015-.082-.037-.107s-.052-.038-.09-.038z" fill="#fff" fill-rule="nonzero" transform="matrix(32.00010645891 0 0 31.999955856 130.92253505903 356.9998087715)"/><path d="m.191-.656v.128h.099v.07h-.099v.327c0 .021.004.037.013.048.009.01.024.016.045.016.01 0 .025-.002.043-.006v.073c-.024.007-.047.01-.069.01-.041 0-.071-.012-.092-.037-.02-.024-.03-.059-.03-.104v-.327h-.097v-.07h.097v-.128z" fill="#fff" fill-rule="nonzero" transform="matrix(32.00010645891 0 0 31.999955856 147.87559145896 356.9998087715)"/><path d="m.159-.464c.04-.05.092-.074.156-.074.112 0 .168.063.169.189v.349h-.09v-.35c-.001-.038-.009-.066-.027-.084-.017-.018-.043-.027-.079-.027-.03 0-.055.007-.078.023-.022.016-.039.036-.051.062v.376h-.091v-.75h.091z" fill="#fff" fill-rule="nonzero" transform="matrix(32.00010645891 0 0 31.999955856 158.32862623443 356.9998087715)"/><path d="m.044-.269c0-.052.011-.098.031-.14.02-.041.049-.073.085-.095.036-.023.078-.034.124-.034.072 0 .13.025.175.075.044.049.066.116.066.198v.007c0 .051-.009.097-.029.138s-.048.073-.085.096c-.036.022-.078.034-.126.034-.071 0-.129-.025-.174-.075-.044-.05-.067-.116-.067-.198zm.091.011c0 .058.014.105.041.141.027.035.064.053.109.053.046 0 .083-.018.11-.054s.04-.086.04-.151c0-.058-.014-.105-.041-.141-.028-.036-.064-.054-.11-.054-.044 0-.08.018-.108.053-.027.036-.041.087-.041.153z" fill="#fff" fill-rule="nonzero" transform="matrix(32.00010645891 0 0 31.999955856 175.95368487 356.9998087715)"/><path d="m.046-.269c0-.081.02-.146.058-.195s.089-.074.151-.074.111.021.147.063v-.275h.09v.75h-.083l-.004-.057c-.036.045-.087.067-.151.067-.061 0-.111-.025-.15-.075-.038-.051-.058-.116-.058-.197zm.091.011c0 .06.012.106.037.14s.059.051.102.051c.058 0 .099-.026.126-.077v-.243c-.027-.05-.069-.074-.125-.074-.044 0-.078.017-.103.051s-.037.085-.037.152z" fill="#fff" fill-rule="nonzero" transform="matrix(32.00010645891 0 0 31.999955856 194.20374558485 356.9998087715)"/><path d="m.629 0h-.094l-.358-.548v.548h-.094v-.711h.094l.359.55v-.55h.093z" fill="#fff" fill-rule="nonzero" transform="matrix(32.00010645891 0 0 31.999955856 212.25080562435 356.9998087715)"/><path d="m.065-.289c0-.073.01-.144.029-.211.02-.068.05-.13.089-.185s.079-.094.121-.117l.019.059c-.048.037-.087.092-.117.167-.031.075-.047.159-.05.252l-.001.041c0 .126.023.235.069.327.028.056.061.099.099.13l-.019.055c-.043-.024-.084-.064-.124-.121-.077-.11-.115-.243-.115-.397z" fill="#fff" fill-rule="nonzero" transform="matrix(32.00010645891 0 0 31.999955856 235.06288151624 356.9998087715)"/><path d="m.277-.284c0 .073-.01.142-.029.209s-.048.128-.087.184c-.039.057-.08.097-.123.12l-.019-.055c.05-.038.09-.098.12-.179.031-.081.046-.17.047-.269v-.016c0-.068-.007-.131-.021-.19-.015-.059-.035-.112-.06-.158-.026-.047-.055-.083-.086-.109l.019-.055c.043.024.084.063.122.119.039.056.068.117.088.184.019.067.029.139.029.215z" fill="#fff" fill-rule="nonzero" transform="matrix(32.00010645891 0 0 31.999955856 246.00091790522 356.9998087715)"/><path d="m332 296.476c0-6.886-13.379-12.476-29.857-12.476h-149.286c-16.478 0-29.857 5.59-29.857 12.476v106.048c0 6.886 13.379 12.476 29.857 12.476h149.286c16.478 0 29.857-5.59 29.857-12.476z" fill="#fff" stroke="#27c278" stroke-width="1.63" transform="matrix(1.3397221611 0 0 3.2061 317.21466252 -870.5324)"/><path d="m.135-.125c.022 0 .039.006.051.019.012.012.018.028.018.047 0 .018-.006.034-.018.046-.012.012-.029.018-.051.018-.021 0-.038-.006-.051-.018-.012-.012-.018-.027-.018-.046s.006-.035.018-.047c.012-.013.029-.019.051-.019z" fill="#2d2e44" fill-rule="nonzero" transform="matrix(32.00009676192 0 0 31.99990797824 608.59437879676 326.99903104656)"/><path d="m.135-.125c.022 0 .039.006.051.019.012.012.018.028.018.047 0 .018-.006.034-.018.046-.012.012-.029.018-.051.018-.021 0-.038-.006-.051-.018-.012-.012-.018-.027-.018-.046s.006-.035.018-.047c.012-.013.029-.019.051-.019z" fill="#2d2e44" fill-rule="nonzero" transform="matrix(32.00009676192 0 0 31.99990797824 617.53140582055 326.99903104656)"/><path d="m.135-.125c.022 0 .039.006.051.019.012.012.018.028.018.047 0 .018-.006.034-.018.046-.012.012-.029.018-.051.018-.021 0-.038-.006-.051-.018-.012-.012-.018-.027-.018-.046s.006-.035.018-.047c.012-.013.029-.019.051-.019z" fill="#2d2e44" fill-rule="nonzero" transform="matrix(32.00009676192 0 0 31.99990797824 626.46943284737 326.99903104656)"/><path d="m.232-.711.206.545.204-.545h.16v.711h-.123v-.234l.012-.314-.21.548h-.088l-.21-.547.012.313v.234h-.123v-.711z" fill="#2d2e44" fill-rule="nonzero" transform="matrix(32.00009676192 0 0 31.99990797824 529.38313927775 87.9996088992)"/><path d="m.246-.17.107-.358h.126l-.209.608c-.033.089-.087.133-.165.133-.017 0-.036-.003-.057-.008v-.092l.023.001c.03 0 .052-.005.067-.016.016-.011.028-.029.036-.055l.017-.045-.185-.526h.128z" fill="#2d2e44" fill-rule="nonzero" transform="matrix(32.00009676192 0 0 31.99990797824 557.39822398979 87.9996088992)"/><path d="m.615-.231c-.007.075-.035.135-.084.177-.049.043-.114.064-.195.064-.057 0-.107-.014-.15-.041-.043-.026-.076-.065-.1-.114-.023-.049-.035-.107-.036-.172v-.067c0-.067.012-.126.035-.177.024-.051.058-.091.103-.118.044-.028.096-.042.154-.042.078 0 .141.022.189.064.048.043.076.103.084.181h-.123c-.006-.051-.021-.088-.045-.111-.024-.022-.059-.034-.105-.034-.054 0-.095.02-.124.059s-.044.097-.044.173v.063c0 .077.014.135.041.176.028.04.068.06.121.06.048 0 .085-.011.109-.033.025-.021.04-.058.047-.108z" fill="#2d2e44" fill-rule="nonzero" transform="matrix(32.00009676192 0 0 31.99990797824 572.97727109772 87.9996088992)"/><path d="m.068-.75h.119v.75h-.119z" fill="#2d2e44" fill-rule="nonzero" transform="matrix(32.00009676192 0 0 31.99990797824 593.86733426511 87.9996088992)"/><path d="m.039-.269c0-.052.01-.098.03-.14.021-.041.05-.073.087-.096.037-.022.08-.033.128-.033.071 0 .129.023.173.069.045.046.069.107.072.182l.001.028c0 .052-.01.099-.03.14s-.049.073-.086.095c-.037.023-.081.034-.129.034-.075 0-.135-.025-.179-.075-.045-.049-.067-.116-.067-.198zm.118.01c0 .055.011.097.034.128.022.031.054.046.094.046s.071-.016.093-.047.034-.077.034-.137c0-.053-.012-.096-.035-.127s-.054-.047-.093-.047-.07.016-.093.046c-.022.031-.034.077-.034.138z" fill="#2d2e44" fill-rule="nonzero" transform="matrix(32.00009676192 0 0 31.99990797824 602.03935897569 87.9996088992)"/><path d="m.357-.144c0-.021-.009-.037-.026-.048-.018-.011-.046-.021-.087-.029-.04-.009-.074-.019-.101-.032-.059-.029-.089-.071-.089-.125 0-.046.019-.084.058-.114.038-.031.087-.046.146-.046.063 0 .114.016.153.047s.059.072.059.121h-.119c0-.022-.008-.041-.025-.057-.017-.015-.04-.022-.068-.022-.026 0-.047.006-.063.018-.017.012-.025.028-.025.048 0 .018.008.033.023.043s.046.02.093.03c.046.01.083.023.109.037.027.014.046.031.059.051s.02.044.02.072c0 .048-.02.086-.059.116-.04.029-.091.044-.155.044-.044 0-.082-.008-.116-.024-.034-.015-.06-.037-.079-.064s-.028-.057-.028-.089h.115c.001.028.012.05.032.065.019.015.045.023.077.023.031 0 .055-.006.072-.018.016-.012.024-.027.024-.047z" fill="#2d2e44" fill-rule="nonzero" transform="matrix(32.00009676192 0 0 31.99990797824 620.25841406648 87.9996088992)"/><path d="m.293.01c-.075 0-.136-.024-.182-.071-.047-.048-.07-.111-.07-.189v-.015c0-.053.01-.1.03-.141.02-.042.049-.074.086-.097.037-.024.078-.035.123-.035.072 0 .127.023.167.069.039.046.058.111.058.195v.047h-.345c.004.044.018.079.044.104.025.025.058.038.096.038.055 0 .099-.022.133-.066l.064.061c-.021.032-.049.056-.085.074-.035.017-.075.026-.119.026zm-.014-.453c-.032 0-.059.012-.079.034-.02.023-.032.055-.038.096h.226v-.009c-.002-.04-.013-.07-.032-.09-.018-.021-.044-.031-.077-.031z" fill="#2d2e44" fill-rule="nonzero" transform="matrix(32.00009676192 0 0 31.99990797824 636.77346400471 87.9996088992)"/><path d="m.376 0c-.005-.01-.009-.027-.013-.049-.038.039-.084.059-.139.059-.053 0-.096-.015-.13-.046-.033-.03-.05-.067-.05-.112 0-.056.021-.099.063-.13.042-.03.101-.045.179-.045h.073v-.034c0-.028-.008-.05-.023-.066-.015-.017-.039-.025-.07-.025-.027 0-.049.007-.066.021-.018.013-.026.03-.026.051h-.119c0-.029.01-.056.029-.081.019-.026.045-.045.078-.06.033-.014.07-.021.111-.021.062 0 .111.015.148.047.037.031.056.074.057.131v.238c0 .047.006.085.02.114v.008zm-.13-.085c.024 0 .046-.006.066-.018.021-.011.036-.026.047-.045v-.1h-.064c-.044 0-.077.008-.099.023s-.033.037-.033.065c0 .023.007.041.022.054.015.014.036.021.061.021z" fill="#2d2e44" fill-rule="nonzero" transform="matrix(32.00009676192 0 0 31.99990797824 653.94551592957 87.9996088992)"/><path d="m.524-.259c0 .082-.018.148-.055.196-.036.049-.087.073-.151.073-.061 0-.11-.023-.144-.067l-.006.057h-.107v-.75h.118v.272c.034-.04.08-.06.138-.06.065 0 .115.024.152.072s.055.114.055.2zm-.118-.01c0-.057-.01-.1-.031-.129-.02-.029-.049-.043-.087-.043-.052 0-.088.023-.109.067v.218c.021.046.058.069.11.069.037 0 .065-.014.086-.041.02-.028.03-.07.031-.126z" fill="#2d2e44" fill-rule="nonzero" transform="matrix(32.00009676192 0 0 31.99990797824 671.25856828079 87.9996088992)"/><path d="m.068-.75h.119v.75h-.119z" fill="#2d2e44" fill-rule="nonzero" transform="matrix(32.00009676192 0 0 31.99990797824 689.27362275473 87.9996088992)"/><path d="m.293.01c-.075 0-.136-.024-.182-.071-.047-.048-.07-.111-.07-.189v-.015c0-.053.01-.1.03-.141.02-.042.049-.074.086-.097.037-.024.078-.035.123-.035.072 0 .127.023.167.069.039.046.058.111.058.195v.047h-.345c.004.044.018.079.044.104.025.025.058.038.096.038.055 0 .099-.022.133-.066l.064.061c-.021.032-.049.056-.085.074-.035.017-.075.026-.119.026zm-.014-.453c-.032 0-.059.012-.079.034-.02.023-.032.055-.038.096h.226v-.009c-.002-.04-.013-.07-.032-.09-.018-.021-.044-.031-.077-.031z" fill="#2d2e44" fill-rule="nonzero" transform="matrix(32.00009676192 0 0 31.99990797824 697.44564746531 87.9996088992)"/><path d="m332 316.75c0-18.075-7.449-32.75-16.625-32.75h-175.75c-9.176 0-16.625 14.675-16.625 32.75v65.5c0 18.075 7.449 32.75 16.625 32.75h175.75c9.176 0 16.625-14.675 16.625-32.75z" fill="#27c278" transform="matrix(1.05263845809 0 0 .53435 382.52586620424 -31.75508288)"/><path d="m.099 0v-.458h-.084v-.07h.084v-.045c0-.059.016-.105.05-.138s.081-.049.143-.049c.036 0 .083.01.138.03l-.015.076c-.041-.017-.079-.025-.116-.025-.039 0-.067.009-.084.026-.017.018-.026.044-.026.079v.046h.108v.07h-.108v.458zm.376 0h-.091v-.528h.091z" fill="#fff" fill-rule="nonzero" transform="matrix(32.00010645891 0 0 31.999955856 560.53116383615 167.0005087715)"/><path d="m.154-.528.003.066c.04-.051.093-.076.158-.076.112 0 .168.063.169.189v.349h-.09v-.35c-.001-.038-.009-.066-.027-.084-.017-.018-.043-.027-.079-.027-.03 0-.055.007-.078.023-.022.016-.039.036-.051.062v.376h-.091v-.528z" fill="#fff" fill-rule="nonzero" transform="matrix(32.00010645891 0 0 31.999955856 578.25022278444 167.0005087715)"/><path d="m.395 0c-.006-.01-.01-.029-.013-.056-.042.044-.092.066-.151.066-.052 0-.094-.015-.128-.044-.033-.03-.05-.067-.05-.112 0-.055.021-.098.063-.129.042-.03.101-.045.176-.045h.088v-.042c0-.031-.009-.057-.028-.075-.019-.019-.047-.028-.083-.028-.033 0-.06.008-.081.024-.022.016-.033.036-.033.059h-.091c0-.026.009-.052.028-.076.019-.025.044-.044.076-.059.032-.014.068-.021.106-.021.061 0 .108.015.143.046.034.03.052.072.054.125v.243c0 .049.006.088.018.116v.008zm-.15-.069c.028 0 .055-.007.08-.022.026-.014.044-.034.055-.057v-.108h-.07c-.111 0-.166.032-.166.097 0 .028.009.05.028.066s.043.024.073.024z" fill="#fff" fill-rule="nonzero" transform="matrix(32.00010645891 0 0 31.999955856 595.90628152314 167.0005087715)"/><path d="m.076-.75h.09v.75h-.09z" fill="#fff" fill-rule="nonzero" transform="matrix(32.00010645891 0 0 31.999955856 613.31233943013 167.0005087715)"/><path d="m.167 0h-.091v-.528h.091zm-.098-.668c0-.015.004-.027.013-.038.009-.01.022-.015.04-.015s.031.005.04.015c.009.011.014.023.014.038 0 .014-.005.026-.014.036s-.022.015-.04.015-.031-.005-.04-.015-.013-.022-.013-.036z" fill="#fff" fill-rule="nonzero" transform="matrix(32.00010645891 0 0 31.999955856 621.07836526638 167.0005087715)"/><path d="m.153-.074h.309v.074h-.419v-.066l.291-.388h-.287v-.074h.401v.064z" fill="#fff" fill-rule="nonzero" transform="matrix(32.00010645891 0 0 31.999955856 628.84439110263 167.0005087715)"/><path d="m.288.01c-.072 0-.13-.024-.175-.071s-.068-.11-.068-.189v-.016c0-.053.01-.099.03-.14.02-.042.048-.074.084-.097s.075-.035.117-.035c.069 0 .122.023.161.068.038.045.057.11.057.194v.038h-.358c.001.052.016.094.045.126.03.032.067.048.111.048.032 0 .059-.006.082-.019.022-.014.041-.031.058-.052l.055.043c-.044.068-.111.102-.199.102zm-.012-.474c-.036 0-.067.013-.091.04-.025.026-.04.064-.046.111h.264v-.006c-.002-.046-.015-.082-.037-.107s-.052-.038-.09-.038z" fill="#fff" fill-rule="nonzero" transform="matrix(32.00010645891 0 0 31.999955856 644.45344303129 167.0005087715)"/><path d="m.065-.289c0-.073.01-.144.029-.211.02-.068.05-.13.089-.185s.079-.094.121-.117l.019.059c-.048.037-.087.092-.117.167-.031.075-.047.159-.05.252l-.001.041c0 .126.023.235.069.327.028.056.061.099.099.13l-.019.055c-.043-.024-.084-.064-.124-.121-.077-.11-.115-.243-.115-.397z" fill="#fff" fill-rule="nonzero" transform="matrix(32.00010645891 0 0 31.999955856 661.40649943122 167.0005087715)"/><path d="m.277-.284c0 .073-.01.142-.029.209s-.048.128-.087.184c-.039.057-.08.097-.123.12l-.019-.055c.05-.038.09-.098.12-.179.031-.081.046-.17.047-.269v-.016c0-.068-.007-.131-.021-.19-.015-.059-.035-.112-.06-.158-.026-.047-.055-.083-.086-.109l.019-.055c.043.024.084.063.122.119.039.056.068.117.088.184.019.067.029.139.029.215z" fill="#fff" fill-rule="nonzero" transform="matrix(32.00010645891 0 0 31.999955856 672.3445358202 167.0005087715)"/><path d="m332 316.75c0-18.075-7.449-32.75-16.625-32.75h-175.75c-9.176 0-16.625 14.675-16.625 32.75v65.5c0 18.075 7.449 32.75 16.625 32.75h175.75c9.176 0 16.625-14.675 16.625-32.75z" fill="#27c278" transform="matrix(1.05263845809 0 0 .53435 382.52586620424 68.24445856)"/><path d="m.153-.528.003.058c.038-.045.091-.068.157-.068.073 0 .124.028.15.085.018-.026.041-.046.069-.062.028-.015.061-.023.1-.023.116 0 .175.061.177.184v.354h-.091v-.349c0-.037-.008-.066-.026-.084-.017-.019-.046-.028-.087-.028-.033 0-.061.01-.083.03s-.035.047-.039.08v.351h-.09v-.346c0-.077-.038-.115-.113-.115-.059 0-.1.025-.122.075v.386h-.09v-.528z" fill="#fff" fill-rule="nonzero" transform="matrix(32.00010645891 0 0 31.999955856 547.29711980873 267.0000502115)"/><path d="m.288.01c-.072 0-.13-.024-.175-.071s-.068-.11-.068-.189v-.016c0-.053.01-.099.03-.14.02-.042.048-.074.084-.097s.075-.035.117-.035c.069 0 .122.023.161.068.038.045.057.11.057.194v.038h-.358c.001.052.016.094.045.126.03.032.067.048.111.048.032 0 .059-.006.082-.019.022-.014.041-.031.058-.052l.055.043c-.044.068-.111.102-.199.102zm-.012-.474c-.036 0-.067.013-.091.04-.025.026-.04.064-.046.111h.264v-.006c-.002-.046-.015-.082-.037-.107s-.052-.038-.09-.038z" fill="#fff" fill-rule="nonzero" transform="matrix(32.00010645891 0 0 31.999955856 575.34421311664 267.0000502115)"/><path d="m.191-.656v.128h.099v.07h-.099v.327c0 .021.004.037.013.048.009.01.024.016.045.016.01 0 .025-.002.043-.006v.073c-.024.007-.047.01-.069.01-.041 0-.071-.012-.092-.037-.02-.024-.03-.059-.03-.104v-.327h-.097v-.07h.097v-.128z" fill="#fff" fill-rule="nonzero" transform="matrix(32.00010645891 0 0 31.999955856 592.29726951657 267.0000502115)"/><path d="m.159-.464c.04-.05.092-.074.156-.074.112 0 .168.063.169.189v.349h-.09v-.35c-.001-.038-.009-.066-.027-.084-.017-.018-.043-.027-.079-.027-.03 0-.055.007-.078.023-.022.016-.039.036-.051.062v.376h-.091v-.75h.091z" fill="#fff" fill-rule="nonzero" transform="matrix(32.00010645891 0 0 31.999955856 602.75030429204 267.0000502115)"/><path d="m.044-.269c0-.052.011-.098.031-.14.02-.041.049-.073.085-.095.036-.023.078-.034.124-.034.072 0 .13.025.175.075.044.049.066.116.066.198v.007c0 .051-.009.097-.029.138s-.048.073-.085.096c-.036.022-.078.034-.126.034-.071 0-.129-.025-.174-.075-.044-.05-.067-.116-.067-.198zm.091.011c0 .058.014.105.041.141.027.035.064.053.109.053.046 0 .083-.018.11-.054s.04-.086.04-.151c0-.058-.014-.105-.041-.141-.028-.036-.064-.054-.11-.054-.044 0-.08.018-.108.053-.027.036-.041.087-.041.153z" fill="#fff" fill-rule="nonzero" transform="matrix(32.00010645891 0 0 31.999955856 620.37536292761 267.0000502115)"/><path d="m.046-.269c0-.081.02-.146.058-.195s.089-.074.151-.074.111.021.147.063v-.275h.09v.75h-.083l-.004-.057c-.036.045-.087.067-.151.067-.061 0-.111-.025-.15-.075-.038-.051-.058-.116-.058-.197zm.091.011c0 .06.012.106.037.14s.059.051.102.051c.058 0 .099-.026.126-.077v-.243c-.027-.05-.069-.074-.125-.074-.044 0-.078.017-.103.051s-.037.085-.037.152z" fill="#fff" fill-rule="nonzero" transform="matrix(32.00010645891 0 0 31.999955856 638.62542364246 267.0000502115)"/><path d="m.356 0h-.091v-.602l-.182.067v-.082l.259-.097h.014z" fill="#fff" fill-rule="nonzero" transform="matrix(32.00010645891 0 0 31.999955856 656.67248368195 267.0000502115)"/><path d="m.065-.289c0-.073.01-.144.029-.211.02-.068.05-.13.089-.185s.079-.094.121-.117l.019.059c-.048.037-.087.092-.117.167-.031.075-.047.159-.05.252l-.001.041c0 .126.023.235.069.327.028.056.061.099.099.13l-.019.055c-.043-.024-.084-.064-.124-.121-.077-.11-.115-.243-.115-.397z" fill="#fff" fill-rule="nonzero" transform="matrix(32.00010645891 0 0 31.999955856 674.64154346196 267.0000502115)"/><path d="m.277-.284c0 .073-.01.142-.029.209s-.048.128-.087.184c-.039.057-.08.097-.123.12l-.019-.055c.05-.038.09-.098.12-.179.031-.081.046-.17.047-.269v-.016c0-.068-.007-.131-.021-.19-.015-.059-.035-.112-.06-.158-.026-.047-.055-.083-.086-.109l.019-.055c.043.024.084.063.122.119.039.056.068.117.088.184.019.067.029.139.029.215z" fill="#fff" fill-rule="nonzero" transform="matrix(32.00010645891 0 0 31.999955856 685.57857984762 267.0000502115)"/><path d="m332 316.75c0-18.075-7.449-32.75-16.625-32.75h-175.75c-9.176 0-16.625 14.675-16.625 32.75v65.5c0 18.075 7.449 32.75 16.625 32.75h175.75c9.176 0 16.625-14.675 16.625-32.75z" fill="#27c278" transform="matrix(1.05263845809 0 0 .53435 382.52586620424 208.24415856)"/><path d="m.153-.528.003.058c.038-.045.091-.068.157-.068.073 0 .124.028.15.085.018-.026.041-.046.069-.062.028-.015.061-.023.1-.023.116 0 .175.061.177.184v.354h-.091v-.349c0-.037-.008-.066-.026-.084-.017-.019-.046-.028-.087-.028-.033 0-.061.01-.083.03s-.035.047-.039.08v.351h-.09v-.346c0-.077-.038-.115-.113-.115-.059 0-.1.025-.122.075v.386h-.09v-.528z" fill="#fff" fill-rule="nonzero" transform="matrix(32.00010645891 0 0 31.999955856 544.87511175113 406.9997502115)"/><path d="m.288.01c-.072 0-.13-.024-.175-.071s-.068-.11-.068-.189v-.016c0-.053.01-.099.03-.14.02-.042.048-.074.084-.097s.075-.035.117-.035c.069 0 .122.023.161.068.038.045.057.11.057.194v.038h-.358c.001.052.016.094.045.126.03.032.067.048.111.048.032 0 .059-.006.082-.019.022-.014.041-.031.058-.052l.055.043c-.044.068-.111.102-.199.102zm-.012-.474c-.036 0-.067.013-.091.04-.025.026-.04.064-.046.111h.264v-.006c-.002-.046-.015-.082-.037-.107s-.052-.038-.09-.038z" fill="#fff" fill-rule="nonzero" transform="matrix(32.00010645891 0 0 31.999955856 572.92220505903 406.9997502115)"/><path d="m.191-.656v.128h.099v.07h-.099v.327c0 .021.004.037.013.048.009.01.024.016.045.016.01 0 .025-.002.043-.006v.073c-.024.007-.047.01-.069.01-.041 0-.071-.012-.092-.037-.02-.024-.03-.059-.03-.104v-.327h-.097v-.07h.097v-.128z" fill="#fff" fill-rule="nonzero" transform="matrix(32.00010645891 0 0 31.999955856 589.87526145896 406.9997502115)"/><path d="m.159-.464c.04-.05.092-.074.156-.074.112 0 .168.063.169.189v.349h-.09v-.35c-.001-.038-.009-.066-.027-.084-.017-.018-.043-.027-.079-.027-.03 0-.055.007-.078.023-.022.016-.039.036-.051.062v.376h-.091v-.75h.091z" fill="#fff" fill-rule="nonzero" transform="matrix(32.00010645891 0 0 31.999955856 600.32829623443 406.9997502115)"/><path d="m.044-.269c0-.052.011-.098.031-.14.02-.041.049-.073.085-.095.036-.023.078-.034.124-.034.072 0 .13.025.175.075.044.049.066.116.066.198v.007c0 .051-.009.097-.029.138s-.048.073-.085.096c-.036.022-.078.034-.126.034-.071 0-.129-.025-.174-.075-.044-.05-.067-.116-.067-.198zm.091.011c0 .058.014.105.041.141.027.035.064.053.109.053.046 0 .083-.018.11-.054s.04-.086.04-.151c0-.058-.014-.105-.041-.141-.028-.036-.064-.054-.11-.054-.044 0-.08.018-.108.053-.027.036-.041.087-.041.153z" fill="#fff" fill-rule="nonzero" transform="matrix(32.00010645891 0 0 31.999955856 617.95335487 406.9997502115)"/><path d="m.046-.269c0-.081.02-.146.058-.195s.089-.074.151-.074.111.021.147.063v-.275h.09v.75h-.083l-.004-.057c-.036.045-.087.067-.151.067-.061 0-.111-.025-.15-.075-.038-.051-.058-.116-.058-.197zm.091.011c0 .06.012.106.037.14s.059.051.102.051c.058 0 .099-.026.126-.077v-.243c-.027-.05-.069-.074-.125-.074-.044 0-.078.017-.103.051s-.037.085-.037.152z" fill="#fff" fill-rule="nonzero" transform="matrix(32.00010645891 0 0 31.999955856 636.20341558485 406.9997502115)"/><path d="m.629 0h-.094l-.358-.548v.548h-.094v-.711h.094l.359.55v-.55h.093z" fill="#fff" fill-rule="nonzero" transform="matrix(32.00010645891 0 0 31.999955856 654.25047562435 406.9997502115)"/><path d="m.065-.289c0-.073.01-.144.029-.211.02-.068.05-.13.089-.185s.079-.094.121-.117l.019.059c-.048.037-.087.092-.117.167-.031.075-.047.159-.05.252l-.001.041c0 .126.023.235.069.327.028.056.061.099.099.13l-.019.055c-.043-.024-.084-.064-.124-.121-.077-.11-.115-.243-.115-.397z" fill="#fff" fill-rule="nonzero" transform="matrix(32.00010645891 0 0 31.999955856 677.06255151624 406.9997502115)"/><path d="m.277-.284c0 .073-.01.142-.029.209s-.048.128-.087.184c-.039.057-.08.097-.123.12l-.019-.055c.05-.038.09-.098.12-.179.031-.081.046-.17.047-.269v-.016c0-.068-.007-.131-.021-.19-.015-.059-.035-.112-.06-.158-.026-.047-.055-.083-.086-.109l.019-.055c.043.024.084.063.122.119.039.056.068.117.088.184.019.067.029.139.029.215z" fill="#fff" fill-rule="nonzero" transform="matrix(32.00010645891 0 0 31.999955856 688.00058790522 406.9997502115)"/></svg>