<?xml version="1.0" encoding="UTF-8" standalone="no"?>
<!DOCTYPE svg PUBLIC "-//W3C//DTD SVG 1.1//EN" "http://www.w3.org/Graphics/SVG/1.1/DTD/svg11.dtd">
<svg width="100%" height="100%" viewBox="0 0 802 500" version="1.1" xmlns="http://www.w3.org/2000/svg" xmlns:xlink="http://www.w3.org/1999/xlink" xml:space="preserve" xmlns:serif="http://www.serif.com/" style="fill-rule:evenodd;clip-rule:evenodd;stroke-linecap:round;stroke-linejoin:round;stroke-miterlimit:1.5;">
    <g transform="matrix(0.2,0,0,0.2,328,218)">
        <path d="M320,40L410,160L320,280" style="fill:none;stroke:rgb(45,46,68);stroke-width:40px;"/>
    </g>
    <g transform="matrix(1.16667,0,0,1.70992,-6.66667,-80.9924)">
        <g transform="matrix(1.14833,0,0,1.42857,-101.244,-305.714)">
            <path d="M332,300.375C332,291.337 318.621,284 302.143,284L152.857,284C136.379,284 123,291.337 123,300.375L123,398.625C123,407.663 136.379,415 152.857,415L302.143,415C318.621,415 332,407.663 332,398.625L332,300.375Z" style="fill:white;stroke:rgb(39,194,120);stroke-width:2.03px;"/>
        </g>
        <g transform="matrix(0.857143,0,0,0.584821,-110.857,-14.625)">
            <g transform="matrix(32,0,0,32,302.594,383)">
                <path d="M0.135,-0.125C0.157,-0.125 0.174,-0.119 0.186,-0.106C0.198,-0.094 0.204,-0.078 0.204,-0.059C0.204,-0.041 0.198,-0.025 0.186,-0.013C0.174,-0.001 0.157,0.005 0.135,0.005C0.114,0.005 0.097,-0.001 0.084,-0.013C0.072,-0.025 0.066,-0.04 0.066,-0.059C0.066,-0.078 0.072,-0.094 0.084,-0.106C0.096,-0.119 0.113,-0.125 0.135,-0.125Z" style="fill:rgb(45,46,68);fill-rule:nonzero;"/>
            </g>
            <g transform="matrix(32,0,0,32,311.531,383)">
                <path d="M0.135,-0.125C0.157,-0.125 0.174,-0.119 0.186,-0.106C0.198,-0.094 0.204,-0.078 0.204,-0.059C0.204,-0.041 0.198,-0.025 0.186,-0.013C0.174,-0.001 0.157,0.005 0.135,0.005C0.114,0.005 0.097,-0.001 0.084,-0.013C0.072,-0.025 0.066,-0.04 0.066,-0.059C0.066,-0.078 0.072,-0.094 0.084,-0.106C0.096,-0.119 0.113,-0.125 0.135,-0.125Z" style="fill:rgb(45,46,68);fill-rule:nonzero;"/>
            </g>
            <g transform="matrix(32,0,0,32,320.469,383)">
                <path d="M0.135,-0.125C0.157,-0.125 0.174,-0.119 0.186,-0.106C0.198,-0.094 0.204,-0.078 0.204,-0.059C0.204,-0.041 0.198,-0.025 0.186,-0.013C0.174,-0.001 0.157,0.005 0.135,0.005C0.114,0.005 0.097,-0.001 0.084,-0.013C0.072,-0.025 0.066,-0.04 0.066,-0.059C0.066,-0.078 0.072,-0.094 0.084,-0.106C0.096,-0.119 0.113,-0.125 0.135,-0.125Z" style="fill:rgb(45,46,68);fill-rule:nonzero;"/>
            </g>
        </g>
        <g transform="matrix(0.857143,0,0,0.584821,-110.857,-82.4643)">
            <g transform="matrix(32,0,0,32,223.383,360)">
                <path d="M0.232,-0.711L0.438,-0.166L0.642,-0.711L0.802,-0.711L0.802,0L0.679,0L0.679,-0.234L0.691,-0.548L0.481,0L0.393,0L0.183,-0.547L0.195,-0.234L0.195,0L0.072,0L0.072,-0.711L0.232,-0.711Z" style="fill:rgb(45,46,68);fill-rule:nonzero;"/>
            </g>
            <g transform="matrix(32,0,0,32,251.398,360)">
                <path d="M0.246,-0.17L0.353,-0.528L0.479,-0.528L0.27,0.08C0.237,0.169 0.183,0.213 0.105,0.213C0.088,0.213 0.069,0.21 0.048,0.205L0.048,0.113L0.071,0.114C0.101,0.114 0.123,0.109 0.138,0.098C0.154,0.087 0.166,0.069 0.174,0.043L0.191,-0.002L0.006,-0.528L0.134,-0.528L0.246,-0.17Z" style="fill:rgb(45,46,68);fill-rule:nonzero;"/>
            </g>
            <g transform="matrix(32,0,0,32,266.977,360)">
                <path d="M0.615,-0.231C0.608,-0.156 0.58,-0.096 0.531,-0.054C0.482,-0.011 0.417,0.01 0.336,0.01C0.279,0.01 0.229,-0.004 0.186,-0.031C0.143,-0.057 0.11,-0.096 0.086,-0.145C0.063,-0.194 0.051,-0.252 0.05,-0.317L0.05,-0.384C0.05,-0.451 0.062,-0.51 0.085,-0.561C0.109,-0.612 0.143,-0.652 0.188,-0.679C0.232,-0.707 0.284,-0.721 0.342,-0.721C0.42,-0.721 0.483,-0.699 0.531,-0.657C0.579,-0.614 0.607,-0.554 0.615,-0.476L0.492,-0.476C0.486,-0.527 0.471,-0.564 0.447,-0.587C0.423,-0.609 0.388,-0.621 0.342,-0.621C0.288,-0.621 0.247,-0.601 0.218,-0.562C0.189,-0.523 0.174,-0.465 0.174,-0.389L0.174,-0.326C0.174,-0.249 0.188,-0.191 0.215,-0.15C0.243,-0.11 0.283,-0.09 0.336,-0.09C0.384,-0.09 0.421,-0.101 0.445,-0.123C0.47,-0.144 0.485,-0.181 0.492,-0.231L0.615,-0.231Z" style="fill:rgb(45,46,68);fill-rule:nonzero;"/>
            </g>
            <g transform="matrix(32,0,0,32,287.867,360)">
                <rect x="0.068" y="-0.75" width="0.119" height="0.75" style="fill:rgb(45,46,68);fill-rule:nonzero;"/>
            </g>
            <g transform="matrix(32,0,0,32,296.039,360)">
                <path d="M0.039,-0.269C0.039,-0.321 0.049,-0.367 0.069,-0.409C0.09,-0.45 0.119,-0.482 0.156,-0.505C0.193,-0.527 0.236,-0.538 0.284,-0.538C0.355,-0.538 0.413,-0.515 0.457,-0.469C0.502,-0.423 0.526,-0.362 0.529,-0.287L0.53,-0.259C0.53,-0.207 0.52,-0.16 0.5,-0.119C0.48,-0.078 0.451,-0.046 0.414,-0.024C0.377,-0.001 0.333,0.01 0.285,0.01C0.21,0.01 0.15,-0.015 0.106,-0.065C0.061,-0.114 0.039,-0.181 0.039,-0.263L0.039,-0.269ZM0.157,-0.259C0.157,-0.204 0.168,-0.162 0.191,-0.131C0.213,-0.1 0.245,-0.085 0.285,-0.085C0.325,-0.085 0.356,-0.101 0.378,-0.132C0.4,-0.163 0.412,-0.209 0.412,-0.269C0.412,-0.322 0.4,-0.365 0.377,-0.396C0.354,-0.427 0.323,-0.443 0.284,-0.443C0.245,-0.443 0.214,-0.427 0.191,-0.397C0.169,-0.366 0.157,-0.32 0.157,-0.259Z" style="fill:rgb(45,46,68);fill-rule:nonzero;"/>
            </g>
            <g transform="matrix(32,0,0,32,314.258,360)">
                <path d="M0.357,-0.144C0.357,-0.165 0.348,-0.181 0.331,-0.192C0.313,-0.203 0.285,-0.213 0.244,-0.221C0.204,-0.23 0.17,-0.24 0.143,-0.253C0.084,-0.282 0.054,-0.324 0.054,-0.378C0.054,-0.424 0.073,-0.462 0.112,-0.492C0.15,-0.523 0.199,-0.538 0.258,-0.538C0.321,-0.538 0.372,-0.522 0.411,-0.491C0.45,-0.46 0.47,-0.419 0.47,-0.37L0.351,-0.37C0.351,-0.392 0.343,-0.411 0.326,-0.427C0.309,-0.442 0.286,-0.449 0.258,-0.449C0.232,-0.449 0.211,-0.443 0.195,-0.431C0.178,-0.419 0.17,-0.403 0.17,-0.383C0.17,-0.365 0.178,-0.35 0.193,-0.34C0.208,-0.33 0.239,-0.32 0.286,-0.31C0.332,-0.3 0.369,-0.287 0.395,-0.273C0.422,-0.259 0.441,-0.242 0.454,-0.222C0.467,-0.202 0.474,-0.178 0.474,-0.15C0.474,-0.102 0.454,-0.064 0.415,-0.034C0.375,-0.005 0.324,0.01 0.26,0.01C0.216,0.01 0.178,0.002 0.144,-0.014C0.11,-0.029 0.084,-0.051 0.065,-0.078C0.046,-0.105 0.037,-0.135 0.037,-0.167L0.152,-0.167C0.153,-0.139 0.164,-0.117 0.184,-0.102C0.203,-0.087 0.229,-0.079 0.261,-0.079C0.292,-0.079 0.316,-0.085 0.333,-0.097C0.349,-0.109 0.357,-0.124 0.357,-0.144Z" style="fill:rgb(45,46,68);fill-rule:nonzero;"/>
            </g>
            <g transform="matrix(32,0,0,32,330.773,360)">
                <path d="M0.293,0.01C0.218,0.01 0.157,-0.014 0.111,-0.061C0.064,-0.109 0.041,-0.172 0.041,-0.25L0.041,-0.265C0.041,-0.318 0.051,-0.365 0.071,-0.406C0.091,-0.448 0.12,-0.48 0.157,-0.503C0.194,-0.527 0.235,-0.538 0.28,-0.538C0.352,-0.538 0.407,-0.515 0.447,-0.469C0.486,-0.423 0.505,-0.358 0.505,-0.274L0.505,-0.227L0.16,-0.227C0.164,-0.183 0.178,-0.148 0.204,-0.123C0.229,-0.098 0.262,-0.085 0.3,-0.085C0.355,-0.085 0.399,-0.107 0.433,-0.151L0.497,-0.09C0.476,-0.058 0.448,-0.034 0.412,-0.016C0.377,0.001 0.337,0.01 0.293,0.01ZM0.279,-0.443C0.247,-0.443 0.22,-0.431 0.2,-0.409C0.18,-0.386 0.168,-0.354 0.162,-0.313L0.388,-0.313L0.388,-0.322C0.386,-0.362 0.375,-0.392 0.356,-0.412C0.338,-0.433 0.312,-0.443 0.279,-0.443Z" style="fill:rgb(45,46,68);fill-rule:nonzero;"/>
            </g>
            <g transform="matrix(32,0,0,32,347.945,360)">
                <path d="M0.376,0C0.371,-0.01 0.367,-0.027 0.363,-0.049C0.325,-0.01 0.279,0.01 0.224,0.01C0.171,0.01 0.128,-0.005 0.094,-0.036C0.061,-0.066 0.044,-0.103 0.044,-0.148C0.044,-0.204 0.065,-0.247 0.107,-0.278C0.149,-0.308 0.208,-0.323 0.286,-0.323L0.359,-0.323L0.359,-0.357C0.359,-0.385 0.351,-0.407 0.336,-0.423C0.321,-0.44 0.297,-0.448 0.266,-0.448C0.239,-0.448 0.217,-0.441 0.2,-0.427C0.182,-0.414 0.174,-0.397 0.174,-0.376L0.055,-0.376C0.055,-0.405 0.065,-0.432 0.084,-0.457C0.103,-0.483 0.129,-0.502 0.162,-0.517C0.195,-0.531 0.232,-0.538 0.273,-0.538C0.335,-0.538 0.384,-0.523 0.421,-0.491C0.458,-0.46 0.477,-0.417 0.478,-0.36L0.478,-0.122C0.478,-0.075 0.484,-0.037 0.498,-0.008L0.498,0L0.376,0ZM0.246,-0.085C0.27,-0.085 0.292,-0.091 0.312,-0.103C0.333,-0.114 0.348,-0.129 0.359,-0.148L0.359,-0.248L0.295,-0.248C0.251,-0.248 0.218,-0.24 0.196,-0.225C0.174,-0.21 0.163,-0.188 0.163,-0.16C0.163,-0.137 0.17,-0.119 0.185,-0.106C0.2,-0.092 0.221,-0.085 0.246,-0.085Z" style="fill:rgb(45,46,68);fill-rule:nonzero;"/>
            </g>
            <g transform="matrix(32,0,0,32,365.258,360)">
                <path d="M0.524,-0.259C0.524,-0.177 0.506,-0.111 0.469,-0.063C0.433,-0.014 0.382,0.01 0.318,0.01C0.257,0.01 0.208,-0.013 0.174,-0.057L0.168,0L0.061,0L0.061,-0.75L0.179,-0.75L0.179,-0.478C0.213,-0.518 0.259,-0.538 0.317,-0.538C0.382,-0.538 0.432,-0.514 0.469,-0.466C0.506,-0.418 0.524,-0.352 0.524,-0.266L0.524,-0.259ZM0.406,-0.269C0.406,-0.326 0.396,-0.369 0.375,-0.398C0.355,-0.427 0.326,-0.441 0.288,-0.441C0.236,-0.441 0.2,-0.418 0.179,-0.374L0.179,-0.156C0.2,-0.11 0.237,-0.087 0.289,-0.087C0.326,-0.087 0.354,-0.101 0.375,-0.128C0.395,-0.156 0.405,-0.198 0.406,-0.254L0.406,-0.269Z" style="fill:rgb(45,46,68);fill-rule:nonzero;"/>
            </g>
            <g transform="matrix(32,0,0,32,383.273,360)">
                <rect x="0.068" y="-0.75" width="0.119" height="0.75" style="fill:rgb(45,46,68);fill-rule:nonzero;"/>
            </g>
            <g transform="matrix(32,0,0,32,391.445,360)">
                <path d="M0.293,0.01C0.218,0.01 0.157,-0.014 0.111,-0.061C0.064,-0.109 0.041,-0.172 0.041,-0.25L0.041,-0.265C0.041,-0.318 0.051,-0.365 0.071,-0.406C0.091,-0.448 0.12,-0.48 0.157,-0.503C0.194,-0.527 0.235,-0.538 0.28,-0.538C0.352,-0.538 0.407,-0.515 0.447,-0.469C0.486,-0.423 0.505,-0.358 0.505,-0.274L0.505,-0.227L0.16,-0.227C0.164,-0.183 0.178,-0.148 0.204,-0.123C0.229,-0.098 0.262,-0.085 0.3,-0.085C0.355,-0.085 0.399,-0.107 0.433,-0.151L0.497,-0.09C0.476,-0.058 0.448,-0.034 0.412,-0.016C0.377,0.001 0.337,0.01 0.293,0.01ZM0.279,-0.443C0.247,-0.443 0.22,-0.431 0.2,-0.409C0.18,-0.386 0.168,-0.354 0.162,-0.313L0.388,-0.313L0.388,-0.322C0.386,-0.362 0.375,-0.392 0.356,-0.412C0.338,-0.433 0.312,-0.443 0.279,-0.443Z" style="fill:rgb(45,46,68);fill-rule:nonzero;"/>
            </g>
        </g>
        <g transform="matrix(0.785714,0,0,0.3125,34.2857,115.536)">
            <g transform="matrix(1.14833,0,0,1,-101.244,-184)">
                <path d="M332,316.75C332,298.675 324.551,284 315.375,284L139.625,284C130.449,284 123,298.675 123,316.75L123,382.25C123,400.325 130.449,415 139.625,415L315.375,415C324.551,415 332,400.325 332,382.25L332,316.75Z" style="fill:rgb(39,194,120);"/>
            </g>
            <g transform="matrix(1.09091,0,0,1.87143,-152,-528.8)">
                <g transform="matrix(32,0,0,32,211.297,383)">
                    <path d="M0.153,-0.528L0.156,-0.47C0.194,-0.515 0.247,-0.538 0.313,-0.538C0.386,-0.538 0.437,-0.51 0.463,-0.453C0.481,-0.479 0.504,-0.499 0.532,-0.515C0.56,-0.53 0.593,-0.538 0.632,-0.538C0.748,-0.538 0.807,-0.477 0.809,-0.354L0.809,0L0.718,0L0.718,-0.349C0.718,-0.386 0.71,-0.415 0.692,-0.433C0.675,-0.452 0.646,-0.461 0.605,-0.461C0.572,-0.461 0.544,-0.451 0.522,-0.431C0.5,-0.411 0.487,-0.384 0.483,-0.351L0.483,0L0.393,0L0.393,-0.346C0.393,-0.423 0.355,-0.461 0.28,-0.461C0.221,-0.461 0.18,-0.436 0.158,-0.386L0.158,0L0.068,0L0.068,-0.528L0.153,-0.528Z" style="fill:white;fill-rule:nonzero;"/>
                </g>
                <g transform="matrix(32,0,0,32,239.344,383)">
                    <path d="M0.288,0.01C0.216,0.01 0.158,-0.014 0.113,-0.061C0.068,-0.108 0.045,-0.171 0.045,-0.25L0.045,-0.266C0.045,-0.319 0.055,-0.365 0.075,-0.406C0.095,-0.448 0.123,-0.48 0.159,-0.503C0.195,-0.526 0.234,-0.538 0.276,-0.538C0.345,-0.538 0.398,-0.515 0.437,-0.47C0.475,-0.425 0.494,-0.36 0.494,-0.276L0.494,-0.238L0.136,-0.238C0.137,-0.186 0.152,-0.144 0.181,-0.112C0.211,-0.08 0.248,-0.064 0.292,-0.064C0.324,-0.064 0.351,-0.07 0.374,-0.083C0.396,-0.097 0.415,-0.114 0.432,-0.135L0.487,-0.092C0.443,-0.024 0.376,0.01 0.288,0.01ZM0.276,-0.464C0.24,-0.464 0.209,-0.451 0.185,-0.424C0.16,-0.398 0.145,-0.36 0.139,-0.313L0.403,-0.313L0.403,-0.319C0.401,-0.365 0.388,-0.401 0.366,-0.426C0.344,-0.451 0.314,-0.464 0.276,-0.464Z" style="fill:white;fill-rule:nonzero;"/>
                </g>
                <g transform="matrix(32,0,0,32,256.297,383)">
                    <path d="M0.191,-0.656L0.191,-0.528L0.29,-0.528L0.29,-0.458L0.191,-0.458L0.191,-0.131C0.191,-0.11 0.195,-0.094 0.204,-0.083C0.213,-0.073 0.228,-0.067 0.249,-0.067C0.259,-0.067 0.274,-0.069 0.292,-0.073L0.292,0C0.268,0.007 0.245,0.01 0.223,0.01C0.182,0.01 0.152,-0.002 0.131,-0.027C0.111,-0.051 0.101,-0.086 0.101,-0.131L0.101,-0.458L0.004,-0.458L0.004,-0.528L0.101,-0.528L0.101,-0.656L0.191,-0.656Z" style="fill:white;fill-rule:nonzero;"/>
                </g>
                <g transform="matrix(32,0,0,32,266.75,383)">
                    <path d="M0.159,-0.464C0.199,-0.514 0.251,-0.538 0.315,-0.538C0.427,-0.538 0.483,-0.475 0.484,-0.349L0.484,0L0.394,0L0.394,-0.35C0.393,-0.388 0.385,-0.416 0.367,-0.434C0.35,-0.452 0.324,-0.461 0.288,-0.461C0.258,-0.461 0.233,-0.454 0.21,-0.438C0.188,-0.422 0.171,-0.402 0.159,-0.376L0.159,0L0.068,0L0.068,-0.75L0.159,-0.75L0.159,-0.464Z" style="fill:white;fill-rule:nonzero;"/>
                </g>
                <g transform="matrix(32,0,0,32,284.375,383)">
                    <path d="M0.044,-0.269C0.044,-0.321 0.055,-0.367 0.075,-0.409C0.095,-0.45 0.124,-0.482 0.16,-0.504C0.196,-0.527 0.238,-0.538 0.284,-0.538C0.356,-0.538 0.414,-0.513 0.459,-0.463C0.503,-0.414 0.525,-0.347 0.525,-0.265L0.525,-0.258C0.525,-0.207 0.516,-0.161 0.496,-0.12C0.476,-0.079 0.448,-0.047 0.411,-0.024C0.375,-0.002 0.333,0.01 0.285,0.01C0.214,0.01 0.156,-0.015 0.111,-0.065C0.067,-0.115 0.044,-0.181 0.044,-0.263L0.044,-0.269ZM0.135,-0.258C0.135,-0.2 0.149,-0.153 0.176,-0.117C0.203,-0.082 0.24,-0.064 0.285,-0.064C0.331,-0.064 0.368,-0.082 0.395,-0.118C0.422,-0.154 0.435,-0.204 0.435,-0.269C0.435,-0.327 0.421,-0.374 0.394,-0.41C0.366,-0.446 0.33,-0.464 0.284,-0.464C0.24,-0.464 0.204,-0.446 0.176,-0.411C0.149,-0.375 0.135,-0.324 0.135,-0.258Z" style="fill:white;fill-rule:nonzero;"/>
                </g>
                <g transform="matrix(32,0,0,32,302.625,383)">
                    <path d="M0.046,-0.269C0.046,-0.35 0.066,-0.415 0.104,-0.464C0.142,-0.513 0.193,-0.538 0.255,-0.538C0.317,-0.538 0.366,-0.517 0.402,-0.475L0.402,-0.75L0.492,-0.75L0.492,0L0.409,0L0.405,-0.057C0.369,-0.012 0.318,0.01 0.254,0.01C0.193,0.01 0.143,-0.015 0.104,-0.065C0.066,-0.116 0.046,-0.181 0.046,-0.262L0.046,-0.269ZM0.137,-0.258C0.137,-0.198 0.149,-0.152 0.174,-0.118C0.199,-0.084 0.233,-0.067 0.276,-0.067C0.334,-0.067 0.375,-0.093 0.402,-0.144L0.402,-0.387C0.375,-0.437 0.333,-0.461 0.277,-0.461C0.233,-0.461 0.199,-0.444 0.174,-0.41C0.149,-0.376 0.137,-0.325 0.137,-0.258Z" style="fill:white;fill-rule:nonzero;"/>
                </g>
                <g transform="matrix(32,0,0,32,320.672,383)">
                    <path d="M0.356,0L0.265,0L0.265,-0.602L0.083,-0.535L0.083,-0.617L0.342,-0.714L0.356,-0.714L0.356,0Z" style="fill:white;fill-rule:nonzero;"/>
                </g>
                <g transform="matrix(32,0,0,32,338.641,383)">
                    <path d="M0.065,-0.289C0.065,-0.362 0.075,-0.433 0.094,-0.5C0.114,-0.568 0.144,-0.63 0.183,-0.685C0.222,-0.74 0.262,-0.779 0.304,-0.802L0.323,-0.743C0.275,-0.706 0.236,-0.651 0.206,-0.576C0.175,-0.501 0.159,-0.417 0.156,-0.324L0.155,-0.283C0.155,-0.157 0.178,-0.048 0.224,0.044C0.252,0.1 0.285,0.143 0.323,0.174L0.304,0.229C0.261,0.205 0.22,0.165 0.18,0.108C0.103,-0.002 0.065,-0.135 0.065,-0.289Z" style="fill:white;fill-rule:nonzero;"/>
                </g>
                <g transform="matrix(32,0,0,32,349.578,383)">
                    <path d="M0.277,-0.284C0.277,-0.211 0.267,-0.142 0.248,-0.075C0.229,-0.008 0.2,0.053 0.161,0.109C0.122,0.166 0.081,0.206 0.038,0.229L0.019,0.174C0.069,0.136 0.109,0.076 0.139,-0.005C0.17,-0.086 0.185,-0.175 0.186,-0.274L0.186,-0.29C0.186,-0.358 0.179,-0.421 0.165,-0.48C0.15,-0.539 0.13,-0.592 0.105,-0.638C0.079,-0.685 0.05,-0.721 0.019,-0.747L0.038,-0.802C0.081,-0.778 0.122,-0.739 0.16,-0.683C0.199,-0.627 0.228,-0.566 0.248,-0.499C0.267,-0.432 0.277,-0.36 0.277,-0.284Z" style="fill:white;fill-rule:nonzero;"/>
                </g>
            </g>
        </g>
        <g transform="matrix(0.785714,0,0,0.3125,34.2857,197.411)">
            <g transform="matrix(1.14833,0,0,1,-101.244,-184)">
                <path d="M332,316.75C332,298.675 324.551,284 315.375,284L139.625,284C130.449,284 123,298.675 123,316.75L123,382.25C123,400.325 130.449,415 139.625,415L315.375,415C324.551,415 332,400.325 332,382.25L332,316.75Z" style="fill:rgb(39,194,120);"/>
            </g>
            <g transform="matrix(1.09091,0,0,1.87143,-152,-528.8)">
                <g transform="matrix(32,0,0,32,208.875,383)">
                    <path d="M0.153,-0.528L0.156,-0.47C0.194,-0.515 0.247,-0.538 0.313,-0.538C0.386,-0.538 0.437,-0.51 0.463,-0.453C0.481,-0.479 0.504,-0.499 0.532,-0.515C0.56,-0.53 0.593,-0.538 0.632,-0.538C0.748,-0.538 0.807,-0.477 0.809,-0.354L0.809,0L0.718,0L0.718,-0.349C0.718,-0.386 0.71,-0.415 0.692,-0.433C0.675,-0.452 0.646,-0.461 0.605,-0.461C0.572,-0.461 0.544,-0.451 0.522,-0.431C0.5,-0.411 0.487,-0.384 0.483,-0.351L0.483,0L0.393,0L0.393,-0.346C0.393,-0.423 0.355,-0.461 0.28,-0.461C0.221,-0.461 0.18,-0.436 0.158,-0.386L0.158,0L0.068,0L0.068,-0.528L0.153,-0.528Z" style="fill:white;fill-rule:nonzero;"/>
                </g>
                <g transform="matrix(32,0,0,32,236.922,383)">
                    <path d="M0.288,0.01C0.216,0.01 0.158,-0.014 0.113,-0.061C0.068,-0.108 0.045,-0.171 0.045,-0.25L0.045,-0.266C0.045,-0.319 0.055,-0.365 0.075,-0.406C0.095,-0.448 0.123,-0.48 0.159,-0.503C0.195,-0.526 0.234,-0.538 0.276,-0.538C0.345,-0.538 0.398,-0.515 0.437,-0.47C0.475,-0.425 0.494,-0.36 0.494,-0.276L0.494,-0.238L0.136,-0.238C0.137,-0.186 0.152,-0.144 0.181,-0.112C0.211,-0.08 0.248,-0.064 0.292,-0.064C0.324,-0.064 0.351,-0.07 0.374,-0.083C0.396,-0.097 0.415,-0.114 0.432,-0.135L0.487,-0.092C0.443,-0.024 0.376,0.01 0.288,0.01ZM0.276,-0.464C0.24,-0.464 0.209,-0.451 0.185,-0.424C0.16,-0.398 0.145,-0.36 0.139,-0.313L0.403,-0.313L0.403,-0.319C0.401,-0.365 0.388,-0.401 0.366,-0.426C0.344,-0.451 0.314,-0.464 0.276,-0.464Z" style="fill:white;fill-rule:nonzero;"/>
                </g>
                <g transform="matrix(32,0,0,32,253.875,383)">
                    <path d="M0.191,-0.656L0.191,-0.528L0.29,-0.528L0.29,-0.458L0.191,-0.458L0.191,-0.131C0.191,-0.11 0.195,-0.094 0.204,-0.083C0.213,-0.073 0.228,-0.067 0.249,-0.067C0.259,-0.067 0.274,-0.069 0.292,-0.073L0.292,0C0.268,0.007 0.245,0.01 0.223,0.01C0.182,0.01 0.152,-0.002 0.131,-0.027C0.111,-0.051 0.101,-0.086 0.101,-0.131L0.101,-0.458L0.004,-0.458L0.004,-0.528L0.101,-0.528L0.101,-0.656L0.191,-0.656Z" style="fill:white;fill-rule:nonzero;"/>
                </g>
                <g transform="matrix(32,0,0,32,264.328,383)">
                    <path d="M0.159,-0.464C0.199,-0.514 0.251,-0.538 0.315,-0.538C0.427,-0.538 0.483,-0.475 0.484,-0.349L0.484,0L0.394,0L0.394,-0.35C0.393,-0.388 0.385,-0.416 0.367,-0.434C0.35,-0.452 0.324,-0.461 0.288,-0.461C0.258,-0.461 0.233,-0.454 0.21,-0.438C0.188,-0.422 0.171,-0.402 0.159,-0.376L0.159,0L0.068,0L0.068,-0.75L0.159,-0.75L0.159,-0.464Z" style="fill:white;fill-rule:nonzero;"/>
                </g>
                <g transform="matrix(32,0,0,32,281.953,383)">
                    <path d="M0.044,-0.269C0.044,-0.321 0.055,-0.367 0.075,-0.409C0.095,-0.45 0.124,-0.482 0.16,-0.504C0.196,-0.527 0.238,-0.538 0.284,-0.538C0.356,-0.538 0.414,-0.513 0.459,-0.463C0.503,-0.414 0.525,-0.347 0.525,-0.265L0.525,-0.258C0.525,-0.207 0.516,-0.161 0.496,-0.12C0.476,-0.079 0.448,-0.047 0.411,-0.024C0.375,-0.002 0.333,0.01 0.285,0.01C0.214,0.01 0.156,-0.015 0.111,-0.065C0.067,-0.115 0.044,-0.181 0.044,-0.263L0.044,-0.269ZM0.135,-0.258C0.135,-0.2 0.149,-0.153 0.176,-0.117C0.203,-0.082 0.24,-0.064 0.285,-0.064C0.331,-0.064 0.368,-0.082 0.395,-0.118C0.422,-0.154 0.435,-0.204 0.435,-0.269C0.435,-0.327 0.421,-0.374 0.394,-0.41C0.366,-0.446 0.33,-0.464 0.284,-0.464C0.24,-0.464 0.204,-0.446 0.176,-0.411C0.149,-0.375 0.135,-0.324 0.135,-0.258Z" style="fill:white;fill-rule:nonzero;"/>
                </g>
                <g transform="matrix(32,0,0,32,300.203,383)">
                    <path d="M0.046,-0.269C0.046,-0.35 0.066,-0.415 0.104,-0.464C0.142,-0.513 0.193,-0.538 0.255,-0.538C0.317,-0.538 0.366,-0.517 0.402,-0.475L0.402,-0.75L0.492,-0.75L0.492,0L0.409,0L0.405,-0.057C0.369,-0.012 0.318,0.01 0.254,0.01C0.193,0.01 0.143,-0.015 0.104,-0.065C0.066,-0.116 0.046,-0.181 0.046,-0.262L0.046,-0.269ZM0.137,-0.258C0.137,-0.198 0.149,-0.152 0.174,-0.118C0.199,-0.084 0.233,-0.067 0.276,-0.067C0.334,-0.067 0.375,-0.093 0.402,-0.144L0.402,-0.387C0.375,-0.437 0.333,-0.461 0.277,-0.461C0.233,-0.461 0.199,-0.444 0.174,-0.41C0.149,-0.376 0.137,-0.325 0.137,-0.258Z" style="fill:white;fill-rule:nonzero;"/>
                </g>
                <g transform="matrix(32,0,0,32,318.25,383)">
                    <path d="M0.629,0L0.535,0L0.177,-0.548L0.177,0L0.083,0L0.083,-0.711L0.177,-0.711L0.536,-0.161L0.536,-0.711L0.629,-0.711L0.629,0Z" style="fill:white;fill-rule:nonzero;"/>
                </g>
                <g transform="matrix(32,0,0,32,341.062,383)">
                    <path d="M0.065,-0.289C0.065,-0.362 0.075,-0.433 0.094,-0.5C0.114,-0.568 0.144,-0.63 0.183,-0.685C0.222,-0.74 0.262,-0.779 0.304,-0.802L0.323,-0.743C0.275,-0.706 0.236,-0.651 0.206,-0.576C0.175,-0.501 0.159,-0.417 0.156,-0.324L0.155,-0.283C0.155,-0.157 0.178,-0.048 0.224,0.044C0.252,0.1 0.285,0.143 0.323,0.174L0.304,0.229C0.261,0.205 0.22,0.165 0.18,0.108C0.103,-0.002 0.065,-0.135 0.065,-0.289Z" style="fill:white;fill-rule:nonzero;"/>
                </g>
                <g transform="matrix(32,0,0,32,352,383)">
                    <path d="M0.277,-0.284C0.277,-0.211 0.267,-0.142 0.248,-0.075C0.229,-0.008 0.2,0.053 0.161,0.109C0.122,0.166 0.081,0.206 0.038,0.229L0.019,0.174C0.069,0.136 0.109,0.076 0.139,-0.005C0.17,-0.086 0.185,-0.175 0.186,-0.274L0.186,-0.29C0.186,-0.358 0.179,-0.421 0.165,-0.48C0.15,-0.539 0.13,-0.592 0.105,-0.638C0.079,-0.685 0.05,-0.721 0.019,-0.747L0.038,-0.802C0.081,-0.778 0.122,-0.739 0.16,-0.683C0.199,-0.627 0.228,-0.566 0.248,-0.499C0.267,-0.432 0.277,-0.36 0.277,-0.284Z" style="fill:white;fill-rule:nonzero;"/>
                </g>
            </g>
        </g>
    </g>
    <g transform="matrix(1.16667,0,0,1.70992,435.333,-130.992)">
        <g transform="matrix(1.14833,0,0,1.875,-101.244,-432.5)">
            <path d="M332,296.476C332,289.59 318.621,284 302.143,284L152.857,284C136.379,284 123,289.59 123,296.476L123,402.524C123,409.41 136.379,415 152.857,415L302.143,415C318.621,415 332,409.41 332,402.524L332,296.476Z" style="fill:white;stroke:rgb(39,194,120);stroke-width:1.63px;"/>
        </g>
        <g transform="matrix(0.857143,0,0,0.584821,-110.857,43.8571)">
            <g transform="matrix(32,0,0,32,302.594,383)">
                <path d="M0.135,-0.125C0.157,-0.125 0.174,-0.119 0.186,-0.106C0.198,-0.094 0.204,-0.078 0.204,-0.059C0.204,-0.041 0.198,-0.025 0.186,-0.013C0.174,-0.001 0.157,0.005 0.135,0.005C0.114,0.005 0.097,-0.001 0.084,-0.013C0.072,-0.025 0.066,-0.04 0.066,-0.059C0.066,-0.078 0.072,-0.094 0.084,-0.106C0.096,-0.119 0.113,-0.125 0.135,-0.125Z" style="fill:rgb(45,46,68);fill-rule:nonzero;"/>
            </g>
            <g transform="matrix(32,0,0,32,311.531,383)">
                <path d="M0.135,-0.125C0.157,-0.125 0.174,-0.119 0.186,-0.106C0.198,-0.094 0.204,-0.078 0.204,-0.059C0.204,-0.041 0.198,-0.025 0.186,-0.013C0.174,-0.001 0.157,0.005 0.135,0.005C0.114,0.005 0.097,-0.001 0.084,-0.013C0.072,-0.025 0.066,-0.04 0.066,-0.059C0.066,-0.078 0.072,-0.094 0.084,-0.106C0.096,-0.119 0.113,-0.125 0.135,-0.125Z" style="fill:rgb(45,46,68);fill-rule:nonzero;"/>
            </g>
            <g transform="matrix(32,0,0,32,320.469,383)">
                <path d="M0.135,-0.125C0.157,-0.125 0.174,-0.119 0.186,-0.106C0.198,-0.094 0.204,-0.078 0.204,-0.059C0.204,-0.041 0.198,-0.025 0.186,-0.013C0.174,-0.001 0.157,0.005 0.135,0.005C0.114,0.005 0.097,-0.001 0.084,-0.013C0.072,-0.025 0.066,-0.04 0.066,-0.059C0.066,-0.078 0.072,-0.094 0.084,-0.106C0.096,-0.119 0.113,-0.125 0.135,-0.125Z" style="fill:rgb(45,46,68);fill-rule:nonzero;"/>
            </g>
        </g>
        <g transform="matrix(0.857143,0,0,0.584821,-110.857,-82.4643)">
            <g transform="matrix(32,0,0,32,223.383,360)">
                <path d="M0.232,-0.711L0.438,-0.166L0.642,-0.711L0.802,-0.711L0.802,0L0.679,0L0.679,-0.234L0.691,-0.548L0.481,0L0.393,0L0.183,-0.547L0.195,-0.234L0.195,0L0.072,0L0.072,-0.711L0.232,-0.711Z" style="fill:rgb(45,46,68);fill-rule:nonzero;"/>
            </g>
            <g transform="matrix(32,0,0,32,251.398,360)">
                <path d="M0.246,-0.17L0.353,-0.528L0.479,-0.528L0.27,0.08C0.237,0.169 0.183,0.213 0.105,0.213C0.088,0.213 0.069,0.21 0.048,0.205L0.048,0.113L0.071,0.114C0.101,0.114 0.123,0.109 0.138,0.098C0.154,0.087 0.166,0.069 0.174,0.043L0.191,-0.002L0.006,-0.528L0.134,-0.528L0.246,-0.17Z" style="fill:rgb(45,46,68);fill-rule:nonzero;"/>
            </g>
            <g transform="matrix(32,0,0,32,266.977,360)">
                <path d="M0.615,-0.231C0.608,-0.156 0.58,-0.096 0.531,-0.054C0.482,-0.011 0.417,0.01 0.336,0.01C0.279,0.01 0.229,-0.004 0.186,-0.031C0.143,-0.057 0.11,-0.096 0.086,-0.145C0.063,-0.194 0.051,-0.252 0.05,-0.317L0.05,-0.384C0.05,-0.451 0.062,-0.51 0.085,-0.561C0.109,-0.612 0.143,-0.652 0.188,-0.679C0.232,-0.707 0.284,-0.721 0.342,-0.721C0.42,-0.721 0.483,-0.699 0.531,-0.657C0.579,-0.614 0.607,-0.554 0.615,-0.476L0.492,-0.476C0.486,-0.527 0.471,-0.564 0.447,-0.587C0.423,-0.609 0.388,-0.621 0.342,-0.621C0.288,-0.621 0.247,-0.601 0.218,-0.562C0.189,-0.523 0.174,-0.465 0.174,-0.389L0.174,-0.326C0.174,-0.249 0.188,-0.191 0.215,-0.15C0.243,-0.11 0.283,-0.09 0.336,-0.09C0.384,-0.09 0.421,-0.101 0.445,-0.123C0.47,-0.144 0.485,-0.181 0.492,-0.231L0.615,-0.231Z" style="fill:rgb(45,46,68);fill-rule:nonzero;"/>
            </g>
            <g transform="matrix(32,0,0,32,287.867,360)">
                <rect x="0.068" y="-0.75" width="0.119" height="0.75" style="fill:rgb(45,46,68);fill-rule:nonzero;"/>
            </g>
            <g transform="matrix(32,0,0,32,296.039,360)">
                <path d="M0.039,-0.269C0.039,-0.321 0.049,-0.367 0.069,-0.409C0.09,-0.45 0.119,-0.482 0.156,-0.505C0.193,-0.527 0.236,-0.538 0.284,-0.538C0.355,-0.538 0.413,-0.515 0.457,-0.469C0.502,-0.423 0.526,-0.362 0.529,-0.287L0.53,-0.259C0.53,-0.207 0.52,-0.16 0.5,-0.119C0.48,-0.078 0.451,-0.046 0.414,-0.024C0.377,-0.001 0.333,0.01 0.285,0.01C0.21,0.01 0.15,-0.015 0.106,-0.065C0.061,-0.114 0.039,-0.181 0.039,-0.263L0.039,-0.269ZM0.157,-0.259C0.157,-0.204 0.168,-0.162 0.191,-0.131C0.213,-0.1 0.245,-0.085 0.285,-0.085C0.325,-0.085 0.356,-0.101 0.378,-0.132C0.4,-0.163 0.412,-0.209 0.412,-0.269C0.412,-0.322 0.4,-0.365 0.377,-0.396C0.354,-0.427 0.323,-0.443 0.284,-0.443C0.245,-0.443 0.214,-0.427 0.191,-0.397C0.169,-0.366 0.157,-0.32 0.157,-0.259Z" style="fill:rgb(45,46,68);fill-rule:nonzero;"/>
            </g>
            <g transform="matrix(32,0,0,32,314.258,360)">
                <path d="M0.357,-0.144C0.357,-0.165 0.348,-0.181 0.331,-0.192C0.313,-0.203 0.285,-0.213 0.244,-0.221C0.204,-0.23 0.17,-0.24 0.143,-0.253C0.084,-0.282 0.054,-0.324 0.054,-0.378C0.054,-0.424 0.073,-0.462 0.112,-0.492C0.15,-0.523 0.199,-0.538 0.258,-0.538C0.321,-0.538 0.372,-0.522 0.411,-0.491C0.45,-0.46 0.47,-0.419 0.47,-0.37L0.351,-0.37C0.351,-0.392 0.343,-0.411 0.326,-0.427C0.309,-0.442 0.286,-0.449 0.258,-0.449C0.232,-0.449 0.211,-0.443 0.195,-0.431C0.178,-0.419 0.17,-0.403 0.17,-0.383C0.17,-0.365 0.178,-0.35 0.193,-0.34C0.208,-0.33 0.239,-0.32 0.286,-0.31C0.332,-0.3 0.369,-0.287 0.395,-0.273C0.422,-0.259 0.441,-0.242 0.454,-0.222C0.467,-0.202 0.474,-0.178 0.474,-0.15C0.474,-0.102 0.454,-0.064 0.415,-0.034C0.375,-0.005 0.324,0.01 0.26,0.01C0.216,0.01 0.178,0.002 0.144,-0.014C0.11,-0.029 0.084,-0.051 0.065,-0.078C0.046,-0.105 0.037,-0.135 0.037,-0.167L0.152,-0.167C0.153,-0.139 0.164,-0.117 0.184,-0.102C0.203,-0.087 0.229,-0.079 0.261,-0.079C0.292,-0.079 0.316,-0.085 0.333,-0.097C0.349,-0.109 0.357,-0.124 0.357,-0.144Z" style="fill:rgb(45,46,68);fill-rule:nonzero;"/>
            </g>
            <g transform="matrix(32,0,0,32,330.773,360)">
                <path d="M0.293,0.01C0.218,0.01 0.157,-0.014 0.111,-0.061C0.064,-0.109 0.041,-0.172 0.041,-0.25L0.041,-0.265C0.041,-0.318 0.051,-0.365 0.071,-0.406C0.091,-0.448 0.12,-0.48 0.157,-0.503C0.194,-0.527 0.235,-0.538 0.28,-0.538C0.352,-0.538 0.407,-0.515 0.447,-0.469C0.486,-0.423 0.505,-0.358 0.505,-0.274L0.505,-0.227L0.16,-0.227C0.164,-0.183 0.178,-0.148 0.204,-0.123C0.229,-0.098 0.262,-0.085 0.3,-0.085C0.355,-0.085 0.399,-0.107 0.433,-0.151L0.497,-0.09C0.476,-0.058 0.448,-0.034 0.412,-0.016C0.377,0.001 0.337,0.01 0.293,0.01ZM0.279,-0.443C0.247,-0.443 0.22,-0.431 0.2,-0.409C0.18,-0.386 0.168,-0.354 0.162,-0.313L0.388,-0.313L0.388,-0.322C0.386,-0.362 0.375,-0.392 0.356,-0.412C0.338,-0.433 0.312,-0.443 0.279,-0.443Z" style="fill:rgb(45,46,68);fill-rule:nonzero;"/>
            </g>
            <g transform="matrix(32,0,0,32,347.945,360)">
                <path d="M0.376,0C0.371,-0.01 0.367,-0.027 0.363,-0.049C0.325,-0.01 0.279,0.01 0.224,0.01C0.171,0.01 0.128,-0.005 0.094,-0.036C0.061,-0.066 0.044,-0.103 0.044,-0.148C0.044,-0.204 0.065,-0.247 0.107,-0.278C0.149,-0.308 0.208,-0.323 0.286,-0.323L0.359,-0.323L0.359,-0.357C0.359,-0.385 0.351,-0.407 0.336,-0.423C0.321,-0.44 0.297,-0.448 0.266,-0.448C0.239,-0.448 0.217,-0.441 0.2,-0.427C0.182,-0.414 0.174,-0.397 0.174,-0.376L0.055,-0.376C0.055,-0.405 0.065,-0.432 0.084,-0.457C0.103,-0.483 0.129,-0.502 0.162,-0.517C0.195,-0.531 0.232,-0.538 0.273,-0.538C0.335,-0.538 0.384,-0.523 0.421,-0.491C0.458,-0.46 0.477,-0.417 0.478,-0.36L0.478,-0.122C0.478,-0.075 0.484,-0.037 0.498,-0.008L0.498,0L0.376,0ZM0.246,-0.085C0.27,-0.085 0.292,-0.091 0.312,-0.103C0.333,-0.114 0.348,-0.129 0.359,-0.148L0.359,-0.248L0.295,-0.248C0.251,-0.248 0.218,-0.24 0.196,-0.225C0.174,-0.21 0.163,-0.188 0.163,-0.16C0.163,-0.137 0.17,-0.119 0.185,-0.106C0.2,-0.092 0.221,-0.085 0.246,-0.085Z" style="fill:rgb(45,46,68);fill-rule:nonzero;"/>
            </g>
            <g transform="matrix(32,0,0,32,365.258,360)">
                <path d="M0.524,-0.259C0.524,-0.177 0.506,-0.111 0.469,-0.063C0.433,-0.014 0.382,0.01 0.318,0.01C0.257,0.01 0.208,-0.013 0.174,-0.057L0.168,0L0.061,0L0.061,-0.75L0.179,-0.75L0.179,-0.478C0.213,-0.518 0.259,-0.538 0.317,-0.538C0.382,-0.538 0.432,-0.514 0.469,-0.466C0.506,-0.418 0.524,-0.352 0.524,-0.266L0.524,-0.259ZM0.406,-0.269C0.406,-0.326 0.396,-0.369 0.375,-0.398C0.355,-0.427 0.326,-0.441 0.288,-0.441C0.236,-0.441 0.2,-0.418 0.179,-0.374L0.179,-0.156C0.2,-0.11 0.237,-0.087 0.289,-0.087C0.326,-0.087 0.354,-0.101 0.375,-0.128C0.395,-0.156 0.405,-0.198 0.406,-0.254L0.406,-0.269Z" style="fill:rgb(45,46,68);fill-rule:nonzero;"/>
            </g>
            <g transform="matrix(32,0,0,32,383.273,360)">
                <rect x="0.068" y="-0.75" width="0.119" height="0.75" style="fill:rgb(45,46,68);fill-rule:nonzero;"/>
            </g>
            <g transform="matrix(32,0,0,32,391.445,360)">
                <path d="M0.293,0.01C0.218,0.01 0.157,-0.014 0.111,-0.061C0.064,-0.109 0.041,-0.172 0.041,-0.25L0.041,-0.265C0.041,-0.318 0.051,-0.365 0.071,-0.406C0.091,-0.448 0.12,-0.48 0.157,-0.503C0.194,-0.527 0.235,-0.538 0.28,-0.538C0.352,-0.538 0.407,-0.515 0.447,-0.469C0.486,-0.423 0.505,-0.358 0.505,-0.274L0.505,-0.227L0.16,-0.227C0.164,-0.183 0.178,-0.148 0.204,-0.123C0.229,-0.098 0.262,-0.085 0.3,-0.085C0.355,-0.085 0.399,-0.107 0.433,-0.151L0.497,-0.09C0.476,-0.058 0.448,-0.034 0.412,-0.016C0.377,0.001 0.337,0.01 0.293,0.01ZM0.279,-0.443C0.247,-0.443 0.22,-0.431 0.2,-0.409C0.18,-0.386 0.168,-0.354 0.162,-0.313L0.388,-0.313L0.388,-0.322C0.386,-0.362 0.375,-0.392 0.356,-0.412C0.338,-0.433 0.312,-0.443 0.279,-0.443Z" style="fill:rgb(45,46,68);fill-rule:nonzero;"/>
            </g>
        </g>
        <g transform="matrix(0.785714,0,0,0.3125,34.2857,115.536)">
            <g transform="matrix(1.14833,0,0,1,-101.244,-184)">
                <path d="M332,316.75C332,298.675 324.551,284 315.375,284L139.625,284C130.449,284 123,298.675 123,316.75L123,382.25C123,400.325 130.449,415 139.625,415L315.375,415C324.551,415 332,400.325 332,382.25L332,316.75Z" style="fill:rgb(39,194,120);"/>
            </g>
            <g transform="matrix(1.09091,0,0,1.87143,-152,-528.8)">
                <g transform="matrix(32,0,0,32,224.531,383)">
                    <path d="M0.099,0L0.099,-0.458L0.015,-0.458L0.015,-0.528L0.099,-0.528L0.099,-0.573C0.099,-0.632 0.115,-0.678 0.149,-0.711C0.183,-0.744 0.23,-0.76 0.292,-0.76C0.328,-0.76 0.375,-0.75 0.43,-0.73L0.415,-0.654C0.374,-0.671 0.336,-0.679 0.299,-0.679C0.26,-0.679 0.232,-0.67 0.215,-0.653C0.198,-0.635 0.189,-0.609 0.189,-0.574L0.189,-0.528L0.297,-0.528L0.297,-0.458L0.189,-0.458L0.189,0L0.099,0ZM0.475,0L0.384,0L0.384,-0.528L0.475,-0.528L0.475,0Z" style="fill:white;fill-rule:nonzero;"/>
                </g>
                <g transform="matrix(32,0,0,32,242.25,383)">
                    <path d="M0.154,-0.528L0.157,-0.462C0.197,-0.513 0.25,-0.538 0.315,-0.538C0.427,-0.538 0.483,-0.475 0.484,-0.349L0.484,0L0.394,0L0.394,-0.35C0.393,-0.388 0.385,-0.416 0.367,-0.434C0.35,-0.452 0.324,-0.461 0.288,-0.461C0.258,-0.461 0.233,-0.454 0.21,-0.438C0.188,-0.422 0.171,-0.402 0.159,-0.376L0.159,0L0.068,0L0.068,-0.528L0.154,-0.528Z" style="fill:white;fill-rule:nonzero;"/>
                </g>
                <g transform="matrix(32,0,0,32,259.906,383)">
                    <path d="M0.395,0C0.389,-0.01 0.385,-0.029 0.382,-0.056C0.34,-0.012 0.29,0.01 0.231,0.01C0.179,0.01 0.137,-0.005 0.103,-0.034C0.07,-0.064 0.053,-0.101 0.053,-0.146C0.053,-0.201 0.074,-0.244 0.116,-0.275C0.158,-0.305 0.217,-0.32 0.292,-0.32L0.38,-0.32L0.38,-0.362C0.38,-0.393 0.371,-0.419 0.352,-0.437C0.333,-0.456 0.305,-0.465 0.269,-0.465C0.236,-0.465 0.209,-0.457 0.188,-0.441C0.166,-0.425 0.155,-0.405 0.155,-0.382L0.064,-0.382C0.064,-0.408 0.073,-0.434 0.092,-0.458C0.111,-0.483 0.136,-0.502 0.168,-0.517C0.2,-0.531 0.236,-0.538 0.274,-0.538C0.335,-0.538 0.382,-0.523 0.417,-0.492C0.451,-0.462 0.469,-0.42 0.471,-0.367L0.471,-0.124C0.471,-0.075 0.477,-0.036 0.489,-0.008L0.489,0L0.395,0ZM0.245,-0.069C0.273,-0.069 0.3,-0.076 0.325,-0.091C0.351,-0.105 0.369,-0.125 0.38,-0.148L0.38,-0.256L0.31,-0.256C0.199,-0.256 0.144,-0.224 0.144,-0.159C0.144,-0.131 0.153,-0.109 0.172,-0.093C0.191,-0.077 0.215,-0.069 0.245,-0.069Z" style="fill:white;fill-rule:nonzero;"/>
                </g>
                <g transform="matrix(32,0,0,32,277.312,383)">
                    <rect x="0.076" y="-0.75" width="0.09" height="0.75" style="fill:white;fill-rule:nonzero;"/>
                </g>
                <g transform="matrix(32,0,0,32,285.078,383)">
                    <path d="M0.167,0L0.076,0L0.076,-0.528L0.167,-0.528L0.167,0ZM0.069,-0.668C0.069,-0.683 0.073,-0.695 0.082,-0.706C0.091,-0.716 0.104,-0.721 0.122,-0.721C0.14,-0.721 0.153,-0.716 0.162,-0.706C0.171,-0.695 0.176,-0.683 0.176,-0.668C0.176,-0.654 0.171,-0.642 0.162,-0.632C0.153,-0.622 0.14,-0.617 0.122,-0.617C0.104,-0.617 0.091,-0.622 0.082,-0.632C0.073,-0.642 0.069,-0.654 0.069,-0.668Z" style="fill:white;fill-rule:nonzero;"/>
                </g>
                <g transform="matrix(32,0,0,32,292.844,383)">
                    <path d="M0.153,-0.074L0.462,-0.074L0.462,0L0.043,0L0.043,-0.066L0.334,-0.454L0.047,-0.454L0.047,-0.528L0.448,-0.528L0.448,-0.464L0.153,-0.074Z" style="fill:white;fill-rule:nonzero;"/>
                </g>
                <g transform="matrix(32,0,0,32,308.453,383)">
                    <path d="M0.288,0.01C0.216,0.01 0.158,-0.014 0.113,-0.061C0.068,-0.108 0.045,-0.171 0.045,-0.25L0.045,-0.266C0.045,-0.319 0.055,-0.365 0.075,-0.406C0.095,-0.448 0.123,-0.48 0.159,-0.503C0.195,-0.526 0.234,-0.538 0.276,-0.538C0.345,-0.538 0.398,-0.515 0.437,-0.47C0.475,-0.425 0.494,-0.36 0.494,-0.276L0.494,-0.238L0.136,-0.238C0.137,-0.186 0.152,-0.144 0.181,-0.112C0.211,-0.08 0.248,-0.064 0.292,-0.064C0.324,-0.064 0.351,-0.07 0.374,-0.083C0.396,-0.097 0.415,-0.114 0.432,-0.135L0.487,-0.092C0.443,-0.024 0.376,0.01 0.288,0.01ZM0.276,-0.464C0.24,-0.464 0.209,-0.451 0.185,-0.424C0.16,-0.398 0.145,-0.36 0.139,-0.313L0.403,-0.313L0.403,-0.319C0.401,-0.365 0.388,-0.401 0.366,-0.426C0.344,-0.451 0.314,-0.464 0.276,-0.464Z" style="fill:white;fill-rule:nonzero;"/>
                </g>
                <g transform="matrix(32,0,0,32,325.406,383)">
                    <path d="M0.065,-0.289C0.065,-0.362 0.075,-0.433 0.094,-0.5C0.114,-0.568 0.144,-0.63 0.183,-0.685C0.222,-0.74 0.262,-0.779 0.304,-0.802L0.323,-0.743C0.275,-0.706 0.236,-0.651 0.206,-0.576C0.175,-0.501 0.159,-0.417 0.156,-0.324L0.155,-0.283C0.155,-0.157 0.178,-0.048 0.224,0.044C0.252,0.1 0.285,0.143 0.323,0.174L0.304,0.229C0.261,0.205 0.22,0.165 0.18,0.108C0.103,-0.002 0.065,-0.135 0.065,-0.289Z" style="fill:white;fill-rule:nonzero;"/>
                </g>
                <g transform="matrix(32,0,0,32,336.344,383)">
                    <path d="M0.277,-0.284C0.277,-0.211 0.267,-0.142 0.248,-0.075C0.229,-0.008 0.2,0.053 0.161,0.109C0.122,0.166 0.081,0.206 0.038,0.229L0.019,0.174C0.069,0.136 0.109,0.076 0.139,-0.005C0.17,-0.086 0.185,-0.175 0.186,-0.274L0.186,-0.29C0.186,-0.358 0.179,-0.421 0.165,-0.48C0.15,-0.539 0.13,-0.592 0.105,-0.638C0.079,-0.685 0.05,-0.721 0.019,-0.747L0.038,-0.802C0.081,-0.778 0.122,-0.739 0.16,-0.683C0.199,-0.627 0.228,-0.566 0.248,-0.499C0.267,-0.432 0.277,-0.36 0.277,-0.284Z" style="fill:white;fill-rule:nonzero;"/>
                </g>
            </g>
        </g>
        <g transform="matrix(0.785714,0,0,0.3125,34.2857,174.018)">
            <g transform="matrix(1.14833,0,0,1,-101.244,-184)">
                <path d="M332,316.75C332,298.675 324.551,284 315.375,284L139.625,284C130.449,284 123,298.675 123,316.75L123,382.25C123,400.325 130.449,415 139.625,415L315.375,415C324.551,415 332,400.325 332,382.25L332,316.75Z" style="fill:rgb(39,194,120);"/>
            </g>
            <g transform="matrix(1.09091,0,0,1.87143,-152,-528.8)">
                <g transform="matrix(32,0,0,32,211.297,383)">
                    <path d="M0.153,-0.528L0.156,-0.47C0.194,-0.515 0.247,-0.538 0.313,-0.538C0.386,-0.538 0.437,-0.51 0.463,-0.453C0.481,-0.479 0.504,-0.499 0.532,-0.515C0.56,-0.53 0.593,-0.538 0.632,-0.538C0.748,-0.538 0.807,-0.477 0.809,-0.354L0.809,0L0.718,0L0.718,-0.349C0.718,-0.386 0.71,-0.415 0.692,-0.433C0.675,-0.452 0.646,-0.461 0.605,-0.461C0.572,-0.461 0.544,-0.451 0.522,-0.431C0.5,-0.411 0.487,-0.384 0.483,-0.351L0.483,0L0.393,0L0.393,-0.346C0.393,-0.423 0.355,-0.461 0.28,-0.461C0.221,-0.461 0.18,-0.436 0.158,-0.386L0.158,0L0.068,0L0.068,-0.528L0.153,-0.528Z" style="fill:white;fill-rule:nonzero;"/>
                </g>
                <g transform="matrix(32,0,0,32,239.344,383)">
                    <path d="M0.288,0.01C0.216,0.01 0.158,-0.014 0.113,-0.061C0.068,-0.108 0.045,-0.171 0.045,-0.25L0.045,-0.266C0.045,-0.319 0.055,-0.365 0.075,-0.406C0.095,-0.448 0.123,-0.48 0.159,-0.503C0.195,-0.526 0.234,-0.538 0.276,-0.538C0.345,-0.538 0.398,-0.515 0.437,-0.47C0.475,-0.425 0.494,-0.36 0.494,-0.276L0.494,-0.238L0.136,-0.238C0.137,-0.186 0.152,-0.144 0.181,-0.112C0.211,-0.08 0.248,-0.064 0.292,-0.064C0.324,-0.064 0.351,-0.07 0.374,-0.083C0.396,-0.097 0.415,-0.114 0.432,-0.135L0.487,-0.092C0.443,-0.024 0.376,0.01 0.288,0.01ZM0.276,-0.464C0.24,-0.464 0.209,-0.451 0.185,-0.424C0.16,-0.398 0.145,-0.36 0.139,-0.313L0.403,-0.313L0.403,-0.319C0.401,-0.365 0.388,-0.401 0.366,-0.426C0.344,-0.451 0.314,-0.464 0.276,-0.464Z" style="fill:white;fill-rule:nonzero;"/>
                </g>
                <g transform="matrix(32,0,0,32,256.297,383)">
                    <path d="M0.191,-0.656L0.191,-0.528L0.29,-0.528L0.29,-0.458L0.191,-0.458L0.191,-0.131C0.191,-0.11 0.195,-0.094 0.204,-0.083C0.213,-0.073 0.228,-0.067 0.249,-0.067C0.259,-0.067 0.274,-0.069 0.292,-0.073L0.292,0C0.268,0.007 0.245,0.01 0.223,0.01C0.182,0.01 0.152,-0.002 0.131,-0.027C0.111,-0.051 0.101,-0.086 0.101,-0.131L0.101,-0.458L0.004,-0.458L0.004,-0.528L0.101,-0.528L0.101,-0.656L0.191,-0.656Z" style="fill:white;fill-rule:nonzero;"/>
                </g>
                <g transform="matrix(32,0,0,32,266.75,383)">
                    <path d="M0.159,-0.464C0.199,-0.514 0.251,-0.538 0.315,-0.538C0.427,-0.538 0.483,-0.475 0.484,-0.349L0.484,0L0.394,0L0.394,-0.35C0.393,-0.388 0.385,-0.416 0.367,-0.434C0.35,-0.452 0.324,-0.461 0.288,-0.461C0.258,-0.461 0.233,-0.454 0.21,-0.438C0.188,-0.422 0.171,-0.402 0.159,-0.376L0.159,0L0.068,0L0.068,-0.75L0.159,-0.75L0.159,-0.464Z" style="fill:white;fill-rule:nonzero;"/>
                </g>
                <g transform="matrix(32,0,0,32,284.375,383)">
                    <path d="M0.044,-0.269C0.044,-0.321 0.055,-0.367 0.075,-0.409C0.095,-0.45 0.124,-0.482 0.16,-0.504C0.196,-0.527 0.238,-0.538 0.284,-0.538C0.356,-0.538 0.414,-0.513 0.459,-0.463C0.503,-0.414 0.525,-0.347 0.525,-0.265L0.525,-0.258C0.525,-0.207 0.516,-0.161 0.496,-0.12C0.476,-0.079 0.448,-0.047 0.411,-0.024C0.375,-0.002 0.333,0.01 0.285,0.01C0.214,0.01 0.156,-0.015 0.111,-0.065C0.067,-0.115 0.044,-0.181 0.044,-0.263L0.044,-0.269ZM0.135,-0.258C0.135,-0.2 0.149,-0.153 0.176,-0.117C0.203,-0.082 0.24,-0.064 0.285,-0.064C0.331,-0.064 0.368,-0.082 0.395,-0.118C0.422,-0.154 0.435,-0.204 0.435,-0.269C0.435,-0.327 0.421,-0.374 0.394,-0.41C0.366,-0.446 0.33,-0.464 0.284,-0.464C0.24,-0.464 0.204,-0.446 0.176,-0.411C0.149,-0.375 0.135,-0.324 0.135,-0.258Z" style="fill:white;fill-rule:nonzero;"/>
                </g>
                <g transform="matrix(32,0,0,32,302.625,383)">
                    <path d="M0.046,-0.269C0.046,-0.35 0.066,-0.415 0.104,-0.464C0.142,-0.513 0.193,-0.538 0.255,-0.538C0.317,-0.538 0.366,-0.517 0.402,-0.475L0.402,-0.75L0.492,-0.75L0.492,0L0.409,0L0.405,-0.057C0.369,-0.012 0.318,0.01 0.254,0.01C0.193,0.01 0.143,-0.015 0.104,-0.065C0.066,-0.116 0.046,-0.181 0.046,-0.262L0.046,-0.269ZM0.137,-0.258C0.137,-0.198 0.149,-0.152 0.174,-0.118C0.199,-0.084 0.233,-0.067 0.276,-0.067C0.334,-0.067 0.375,-0.093 0.402,-0.144L0.402,-0.387C0.375,-0.437 0.333,-0.461 0.277,-0.461C0.233,-0.461 0.199,-0.444 0.174,-0.41C0.149,-0.376 0.137,-0.325 0.137,-0.258Z" style="fill:white;fill-rule:nonzero;"/>
                </g>
                <g transform="matrix(32,0,0,32,320.672,383)">
                    <path d="M0.356,0L0.265,0L0.265,-0.602L0.083,-0.535L0.083,-0.617L0.342,-0.714L0.356,-0.714L0.356,0Z" style="fill:white;fill-rule:nonzero;"/>
                </g>
                <g transform="matrix(32,0,0,32,338.641,383)">
                    <path d="M0.065,-0.289C0.065,-0.362 0.075,-0.433 0.094,-0.5C0.114,-0.568 0.144,-0.63 0.183,-0.685C0.222,-0.74 0.262,-0.779 0.304,-0.802L0.323,-0.743C0.275,-0.706 0.236,-0.651 0.206,-0.576C0.175,-0.501 0.159,-0.417 0.156,-0.324L0.155,-0.283C0.155,-0.157 0.178,-0.048 0.224,0.044C0.252,0.1 0.285,0.143 0.323,0.174L0.304,0.229C0.261,0.205 0.22,0.165 0.18,0.108C0.103,-0.002 0.065,-0.135 0.065,-0.289Z" style="fill:white;fill-rule:nonzero;"/>
                </g>
                <g transform="matrix(32,0,0,32,349.578,383)">
                    <path d="M0.277,-0.284C0.277,-0.211 0.267,-0.142 0.248,-0.075C0.229,-0.008 0.2,0.053 0.161,0.109C0.122,0.166 0.081,0.206 0.038,0.229L0.019,0.174C0.069,0.136 0.109,0.076 0.139,-0.005C0.17,-0.086 0.185,-0.175 0.186,-0.274L0.186,-0.29C0.186,-0.358 0.179,-0.421 0.165,-0.48C0.15,-0.539 0.13,-0.592 0.105,-0.638C0.079,-0.685 0.05,-0.721 0.019,-0.747L0.038,-0.802C0.081,-0.778 0.122,-0.739 0.16,-0.683C0.199,-0.627 0.228,-0.566 0.248,-0.499C0.267,-0.432 0.277,-0.36 0.277,-0.284Z" style="fill:white;fill-rule:nonzero;"/>
                </g>
            </g>
        </g>
        <g transform="matrix(0.785714,0,0,0.3125,34.2857,255.893)">
            <g transform="matrix(1.14833,0,0,1,-101.244,-184)">
                <path d="M332,316.75C332,298.675 324.551,284 315.375,284L139.625,284C130.449,284 123,298.675 123,316.75L123,382.25C123,400.325 130.449,415 139.625,415L315.375,415C324.551,415 332,400.325 332,382.25L332,316.75Z" style="fill:rgb(39,194,120);"/>
            </g>
            <g transform="matrix(1.09091,0,0,1.87143,-152,-528.8)">
                <g transform="matrix(32,0,0,32,208.875,383)">
                    <path d="M0.153,-0.528L0.156,-0.47C0.194,-0.515 0.247,-0.538 0.313,-0.538C0.386,-0.538 0.437,-0.51 0.463,-0.453C0.481,-0.479 0.504,-0.499 0.532,-0.515C0.56,-0.53 0.593,-0.538 0.632,-0.538C0.748,-0.538 0.807,-0.477 0.809,-0.354L0.809,0L0.718,0L0.718,-0.349C0.718,-0.386 0.71,-0.415 0.692,-0.433C0.675,-0.452 0.646,-0.461 0.605,-0.461C0.572,-0.461 0.544,-0.451 0.522,-0.431C0.5,-0.411 0.487,-0.384 0.483,-0.351L0.483,0L0.393,0L0.393,-0.346C0.393,-0.423 0.355,-0.461 0.28,-0.461C0.221,-0.461 0.18,-0.436 0.158,-0.386L0.158,0L0.068,0L0.068,-0.528L0.153,-0.528Z" style="fill:white;fill-rule:nonzero;"/>
                </g>
                <g transform="matrix(32,0,0,32,236.922,383)">
                    <path d="M0.288,0.01C0.216,0.01 0.158,-0.014 0.113,-0.061C0.068,-0.108 0.045,-0.171 0.045,-0.25L0.045,-0.266C0.045,-0.319 0.055,-0.365 0.075,-0.406C0.095,-0.448 0.123,-0.48 0.159,-0.503C0.195,-0.526 0.234,-0.538 0.276,-0.538C0.345,-0.538 0.398,-0.515 0.437,-0.47C0.475,-0.425 0.494,-0.36 0.494,-0.276L0.494,-0.238L0.136,-0.238C0.137,-0.186 0.152,-0.144 0.181,-0.112C0.211,-0.08 0.248,-0.064 0.292,-0.064C0.324,-0.064 0.351,-0.07 0.374,-0.083C0.396,-0.097 0.415,-0.114 0.432,-0.135L0.487,-0.092C0.443,-0.024 0.376,0.01 0.288,0.01ZM0.276,-0.464C0.24,-0.464 0.209,-0.451 0.185,-0.424C0.16,-0.398 0.145,-0.36 0.139,-0.313L0.403,-0.313L0.403,-0.319C0.401,-0.365 0.388,-0.401 0.366,-0.426C0.344,-0.451 0.314,-0.464 0.276,-0.464Z" style="fill:white;fill-rule:nonzero;"/>
                </g>
                <g transform="matrix(32,0,0,32,253.875,383)">
                    <path d="M0.191,-0.656L0.191,-0.528L0.29,-0.528L0.29,-0.458L0.191,-0.458L0.191,-0.131C0.191,-0.11 0.195,-0.094 0.204,-0.083C0.213,-0.073 0.228,-0.067 0.249,-0.067C0.259,-0.067 0.274,-0.069 0.292,-0.073L0.292,0C0.268,0.007 0.245,0.01 0.223,0.01C0.182,0.01 0.152,-0.002 0.131,-0.027C0.111,-0.051 0.101,-0.086 0.101,-0.131L0.101,-0.458L0.004,-0.458L0.004,-0.528L0.101,-0.528L0.101,-0.656L0.191,-0.656Z" style="fill:white;fill-rule:nonzero;"/>
                </g>
                <g transform="matrix(32,0,0,32,264.328,383)">
                    <path d="M0.159,-0.464C0.199,-0.514 0.251,-0.538 0.315,-0.538C0.427,-0.538 0.483,-0.475 0.484,-0.349L0.484,0L0.394,0L0.394,-0.35C0.393,-0.388 0.385,-0.416 0.367,-0.434C0.35,-0.452 0.324,-0.461 0.288,-0.461C0.258,-0.461 0.233,-0.454 0.21,-0.438C0.188,-0.422 0.171,-0.402 0.159,-0.376L0.159,0L0.068,0L0.068,-0.75L0.159,-0.75L0.159,-0.464Z" style="fill:white;fill-rule:nonzero;"/>
                </g>
                <g transform="matrix(32,0,0,32,281.953,383)">
                    <path d="M0.044,-0.269C0.044,-0.321 0.055,-0.367 0.075,-0.409C0.095,-0.45 0.124,-0.482 0.16,-0.504C0.196,-0.527 0.238,-0.538 0.284,-0.538C0.356,-0.538 0.414,-0.513 0.459,-0.463C0.503,-0.414 0.525,-0.347 0.525,-0.265L0.525,-0.258C0.525,-0.207 0.516,-0.161 0.496,-0.12C0.476,-0.079 0.448,-0.047 0.411,-0.024C0.375,-0.002 0.333,0.01 0.285,0.01C0.214,0.01 0.156,-0.015 0.111,-0.065C0.067,-0.115 0.044,-0.181 0.044,-0.263L0.044,-0.269ZM0.135,-0.258C0.135,-0.2 0.149,-0.153 0.176,-0.117C0.203,-0.082 0.24,-0.064 0.285,-0.064C0.331,-0.064 0.368,-0.082 0.395,-0.118C0.422,-0.154 0.435,-0.204 0.435,-0.269C0.435,-0.327 0.421,-0.374 0.394,-0.41C0.366,-0.446 0.33,-0.464 0.284,-0.464C0.24,-0.464 0.204,-0.446 0.176,-0.411C0.149,-0.375 0.135,-0.324 0.135,-0.258Z" style="fill:white;fill-rule:nonzero;"/>
                </g>
                <g transform="matrix(32,0,0,32,300.203,383)">
                    <path d="M0.046,-0.269C0.046,-0.35 0.066,-0.415 0.104,-0.464C0.142,-0.513 0.193,-0.538 0.255,-0.538C0.317,-0.538 0.366,-0.517 0.402,-0.475L0.402,-0.75L0.492,-0.75L0.492,0L0.409,0L0.405,-0.057C0.369,-0.012 0.318,0.01 0.254,0.01C0.193,0.01 0.143,-0.015 0.104,-0.065C0.066,-0.116 0.046,-0.181 0.046,-0.262L0.046,-0.269ZM0.137,-0.258C0.137,-0.198 0.149,-0.152 0.174,-0.118C0.199,-0.084 0.233,-0.067 0.276,-0.067C0.334,-0.067 0.375,-0.093 0.402,-0.144L0.402,-0.387C0.375,-0.437 0.333,-0.461 0.277,-0.461C0.233,-0.461 0.199,-0.444 0.174,-0.41C0.149,-0.376 0.137,-0.325 0.137,-0.258Z" style="fill:white;fill-rule:nonzero;"/>
                </g>
                <g transform="matrix(32,0,0,32,318.25,383)">
                    <path d="M0.629,0L0.535,0L0.177,-0.548L0.177,0L0.083,0L0.083,-0.711L0.177,-0.711L0.536,-0.161L0.536,-0.711L0.629,-0.711L0.629,0Z" style="fill:white;fill-rule:nonzero;"/>
                </g>
                <g transform="matrix(32,0,0,32,341.062,383)">
                    <path d="M0.065,-0.289C0.065,-0.362 0.075,-0.433 0.094,-0.5C0.114,-0.568 0.144,-0.63 0.183,-0.685C0.222,-0.74 0.262,-0.779 0.304,-0.802L0.323,-0.743C0.275,-0.706 0.236,-0.651 0.206,-0.576C0.175,-0.501 0.159,-0.417 0.156,-0.324L0.155,-0.283C0.155,-0.157 0.178,-0.048 0.224,0.044C0.252,0.1 0.285,0.143 0.323,0.174L0.304,0.229C0.261,0.205 0.22,0.165 0.18,0.108C0.103,-0.002 0.065,-0.135 0.065,-0.289Z" style="fill:white;fill-rule:nonzero;"/>
                </g>
                <g transform="matrix(32,0,0,32,352,383)">
                    <path d="M0.277,-0.284C0.277,-0.211 0.267,-0.142 0.248,-0.075C0.229,-0.008 0.2,0.053 0.161,0.109C0.122,0.166 0.081,0.206 0.038,0.229L0.019,0.174C0.069,0.136 0.109,0.076 0.139,-0.005C0.17,-0.086 0.185,-0.175 0.186,-0.274L0.186,-0.29C0.186,-0.358 0.179,-0.421 0.165,-0.48C0.15,-0.539 0.13,-0.592 0.105,-0.638C0.079,-0.685 0.05,-0.721 0.019,-0.747L0.038,-0.802C0.081,-0.778 0.122,-0.739 0.16,-0.683C0.199,-0.627 0.228,-0.566 0.248,-0.499C0.267,-0.432 0.277,-0.36 0.277,-0.284Z" style="fill:white;fill-rule:nonzero;"/>
                </g>
            </g>
        </g>
    </g>
</svg>
