<svg clip-rule="evenodd" fill-rule="evenodd" stroke-linejoin="round" stroke-miterlimit="1.41421" viewBox="0 0 120 120" xmlns="http://www.w3.org/2000/svg" xmlns:xlink="http://www.w3.org/1999/xlink"><linearGradient id="a" gradientTransform="matrix(-.125 .29165 -.29165 -.125 .33335 .08335)" gradientUnits="userSpaceOnUse" x1="0" x2="1" y1="0" y2="0"><stop offset="0" stop-color="#37aee2"/><stop offset="1" stop-color="#1e96c8"/></linearGradient><linearGradient id="b" gradientTransform="matrix(.09575 .18275 -.18275 .09575 .32985 .21845)" gradientUnits="userSpaceOnUse" x1="0" x2="1" y1="0" y2="0"><stop offset="0" stop-color="#eff7fc"/><stop offset="1" stop-color="#fff"/></linearGradient><circle cx="60" cy="60" fill="url(#a)" r="60"/><g fill-rule="nonzero"><path d="m49 87.5c-1.944 0-1.614-.734-2.284-2.585l-5.716-18.812 44-26.103" fill="#c8daea"/><path d="m49 87.5c1.5 0 2.163-.686 3-1.5l8-7.779-9.979-6.017" fill="#a9c9dd"/><path d="m50.02 72.205 24.18 17.865c2.759 1.522 4.751.734 5.438-2.562l9.843-46.382c1.007-4.04-1.541-5.872-4.18-4.674l-57.795 22.286c-3.945 1.582-3.922 3.783-.719 4.764l14.831 4.629 34.337-21.663c1.621-.983 3.108-.454 1.887.629" fill="url(#b)"/></g></svg>