<svg clip-rule="evenodd" fill-rule="evenodd" stroke-linecap="round" stroke-linejoin="round" stroke-miterlimit="1.5" viewBox="0 0 1354 500" xmlns="http://www.w3.org/2000/svg"><path d="m332 316.75c0-18.075-9.365-32.75-20.9-32.75h-167.2c-11.535 0-20.9 14.675-20.9 32.75v65.5c0 18.075 9.365 32.75 20.9 32.75h167.2c11.535 0 20.9-14.675 20.9-32.75z" fill="#27c278" transform="matrix(.95694128389 0 0 .610687 280.297033748 36.564592)"/><path d="m.574-.634h-.229v.634h-.093v-.634h-.228v-.077h.55z" fill="#fff" fill-rule="nonzero" transform="matrix(31.9999872 0 0 31.9999988 411.0943147624 261.99969805)"/><path d="m.324-.447c-.014-.003-.029-.004-.045-.004-.059 0-.099.026-.12.076v.375h-.091v-.528h.088l.002.061c.029-.047.071-.071.126-.071.017 0 .031.002.04.007z" fill="#fff" fill-rule="nonzero" transform="matrix(31.9999872 0 0 31.9999988 429.0163075936 261.99969805)"/><path d="m.395 0c-.006-.01-.01-.029-.013-.056-.042.044-.092.066-.151.066-.052 0-.094-.015-.128-.044-.033-.03-.05-.067-.05-.112 0-.055.021-.098.063-.129.042-.03.101-.045.176-.045h.088v-.042c0-.031-.009-.057-.028-.075-.019-.019-.047-.028-.083-.028-.033 0-.06.008-.081.024-.022.016-.033.036-.033.059h-.091c0-.026.009-.052.028-.076.019-.025.044-.044.076-.059.032-.014.068-.021.106-.021.061 0 .108.015.143.046.034.03.052.072.054.125v.243c0 .049.006.088.018.116v.008zm-.15-.069c.028 0 .055-.007.08-.022.026-.014.044-.034.055-.057v-.108h-.07c-.111 0-.166.032-.166.097 0 .028.009.05.028.066s.043.024.073.024z" fill="#fff" fill-rule="nonzero" transform="matrix(31.9999872 0 0 31.9999988 439.2193035124 261.99969805)"/><path d="m.154-.528.003.066c.04-.051.093-.076.158-.076.112 0 .168.063.169.189v.349h-.09v-.35c-.001-.038-.009-.066-.027-.084-.017-.018-.043-.027-.079-.027-.03 0-.055.007-.078.023-.022.016-.039.036-.051.062v.376h-.091v-.528z" fill="#fff" fill-rule="nonzero" transform="matrix(31.9999872 0 0 31.9999988 456.62529655 261.99969805)"/><path d="m.376-.14c0-.025-.009-.044-.028-.057-.018-.014-.05-.025-.096-.035s-.082-.021-.109-.035-.046-.03-.059-.049-.02-.041-.02-.067c0-.044.019-.08.055-.11.037-.03.084-.045.141-.045.06 0 .108.015.146.046.037.031.055.071.055.119h-.09c0-.025-.011-.046-.032-.064s-.047-.027-.079-.027c-.033 0-.059.007-.077.022-.019.014-.028.033-.028.056 0 .022.008.038.026.049.017.011.048.022.093.032s.082.022.11.036.049.031.062.05c.014.02.02.044.02.073 0 .047-.019.085-.056.113-.038.029-.087.043-.147.043-.043 0-.08-.008-.113-.023-.032-.015-.058-.036-.076-.062-.018-.027-.028-.056-.028-.088h.091c.001.031.013.055.036.072.023.018.053.027.09.027.034 0 .061-.007.082-.021s.031-.032.031-.055z" fill="#fff" fill-rule="nonzero" transform="matrix(31.9999872 0 0 31.9999988 474.2812894876 261.99969805)"/><path d="m.113 0v-.458h-.084v-.07h.084v-.055c0-.056.015-.1.045-.131s.073-.046.129-.046c.02 0 .041.003.062.008l-.005.073c-.016-.003-.032-.004-.049-.004-.029 0-.052.008-.068.026-.016.017-.024.041-.024.073v.056h.113v.07h-.113v.458z" fill="#fff" fill-rule="nonzero" transform="matrix(31.9999872 0 0 31.9999988 490.7812828876 261.99969805)"/><path d="m.044-.269c0-.052.011-.098.031-.14.02-.041.049-.073.085-.095.036-.023.078-.034.124-.034.072 0 .13.025.175.075.044.049.066.116.066.198v.007c0 .051-.009.097-.029.138s-.048.073-.085.096c-.036.022-.078.034-.126.034-.071 0-.129-.025-.174-.075-.044-.05-.067-.116-.067-.198zm.091.011c0 .058.014.105.041.141.027.035.064.053.109.053.046 0 .083-.018.11-.054s.04-.086.04-.151c0-.058-.014-.105-.041-.141-.028-.036-.064-.054-.11-.054-.044 0-.08.018-.108.053-.027.036-.041.087-.041.153z" fill="#fff" fill-rule="nonzero" transform="matrix(31.9999872 0 0 31.9999988 501.8912784436 261.99969805)"/><path d="m.324-.447c-.014-.003-.029-.004-.045-.004-.059 0-.099.026-.12.076v.375h-.091v-.528h.088l.002.061c.029-.047.071-.071.126-.071.017 0 .031.002.04.007z" fill="#fff" fill-rule="nonzero" transform="matrix(31.9999872 0 0 31.9999988 520.1412711436 261.99969805)"/><path d="m.153-.528.003.058c.038-.045.091-.068.157-.068.073 0 .124.028.15.085.018-.026.041-.046.069-.062.028-.015.061-.023.1-.023.116 0 .175.061.177.184v.354h-.091v-.349c0-.037-.008-.066-.026-.084-.017-.019-.046-.028-.087-.028-.033 0-.061.01-.083.03s-.035.047-.039.08v.351h-.09v-.346c0-.077-.038-.115-.113-.115-.059 0-.1.025-.122.075v.386h-.09v-.528z" fill="#fff" fill-rule="nonzero" transform="matrix(31.9999872 0 0 31.9999988 530.9692668124 261.99969805)"/><path d="m.356 0h-.091v-.602l-.182.067v-.082l.259-.097h.014z" fill="#fff" fill-rule="nonzero" transform="matrix(31.9999872 0 0 31.9999988 566.9382524248 261.99969805)"/><path d="m320 40 90 120-90 120" fill="none" stroke="#2d2e44" stroke-width="40" transform="matrix(.2 0 0 .2 286 218)"/><path d="m320 40 90 120-90 120" fill="none" stroke="#2d2e44" stroke-width="40" transform="matrix(.2 0 0 .2 922 218)"/><path d="m332 316.75c0-18.075-9.365-32.75-20.9-32.75h-167.2c-11.535 0-20.9 14.675-20.9 32.75v65.5c0 18.075 9.365 32.75 20.9 32.75h167.2c11.535 0 20.9-14.675 20.9-32.75z" fill="#27c278" transform="matrix(.95694128389 0 0 .610687 638.297033748 36.564592)"/><path d="m.574-.634h-.229v.634h-.093v-.634h-.228v-.077h.55z" fill="#fff" fill-rule="nonzero" transform="matrix(31.9999872 0 0 31.9999988 766.6723157312 261.99969805)"/><path d="m.324-.447c-.014-.003-.029-.004-.045-.004-.059 0-.099.026-.12.076v.375h-.091v-.528h.088l.002.061c.029-.047.071-.071.126-.071.017 0 .031.002.04.007z" fill="#fff" fill-rule="nonzero" transform="matrix(31.9999872 0 0 31.9999988 784.5943085624 261.99969805)"/><path d="m.395 0c-.006-.01-.01-.029-.013-.056-.042.044-.092.066-.151.066-.052 0-.094-.015-.128-.044-.033-.03-.05-.067-.05-.112 0-.055.021-.098.063-.129.042-.03.101-.045.176-.045h.088v-.042c0-.031-.009-.057-.028-.075-.019-.019-.047-.028-.083-.028-.033 0-.06.008-.081.024-.022.016-.033.036-.033.059h-.091c0-.026.009-.052.028-.076.019-.025.044-.044.076-.059.032-.014.068-.021.106-.021.061 0 .108.015.143.046.034.03.052.072.054.125v.243c0 .049.006.088.018.116v.008zm-.15-.069c.028 0 .055-.007.08-.022.026-.014.044-.034.055-.057v-.108h-.07c-.111 0-.166.032-.166.097 0 .028.009.05.028.066s.043.024.073.024z" fill="#fff" fill-rule="nonzero" transform="matrix(31.9999872 0 0 31.9999988 794.7973044812 261.99969805)"/><path d="m.154-.528.003.066c.04-.051.093-.076.158-.076.112 0 .168.063.169.189v.349h-.09v-.35c-.001-.038-.009-.066-.027-.084-.017-.018-.043-.027-.079-.027-.03 0-.055.007-.078.023-.022.016-.039.036-.051.062v.376h-.091v-.528z" fill="#fff" fill-rule="nonzero" transform="matrix(31.9999872 0 0 31.9999988 812.2032975188 261.99969805)"/><path d="m.376-.14c0-.025-.009-.044-.028-.057-.018-.014-.05-.025-.096-.035s-.082-.021-.109-.035-.046-.03-.059-.049-.02-.041-.02-.067c0-.044.019-.08.055-.11.037-.03.084-.045.141-.045.06 0 .108.015.146.046.037.031.055.071.055.119h-.09c0-.025-.011-.046-.032-.064s-.047-.027-.079-.027c-.033 0-.059.007-.077.022-.019.014-.028.033-.028.056 0 .022.008.038.026.049.017.011.048.022.093.032s.082.022.11.036.049.031.062.05c.014.02.02.044.02.073 0 .047-.019.085-.056.113-.038.029-.087.043-.147.043-.043 0-.08-.008-.113-.023-.032-.015-.058-.036-.076-.062-.018-.027-.028-.056-.028-.088h.091c.001.031.013.055.036.072.023.018.053.027.09.027.034 0 .061-.007.082-.021s.031-.032.031-.055z" fill="#fff" fill-rule="nonzero" transform="matrix(31.9999872 0 0 31.9999988 829.8592904564 261.99969805)"/><path d="m.113 0v-.458h-.084v-.07h.084v-.055c0-.056.015-.1.045-.131s.073-.046.129-.046c.02 0 .041.003.062.008l-.005.073c-.016-.003-.032-.004-.049-.004-.029 0-.052.008-.068.026-.016.017-.024.041-.024.073v.056h.113v.07h-.113v.458z" fill="#fff" fill-rule="nonzero" transform="matrix(31.9999872 0 0 31.9999988 846.3592838564 261.99969805)"/><path d="m.044-.269c0-.052.011-.098.031-.14.02-.041.049-.073.085-.095.036-.023.078-.034.124-.034.072 0 .13.025.175.075.044.049.066.116.066.198v.007c0 .051-.009.097-.029.138s-.048.073-.085.096c-.036.022-.078.034-.126.034-.071 0-.129-.025-.174-.075-.044-.05-.067-.116-.067-.198zm.091.011c0 .058.014.105.041.141.027.035.064.053.109.053.046 0 .083-.018.11-.054s.04-.086.04-.151c0-.058-.014-.105-.041-.141-.028-.036-.064-.054-.11-.054-.044 0-.08.018-.108.053-.027.036-.041.087-.041.153z" fill="#fff" fill-rule="nonzero" transform="matrix(31.9999872 0 0 31.9999988 857.4692794124 261.99969805)"/><path d="m.324-.447c-.014-.003-.029-.004-.045-.004-.059 0-.099.026-.12.076v.375h-.091v-.528h.088l.002.061c.029-.047.071-.071.126-.071.017 0 .031.002.04.007z" fill="#fff" fill-rule="nonzero" transform="matrix(31.9999872 0 0 31.9999988 875.7192721124 261.99969805)"/><path d="m.153-.528.003.058c.038-.045.091-.068.157-.068.073 0 .124.028.15.085.018-.026.041-.046.069-.062.028-.015.061-.023.1-.023.116 0 .175.061.177.184v.354h-.091v-.349c0-.037-.008-.066-.026-.084-.017-.019-.046-.028-.087-.028-.033 0-.061.01-.083.03s-.035.047-.039.08v.351h-.09v-.346c0-.077-.038-.115-.113-.115-.059 0-.1.025-.122.075v.386h-.09v-.528z" fill="#fff" fill-rule="nonzero" transform="matrix(31.9999872 0 0 31.9999988 886.5472677812 261.99969805)"/><path d="m.629 0h-.094l-.358-.548v.548h-.094v-.711h.094l.359.55v-.55h.093z" fill="#fff" fill-rule="nonzero" transform="matrix(31.9999872 0 0 31.9999988 922.5162533936 261.99969805)"/><path d="m320 40 90 120-90 120" fill="none" stroke="#2d2e44" stroke-width="40" transform="matrix(.2 0 0 .2 564 218)"/><path d="m320 40 90 120-90 120" fill="none" stroke="#2d2e44" stroke-width="40" transform="matrix(.2 0 0 .2 644 218)"/><path d="m332 296.476c0-6.886-13.379-12.476-29.857-12.476h-149.286c-16.478 0-29.857 5.59-29.857 12.476v106.048c0 6.886 13.379 12.476 29.857 12.476h149.286c16.478 0 29.857-5.59 29.857-12.476z" fill="#fff" stroke="#27c278" stroke-width="1.63" transform="matrix(1.3397221611 0 0 3.2061 -124.78500748 -870.5324)"/><path d="m.135-.125c.022 0 .039.006.051.019.012.012.018.028.018.047 0 .018-.006.034-.018.046-.012.012-.029.018-.051.018-.021 0-.038-.006-.051-.018-.012-.012-.018-.027-.018-.046s.006-.035.018-.047c.012-.013.029-.019.051-.019z" fill="#2d2e44" fill-rule="nonzero" transform="matrix(32.00009676192 0 0 31.99990797824 166.59470879676 326.99903104656)"/><path d="m.135-.125c.022 0 .039.006.051.019.012.012.018.028.018.047 0 .018-.006.034-.018.046-.012.012-.029.018-.051.018-.021 0-.038-.006-.051-.018-.012-.012-.018-.027-.018-.046s.006-.035.018-.047c.012-.013.029-.019.051-.019z" fill="#2d2e44" fill-rule="nonzero" transform="matrix(32.00009676192 0 0 31.99990797824 175.53173582055 326.99903104656)"/><path d="m.135-.125c.022 0 .039.006.051.019.012.012.018.028.018.047 0 .018-.006.034-.018.046-.012.012-.029.018-.051.018-.021 0-.038-.006-.051-.018-.012-.012-.018-.027-.018-.046s.006-.035.018-.047c.012-.013.029-.019.051-.019z" fill="#2d2e44" fill-rule="nonzero" transform="matrix(32.00009676192 0 0 31.99990797824 184.46976284737 326.99903104656)"/><path d="m.08-.711h.123v.711h-.123z" fill="#2d2e44" fill-rule="nonzero" transform="matrix(32.00009676192 0 0 31.99990797824 143.36763856273 87.9996088992)"/><path d="m.171-.528.003.061c.039-.047.091-.071.154-.071.11 0 .166.063.168.189v.349h-.119v-.342c0-.034-.007-.059-.021-.075-.015-.016-.038-.024-.071-.024-.048 0-.084.022-.107.065v.376h-.119v-.528z" fill="#2d2e44" fill-rule="nonzero" transform="matrix(32.00009676192 0 0 31.99990797824 152.39866587076 87.9996088992)"/><path d="m.523-.259c0 .082-.018.147-.055.196-.037.048-.087.073-.15.073-.058 0-.104-.019-.139-.057v.25h-.118v-.731h.109l.005.053c.035-.042.082-.063.142-.063.064 0 .115.024.152.072.036.048.054.115.054.2zm-.118-.01c0-.053-.01-.095-.031-.126-.021-.03-.051-.046-.09-.046-.049 0-.084.02-.105.06v.235c.022.041.057.061.106.061.037 0 .067-.015.088-.046.022-.03.032-.076.032-.138z" fill="#2d2e44" fill-rule="nonzero" transform="matrix(32.00009676192 0 0 31.99990797824 170.1957196855 87.9996088992)"/><path d="m.381-.052c-.035.041-.084.062-.149.062-.057 0-.1-.017-.13-.051-.029-.033-.044-.082-.044-.145v-.342h.119v.34c0 .068.028.101.083.101.058 0 .097-.021.117-.062v-.379h.119v.528h-.112z" fill="#2d2e44" fill-rule="nonzero" transform="matrix(32.00009676192 0 0 31.99990797824 188.21177416246 87.9996088992)"/><path d="m.209-.657v.129h.094v.088h-.094v.294c0 .021.004.035.012.044s.023.014.043.014c.014 0 .028-.002.042-.005v.092c-.027.007-.053.011-.078.011-.092 0-.137-.051-.137-.151v-.299h-.087v-.088h.087v-.129z" fill="#2d2e44" fill-rule="nonzero" transform="matrix(32.00009676192 0 0 31.99990797824 205.99282792883 87.9996088992)"/><path d="m332 316.75c0-18.075-7.449-32.75-16.625-32.75h-175.75c-9.176 0-16.625 14.675-16.625 32.75v65.5c0 18.075 7.449 32.75 16.625 32.75h175.75c9.176 0 16.625-14.675 16.625-32.75z" fill="#27c278" transform="matrix(1.05263845809 0 0 .53435 -59.47380379576 -31.75508288)"/><path d="m.176-.278v.278h-.093v-.711h.262c.078 0 .138.02.183.06.044.039.066.092.066.157 0 .069-.022.122-.065.16-.043.037-.105.056-.185.056zm0-.077h.169c.05 0 .088-.012.115-.035.027-.024.04-.058.04-.103 0-.042-.013-.076-.04-.101-.027-.026-.063-.039-.11-.04h-.174z" fill="#fff" fill-rule="nonzero" transform="matrix(32.00010645891 0 0 31.999955856 129.62553074412 167.0005087715)"/><path d="m.324-.447c-.014-.003-.029-.004-.045-.004-.059 0-.099.026-.12.076v.375h-.091v-.528h.088l.002.061c.029-.047.071-.071.126-.071.017 0 .031.002.04.007z" fill="#fff" fill-rule="nonzero" transform="matrix(32.00010645891 0 0 31.999955856 149.81259790306 167.0005087715)"/><path d="m.044-.269c0-.052.011-.098.031-.14.02-.041.049-.073.085-.095.036-.023.078-.034.124-.034.072 0 .13.025.175.075.044.049.066.116.066.198v.007c0 .051-.009.097-.029.138s-.048.073-.085.096c-.036.022-.078.034-.126.034-.071 0-.129-.025-.174-.075-.044-.05-.067-.116-.067-.198zm.091.011c0 .058.014.105.041.141.027.035.064.053.109.053.046 0 .083-.018.11-.054s.04-.086.04-.151c0-.058-.014-.105-.041-.141-.028-.036-.064-.054-.11-.054-.044 0-.08.018-.108.053-.027.036-.041.087-.041.153z" fill="#fff" fill-rule="nonzero" transform="matrix(32.00010645891 0 0 31.999955856 160.32863288811 167.0005087715)"/><path d="m.162-.528v.589c0 .102-.046.152-.139.152-.019 0-.038-.003-.055-.008v-.073c.011.003.024.004.041.004.02 0 .036-.005.046-.016.011-.011.016-.03.016-.057v-.591zm-.1-.14c0-.015.004-.027.013-.037.009-.011.022-.016.04-.016.017 0 .031.005.04.015.009.011.013.023.013.038 0 .014-.004.026-.013.036s-.023.015-.04.015c-.018 0-.031-.005-.04-.015s-.013-.022-.013-.036z" fill="#fff" fill-rule="nonzero" transform="matrix(32.00010645891 0 0 31.999955856 178.57869360296 167.0005087715)"/><path d="m.288.01c-.072 0-.13-.024-.175-.071s-.068-.11-.068-.189v-.016c0-.053.01-.099.03-.14.02-.042.048-.074.084-.097s.075-.035.117-.035c.069 0 .122.023.161.068.038.045.057.11.057.194v.038h-.358c.001.052.016.094.045.126.03.032.067.048.111.048.032 0 .059-.006.082-.019.022-.014.041-.031.058-.052l.055.043c-.044.068-.111.102-.199.102zm-.012-.474c-.036 0-.067.013-.091.04-.025.026-.04.064-.046.111h.264v-.006c-.002-.046-.015-.082-.037-.107s-.052-.038-.09-.038z" fill="#fff" fill-rule="nonzero" transform="matrix(32.00010645891 0 0 31.999955856 186.21971902335 167.0005087715)"/><path d="m.28-.064c.033 0 .061-.01.085-.029.024-.02.037-.044.04-.074h.085c-.001.031-.012.06-.031.087s-.045.049-.077.065c-.032.017-.066.025-.102.025-.072 0-.129-.024-.171-.072-.043-.048-.064-.114-.064-.197v-.015c0-.052.009-.098.028-.138s.046-.071.082-.093c.035-.022.077-.033.125-.033.059 0 .108.018.147.053.04.036.061.082.063.138h-.085c-.003-.034-.016-.062-.039-.084s-.052-.033-.086-.033c-.046 0-.082.017-.107.05s-.038.081-.038.143v.017c0 .061.013.108.038.141s.061.049.107.049z" fill="#fff" fill-rule="nonzero" transform="matrix(32.00010645891 0 0 31.999955856 203.17277542328 167.0005087715)"/><path d="m.191-.656v.128h.099v.07h-.099v.327c0 .021.004.037.013.048.009.01.024.016.045.016.01 0 .025-.002.043-.006v.073c-.024.007-.047.01-.069.01-.041 0-.071-.012-.092-.037-.02-.024-.03-.059-.03-.104v-.327h-.097v-.07h.097v-.128z" fill="#fff" fill-rule="nonzero" transform="matrix(32.00010645891 0 0 31.999955856 219.92283114787 167.0005087715)"/><path d="m332 316.75c0-18.075-7.449-32.75-16.625-32.75h-175.75c-9.176 0-16.625 14.675-16.625 32.75v65.5c0 18.075 7.449 32.75 16.625 32.75h175.75c9.176 0 16.625-14.675 16.625-32.75z" fill="#27c278" transform="matrix(1.05263845809 0 0 .53435 -59.47380379576 68.24445856)"/><path d="m.292-.317c-.08-.023-.139-.051-.176-.085-.036-.034-.054-.075-.054-.125 0-.056.022-.102.067-.139.044-.036.103-.055.174-.055.049 0 .093.01.131.029.038.018.068.045.089.078s.031.069.031.109h-.094c0-.043-.014-.077-.041-.102-.027-.024-.066-.037-.116-.037-.046 0-.082.011-.108.031s-.039.049-.039.085c0 .029.013.053.037.073.025.02.067.038.126.055s.105.035.138.055c.034.02.058.043.074.07.017.027.025.058.025.094 0 .058-.023.104-.068.139-.045.034-.105.052-.18.052-.049 0-.094-.01-.137-.028-.042-.019-.075-.045-.098-.077-.022-.033-.034-.07-.034-.111h.094c0 .043.016.077.048.102s.074.037.127.037c.05 0 .088-.01.114-.03s.039-.048.039-.083-.012-.061-.036-.08c-.025-.02-.069-.038-.133-.057z" fill="#fff" fill-rule="nonzero" transform="matrix(32.00010645891 0 0 31.999955856 95.04341569531 267.0000502115)"/><path d="m.395-.052c-.036.041-.087.062-.155.062-.057 0-.099-.017-.129-.049-.029-.033-.044-.081-.045-.146v-.343h.091v.341c0 .08.032.12.097.12.069 0 .115-.026.138-.077v-.384h.09v.528h-.086z" fill="#fff" fill-rule="nonzero" transform="matrix(32.00010645891 0 0 31.999955856 114.02847885538 267.0000502115)"/><path d="m.516-.258c0 .08-.019.145-.056.194s-.087.074-.149.074c-.067 0-.119-.024-.155-.071l-.005.061h-.083v-.75h.091v.28c.036-.045.086-.068.151-.068.064 0 .114.024.151.073.036.048.055.115.055.199zm-.091-.011c0-.061-.012-.109-.035-.142-.024-.034-.058-.05-.103-.05-.059 0-.102.027-.128.083v.228c.027.055.07.083.129.083.043 0 .077-.017.101-.05.024-.034.036-.084.036-.152z" fill="#fff" fill-rule="nonzero" transform="matrix(32.00010645891 0 0 31.999955856 131.66853754085 267.0000502115)"/><path d="m.515-.258c0 .08-.019.145-.056.194-.036.049-.086.074-.149.074-.064 0-.115-.021-.151-.061v.254h-.091v-.731h.083l.004.058c.037-.045.088-.068.154-.068.063 0 .113.024.15.072s.056.114.056.199zm-.091-.011c0-.059-.012-.106-.038-.141-.025-.034-.06-.051-.104-.051-.055 0-.096.024-.123.072v.253c.027.048.068.072.124.072.043 0 .077-.017.103-.051.026-.035.038-.086.038-.154z" fill="#fff" fill-rule="nonzero" transform="matrix(32.00010645891 0 0 31.999955856 149.62159726763 267.0000502115)"/><path d="m.324-.447c-.014-.003-.029-.004-.045-.004-.059 0-.099.026-.12.076v.375h-.091v-.528h.088l.002.061c.029-.047.071-.071.126-.071.017 0 .031.002.04.007z" fill="#fff" fill-rule="nonzero" transform="matrix(32.00010645891 0 0 31.999955856 167.5746569944 267.0000502115)"/><path d="m.044-.269c0-.052.011-.098.031-.14.02-.041.049-.073.085-.095.036-.023.078-.034.124-.034.072 0 .13.025.175.075.044.049.066.116.066.198v.007c0 .051-.009.097-.029.138s-.048.073-.085.096c-.036.022-.078.034-.126.034-.071 0-.129-.025-.174-.075-.044-.05-.067-.116-.067-.198zm.091.011c0 .058.014.105.041.141.027.035.064.053.109.053.046 0 .083-.018.11-.054s.04-.086.04-.151c0-.058-.014-.105-.041-.141-.028-.036-.064-.054-.11-.054-.044 0-.08.018-.108.053-.027.036-.041.087-.041.153z" fill="#fff" fill-rule="nonzero" transform="matrix(32.00010645891 0 0 31.999955856 178.09069197946 267.0000502115)"/><path d="m.162-.528v.589c0 .102-.046.152-.139.152-.019 0-.038-.003-.055-.008v-.073c.011.003.024.004.041.004.02 0 .036-.005.046-.016.011-.011.016-.03.016-.057v-.591zm-.1-.14c0-.015.004-.027.013-.037.009-.011.022-.016.04-.016.017 0 .031.005.04.015.009.011.013.023.013.038 0 .014-.004.026-.013.036s-.023.015-.04.015c-.018 0-.031-.005-.04-.015s-.013-.022-.013-.036z" fill="#fff" fill-rule="nonzero" transform="matrix(32.00010645891 0 0 31.999955856 196.6607537589 267.0000502115)"/><path d="m.288.01c-.072 0-.13-.024-.175-.071s-.068-.11-.068-.189v-.016c0-.053.01-.099.03-.14.02-.042.048-.074.084-.097s.075-.035.117-.035c.069 0 .122.023.161.068.038.045.057.11.057.194v.038h-.358c.001.052.016.094.045.126.03.032.067.048.111.048.032 0 .059-.006.082-.019.022-.014.041-.031.058-.052l.055.043c-.044.068-.111.102-.199.102zm-.012-.474c-.036 0-.067.013-.091.04-.025.026-.04.064-.046.111h.264v-.006c-.002-.046-.015-.082-.037-.107s-.052-.038-.09-.038z" fill="#fff" fill-rule="nonzero" transform="matrix(32.00010645891 0 0 31.999955856 204.30177917929 267.0000502115)"/><path d="m.28-.064c.033 0 .061-.01.085-.029.024-.02.037-.044.04-.074h.085c-.001.031-.012.06-.031.087s-.045.049-.077.065c-.032.017-.066.025-.102.025-.072 0-.129-.024-.171-.072-.043-.048-.064-.114-.064-.197v-.015c0-.052.009-.098.028-.138s.046-.071.082-.093c.035-.022.077-.033.125-.033.059 0 .108.018.147.053.04.036.061.082.063.138h-.085c-.003-.034-.016-.062-.039-.084s-.052-.033-.086-.033c-.046 0-.082.017-.107.05s-.038.081-.038.143v.017c0 .061.013.108.038.141s.061.049.107.049z" fill="#fff" fill-rule="nonzero" transform="matrix(32.00010645891 0 0 31.999955856 221.25483557922 267.0000502115)"/><path d="m.191-.656v.128h.099v.07h-.099v.327c0 .021.004.037.013.048.009.01.024.016.045.016.01 0 .025-.002.043-.006v.073c-.024.007-.047.01-.069.01-.041 0-.071-.012-.092-.037-.02-.024-.03-.059-.03-.104v-.327h-.097v-.07h.097v-.128z" fill="#fff" fill-rule="nonzero" transform="matrix(32.00010645891 0 0 31.999955856 238.00489130381 267.0000502115)"/><path d="m.376-.14c0-.025-.009-.044-.028-.057-.018-.014-.05-.025-.096-.035s-.082-.021-.109-.035-.046-.03-.059-.049-.02-.041-.02-.067c0-.044.019-.08.055-.11.037-.03.084-.045.141-.045.06 0 .108.015.146.046.037.031.055.071.055.119h-.09c0-.025-.011-.046-.032-.064s-.047-.027-.079-.027c-.033 0-.059.007-.077.022-.019.014-.028.033-.028.056 0 .022.008.038.026.049.017.011.048.022.093.032s.082.022.11.036.049.031.062.05c.014.02.02.044.02.073 0 .047-.019.085-.056.113-.038.029-.087.043-.147.043-.043 0-.08-.008-.113-.023-.032-.015-.058-.036-.076-.062-.018-.027-.028-.056-.028-.088h.091c.001.031.013.055.036.072.023.018.053.027.09.027.034 0 .061-.007.082-.021s.031-.032.031-.055z" fill="#fff" fill-rule="nonzero" transform="matrix(32.00010645891 0 0 31.999955856 248.45792607927 267.0000502115)"/><path d="m332 316.75c0-18.075-7.449-32.75-16.625-32.75h-175.75c-9.176 0-16.625 14.675-16.625 32.75v65.5c0 18.075 7.449 32.75 16.625 32.75h175.75c9.176 0 16.625-14.675 16.625-32.75z" fill="#27c278" transform="matrix(1.05263845809 0 0 .53435 -59.47380379576 208.24415856)"/><path d="m.177-.077h.337v.077h-.431v-.711h.094z" fill="#fff" fill-rule="nonzero" transform="matrix(32.00010645891 0 0 31.999955856 118.70349440836 406.9997502115)"/><path d="m.167 0h-.091v-.528h.091zm-.098-.668c0-.015.004-.027.013-.038.009-.01.022-.015.04-.015s.031.005.04.015c.009.011.014.023.014.038 0 .014-.005.026-.014.036s-.022.015-.04.015-.031-.005-.04-.015-.013-.022-.013-.036z" fill="#fff" fill-rule="nonzero" transform="matrix(32.00010645891 0 0 31.999955856 135.92255169324 406.9997502115)"/><path d="m.516-.258c0 .08-.019.145-.056.194s-.087.074-.149.074c-.067 0-.119-.024-.155-.071l-.005.061h-.083v-.75h.091v.28c.036-.045.086-.068.151-.068.064 0 .114.024.151.073.036.048.055.115.055.199zm-.091-.011c0-.061-.012-.109-.035-.142-.024-.034-.058-.05-.103-.05-.059 0-.102.027-.128.083v.228c.027.055.07.083.129.083.043 0 .077-.017.101-.05.024-.034.036-.084.036-.152z" fill="#fff" fill-rule="nonzero" transform="matrix(32.00010645891 0 0 31.999955856 143.68857752948 406.9997502115)"/><path d="m.324-.447c-.014-.003-.029-.004-.045-.004-.059 0-.099.026-.12.076v.375h-.091v-.528h.088l.002.061c.029-.047.071-.071.126-.071.017 0 .031.002.04.007z" fill="#fff" fill-rule="nonzero" transform="matrix(32.00010645891 0 0 31.999955856 161.64163725626 406.9997502115)"/><path d="m.395 0c-.006-.01-.01-.029-.013-.056-.042.044-.092.066-.151.066-.052 0-.094-.015-.128-.044-.033-.03-.05-.067-.05-.112 0-.055.021-.098.063-.129.042-.03.101-.045.176-.045h.088v-.042c0-.031-.009-.057-.028-.075-.019-.019-.047-.028-.083-.028-.033 0-.06.008-.081.024-.022.016-.033.036-.033.059h-.091c0-.026.009-.052.028-.076.019-.025.044-.044.076-.059.032-.014.068-.021.106-.021.061 0 .108.015.143.046.034.03.052.072.054.125v.243c0 .049.006.088.018.116v.008zm-.15-.069c.028 0 .055-.007.08-.022.026-.014.044-.034.055-.057v-.108h-.07c-.111 0-.166.032-.166.097 0 .028.009.05.028.066s.043.024.073.024z" fill="#fff" fill-rule="nonzero" transform="matrix(32.00010645891 0 0 31.999955856 171.84467120001 406.9997502115)"/><path d="m.324-.447c-.014-.003-.029-.004-.045-.004-.059 0-.099.026-.12.076v.375h-.091v-.528h.088l.002.061c.029-.047.071-.071.126-.071.017 0 .031.002.04.007z" fill="#fff" fill-rule="nonzero" transform="matrix(32.00010645891 0 0 31.999955856 189.25072910701 406.9997502115)"/><path d="m.167 0h-.091v-.528h.091zm-.098-.668c0-.015.004-.027.013-.038.009-.01.022-.015.04-.015s.031.005.04.015c.009.011.014.023.014.038 0 .014-.005.026-.014.036s-.022.015-.04.015-.031-.005-.04-.015-.013-.022-.013-.036z" fill="#fff" fill-rule="nonzero" transform="matrix(32.00010645891 0 0 31.999955856 200.07876513004 406.9997502115)"/><path d="m.288.01c-.072 0-.13-.024-.175-.071s-.068-.11-.068-.189v-.016c0-.053.01-.099.03-.14.02-.042.048-.074.084-.097s.075-.035.117-.035c.069 0 .122.023.161.068.038.045.057.11.057.194v.038h-.358c.001.052.016.094.045.126.03.032.067.048.111.048.032 0 .059-.006.082-.019.022-.014.041-.031.058-.052l.055.043c-.044.068-.111.102-.199.102zm-.012-.474c-.036 0-.067.013-.091.04-.025.026-.04.064-.046.111h.264v-.006c-.002-.046-.015-.082-.037-.107s-.052-.038-.09-.038z" fill="#fff" fill-rule="nonzero" transform="matrix(32.00010645891 0 0 31.999955856 207.84479096628 406.9997502115)"/><path d="m.376-.14c0-.025-.009-.044-.028-.057-.018-.014-.05-.025-.096-.035s-.082-.021-.109-.035-.046-.03-.059-.049-.02-.041-.02-.067c0-.044.019-.08.055-.11.037-.03.084-.045.141-.045.06 0 .108.015.146.046.037.031.055.071.055.119h-.09c0-.025-.011-.046-.032-.064s-.047-.027-.079-.027c-.033 0-.059.007-.077.022-.019.014-.028.033-.028.056 0 .022.008.038.026.049.017.011.048.022.093.032s.082.022.11.036.049.031.062.05c.014.02.02.044.02.073 0 .047-.019.085-.056.113-.038.029-.087.043-.147.043-.043 0-.08-.008-.113-.023-.032-.015-.058-.036-.076-.062-.018-.027-.028-.056-.028-.088h.091c.001.031.013.055.036.072.023.018.053.027.09.027.034 0 .061-.007.082-.021s.031-.032.031-.055z" fill="#fff" fill-rule="nonzero" transform="matrix(32.00010645891 0 0 31.999955856 224.79784736622 406.9997502115)"/><path d="m332 296.476c0-6.886-13.379-12.476-29.857-12.476h-149.286c-16.478 0-29.857 5.59-29.857 12.476v106.048c0 6.886 13.379 12.476 29.857 12.476h149.286c16.478 0 29.857-5.59 29.857-12.476z" fill="#fff" stroke="#27c278" stroke-width="1.63" transform="matrix(1.3397221611 0 0 3.2061 869.21466252 -870.5324)"/><path d="m.135-.125c.022 0 .039.006.051.019.012.012.018.028.018.047 0 .018-.006.034-.018.046-.012.012-.029.018-.051.018-.021 0-.038-.006-.051-.018-.012-.012-.018-.027-.018-.046s.006-.035.018-.047c.012-.013.029-.019.051-.019z" fill="#2d2e44" fill-rule="nonzero" transform="matrix(32.00009676192 0 0 31.99990797824 1160.59437879676 326.99903104656)"/><path d="m.135-.125c.022 0 .039.006.051.019.012.012.018.028.018.047 0 .018-.006.034-.018.046-.012.012-.029.018-.051.018-.021 0-.038-.006-.051-.018-.012-.012-.018-.027-.018-.046s.006-.035.018-.047c.012-.013.029-.019.051-.019z" fill="#2d2e44" fill-rule="nonzero" transform="matrix(32.00009676192 0 0 31.99990797824 1169.53140582055 326.99903104656)"/><path d="m.135-.125c.022 0 .039.006.051.019.012.012.018.028.018.047 0 .018-.006.034-.018.046-.012.012-.029.018-.051.018-.021 0-.038-.006-.051-.018-.012-.012-.018-.027-.018-.046s.006-.035.018-.047c.012-.013.029-.019.051-.019z" fill="#2d2e44" fill-rule="nonzero" transform="matrix(32.00009676192 0 0 31.99990797824 1178.46943284737 326.99903104656)"/><path d="m.64-.337c0 .07-.012.131-.036.183-.025.053-.059.093-.104.122-.045.028-.096.042-.154.042s-.109-.014-.154-.042c-.045-.029-.08-.069-.105-.121-.024-.052-.037-.112-.037-.18v-.04c0-.069.012-.131.037-.184.024-.053.059-.093.104-.121.044-.029.096-.043.154-.043s.109.014.154.042.079.068.104.12c.024.052.036.113.037.183zm-.124-.037c0-.079-.015-.139-.045-.181-.029-.042-.072-.063-.126-.063s-.095.021-.126.063c-.03.041-.045.101-.046.177v.041c0 .078.016.139.046.181.03.043.073.064.127.064s.096-.021.126-.062c.029-.042.044-.103.044-.183z" fill="#2d2e44" fill-rule="nonzero" transform="matrix(32.00009676192 0 0 31.99990797824 1125.52327274872 87.9996088992)"/><path d="m.381-.052c-.035.041-.084.062-.149.062-.057 0-.1-.017-.13-.051-.029-.033-.044-.082-.044-.145v-.342h.119v.34c0 .068.028.101.083.101.058 0 .097-.021.117-.062v-.379h.119v.528h-.112z" fill="#2d2e44" fill-rule="nonzero" transform="matrix(32.00009676192 0 0 31.99990797824 1147.61733955678 87.9996088992)"/><path d="m.209-.657v.129h.094v.088h-.094v.294c0 .021.004.035.012.044s.023.014.043.014c.014 0 .028-.002.042-.005v.092c-.027.007-.053.011-.078.011-.092 0-.137-.051-.137-.151v-.299h-.087v-.088h.087v-.129z" fill="#2d2e44" fill-rule="nonzero" transform="matrix(32.00009676192 0 0 31.99990797824 1165.39839332315 87.9996088992)"/><path d="m.523-.259c0 .082-.018.147-.055.196-.037.048-.087.073-.15.073-.058 0-.104-.019-.139-.057v.25h-.118v-.731h.109l.005.053c.035-.042.082-.063.142-.063.064 0 .115.024.152.072.036.048.054.115.054.2zm-.118-.01c0-.053-.01-.095-.031-.126-.021-.03-.051-.046-.09-.046-.049 0-.084.02-.105.06v.235c.022.041.057.061.106.061.037 0 .067-.015.088-.046.022-.03.032-.076.032-.138z" fill="#2d2e44" fill-rule="nonzero" transform="matrix(32.00009676192 0 0 31.99990797824 1176.03942549951 87.9996088992)"/><path d="m.381-.052c-.035.041-.084.062-.149.062-.057 0-.1-.017-.13-.051-.029-.033-.044-.082-.044-.145v-.342h.119v.34c0 .068.028.101.083.101.058 0 .097-.021.117-.062v-.379h.119v.528h-.112z" fill="#2d2e44" fill-rule="nonzero" transform="matrix(32.00009676192 0 0 31.99990797824 1194.05547997647 87.9996088992)"/><path d="m.209-.657v.129h.094v.088h-.094v.294c0 .021.004.035.012.044s.023.014.043.014c.014 0 .028-.002.042-.005v.092c-.027.007-.053.011-.078.011-.092 0-.137-.051-.137-.151v-.299h-.087v-.088h.087v-.129z" fill="#2d2e44" fill-rule="nonzero" transform="matrix(32.00009676192 0 0 31.99990797824 1211.83653374284 87.9996088992)"/><path d="m332 316.75c0-18.075-7.449-32.75-16.625-32.75h-175.75c-9.176 0-16.625 14.675-16.625 32.75v65.5c0 18.075 7.449 32.75 16.625 32.75h175.75c9.176 0 16.625-14.675 16.625-32.75z" fill="#27c278" transform="matrix(1.05263845809 0 0 .53435 934.52586620424 -31.75508288)"/><path d="m.176-.278v.278h-.093v-.711h.262c.078 0 .138.02.183.06.044.039.066.092.066.157 0 .069-.022.122-.065.16-.043.037-.105.056-.185.056zm0-.077h.169c.05 0 .088-.012.115-.035.027-.024.04-.058.04-.103 0-.042-.013-.076-.04-.101-.027-.026-.063-.039-.11-.04h-.174z" fill="#fff" fill-rule="nonzero" transform="matrix(32.00010645891 0 0 31.999955856 1123.62520074412 167.0005087715)"/><path d="m.324-.447c-.014-.003-.029-.004-.045-.004-.059 0-.099.026-.12.076v.375h-.091v-.528h.088l.002.061c.029-.047.071-.071.126-.071.017 0 .031.002.04.007z" fill="#fff" fill-rule="nonzero" transform="matrix(32.00010645891 0 0 31.999955856 1143.81226790306 167.0005087715)"/><path d="m.044-.269c0-.052.011-.098.031-.14.02-.041.049-.073.085-.095.036-.023.078-.034.124-.034.072 0 .13.025.175.075.044.049.066.116.066.198v.007c0 .051-.009.097-.029.138s-.048.073-.085.096c-.036.022-.078.034-.126.034-.071 0-.129-.025-.174-.075-.044-.05-.067-.116-.067-.198zm.091.011c0 .058.014.105.041.141.027.035.064.053.109.053.046 0 .083-.018.11-.054s.04-.086.04-.151c0-.058-.014-.105-.041-.141-.028-.036-.064-.054-.11-.054-.044 0-.08.018-.108.053-.027.036-.041.087-.041.153z" fill="#fff" fill-rule="nonzero" transform="matrix(32.00010645891 0 0 31.999955856 1154.32830288811 167.0005087715)"/><path d="m.162-.528v.589c0 .102-.046.152-.139.152-.019 0-.038-.003-.055-.008v-.073c.011.003.024.004.041.004.02 0 .036-.005.046-.016.011-.011.016-.03.016-.057v-.591zm-.1-.14c0-.015.004-.027.013-.037.009-.011.022-.016.04-.016.017 0 .031.005.04.015.009.011.013.023.013.038 0 .014-.004.026-.013.036s-.023.015-.04.015c-.018 0-.031-.005-.04-.015s-.013-.022-.013-.036z" fill="#fff" fill-rule="nonzero" transform="matrix(32.00010645891 0 0 31.999955856 1172.57836360296 167.0005087715)"/><path d="m.288.01c-.072 0-.13-.024-.175-.071s-.068-.11-.068-.189v-.016c0-.053.01-.099.03-.14.02-.042.048-.074.084-.097s.075-.035.117-.035c.069 0 .122.023.161.068.038.045.057.11.057.194v.038h-.358c.001.052.016.094.045.126.03.032.067.048.111.048.032 0 .059-.006.082-.019.022-.014.041-.031.058-.052l.055.043c-.044.068-.111.102-.199.102zm-.012-.474c-.036 0-.067.013-.091.04-.025.026-.04.064-.046.111h.264v-.006c-.002-.046-.015-.082-.037-.107s-.052-.038-.09-.038z" fill="#fff" fill-rule="nonzero" transform="matrix(32.00010645891 0 0 31.999955856 1180.21938902335 167.0005087715)"/><path d="m.28-.064c.033 0 .061-.01.085-.029.024-.02.037-.044.04-.074h.085c-.001.031-.012.06-.031.087s-.045.049-.077.065c-.032.017-.066.025-.102.025-.072 0-.129-.024-.171-.072-.043-.048-.064-.114-.064-.197v-.015c0-.052.009-.098.028-.138s.046-.071.082-.093c.035-.022.077-.033.125-.033.059 0 .108.018.147.053.04.036.061.082.063.138h-.085c-.003-.034-.016-.062-.039-.084s-.052-.033-.086-.033c-.046 0-.082.017-.107.05s-.038.081-.038.143v.017c0 .061.013.108.038.141s.061.049.107.049z" fill="#fff" fill-rule="nonzero" transform="matrix(32.00010645891 0 0 31.999955856 1197.17244542328 167.0005087715)"/><path d="m.191-.656v.128h.099v.07h-.099v.327c0 .021.004.037.013.048.009.01.024.016.045.016.01 0 .025-.002.043-.006v.073c-.024.007-.047.01-.069.01-.041 0-.071-.012-.092-.037-.02-.024-.03-.059-.03-.104v-.327h-.097v-.07h.097v-.128z" fill="#fff" fill-rule="nonzero" transform="matrix(32.00010645891 0 0 31.999955856 1213.92250114787 167.0005087715)"/><path d="m332 316.75c0-18.075-7.449-32.75-16.625-32.75h-175.75c-9.176 0-16.625 14.675-16.625 32.75v65.5c0 18.075 7.449 32.75 16.625 32.75h175.75c9.176 0 16.625-14.675 16.625-32.75z" fill="#27c278" transform="matrix(1.05263845809 0 0 .53435 934.52586620424 68.24445856)"/><path d="m.292-.317c-.08-.023-.139-.051-.176-.085-.036-.034-.054-.075-.054-.125 0-.056.022-.102.067-.139.044-.036.103-.055.174-.055.049 0 .093.01.131.029.038.018.068.045.089.078s.031.069.031.109h-.094c0-.043-.014-.077-.041-.102-.027-.024-.066-.037-.116-.037-.046 0-.082.011-.108.031s-.039.049-.039.085c0 .029.013.053.037.073.025.02.067.038.126.055s.105.035.138.055c.034.02.058.043.074.07.017.027.025.058.025.094 0 .058-.023.104-.068.139-.045.034-.105.052-.18.052-.049 0-.094-.01-.137-.028-.042-.019-.075-.045-.098-.077-.022-.033-.034-.07-.034-.111h.094c0 .043.016.077.048.102s.074.037.127.037c.05 0 .088-.01.114-.03s.039-.048.039-.083-.012-.061-.036-.08c-.025-.02-.069-.038-.133-.057z" fill="#fff" fill-rule="nonzero" transform="matrix(32.00010645891 0 0 31.999955856 1089.04308569531 267.0000502115)"/><path d="m.395-.052c-.036.041-.087.062-.155.062-.057 0-.099-.017-.129-.049-.029-.033-.044-.081-.045-.146v-.343h.091v.341c0 .08.032.12.097.12.069 0 .115-.026.138-.077v-.384h.09v.528h-.086z" fill="#fff" fill-rule="nonzero" transform="matrix(32.00010645891 0 0 31.999955856 1108.02814885538 267.0000502115)"/><path d="m.516-.258c0 .08-.019.145-.056.194s-.087.074-.149.074c-.067 0-.119-.024-.155-.071l-.005.061h-.083v-.75h.091v.28c.036-.045.086-.068.151-.068.064 0 .114.024.151.073.036.048.055.115.055.199zm-.091-.011c0-.061-.012-.109-.035-.142-.024-.034-.058-.05-.103-.05-.059 0-.102.027-.128.083v.228c.027.055.07.083.129.083.043 0 .077-.017.101-.05.024-.034.036-.084.036-.152z" fill="#fff" fill-rule="nonzero" transform="matrix(32.00010645891 0 0 31.999955856 1125.66820754085 267.0000502115)"/><path d="m.515-.258c0 .08-.019.145-.056.194-.036.049-.086.074-.149.074-.064 0-.115-.021-.151-.061v.254h-.091v-.731h.083l.004.058c.037-.045.088-.068.154-.068.063 0 .113.024.15.072s.056.114.056.199zm-.091-.011c0-.059-.012-.106-.038-.141-.025-.034-.06-.051-.104-.051-.055 0-.096.024-.123.072v.253c.027.048.068.072.124.072.043 0 .077-.017.103-.051.026-.035.038-.086.038-.154z" fill="#fff" fill-rule="nonzero" transform="matrix(32.00010645891 0 0 31.999955856 1143.62126726763 267.0000502115)"/><path d="m.324-.447c-.014-.003-.029-.004-.045-.004-.059 0-.099.026-.12.076v.375h-.091v-.528h.088l.002.061c.029-.047.071-.071.126-.071.017 0 .031.002.04.007z" fill="#fff" fill-rule="nonzero" transform="matrix(32.00010645891 0 0 31.999955856 1161.5743269944 267.0000502115)"/><path d="m.044-.269c0-.052.011-.098.031-.14.02-.041.049-.073.085-.095.036-.023.078-.034.124-.034.072 0 .13.025.175.075.044.049.066.116.066.198v.007c0 .051-.009.097-.029.138s-.048.073-.085.096c-.036.022-.078.034-.126.034-.071 0-.129-.025-.174-.075-.044-.05-.067-.116-.067-.198zm.091.011c0 .058.014.105.041.141.027.035.064.053.109.053.046 0 .083-.018.11-.054s.04-.086.04-.151c0-.058-.014-.105-.041-.141-.028-.036-.064-.054-.11-.054-.044 0-.08.018-.108.053-.027.036-.041.087-.041.153z" fill="#fff" fill-rule="nonzero" transform="matrix(32.00010645891 0 0 31.999955856 1172.09036197946 267.0000502115)"/><path d="m.162-.528v.589c0 .102-.046.152-.139.152-.019 0-.038-.003-.055-.008v-.073c.011.003.024.004.041.004.02 0 .036-.005.046-.016.011-.011.016-.03.016-.057v-.591zm-.1-.14c0-.015.004-.027.013-.037.009-.011.022-.016.04-.016.017 0 .031.005.04.015.009.011.013.023.013.038 0 .014-.004.026-.013.036s-.023.015-.04.015c-.018 0-.031-.005-.04-.015s-.013-.022-.013-.036z" fill="#fff" fill-rule="nonzero" transform="matrix(32.00010645891 0 0 31.999955856 1190.6604237589 267.0000502115)"/><path d="m.288.01c-.072 0-.13-.024-.175-.071s-.068-.11-.068-.189v-.016c0-.053.01-.099.03-.14.02-.042.048-.074.084-.097s.075-.035.117-.035c.069 0 .122.023.161.068.038.045.057.11.057.194v.038h-.358c.001.052.016.094.045.126.03.032.067.048.111.048.032 0 .059-.006.082-.019.022-.014.041-.031.058-.052l.055.043c-.044.068-.111.102-.199.102zm-.012-.474c-.036 0-.067.013-.091.04-.025.026-.04.064-.046.111h.264v-.006c-.002-.046-.015-.082-.037-.107s-.052-.038-.09-.038z" fill="#fff" fill-rule="nonzero" transform="matrix(32.00010645891 0 0 31.999955856 1198.30144917929 267.0000502115)"/><path d="m.28-.064c.033 0 .061-.01.085-.029.024-.02.037-.044.04-.074h.085c-.001.031-.012.06-.031.087s-.045.049-.077.065c-.032.017-.066.025-.102.025-.072 0-.129-.024-.171-.072-.043-.048-.064-.114-.064-.197v-.015c0-.052.009-.098.028-.138s.046-.071.082-.093c.035-.022.077-.033.125-.033.059 0 .108.018.147.053.04.036.061.082.063.138h-.085c-.003-.034-.016-.062-.039-.084s-.052-.033-.086-.033c-.046 0-.082.017-.107.05s-.038.081-.038.143v.017c0 .061.013.108.038.141s.061.049.107.049z" fill="#fff" fill-rule="nonzero" transform="matrix(32.00010645891 0 0 31.999955856 1215.25450557922 267.0000502115)"/><path d="m.191-.656v.128h.099v.07h-.099v.327c0 .021.004.037.013.048.009.01.024.016.045.016.01 0 .025-.002.043-.006v.073c-.024.007-.047.01-.069.01-.041 0-.071-.012-.092-.037-.02-.024-.03-.059-.03-.104v-.327h-.097v-.07h.097v-.128z" fill="#fff" fill-rule="nonzero" transform="matrix(32.00010645891 0 0 31.999955856 1232.00456130381 267.0000502115)"/><path d="m.376-.14c0-.025-.009-.044-.028-.057-.018-.014-.05-.025-.096-.035s-.082-.021-.109-.035-.046-.03-.059-.049-.02-.041-.02-.067c0-.044.019-.08.055-.11.037-.03.084-.045.141-.045.06 0 .108.015.146.046.037.031.055.071.055.119h-.09c0-.025-.011-.046-.032-.064s-.047-.027-.079-.027c-.033 0-.059.007-.077.022-.019.014-.028.033-.028.056 0 .022.008.038.026.049.017.011.048.022.093.032s.082.022.11.036.049.031.062.05c.014.02.02.044.02.073 0 .047-.019.085-.056.113-.038.029-.087.043-.147.043-.043 0-.08-.008-.113-.023-.032-.015-.058-.036-.076-.062-.018-.027-.028-.056-.028-.088h.091c.001.031.013.055.036.072.023.018.053.027.09.027.034 0 .061-.007.082-.021s.031-.032.031-.055z" fill="#fff" fill-rule="nonzero" transform="matrix(32.00010645891 0 0 31.999955856 1242.45759607927 267.0000502115)"/><path d="m332 316.75c0-18.075-7.449-32.75-16.625-32.75h-175.75c-9.176 0-16.625 14.675-16.625 32.75v65.5c0 18.075 7.449 32.75 16.625 32.75h175.75c9.176 0 16.625-14.675 16.625-32.75z" fill="#27c278" transform="matrix(1.05263845809 0 0 .53435 934.52586620424 208.24415856)"/><g fill-rule="nonzero"><path d="m.177-.077h.337v.077h-.431v-.711h.094z" fill="#fff" transform="matrix(32.00010645891 0 0 31.999955856 1112.70316440836 406.9997502115)"/><path d="m.167 0h-.091v-.528h.091zm-.098-.668c0-.015.004-.027.013-.038.009-.01.022-.015.04-.015s.031.005.04.015c.009.011.014.023.014.038 0 .014-.005.026-.014.036s-.022.015-.04.015-.031-.005-.04-.015-.013-.022-.013-.036z" fill="#fff" transform="matrix(32.00010645891 0 0 31.999955856 1129.92222169324 406.9997502115)"/><path d="m.516-.258c0 .08-.019.145-.056.194s-.087.074-.149.074c-.067 0-.119-.024-.155-.071l-.005.061h-.083v-.75h.091v.28c.036-.045.086-.068.151-.068.064 0 .114.024.151.073.036.048.055.115.055.199zm-.091-.011c0-.061-.012-.109-.035-.142-.024-.034-.058-.05-.103-.05-.059 0-.102.027-.128.083v.228c.027.055.07.083.129.083.043 0 .077-.017.101-.05.024-.034.036-.084.036-.152z" fill="#fff" transform="matrix(32.00010645891 0 0 31.999955856 1137.68824752948 406.9997502115)"/><path d="m.324-.447c-.014-.003-.029-.004-.045-.004-.059 0-.099.026-.12.076v.375h-.091v-.528h.088l.002.061c.029-.047.071-.071.126-.071.017 0 .031.002.04.007z" fill="#fff" transform="matrix(32.00010645891 0 0 31.999955856 1155.64130725626 406.9997502115)"/><path d="m.395 0c-.006-.01-.01-.029-.013-.056-.042.044-.092.066-.151.066-.052 0-.094-.015-.128-.044-.033-.03-.05-.067-.05-.112 0-.055.021-.098.063-.129.042-.03.101-.045.176-.045h.088v-.042c0-.031-.009-.057-.028-.075-.019-.019-.047-.028-.083-.028-.033 0-.06.008-.081.024-.022.016-.033.036-.033.059h-.091c0-.026.009-.052.028-.076.019-.025.044-.044.076-.059.032-.014.068-.021.106-.021.061 0 .108.015.143.046.034.03.052.072.054.125v.243c0 .049.006.088.018.116v.008zm-.15-.069c.028 0 .055-.007.08-.022.026-.014.044-.034.055-.057v-.108h-.07c-.111 0-.166.032-.166.097 0 .028.009.05.028.066s.043.024.073.024z" fill="#fff" transform="matrix(32.00010645891 0 0 31.999955856 1165.84434120001 406.9997502115)"/><path d="m.324-.447c-.014-.003-.029-.004-.045-.004-.059 0-.099.026-.12.076v.375h-.091v-.528h.088l.002.061c.029-.047.071-.071.126-.071.017 0 .031.002.04.007z" fill="#fff" transform="matrix(32.00010645891 0 0 31.999955856 1183.25039910701 406.9997502115)"/><path d="m.167 0h-.091v-.528h.091zm-.098-.668c0-.015.004-.027.013-.038.009-.01.022-.015.04-.015s.031.005.04.015c.009.011.014.023.014.038 0 .014-.005.026-.014.036s-.022.015-.04.015-.031-.005-.04-.015-.013-.022-.013-.036z" fill="#fff" transform="matrix(32.00010645891 0 0 31.999955856 1194.07843513004 406.9997502115)"/><path d="m.288.01c-.072 0-.13-.024-.175-.071s-.068-.11-.068-.189v-.016c0-.053.01-.099.03-.14.02-.042.048-.074.084-.097s.075-.035.117-.035c.069 0 .122.023.161.068.038.045.057.11.057.194v.038h-.358c.001.052.016.094.045.126.03.032.067.048.111.048.032 0 .059-.006.082-.019.022-.014.041-.031.058-.052l.055.043c-.044.068-.111.102-.199.102zm-.012-.474c-.036 0-.067.013-.091.04-.025.026-.04.064-.046.111h.264v-.006c-.002-.046-.015-.082-.037-.107s-.052-.038-.09-.038z" fill="#fff" transform="matrix(32.00010645891 0 0 31.999955856 1201.84446096628 406.9997502115)"/><path d="m.376-.14c0-.025-.009-.044-.028-.057-.018-.014-.05-.025-.096-.035s-.082-.021-.109-.035-.046-.03-.059-.049-.02-.041-.02-.067c0-.044.019-.08.055-.11.037-.03.084-.045.141-.045.06 0 .108.015.146.046.037.031.055.071.055.119h-.09c0-.025-.011-.046-.032-.064s-.047-.027-.079-.027c-.033 0-.059.007-.077.022-.019.014-.028.033-.028.056 0 .022.008.038.026.049.017.011.048.022.093.032s.082.022.11.036.049.031.062.05c.014.02.02.044.02.073 0 .047-.019.085-.056.113-.038.029-.087.043-.147.043-.043 0-.08-.008-.113-.023-.032-.015-.058-.036-.076-.062-.018-.027-.028-.056-.028-.088h.091c.001.031.013.055.036.072.023.018.053.027.09.027.034 0 .061-.007.082-.021s.031-.032.031-.055z" fill="#fff" transform="matrix(32.00010645891 0 0 31.999955856 1218.79751736622 406.9997502115)"/><path d="m.135-.125c.022 0 .039.006.051.019.012.012.018.028.018.047 0 .018-.006.034-.018.046-.012.012-.029.018-.051.018-.021 0-.038-.006-.051-.018-.012-.012-.018-.027-.018-.046s.006-.035.018-.047c.012-.013.029-.019.051-.019z" fill="#2d2e44" transform="matrix(32 0 0 32 665.594 251)"/><path d="m.135-.125c.022 0 .039.006.051.019.012.012.018.028.018.047 0 .018-.006.034-.018.046-.012.012-.029.018-.051.018-.021 0-.038-.006-.051-.018-.012-.012-.018-.027-.018-.046s.006-.035.018-.047c.012-.013.029-.019.051-.019z" fill="#2d2e44" transform="matrix(32 0 0 32 674.531 251)"/><path d="m.135-.125c.022 0 .039.006.051.019.012.012.018.028.018.047 0 .018-.006.034-.018.046-.012.012-.029.018-.051.018-.021 0-.038-.006-.051-.018-.012-.012-.018-.027-.018-.046s.006-.035.018-.047c.012-.013.029-.019.051-.019z" fill="#2d2e44" transform="matrix(32 0 0 32 683.469 251)"/></g></svg>