<?xml version="1.0" encoding="UTF-8" standalone="no"?>
<!DOCTYPE svg PUBLIC "-//W3C//DTD SVG 1.1//EN" "http://www.w3.org/Graphics/SVG/1.1/DTD/svg11.dtd">
<svg width="100%" height="100%" viewBox="0 0 1354 500" version="1.1" xmlns="http://www.w3.org/2000/svg" xmlns:xlink="http://www.w3.org/1999/xlink" xml:space="preserve" xmlns:serif="http://www.serif.com/" style="fill-rule:evenodd;clip-rule:evenodd;stroke-linecap:round;stroke-linejoin:round;stroke-miterlimit:1.5;">
    <g transform="matrix(0.833333,0,0,0.610687,364.667,148.931)">
        <g transform="matrix(1.14833,0,0,1,-101.244,-184)">
            <path d="M332,316.75C332,298.675 322.635,284 311.1,284L143.9,284C132.365,284 123,298.675 123,316.75L123,382.25C123,400.325 132.365,415 143.9,415L311.1,415C322.635,415 332,400.325 332,382.25L332,316.75Z" style="fill:rgb(39,194,120);"/>
        </g>
        <g transform="matrix(1.2,0,0,1.6375,-171.2,-450.2)">
            <g transform="matrix(32,0,0,32,189.094,388)">
                <path d="M0.574,-0.634L0.345,-0.634L0.345,0L0.252,0L0.252,-0.634L0.024,-0.634L0.024,-0.711L0.574,-0.711L0.574,-0.634Z" style="fill:white;fill-rule:nonzero;"/>
            </g>
            <g transform="matrix(32,0,0,32,207.016,388)">
                <path d="M0.324,-0.447C0.31,-0.45 0.295,-0.451 0.279,-0.451C0.22,-0.451 0.18,-0.425 0.159,-0.375L0.159,0L0.068,0L0.068,-0.528L0.156,-0.528L0.158,-0.467C0.187,-0.514 0.229,-0.538 0.284,-0.538C0.301,-0.538 0.315,-0.536 0.324,-0.531L0.324,-0.447Z" style="fill:white;fill-rule:nonzero;"/>
            </g>
            <g transform="matrix(32,0,0,32,217.219,388)">
                <path d="M0.395,0C0.389,-0.01 0.385,-0.029 0.382,-0.056C0.34,-0.012 0.29,0.01 0.231,0.01C0.179,0.01 0.137,-0.005 0.103,-0.034C0.07,-0.064 0.053,-0.101 0.053,-0.146C0.053,-0.201 0.074,-0.244 0.116,-0.275C0.158,-0.305 0.217,-0.32 0.292,-0.32L0.38,-0.32L0.38,-0.362C0.38,-0.393 0.371,-0.419 0.352,-0.437C0.333,-0.456 0.305,-0.465 0.269,-0.465C0.236,-0.465 0.209,-0.457 0.188,-0.441C0.166,-0.425 0.155,-0.405 0.155,-0.382L0.064,-0.382C0.064,-0.408 0.073,-0.434 0.092,-0.458C0.111,-0.483 0.136,-0.502 0.168,-0.517C0.2,-0.531 0.236,-0.538 0.274,-0.538C0.335,-0.538 0.382,-0.523 0.417,-0.492C0.451,-0.462 0.469,-0.42 0.471,-0.367L0.471,-0.124C0.471,-0.075 0.477,-0.036 0.489,-0.008L0.489,0L0.395,0ZM0.245,-0.069C0.273,-0.069 0.3,-0.076 0.325,-0.091C0.351,-0.105 0.369,-0.125 0.38,-0.148L0.38,-0.256L0.31,-0.256C0.199,-0.256 0.144,-0.224 0.144,-0.159C0.144,-0.131 0.153,-0.109 0.172,-0.093C0.191,-0.077 0.215,-0.069 0.245,-0.069Z" style="fill:white;fill-rule:nonzero;"/>
            </g>
            <g transform="matrix(32,0,0,32,234.625,388)">
                <path d="M0.154,-0.528L0.157,-0.462C0.197,-0.513 0.25,-0.538 0.315,-0.538C0.427,-0.538 0.483,-0.475 0.484,-0.349L0.484,0L0.394,0L0.394,-0.35C0.393,-0.388 0.385,-0.416 0.367,-0.434C0.35,-0.452 0.324,-0.461 0.288,-0.461C0.258,-0.461 0.233,-0.454 0.21,-0.438C0.188,-0.422 0.171,-0.402 0.159,-0.376L0.159,0L0.068,0L0.068,-0.528L0.154,-0.528Z" style="fill:white;fill-rule:nonzero;"/>
            </g>
            <g transform="matrix(32,0,0,32,252.281,388)">
                <path d="M0.376,-0.14C0.376,-0.165 0.367,-0.184 0.348,-0.197C0.33,-0.211 0.298,-0.222 0.252,-0.232C0.206,-0.242 0.17,-0.253 0.143,-0.267C0.116,-0.281 0.097,-0.297 0.084,-0.316C0.071,-0.335 0.064,-0.357 0.064,-0.383C0.064,-0.427 0.083,-0.463 0.119,-0.493C0.156,-0.523 0.203,-0.538 0.26,-0.538C0.32,-0.538 0.368,-0.523 0.406,-0.492C0.443,-0.461 0.461,-0.421 0.461,-0.373L0.371,-0.373C0.371,-0.398 0.36,-0.419 0.339,-0.437C0.318,-0.455 0.292,-0.464 0.26,-0.464C0.227,-0.464 0.201,-0.457 0.183,-0.442C0.164,-0.428 0.155,-0.409 0.155,-0.386C0.155,-0.364 0.163,-0.348 0.181,-0.337C0.198,-0.326 0.229,-0.315 0.274,-0.305C0.319,-0.295 0.356,-0.283 0.384,-0.269C0.412,-0.255 0.433,-0.238 0.446,-0.219C0.46,-0.199 0.466,-0.175 0.466,-0.146C0.466,-0.099 0.447,-0.061 0.41,-0.033C0.372,-0.004 0.323,0.01 0.263,0.01C0.22,0.01 0.183,0.002 0.15,-0.013C0.118,-0.028 0.092,-0.049 0.074,-0.075C0.056,-0.102 0.046,-0.131 0.046,-0.163L0.137,-0.163C0.138,-0.132 0.15,-0.108 0.173,-0.091C0.196,-0.073 0.226,-0.064 0.263,-0.064C0.297,-0.064 0.324,-0.071 0.345,-0.085C0.366,-0.099 0.376,-0.117 0.376,-0.14Z" style="fill:white;fill-rule:nonzero;"/>
            </g>
            <g transform="matrix(32,0,0,32,268.781,388)">
                <path d="M0.113,0L0.113,-0.458L0.029,-0.458L0.029,-0.528L0.113,-0.528L0.113,-0.583C0.113,-0.639 0.128,-0.683 0.158,-0.714C0.188,-0.745 0.231,-0.76 0.287,-0.76C0.307,-0.76 0.328,-0.757 0.349,-0.752L0.344,-0.679C0.328,-0.682 0.312,-0.683 0.295,-0.683C0.266,-0.683 0.243,-0.675 0.227,-0.657C0.211,-0.64 0.203,-0.616 0.203,-0.584L0.203,-0.528L0.316,-0.528L0.316,-0.458L0.203,-0.458L0.203,0L0.113,0Z" style="fill:white;fill-rule:nonzero;"/>
            </g>
            <g transform="matrix(32,0,0,32,279.891,388)">
                <path d="M0.044,-0.269C0.044,-0.321 0.055,-0.367 0.075,-0.409C0.095,-0.45 0.124,-0.482 0.16,-0.504C0.196,-0.527 0.238,-0.538 0.284,-0.538C0.356,-0.538 0.414,-0.513 0.459,-0.463C0.503,-0.414 0.525,-0.347 0.525,-0.265L0.525,-0.258C0.525,-0.207 0.516,-0.161 0.496,-0.12C0.476,-0.079 0.448,-0.047 0.411,-0.024C0.375,-0.002 0.333,0.01 0.285,0.01C0.214,0.01 0.156,-0.015 0.111,-0.065C0.067,-0.115 0.044,-0.181 0.044,-0.263L0.044,-0.269ZM0.135,-0.258C0.135,-0.2 0.149,-0.153 0.176,-0.117C0.203,-0.082 0.24,-0.064 0.285,-0.064C0.331,-0.064 0.368,-0.082 0.395,-0.118C0.422,-0.154 0.435,-0.204 0.435,-0.269C0.435,-0.327 0.421,-0.374 0.394,-0.41C0.366,-0.446 0.33,-0.464 0.284,-0.464C0.24,-0.464 0.204,-0.446 0.176,-0.411C0.149,-0.375 0.135,-0.324 0.135,-0.258Z" style="fill:white;fill-rule:nonzero;"/>
            </g>
            <g transform="matrix(32,0,0,32,298.141,388)">
                <path d="M0.324,-0.447C0.31,-0.45 0.295,-0.451 0.279,-0.451C0.22,-0.451 0.18,-0.425 0.159,-0.375L0.159,0L0.068,0L0.068,-0.528L0.156,-0.528L0.158,-0.467C0.187,-0.514 0.229,-0.538 0.284,-0.538C0.301,-0.538 0.315,-0.536 0.324,-0.531L0.324,-0.447Z" style="fill:white;fill-rule:nonzero;"/>
            </g>
            <g transform="matrix(32,0,0,32,308.969,388)">
                <path d="M0.153,-0.528L0.156,-0.47C0.194,-0.515 0.247,-0.538 0.313,-0.538C0.386,-0.538 0.437,-0.51 0.463,-0.453C0.481,-0.479 0.504,-0.499 0.532,-0.515C0.56,-0.53 0.593,-0.538 0.632,-0.538C0.748,-0.538 0.807,-0.477 0.809,-0.354L0.809,0L0.718,0L0.718,-0.349C0.718,-0.386 0.71,-0.415 0.692,-0.433C0.675,-0.452 0.646,-0.461 0.605,-0.461C0.572,-0.461 0.544,-0.451 0.522,-0.431C0.5,-0.411 0.487,-0.384 0.483,-0.351L0.483,0L0.393,0L0.393,-0.346C0.393,-0.423 0.355,-0.461 0.28,-0.461C0.221,-0.461 0.18,-0.436 0.158,-0.386L0.158,0L0.068,0L0.068,-0.528L0.153,-0.528Z" style="fill:white;fill-rule:nonzero;"/>
            </g>
            <g transform="matrix(32,0,0,32,344.938,388)">
                <path d="M0.356,0L0.265,0L0.265,-0.602L0.083,-0.535L0.083,-0.617L0.342,-0.714L0.356,-0.714L0.356,0Z" style="fill:white;fill-rule:nonzero;"/>
            </g>
        </g>
    </g>
    <g transform="matrix(0.2,0,0,0.2,286,218)">
        <path d="M320,40L410,160L320,280" style="fill:none;stroke:rgb(45,46,68);stroke-width:40px;"/>
    </g>
    <g transform="matrix(0.2,0,0,0.2,922,218)">
        <path d="M320,40L410,160L320,280" style="fill:none;stroke:rgb(45,46,68);stroke-width:40px;"/>
    </g>
    <g transform="matrix(0.833333,0,0,0.610687,722.667,148.931)">
        <g transform="matrix(1.14833,0,0,1,-101.244,-184)">
            <path d="M332,316.75C332,298.675 322.635,284 311.1,284L143.9,284C132.365,284 123,298.675 123,316.75L123,382.25C123,400.325 132.365,415 143.9,415L311.1,415C322.635,415 332,400.325 332,382.25L332,316.75Z" style="fill:rgb(39,194,120);"/>
        </g>
        <g transform="matrix(1.2,0,0,1.6375,-171.2,-450.2)">
            <g transform="matrix(32,0,0,32,186.672,388)">
                <path d="M0.574,-0.634L0.345,-0.634L0.345,0L0.252,0L0.252,-0.634L0.024,-0.634L0.024,-0.711L0.574,-0.711L0.574,-0.634Z" style="fill:white;fill-rule:nonzero;"/>
            </g>
            <g transform="matrix(32,0,0,32,204.594,388)">
                <path d="M0.324,-0.447C0.31,-0.45 0.295,-0.451 0.279,-0.451C0.22,-0.451 0.18,-0.425 0.159,-0.375L0.159,0L0.068,0L0.068,-0.528L0.156,-0.528L0.158,-0.467C0.187,-0.514 0.229,-0.538 0.284,-0.538C0.301,-0.538 0.315,-0.536 0.324,-0.531L0.324,-0.447Z" style="fill:white;fill-rule:nonzero;"/>
            </g>
            <g transform="matrix(32,0,0,32,214.797,388)">
                <path d="M0.395,0C0.389,-0.01 0.385,-0.029 0.382,-0.056C0.34,-0.012 0.29,0.01 0.231,0.01C0.179,0.01 0.137,-0.005 0.103,-0.034C0.07,-0.064 0.053,-0.101 0.053,-0.146C0.053,-0.201 0.074,-0.244 0.116,-0.275C0.158,-0.305 0.217,-0.32 0.292,-0.32L0.38,-0.32L0.38,-0.362C0.38,-0.393 0.371,-0.419 0.352,-0.437C0.333,-0.456 0.305,-0.465 0.269,-0.465C0.236,-0.465 0.209,-0.457 0.188,-0.441C0.166,-0.425 0.155,-0.405 0.155,-0.382L0.064,-0.382C0.064,-0.408 0.073,-0.434 0.092,-0.458C0.111,-0.483 0.136,-0.502 0.168,-0.517C0.2,-0.531 0.236,-0.538 0.274,-0.538C0.335,-0.538 0.382,-0.523 0.417,-0.492C0.451,-0.462 0.469,-0.42 0.471,-0.367L0.471,-0.124C0.471,-0.075 0.477,-0.036 0.489,-0.008L0.489,0L0.395,0ZM0.245,-0.069C0.273,-0.069 0.3,-0.076 0.325,-0.091C0.351,-0.105 0.369,-0.125 0.38,-0.148L0.38,-0.256L0.31,-0.256C0.199,-0.256 0.144,-0.224 0.144,-0.159C0.144,-0.131 0.153,-0.109 0.172,-0.093C0.191,-0.077 0.215,-0.069 0.245,-0.069Z" style="fill:white;fill-rule:nonzero;"/>
            </g>
            <g transform="matrix(32,0,0,32,232.203,388)">
                <path d="M0.154,-0.528L0.157,-0.462C0.197,-0.513 0.25,-0.538 0.315,-0.538C0.427,-0.538 0.483,-0.475 0.484,-0.349L0.484,0L0.394,0L0.394,-0.35C0.393,-0.388 0.385,-0.416 0.367,-0.434C0.35,-0.452 0.324,-0.461 0.288,-0.461C0.258,-0.461 0.233,-0.454 0.21,-0.438C0.188,-0.422 0.171,-0.402 0.159,-0.376L0.159,0L0.068,0L0.068,-0.528L0.154,-0.528Z" style="fill:white;fill-rule:nonzero;"/>
            </g>
            <g transform="matrix(32,0,0,32,249.859,388)">
                <path d="M0.376,-0.14C0.376,-0.165 0.367,-0.184 0.348,-0.197C0.33,-0.211 0.298,-0.222 0.252,-0.232C0.206,-0.242 0.17,-0.253 0.143,-0.267C0.116,-0.281 0.097,-0.297 0.084,-0.316C0.071,-0.335 0.064,-0.357 0.064,-0.383C0.064,-0.427 0.083,-0.463 0.119,-0.493C0.156,-0.523 0.203,-0.538 0.26,-0.538C0.32,-0.538 0.368,-0.523 0.406,-0.492C0.443,-0.461 0.461,-0.421 0.461,-0.373L0.371,-0.373C0.371,-0.398 0.36,-0.419 0.339,-0.437C0.318,-0.455 0.292,-0.464 0.26,-0.464C0.227,-0.464 0.201,-0.457 0.183,-0.442C0.164,-0.428 0.155,-0.409 0.155,-0.386C0.155,-0.364 0.163,-0.348 0.181,-0.337C0.198,-0.326 0.229,-0.315 0.274,-0.305C0.319,-0.295 0.356,-0.283 0.384,-0.269C0.412,-0.255 0.433,-0.238 0.446,-0.219C0.46,-0.199 0.466,-0.175 0.466,-0.146C0.466,-0.099 0.447,-0.061 0.41,-0.033C0.372,-0.004 0.323,0.01 0.263,0.01C0.22,0.01 0.183,0.002 0.15,-0.013C0.118,-0.028 0.092,-0.049 0.074,-0.075C0.056,-0.102 0.046,-0.131 0.046,-0.163L0.137,-0.163C0.138,-0.132 0.15,-0.108 0.173,-0.091C0.196,-0.073 0.226,-0.064 0.263,-0.064C0.297,-0.064 0.324,-0.071 0.345,-0.085C0.366,-0.099 0.376,-0.117 0.376,-0.14Z" style="fill:white;fill-rule:nonzero;"/>
            </g>
            <g transform="matrix(32,0,0,32,266.359,388)">
                <path d="M0.113,0L0.113,-0.458L0.029,-0.458L0.029,-0.528L0.113,-0.528L0.113,-0.583C0.113,-0.639 0.128,-0.683 0.158,-0.714C0.188,-0.745 0.231,-0.76 0.287,-0.76C0.307,-0.76 0.328,-0.757 0.349,-0.752L0.344,-0.679C0.328,-0.682 0.312,-0.683 0.295,-0.683C0.266,-0.683 0.243,-0.675 0.227,-0.657C0.211,-0.64 0.203,-0.616 0.203,-0.584L0.203,-0.528L0.316,-0.528L0.316,-0.458L0.203,-0.458L0.203,0L0.113,0Z" style="fill:white;fill-rule:nonzero;"/>
            </g>
            <g transform="matrix(32,0,0,32,277.469,388)">
                <path d="M0.044,-0.269C0.044,-0.321 0.055,-0.367 0.075,-0.409C0.095,-0.45 0.124,-0.482 0.16,-0.504C0.196,-0.527 0.238,-0.538 0.284,-0.538C0.356,-0.538 0.414,-0.513 0.459,-0.463C0.503,-0.414 0.525,-0.347 0.525,-0.265L0.525,-0.258C0.525,-0.207 0.516,-0.161 0.496,-0.12C0.476,-0.079 0.448,-0.047 0.411,-0.024C0.375,-0.002 0.333,0.01 0.285,0.01C0.214,0.01 0.156,-0.015 0.111,-0.065C0.067,-0.115 0.044,-0.181 0.044,-0.263L0.044,-0.269ZM0.135,-0.258C0.135,-0.2 0.149,-0.153 0.176,-0.117C0.203,-0.082 0.24,-0.064 0.285,-0.064C0.331,-0.064 0.368,-0.082 0.395,-0.118C0.422,-0.154 0.435,-0.204 0.435,-0.269C0.435,-0.327 0.421,-0.374 0.394,-0.41C0.366,-0.446 0.33,-0.464 0.284,-0.464C0.24,-0.464 0.204,-0.446 0.176,-0.411C0.149,-0.375 0.135,-0.324 0.135,-0.258Z" style="fill:white;fill-rule:nonzero;"/>
            </g>
            <g transform="matrix(32,0,0,32,295.719,388)">
                <path d="M0.324,-0.447C0.31,-0.45 0.295,-0.451 0.279,-0.451C0.22,-0.451 0.18,-0.425 0.159,-0.375L0.159,0L0.068,0L0.068,-0.528L0.156,-0.528L0.158,-0.467C0.187,-0.514 0.229,-0.538 0.284,-0.538C0.301,-0.538 0.315,-0.536 0.324,-0.531L0.324,-0.447Z" style="fill:white;fill-rule:nonzero;"/>
            </g>
            <g transform="matrix(32,0,0,32,306.547,388)">
                <path d="M0.153,-0.528L0.156,-0.47C0.194,-0.515 0.247,-0.538 0.313,-0.538C0.386,-0.538 0.437,-0.51 0.463,-0.453C0.481,-0.479 0.504,-0.499 0.532,-0.515C0.56,-0.53 0.593,-0.538 0.632,-0.538C0.748,-0.538 0.807,-0.477 0.809,-0.354L0.809,0L0.718,0L0.718,-0.349C0.718,-0.386 0.71,-0.415 0.692,-0.433C0.675,-0.452 0.646,-0.461 0.605,-0.461C0.572,-0.461 0.544,-0.451 0.522,-0.431C0.5,-0.411 0.487,-0.384 0.483,-0.351L0.483,0L0.393,0L0.393,-0.346C0.393,-0.423 0.355,-0.461 0.28,-0.461C0.221,-0.461 0.18,-0.436 0.158,-0.386L0.158,0L0.068,0L0.068,-0.528L0.153,-0.528Z" style="fill:white;fill-rule:nonzero;"/>
            </g>
            <g transform="matrix(32,0,0,32,342.516,388)">
                <path d="M0.629,0L0.535,0L0.177,-0.548L0.177,0L0.083,0L0.083,-0.711L0.177,-0.711L0.536,-0.161L0.536,-0.711L0.629,-0.711L0.629,0Z" style="fill:white;fill-rule:nonzero;"/>
            </g>
        </g>
    </g>
    <g transform="matrix(0.2,0,0,0.2,564,218)">
        <path d="M320,40L410,160L320,280" style="fill:none;stroke:rgb(45,46,68);stroke-width:40px;"/>
    </g>
    <g transform="matrix(0.2,0,0,0.2,644,218)">
        <path d="M320,40L410,160L320,280" style="fill:none;stroke:rgb(45,46,68);stroke-width:40px;"/>
    </g>
    <g transform="matrix(1.16667,0,0,1.70992,-6.66667,-130.992)">
        <g transform="matrix(1.14833,0,0,1.875,-101.244,-432.5)">
            <path d="M332,296.476C332,289.59 318.621,284 302.143,284L152.857,284C136.379,284 123,289.59 123,296.476L123,402.524C123,409.41 136.379,415 152.857,415L302.143,415C318.621,415 332,409.41 332,402.524L332,296.476Z" style="fill:white;stroke:rgb(39,194,120);stroke-width:1.63px;"/>
        </g>
        <g transform="matrix(0.857143,0,0,0.584821,-110.857,43.8571)">
            <g transform="matrix(32,0,0,32,302.594,383)">
                <path d="M0.135,-0.125C0.157,-0.125 0.174,-0.119 0.186,-0.106C0.198,-0.094 0.204,-0.078 0.204,-0.059C0.204,-0.041 0.198,-0.025 0.186,-0.013C0.174,-0.001 0.157,0.005 0.135,0.005C0.114,0.005 0.097,-0.001 0.084,-0.013C0.072,-0.025 0.066,-0.04 0.066,-0.059C0.066,-0.078 0.072,-0.094 0.084,-0.106C0.096,-0.119 0.113,-0.125 0.135,-0.125Z" style="fill:rgb(45,46,68);fill-rule:nonzero;"/>
            </g>
            <g transform="matrix(32,0,0,32,311.531,383)">
                <path d="M0.135,-0.125C0.157,-0.125 0.174,-0.119 0.186,-0.106C0.198,-0.094 0.204,-0.078 0.204,-0.059C0.204,-0.041 0.198,-0.025 0.186,-0.013C0.174,-0.001 0.157,0.005 0.135,0.005C0.114,0.005 0.097,-0.001 0.084,-0.013C0.072,-0.025 0.066,-0.04 0.066,-0.059C0.066,-0.078 0.072,-0.094 0.084,-0.106C0.096,-0.119 0.113,-0.125 0.135,-0.125Z" style="fill:rgb(45,46,68);fill-rule:nonzero;"/>
            </g>
            <g transform="matrix(32,0,0,32,320.469,383)">
                <path d="M0.135,-0.125C0.157,-0.125 0.174,-0.119 0.186,-0.106C0.198,-0.094 0.204,-0.078 0.204,-0.059C0.204,-0.041 0.198,-0.025 0.186,-0.013C0.174,-0.001 0.157,0.005 0.135,0.005C0.114,0.005 0.097,-0.001 0.084,-0.013C0.072,-0.025 0.066,-0.04 0.066,-0.059C0.066,-0.078 0.072,-0.094 0.084,-0.106C0.096,-0.119 0.113,-0.125 0.135,-0.125Z" style="fill:rgb(45,46,68);fill-rule:nonzero;"/>
            </g>
        </g>
        <g transform="matrix(0.857143,0,0,0.584821,-110.857,-82.4643)">
            <g transform="matrix(32,0,0,32,279.367,360)">
                <rect x="0.08" y="-0.711" width="0.123" height="0.711" style="fill:rgb(45,46,68);fill-rule:nonzero;"/>
            </g>
            <g transform="matrix(32,0,0,32,288.398,360)">
                <path d="M0.171,-0.528L0.174,-0.467C0.213,-0.514 0.265,-0.538 0.328,-0.538C0.438,-0.538 0.494,-0.475 0.496,-0.349L0.496,0L0.377,0L0.377,-0.342C0.377,-0.376 0.37,-0.401 0.356,-0.417C0.341,-0.433 0.318,-0.441 0.285,-0.441C0.237,-0.441 0.201,-0.419 0.178,-0.376L0.178,0L0.059,0L0.059,-0.528L0.171,-0.528Z" style="fill:rgb(45,46,68);fill-rule:nonzero;"/>
            </g>
            <g transform="matrix(32,0,0,32,306.195,360)">
                <path d="M0.523,-0.259C0.523,-0.177 0.505,-0.112 0.468,-0.063C0.431,-0.015 0.381,0.01 0.318,0.01C0.26,0.01 0.214,-0.009 0.179,-0.047L0.179,0.203L0.061,0.203L0.061,-0.528L0.17,-0.528L0.175,-0.475C0.21,-0.517 0.257,-0.538 0.317,-0.538C0.381,-0.538 0.432,-0.514 0.469,-0.466C0.505,-0.418 0.523,-0.351 0.523,-0.266L0.523,-0.259ZM0.405,-0.269C0.405,-0.322 0.395,-0.364 0.374,-0.395C0.353,-0.425 0.323,-0.441 0.284,-0.441C0.235,-0.441 0.2,-0.421 0.179,-0.381L0.179,-0.146C0.201,-0.105 0.236,-0.085 0.285,-0.085C0.322,-0.085 0.352,-0.1 0.373,-0.131C0.395,-0.161 0.405,-0.207 0.405,-0.269Z" style="fill:rgb(45,46,68);fill-rule:nonzero;"/>
            </g>
            <g transform="matrix(32,0,0,32,324.211,360)">
                <path d="M0.381,-0.052C0.346,-0.011 0.297,0.01 0.232,0.01C0.175,0.01 0.132,-0.007 0.102,-0.041C0.073,-0.074 0.058,-0.123 0.058,-0.186L0.058,-0.528L0.177,-0.528L0.177,-0.188C0.177,-0.12 0.205,-0.087 0.26,-0.087C0.318,-0.087 0.357,-0.108 0.377,-0.149L0.377,-0.528L0.496,-0.528L0.496,0L0.384,0L0.381,-0.052Z" style="fill:rgb(45,46,68);fill-rule:nonzero;"/>
            </g>
            <g transform="matrix(32,0,0,32,341.992,360)">
                <path d="M0.209,-0.657L0.209,-0.528L0.303,-0.528L0.303,-0.44L0.209,-0.44L0.209,-0.146C0.209,-0.125 0.213,-0.111 0.221,-0.102C0.229,-0.093 0.244,-0.088 0.264,-0.088C0.278,-0.088 0.292,-0.09 0.306,-0.093L0.306,-0.001C0.279,0.006 0.253,0.01 0.228,0.01C0.136,0.01 0.091,-0.041 0.091,-0.141L0.091,-0.44L0.004,-0.44L0.004,-0.528L0.091,-0.528L0.091,-0.657L0.209,-0.657Z" style="fill:rgb(45,46,68);fill-rule:nonzero;"/>
            </g>
        </g>
        <g transform="matrix(0.785714,0,0,0.3125,34.2857,115.536)">
            <g transform="matrix(1.14833,0,0,1,-101.244,-184)">
                <path d="M332,316.75C332,298.675 324.551,284 315.375,284L139.625,284C130.449,284 123,298.675 123,316.75L123,382.25C123,400.325 130.449,415 139.625,415L315.375,415C324.551,415 332,400.325 332,382.25L332,316.75Z" style="fill:rgb(39,194,120);"/>
            </g>
            <g transform="matrix(1.09091,0,0,1.87143,-152,-528.8)">
                <g transform="matrix(32,0,0,32,235.625,383)">
                    <path d="M0.176,-0.278L0.176,0L0.083,0L0.083,-0.711L0.345,-0.711C0.423,-0.711 0.483,-0.691 0.528,-0.651C0.572,-0.612 0.594,-0.559 0.594,-0.494C0.594,-0.425 0.572,-0.372 0.529,-0.334C0.486,-0.297 0.424,-0.278 0.344,-0.278L0.176,-0.278ZM0.176,-0.355L0.345,-0.355C0.395,-0.355 0.433,-0.367 0.46,-0.39C0.487,-0.414 0.5,-0.448 0.5,-0.493C0.5,-0.535 0.487,-0.569 0.46,-0.594C0.433,-0.62 0.397,-0.633 0.35,-0.634L0.176,-0.634L0.176,-0.355Z" style="fill:white;fill-rule:nonzero;"/>
                </g>
                <g transform="matrix(32,0,0,32,255.812,383)">
                    <path d="M0.324,-0.447C0.31,-0.45 0.295,-0.451 0.279,-0.451C0.22,-0.451 0.18,-0.425 0.159,-0.375L0.159,0L0.068,0L0.068,-0.528L0.156,-0.528L0.158,-0.467C0.187,-0.514 0.229,-0.538 0.284,-0.538C0.301,-0.538 0.315,-0.536 0.324,-0.531L0.324,-0.447Z" style="fill:white;fill-rule:nonzero;"/>
                </g>
                <g transform="matrix(32,0,0,32,266.328,383)">
                    <path d="M0.044,-0.269C0.044,-0.321 0.055,-0.367 0.075,-0.409C0.095,-0.45 0.124,-0.482 0.16,-0.504C0.196,-0.527 0.238,-0.538 0.284,-0.538C0.356,-0.538 0.414,-0.513 0.459,-0.463C0.503,-0.414 0.525,-0.347 0.525,-0.265L0.525,-0.258C0.525,-0.207 0.516,-0.161 0.496,-0.12C0.476,-0.079 0.448,-0.047 0.411,-0.024C0.375,-0.002 0.333,0.01 0.285,0.01C0.214,0.01 0.156,-0.015 0.111,-0.065C0.067,-0.115 0.044,-0.181 0.044,-0.263L0.044,-0.269ZM0.135,-0.258C0.135,-0.2 0.149,-0.153 0.176,-0.117C0.203,-0.082 0.24,-0.064 0.285,-0.064C0.331,-0.064 0.368,-0.082 0.395,-0.118C0.422,-0.154 0.435,-0.204 0.435,-0.269C0.435,-0.327 0.421,-0.374 0.394,-0.41C0.366,-0.446 0.33,-0.464 0.284,-0.464C0.24,-0.464 0.204,-0.446 0.176,-0.411C0.149,-0.375 0.135,-0.324 0.135,-0.258Z" style="fill:white;fill-rule:nonzero;"/>
                </g>
                <g transform="matrix(32,0,0,32,284.578,383)">
                    <path d="M0.162,-0.528L0.162,0.061C0.162,0.163 0.116,0.213 0.023,0.213C0.004,0.213 -0.015,0.21 -0.032,0.205L-0.032,0.132C-0.021,0.135 -0.008,0.136 0.009,0.136C0.029,0.136 0.045,0.131 0.055,0.12C0.066,0.109 0.071,0.09 0.071,0.063L0.071,-0.528L0.162,-0.528ZM0.062,-0.668C0.062,-0.683 0.066,-0.695 0.075,-0.705C0.084,-0.716 0.097,-0.721 0.115,-0.721C0.132,-0.721 0.146,-0.716 0.155,-0.706C0.164,-0.695 0.168,-0.683 0.168,-0.668C0.168,-0.654 0.164,-0.642 0.155,-0.632C0.146,-0.622 0.132,-0.617 0.115,-0.617C0.097,-0.617 0.084,-0.622 0.075,-0.632C0.066,-0.642 0.062,-0.654 0.062,-0.668Z" style="fill:white;fill-rule:nonzero;"/>
                </g>
                <g transform="matrix(32,0,0,32,292.219,383)">
                    <path d="M0.288,0.01C0.216,0.01 0.158,-0.014 0.113,-0.061C0.068,-0.108 0.045,-0.171 0.045,-0.25L0.045,-0.266C0.045,-0.319 0.055,-0.365 0.075,-0.406C0.095,-0.448 0.123,-0.48 0.159,-0.503C0.195,-0.526 0.234,-0.538 0.276,-0.538C0.345,-0.538 0.398,-0.515 0.437,-0.47C0.475,-0.425 0.494,-0.36 0.494,-0.276L0.494,-0.238L0.136,-0.238C0.137,-0.186 0.152,-0.144 0.181,-0.112C0.211,-0.08 0.248,-0.064 0.292,-0.064C0.324,-0.064 0.351,-0.07 0.374,-0.083C0.396,-0.097 0.415,-0.114 0.432,-0.135L0.487,-0.092C0.443,-0.024 0.376,0.01 0.288,0.01ZM0.276,-0.464C0.24,-0.464 0.209,-0.451 0.185,-0.424C0.16,-0.398 0.145,-0.36 0.139,-0.313L0.403,-0.313L0.403,-0.319C0.401,-0.365 0.388,-0.401 0.366,-0.426C0.344,-0.451 0.314,-0.464 0.276,-0.464Z" style="fill:white;fill-rule:nonzero;"/>
                </g>
                <g transform="matrix(32,0,0,32,309.172,383)">
                    <path d="M0.28,-0.064C0.313,-0.064 0.341,-0.074 0.365,-0.093C0.389,-0.113 0.402,-0.137 0.405,-0.167L0.49,-0.167C0.489,-0.136 0.478,-0.107 0.459,-0.08C0.44,-0.053 0.414,-0.031 0.382,-0.015C0.35,0.002 0.316,0.01 0.28,0.01C0.208,0.01 0.151,-0.014 0.109,-0.062C0.066,-0.11 0.045,-0.176 0.045,-0.259L0.045,-0.274C0.045,-0.326 0.054,-0.372 0.073,-0.412C0.092,-0.452 0.119,-0.483 0.155,-0.505C0.19,-0.527 0.232,-0.538 0.28,-0.538C0.339,-0.538 0.388,-0.52 0.427,-0.485C0.467,-0.449 0.488,-0.403 0.49,-0.347L0.405,-0.347C0.402,-0.381 0.389,-0.409 0.366,-0.431C0.343,-0.453 0.314,-0.464 0.28,-0.464C0.234,-0.464 0.198,-0.447 0.173,-0.414C0.148,-0.381 0.135,-0.333 0.135,-0.271L0.135,-0.254C0.135,-0.193 0.148,-0.146 0.173,-0.113C0.198,-0.08 0.234,-0.064 0.28,-0.064Z" style="fill:white;fill-rule:nonzero;"/>
                </g>
                <g transform="matrix(32,0,0,32,325.922,383)">
                    <path d="M0.191,-0.656L0.191,-0.528L0.29,-0.528L0.29,-0.458L0.191,-0.458L0.191,-0.131C0.191,-0.11 0.195,-0.094 0.204,-0.083C0.213,-0.073 0.228,-0.067 0.249,-0.067C0.259,-0.067 0.274,-0.069 0.292,-0.073L0.292,0C0.268,0.007 0.245,0.01 0.223,0.01C0.182,0.01 0.152,-0.002 0.131,-0.027C0.111,-0.051 0.101,-0.086 0.101,-0.131L0.101,-0.458L0.004,-0.458L0.004,-0.528L0.101,-0.528L0.101,-0.656L0.191,-0.656Z" style="fill:white;fill-rule:nonzero;"/>
                </g>
            </g>
        </g>
        <g transform="matrix(0.785714,0,0,0.3125,34.2857,174.018)">
            <g transform="matrix(1.14833,0,0,1,-101.244,-184)">
                <path d="M332,316.75C332,298.675 324.551,284 315.375,284L139.625,284C130.449,284 123,298.675 123,316.75L123,382.25C123,400.325 130.449,415 139.625,415L315.375,415C324.551,415 332,400.325 332,382.25L332,316.75Z" style="fill:rgb(39,194,120);"/>
            </g>
            <g transform="matrix(1.09091,0,0,1.87143,-152,-528.8)">
                <g transform="matrix(32,0,0,32,201.043,383)">
                    <path d="M0.292,-0.317C0.212,-0.34 0.153,-0.368 0.116,-0.402C0.08,-0.436 0.062,-0.477 0.062,-0.527C0.062,-0.583 0.084,-0.629 0.129,-0.666C0.173,-0.702 0.232,-0.721 0.303,-0.721C0.352,-0.721 0.396,-0.711 0.434,-0.692C0.472,-0.674 0.502,-0.647 0.523,-0.614C0.544,-0.581 0.554,-0.545 0.554,-0.505L0.46,-0.505C0.46,-0.548 0.446,-0.582 0.419,-0.607C0.392,-0.631 0.353,-0.644 0.303,-0.644C0.257,-0.644 0.221,-0.633 0.195,-0.613C0.169,-0.593 0.156,-0.564 0.156,-0.528C0.156,-0.499 0.169,-0.475 0.193,-0.455C0.218,-0.435 0.26,-0.417 0.319,-0.4C0.378,-0.383 0.424,-0.365 0.457,-0.345C0.491,-0.325 0.515,-0.302 0.531,-0.275C0.548,-0.248 0.556,-0.217 0.556,-0.181C0.556,-0.123 0.533,-0.077 0.488,-0.042C0.443,-0.008 0.383,0.01 0.308,0.01C0.259,0.01 0.214,0 0.171,-0.018C0.129,-0.037 0.096,-0.063 0.073,-0.095C0.051,-0.128 0.039,-0.165 0.039,-0.206L0.133,-0.206C0.133,-0.163 0.149,-0.129 0.181,-0.104C0.213,-0.079 0.255,-0.067 0.308,-0.067C0.358,-0.067 0.396,-0.077 0.422,-0.097C0.448,-0.117 0.461,-0.145 0.461,-0.18C0.461,-0.215 0.449,-0.241 0.425,-0.26C0.4,-0.28 0.356,-0.298 0.292,-0.317Z" style="fill:white;fill-rule:nonzero;"/>
                </g>
                <g transform="matrix(32,0,0,32,220.028,383)">
                    <path d="M0.395,-0.052C0.359,-0.011 0.308,0.01 0.24,0.01C0.183,0.01 0.141,-0.007 0.111,-0.039C0.082,-0.072 0.067,-0.12 0.066,-0.185L0.066,-0.528L0.157,-0.528L0.157,-0.187C0.157,-0.107 0.189,-0.067 0.254,-0.067C0.323,-0.067 0.369,-0.093 0.392,-0.144L0.392,-0.528L0.482,-0.528L0.482,0L0.396,0L0.395,-0.052Z" style="fill:white;fill-rule:nonzero;"/>
                </g>
                <g transform="matrix(32,0,0,32,237.668,383)">
                    <path d="M0.516,-0.258C0.516,-0.178 0.497,-0.113 0.46,-0.064C0.423,-0.015 0.373,0.01 0.311,0.01C0.244,0.01 0.192,-0.014 0.156,-0.061L0.151,0L0.068,0L0.068,-0.75L0.159,-0.75L0.159,-0.47C0.195,-0.515 0.245,-0.538 0.31,-0.538C0.374,-0.538 0.424,-0.514 0.461,-0.465C0.497,-0.417 0.516,-0.35 0.516,-0.266L0.516,-0.258ZM0.425,-0.269C0.425,-0.33 0.413,-0.378 0.39,-0.411C0.366,-0.445 0.332,-0.461 0.287,-0.461C0.228,-0.461 0.185,-0.434 0.159,-0.378L0.159,-0.15C0.186,-0.095 0.229,-0.067 0.288,-0.067C0.331,-0.067 0.365,-0.084 0.389,-0.117C0.413,-0.151 0.425,-0.201 0.425,-0.269Z" style="fill:white;fill-rule:nonzero;"/>
                </g>
                <g transform="matrix(32,0,0,32,255.621,383)">
                    <path d="M0.515,-0.258C0.515,-0.178 0.496,-0.113 0.459,-0.064C0.423,-0.015 0.373,0.01 0.31,0.01C0.246,0.01 0.195,-0.011 0.159,-0.051L0.159,0.203L0.068,0.203L0.068,-0.528L0.151,-0.528L0.155,-0.47C0.192,-0.515 0.243,-0.538 0.309,-0.538C0.372,-0.538 0.422,-0.514 0.459,-0.466C0.496,-0.418 0.515,-0.352 0.515,-0.267L0.515,-0.258ZM0.424,-0.269C0.424,-0.328 0.412,-0.375 0.386,-0.41C0.361,-0.444 0.326,-0.461 0.282,-0.461C0.227,-0.461 0.186,-0.437 0.159,-0.389L0.159,-0.136C0.186,-0.088 0.227,-0.064 0.283,-0.064C0.326,-0.064 0.36,-0.081 0.386,-0.115C0.412,-0.15 0.424,-0.201 0.424,-0.269Z" style="fill:white;fill-rule:nonzero;"/>
                </g>
                <g transform="matrix(32,0,0,32,273.574,383)">
                    <path d="M0.324,-0.447C0.31,-0.45 0.295,-0.451 0.279,-0.451C0.22,-0.451 0.18,-0.425 0.159,-0.375L0.159,0L0.068,0L0.068,-0.528L0.156,-0.528L0.158,-0.467C0.187,-0.514 0.229,-0.538 0.284,-0.538C0.301,-0.538 0.315,-0.536 0.324,-0.531L0.324,-0.447Z" style="fill:white;fill-rule:nonzero;"/>
                </g>
                <g transform="matrix(32,0,0,32,284.09,383)">
                    <path d="M0.044,-0.269C0.044,-0.321 0.055,-0.367 0.075,-0.409C0.095,-0.45 0.124,-0.482 0.16,-0.504C0.196,-0.527 0.238,-0.538 0.284,-0.538C0.356,-0.538 0.414,-0.513 0.459,-0.463C0.503,-0.414 0.525,-0.347 0.525,-0.265L0.525,-0.258C0.525,-0.207 0.516,-0.161 0.496,-0.12C0.476,-0.079 0.448,-0.047 0.411,-0.024C0.375,-0.002 0.333,0.01 0.285,0.01C0.214,0.01 0.156,-0.015 0.111,-0.065C0.067,-0.115 0.044,-0.181 0.044,-0.263L0.044,-0.269ZM0.135,-0.258C0.135,-0.2 0.149,-0.153 0.176,-0.117C0.203,-0.082 0.24,-0.064 0.285,-0.064C0.331,-0.064 0.368,-0.082 0.395,-0.118C0.422,-0.154 0.435,-0.204 0.435,-0.269C0.435,-0.327 0.421,-0.374 0.394,-0.41C0.366,-0.446 0.33,-0.464 0.284,-0.464C0.24,-0.464 0.204,-0.446 0.176,-0.411C0.149,-0.375 0.135,-0.324 0.135,-0.258Z" style="fill:white;fill-rule:nonzero;"/>
                </g>
                <g transform="matrix(32,0,0,32,302.66,383)">
                    <path d="M0.162,-0.528L0.162,0.061C0.162,0.163 0.116,0.213 0.023,0.213C0.004,0.213 -0.015,0.21 -0.032,0.205L-0.032,0.132C-0.021,0.135 -0.008,0.136 0.009,0.136C0.029,0.136 0.045,0.131 0.055,0.12C0.066,0.109 0.071,0.09 0.071,0.063L0.071,-0.528L0.162,-0.528ZM0.062,-0.668C0.062,-0.683 0.066,-0.695 0.075,-0.705C0.084,-0.716 0.097,-0.721 0.115,-0.721C0.132,-0.721 0.146,-0.716 0.155,-0.706C0.164,-0.695 0.168,-0.683 0.168,-0.668C0.168,-0.654 0.164,-0.642 0.155,-0.632C0.146,-0.622 0.132,-0.617 0.115,-0.617C0.097,-0.617 0.084,-0.622 0.075,-0.632C0.066,-0.642 0.062,-0.654 0.062,-0.668Z" style="fill:white;fill-rule:nonzero;"/>
                </g>
                <g transform="matrix(32,0,0,32,310.301,383)">
                    <path d="M0.288,0.01C0.216,0.01 0.158,-0.014 0.113,-0.061C0.068,-0.108 0.045,-0.171 0.045,-0.25L0.045,-0.266C0.045,-0.319 0.055,-0.365 0.075,-0.406C0.095,-0.448 0.123,-0.48 0.159,-0.503C0.195,-0.526 0.234,-0.538 0.276,-0.538C0.345,-0.538 0.398,-0.515 0.437,-0.47C0.475,-0.425 0.494,-0.36 0.494,-0.276L0.494,-0.238L0.136,-0.238C0.137,-0.186 0.152,-0.144 0.181,-0.112C0.211,-0.08 0.248,-0.064 0.292,-0.064C0.324,-0.064 0.351,-0.07 0.374,-0.083C0.396,-0.097 0.415,-0.114 0.432,-0.135L0.487,-0.092C0.443,-0.024 0.376,0.01 0.288,0.01ZM0.276,-0.464C0.24,-0.464 0.209,-0.451 0.185,-0.424C0.16,-0.398 0.145,-0.36 0.139,-0.313L0.403,-0.313L0.403,-0.319C0.401,-0.365 0.388,-0.401 0.366,-0.426C0.344,-0.451 0.314,-0.464 0.276,-0.464Z" style="fill:white;fill-rule:nonzero;"/>
                </g>
                <g transform="matrix(32,0,0,32,327.254,383)">
                    <path d="M0.28,-0.064C0.313,-0.064 0.341,-0.074 0.365,-0.093C0.389,-0.113 0.402,-0.137 0.405,-0.167L0.49,-0.167C0.489,-0.136 0.478,-0.107 0.459,-0.08C0.44,-0.053 0.414,-0.031 0.382,-0.015C0.35,0.002 0.316,0.01 0.28,0.01C0.208,0.01 0.151,-0.014 0.109,-0.062C0.066,-0.11 0.045,-0.176 0.045,-0.259L0.045,-0.274C0.045,-0.326 0.054,-0.372 0.073,-0.412C0.092,-0.452 0.119,-0.483 0.155,-0.505C0.19,-0.527 0.232,-0.538 0.28,-0.538C0.339,-0.538 0.388,-0.52 0.427,-0.485C0.467,-0.449 0.488,-0.403 0.49,-0.347L0.405,-0.347C0.402,-0.381 0.389,-0.409 0.366,-0.431C0.343,-0.453 0.314,-0.464 0.28,-0.464C0.234,-0.464 0.198,-0.447 0.173,-0.414C0.148,-0.381 0.135,-0.333 0.135,-0.271L0.135,-0.254C0.135,-0.193 0.148,-0.146 0.173,-0.113C0.198,-0.08 0.234,-0.064 0.28,-0.064Z" style="fill:white;fill-rule:nonzero;"/>
                </g>
                <g transform="matrix(32,0,0,32,344.004,383)">
                    <path d="M0.191,-0.656L0.191,-0.528L0.29,-0.528L0.29,-0.458L0.191,-0.458L0.191,-0.131C0.191,-0.11 0.195,-0.094 0.204,-0.083C0.213,-0.073 0.228,-0.067 0.249,-0.067C0.259,-0.067 0.274,-0.069 0.292,-0.073L0.292,0C0.268,0.007 0.245,0.01 0.223,0.01C0.182,0.01 0.152,-0.002 0.131,-0.027C0.111,-0.051 0.101,-0.086 0.101,-0.131L0.101,-0.458L0.004,-0.458L0.004,-0.528L0.101,-0.528L0.101,-0.656L0.191,-0.656Z" style="fill:white;fill-rule:nonzero;"/>
                </g>
                <g transform="matrix(32,0,0,32,354.457,383)">
                    <path d="M0.376,-0.14C0.376,-0.165 0.367,-0.184 0.348,-0.197C0.33,-0.211 0.298,-0.222 0.252,-0.232C0.206,-0.242 0.17,-0.253 0.143,-0.267C0.116,-0.281 0.097,-0.297 0.084,-0.316C0.071,-0.335 0.064,-0.357 0.064,-0.383C0.064,-0.427 0.083,-0.463 0.119,-0.493C0.156,-0.523 0.203,-0.538 0.26,-0.538C0.32,-0.538 0.368,-0.523 0.406,-0.492C0.443,-0.461 0.461,-0.421 0.461,-0.373L0.371,-0.373C0.371,-0.398 0.36,-0.419 0.339,-0.437C0.318,-0.455 0.292,-0.464 0.26,-0.464C0.227,-0.464 0.201,-0.457 0.183,-0.442C0.164,-0.428 0.155,-0.409 0.155,-0.386C0.155,-0.364 0.163,-0.348 0.181,-0.337C0.198,-0.326 0.229,-0.315 0.274,-0.305C0.319,-0.295 0.356,-0.283 0.384,-0.269C0.412,-0.255 0.433,-0.238 0.446,-0.219C0.46,-0.199 0.466,-0.175 0.466,-0.146C0.466,-0.099 0.447,-0.061 0.41,-0.033C0.372,-0.004 0.323,0.01 0.263,0.01C0.22,0.01 0.183,0.002 0.15,-0.013C0.118,-0.028 0.092,-0.049 0.074,-0.075C0.056,-0.102 0.046,-0.131 0.046,-0.163L0.137,-0.163C0.138,-0.132 0.15,-0.108 0.173,-0.091C0.196,-0.073 0.226,-0.064 0.263,-0.064C0.297,-0.064 0.324,-0.071 0.345,-0.085C0.366,-0.099 0.376,-0.117 0.376,-0.14Z" style="fill:white;fill-rule:nonzero;"/>
                </g>
            </g>
        </g>
        <g transform="matrix(0.785714,0,0,0.3125,34.2857,255.893)">
            <g transform="matrix(1.14833,0,0,1,-101.244,-184)">
                <path d="M332,316.75C332,298.675 324.551,284 315.375,284L139.625,284C130.449,284 123,298.675 123,316.75L123,382.25C123,400.325 130.449,415 139.625,415L315.375,415C324.551,415 332,400.325 332,382.25L332,316.75Z" style="fill:rgb(39,194,120);"/>
            </g>
            <g transform="matrix(1.09091,0,0,1.87143,-152,-528.8)">
                <g transform="matrix(32,0,0,32,224.703,383)">
                    <path d="M0.177,-0.077L0.514,-0.077L0.514,0L0.083,0L0.083,-0.711L0.177,-0.711L0.177,-0.077Z" style="fill:white;fill-rule:nonzero;"/>
                </g>
                <g transform="matrix(32,0,0,32,241.922,383)">
                    <path d="M0.167,0L0.076,0L0.076,-0.528L0.167,-0.528L0.167,0ZM0.069,-0.668C0.069,-0.683 0.073,-0.695 0.082,-0.706C0.091,-0.716 0.104,-0.721 0.122,-0.721C0.14,-0.721 0.153,-0.716 0.162,-0.706C0.171,-0.695 0.176,-0.683 0.176,-0.668C0.176,-0.654 0.171,-0.642 0.162,-0.632C0.153,-0.622 0.14,-0.617 0.122,-0.617C0.104,-0.617 0.091,-0.622 0.082,-0.632C0.073,-0.642 0.069,-0.654 0.069,-0.668Z" style="fill:white;fill-rule:nonzero;"/>
                </g>
                <g transform="matrix(32,0,0,32,249.688,383)">
                    <path d="M0.516,-0.258C0.516,-0.178 0.497,-0.113 0.46,-0.064C0.423,-0.015 0.373,0.01 0.311,0.01C0.244,0.01 0.192,-0.014 0.156,-0.061L0.151,0L0.068,0L0.068,-0.75L0.159,-0.75L0.159,-0.47C0.195,-0.515 0.245,-0.538 0.31,-0.538C0.374,-0.538 0.424,-0.514 0.461,-0.465C0.497,-0.417 0.516,-0.35 0.516,-0.266L0.516,-0.258ZM0.425,-0.269C0.425,-0.33 0.413,-0.378 0.39,-0.411C0.366,-0.445 0.332,-0.461 0.287,-0.461C0.228,-0.461 0.185,-0.434 0.159,-0.378L0.159,-0.15C0.186,-0.095 0.229,-0.067 0.288,-0.067C0.331,-0.067 0.365,-0.084 0.389,-0.117C0.413,-0.151 0.425,-0.201 0.425,-0.269Z" style="fill:white;fill-rule:nonzero;"/>
                </g>
                <g transform="matrix(32,0,0,32,267.641,383)">
                    <path d="M0.324,-0.447C0.31,-0.45 0.295,-0.451 0.279,-0.451C0.22,-0.451 0.18,-0.425 0.159,-0.375L0.159,0L0.068,0L0.068,-0.528L0.156,-0.528L0.158,-0.467C0.187,-0.514 0.229,-0.538 0.284,-0.538C0.301,-0.538 0.315,-0.536 0.324,-0.531L0.324,-0.447Z" style="fill:white;fill-rule:nonzero;"/>
                </g>
                <g transform="matrix(32,0,0,32,277.844,383)">
                    <path d="M0.395,0C0.389,-0.01 0.385,-0.029 0.382,-0.056C0.34,-0.012 0.29,0.01 0.231,0.01C0.179,0.01 0.137,-0.005 0.103,-0.034C0.07,-0.064 0.053,-0.101 0.053,-0.146C0.053,-0.201 0.074,-0.244 0.116,-0.275C0.158,-0.305 0.217,-0.32 0.292,-0.32L0.38,-0.32L0.38,-0.362C0.38,-0.393 0.371,-0.419 0.352,-0.437C0.333,-0.456 0.305,-0.465 0.269,-0.465C0.236,-0.465 0.209,-0.457 0.188,-0.441C0.166,-0.425 0.155,-0.405 0.155,-0.382L0.064,-0.382C0.064,-0.408 0.073,-0.434 0.092,-0.458C0.111,-0.483 0.136,-0.502 0.168,-0.517C0.2,-0.531 0.236,-0.538 0.274,-0.538C0.335,-0.538 0.382,-0.523 0.417,-0.492C0.451,-0.462 0.469,-0.42 0.471,-0.367L0.471,-0.124C0.471,-0.075 0.477,-0.036 0.489,-0.008L0.489,0L0.395,0ZM0.245,-0.069C0.273,-0.069 0.3,-0.076 0.325,-0.091C0.351,-0.105 0.369,-0.125 0.38,-0.148L0.38,-0.256L0.31,-0.256C0.199,-0.256 0.144,-0.224 0.144,-0.159C0.144,-0.131 0.153,-0.109 0.172,-0.093C0.191,-0.077 0.215,-0.069 0.245,-0.069Z" style="fill:white;fill-rule:nonzero;"/>
                </g>
                <g transform="matrix(32,0,0,32,295.25,383)">
                    <path d="M0.324,-0.447C0.31,-0.45 0.295,-0.451 0.279,-0.451C0.22,-0.451 0.18,-0.425 0.159,-0.375L0.159,0L0.068,0L0.068,-0.528L0.156,-0.528L0.158,-0.467C0.187,-0.514 0.229,-0.538 0.284,-0.538C0.301,-0.538 0.315,-0.536 0.324,-0.531L0.324,-0.447Z" style="fill:white;fill-rule:nonzero;"/>
                </g>
                <g transform="matrix(32,0,0,32,306.078,383)">
                    <path d="M0.167,0L0.076,0L0.076,-0.528L0.167,-0.528L0.167,0ZM0.069,-0.668C0.069,-0.683 0.073,-0.695 0.082,-0.706C0.091,-0.716 0.104,-0.721 0.122,-0.721C0.14,-0.721 0.153,-0.716 0.162,-0.706C0.171,-0.695 0.176,-0.683 0.176,-0.668C0.176,-0.654 0.171,-0.642 0.162,-0.632C0.153,-0.622 0.14,-0.617 0.122,-0.617C0.104,-0.617 0.091,-0.622 0.082,-0.632C0.073,-0.642 0.069,-0.654 0.069,-0.668Z" style="fill:white;fill-rule:nonzero;"/>
                </g>
                <g transform="matrix(32,0,0,32,313.844,383)">
                    <path d="M0.288,0.01C0.216,0.01 0.158,-0.014 0.113,-0.061C0.068,-0.108 0.045,-0.171 0.045,-0.25L0.045,-0.266C0.045,-0.319 0.055,-0.365 0.075,-0.406C0.095,-0.448 0.123,-0.48 0.159,-0.503C0.195,-0.526 0.234,-0.538 0.276,-0.538C0.345,-0.538 0.398,-0.515 0.437,-0.47C0.475,-0.425 0.494,-0.36 0.494,-0.276L0.494,-0.238L0.136,-0.238C0.137,-0.186 0.152,-0.144 0.181,-0.112C0.211,-0.08 0.248,-0.064 0.292,-0.064C0.324,-0.064 0.351,-0.07 0.374,-0.083C0.396,-0.097 0.415,-0.114 0.432,-0.135L0.487,-0.092C0.443,-0.024 0.376,0.01 0.288,0.01ZM0.276,-0.464C0.24,-0.464 0.209,-0.451 0.185,-0.424C0.16,-0.398 0.145,-0.36 0.139,-0.313L0.403,-0.313L0.403,-0.319C0.401,-0.365 0.388,-0.401 0.366,-0.426C0.344,-0.451 0.314,-0.464 0.276,-0.464Z" style="fill:white;fill-rule:nonzero;"/>
                </g>
                <g transform="matrix(32,0,0,32,330.797,383)">
                    <path d="M0.376,-0.14C0.376,-0.165 0.367,-0.184 0.348,-0.197C0.33,-0.211 0.298,-0.222 0.252,-0.232C0.206,-0.242 0.17,-0.253 0.143,-0.267C0.116,-0.281 0.097,-0.297 0.084,-0.316C0.071,-0.335 0.064,-0.357 0.064,-0.383C0.064,-0.427 0.083,-0.463 0.119,-0.493C0.156,-0.523 0.203,-0.538 0.26,-0.538C0.32,-0.538 0.368,-0.523 0.406,-0.492C0.443,-0.461 0.461,-0.421 0.461,-0.373L0.371,-0.373C0.371,-0.398 0.36,-0.419 0.339,-0.437C0.318,-0.455 0.292,-0.464 0.26,-0.464C0.227,-0.464 0.201,-0.457 0.183,-0.442C0.164,-0.428 0.155,-0.409 0.155,-0.386C0.155,-0.364 0.163,-0.348 0.181,-0.337C0.198,-0.326 0.229,-0.315 0.274,-0.305C0.319,-0.295 0.356,-0.283 0.384,-0.269C0.412,-0.255 0.433,-0.238 0.446,-0.219C0.46,-0.199 0.466,-0.175 0.466,-0.146C0.466,-0.099 0.447,-0.061 0.41,-0.033C0.372,-0.004 0.323,0.01 0.263,0.01C0.22,0.01 0.183,0.002 0.15,-0.013C0.118,-0.028 0.092,-0.049 0.074,-0.075C0.056,-0.102 0.046,-0.131 0.046,-0.163L0.137,-0.163C0.138,-0.132 0.15,-0.108 0.173,-0.091C0.196,-0.073 0.226,-0.064 0.263,-0.064C0.297,-0.064 0.324,-0.071 0.345,-0.085C0.366,-0.099 0.376,-0.117 0.376,-0.14Z" style="fill:white;fill-rule:nonzero;"/>
                </g>
            </g>
        </g>
    </g>
    <g transform="matrix(1.16667,0,0,1.70992,987.333,-130.992)">
        <g transform="matrix(1.14833,0,0,1.875,-101.244,-432.5)">
            <path d="M332,296.476C332,289.59 318.621,284 302.143,284L152.857,284C136.379,284 123,289.59 123,296.476L123,402.524C123,409.41 136.379,415 152.857,415L302.143,415C318.621,415 332,409.41 332,402.524L332,296.476Z" style="fill:white;stroke:rgb(39,194,120);stroke-width:1.63px;"/>
        </g>
        <g transform="matrix(0.857143,0,0,0.584821,-110.857,43.8571)">
            <g transform="matrix(32,0,0,32,302.594,383)">
                <path d="M0.135,-0.125C0.157,-0.125 0.174,-0.119 0.186,-0.106C0.198,-0.094 0.204,-0.078 0.204,-0.059C0.204,-0.041 0.198,-0.025 0.186,-0.013C0.174,-0.001 0.157,0.005 0.135,0.005C0.114,0.005 0.097,-0.001 0.084,-0.013C0.072,-0.025 0.066,-0.04 0.066,-0.059C0.066,-0.078 0.072,-0.094 0.084,-0.106C0.096,-0.119 0.113,-0.125 0.135,-0.125Z" style="fill:rgb(45,46,68);fill-rule:nonzero;"/>
            </g>
            <g transform="matrix(32,0,0,32,311.531,383)">
                <path d="M0.135,-0.125C0.157,-0.125 0.174,-0.119 0.186,-0.106C0.198,-0.094 0.204,-0.078 0.204,-0.059C0.204,-0.041 0.198,-0.025 0.186,-0.013C0.174,-0.001 0.157,0.005 0.135,0.005C0.114,0.005 0.097,-0.001 0.084,-0.013C0.072,-0.025 0.066,-0.04 0.066,-0.059C0.066,-0.078 0.072,-0.094 0.084,-0.106C0.096,-0.119 0.113,-0.125 0.135,-0.125Z" style="fill:rgb(45,46,68);fill-rule:nonzero;"/>
            </g>
            <g transform="matrix(32,0,0,32,320.469,383)">
                <path d="M0.135,-0.125C0.157,-0.125 0.174,-0.119 0.186,-0.106C0.198,-0.094 0.204,-0.078 0.204,-0.059C0.204,-0.041 0.198,-0.025 0.186,-0.013C0.174,-0.001 0.157,0.005 0.135,0.005C0.114,0.005 0.097,-0.001 0.084,-0.013C0.072,-0.025 0.066,-0.04 0.066,-0.059C0.066,-0.078 0.072,-0.094 0.084,-0.106C0.096,-0.119 0.113,-0.125 0.135,-0.125Z" style="fill:rgb(45,46,68);fill-rule:nonzero;"/>
            </g>
        </g>
        <g transform="matrix(0.857143,0,0,0.584821,-110.857,-82.4643)">
            <g transform="matrix(32,0,0,32,267.523,360)">
                <path d="M0.64,-0.337C0.64,-0.267 0.628,-0.206 0.604,-0.154C0.579,-0.101 0.545,-0.061 0.5,-0.032C0.455,-0.004 0.404,0.01 0.346,0.01C0.288,0.01 0.237,-0.004 0.192,-0.032C0.147,-0.061 0.112,-0.101 0.087,-0.153C0.063,-0.205 0.05,-0.265 0.05,-0.333L0.05,-0.373C0.05,-0.442 0.062,-0.504 0.087,-0.557C0.111,-0.61 0.146,-0.65 0.191,-0.678C0.235,-0.707 0.287,-0.721 0.345,-0.721C0.403,-0.721 0.454,-0.707 0.499,-0.679C0.544,-0.651 0.578,-0.611 0.603,-0.559C0.627,-0.507 0.639,-0.446 0.64,-0.376L0.64,-0.337ZM0.516,-0.374C0.516,-0.453 0.501,-0.513 0.471,-0.555C0.442,-0.597 0.399,-0.618 0.345,-0.618C0.291,-0.618 0.25,-0.597 0.219,-0.555C0.189,-0.514 0.174,-0.454 0.173,-0.378L0.173,-0.337C0.173,-0.259 0.189,-0.198 0.219,-0.156C0.249,-0.113 0.292,-0.092 0.346,-0.092C0.4,-0.092 0.442,-0.113 0.472,-0.154C0.501,-0.196 0.516,-0.257 0.516,-0.337L0.516,-0.374Z" style="fill:rgb(45,46,68);fill-rule:nonzero;"/>
            </g>
            <g transform="matrix(32,0,0,32,289.617,360)">
                <path d="M0.381,-0.052C0.346,-0.011 0.297,0.01 0.232,0.01C0.175,0.01 0.132,-0.007 0.102,-0.041C0.073,-0.074 0.058,-0.123 0.058,-0.186L0.058,-0.528L0.177,-0.528L0.177,-0.188C0.177,-0.12 0.205,-0.087 0.26,-0.087C0.318,-0.087 0.357,-0.108 0.377,-0.149L0.377,-0.528L0.496,-0.528L0.496,0L0.384,0L0.381,-0.052Z" style="fill:rgb(45,46,68);fill-rule:nonzero;"/>
            </g>
            <g transform="matrix(32,0,0,32,307.398,360)">
                <path d="M0.209,-0.657L0.209,-0.528L0.303,-0.528L0.303,-0.44L0.209,-0.44L0.209,-0.146C0.209,-0.125 0.213,-0.111 0.221,-0.102C0.229,-0.093 0.244,-0.088 0.264,-0.088C0.278,-0.088 0.292,-0.09 0.306,-0.093L0.306,-0.001C0.279,0.006 0.253,0.01 0.228,0.01C0.136,0.01 0.091,-0.041 0.091,-0.141L0.091,-0.44L0.004,-0.44L0.004,-0.528L0.091,-0.528L0.091,-0.657L0.209,-0.657Z" style="fill:rgb(45,46,68);fill-rule:nonzero;"/>
            </g>
            <g transform="matrix(32,0,0,32,318.039,360)">
                <path d="M0.523,-0.259C0.523,-0.177 0.505,-0.112 0.468,-0.063C0.431,-0.015 0.381,0.01 0.318,0.01C0.26,0.01 0.214,-0.009 0.179,-0.047L0.179,0.203L0.061,0.203L0.061,-0.528L0.17,-0.528L0.175,-0.475C0.21,-0.517 0.257,-0.538 0.317,-0.538C0.381,-0.538 0.432,-0.514 0.469,-0.466C0.505,-0.418 0.523,-0.351 0.523,-0.266L0.523,-0.259ZM0.405,-0.269C0.405,-0.322 0.395,-0.364 0.374,-0.395C0.353,-0.425 0.323,-0.441 0.284,-0.441C0.235,-0.441 0.2,-0.421 0.179,-0.381L0.179,-0.146C0.201,-0.105 0.236,-0.085 0.285,-0.085C0.322,-0.085 0.352,-0.1 0.373,-0.131C0.395,-0.161 0.405,-0.207 0.405,-0.269Z" style="fill:rgb(45,46,68);fill-rule:nonzero;"/>
            </g>
            <g transform="matrix(32,0,0,32,336.055,360)">
                <path d="M0.381,-0.052C0.346,-0.011 0.297,0.01 0.232,0.01C0.175,0.01 0.132,-0.007 0.102,-0.041C0.073,-0.074 0.058,-0.123 0.058,-0.186L0.058,-0.528L0.177,-0.528L0.177,-0.188C0.177,-0.12 0.205,-0.087 0.26,-0.087C0.318,-0.087 0.357,-0.108 0.377,-0.149L0.377,-0.528L0.496,-0.528L0.496,0L0.384,0L0.381,-0.052Z" style="fill:rgb(45,46,68);fill-rule:nonzero;"/>
            </g>
            <g transform="matrix(32,0,0,32,353.836,360)">
                <path d="M0.209,-0.657L0.209,-0.528L0.303,-0.528L0.303,-0.44L0.209,-0.44L0.209,-0.146C0.209,-0.125 0.213,-0.111 0.221,-0.102C0.229,-0.093 0.244,-0.088 0.264,-0.088C0.278,-0.088 0.292,-0.09 0.306,-0.093L0.306,-0.001C0.279,0.006 0.253,0.01 0.228,0.01C0.136,0.01 0.091,-0.041 0.091,-0.141L0.091,-0.44L0.004,-0.44L0.004,-0.528L0.091,-0.528L0.091,-0.657L0.209,-0.657Z" style="fill:rgb(45,46,68);fill-rule:nonzero;"/>
            </g>
        </g>
        <g transform="matrix(0.785714,0,0,0.3125,34.2857,115.536)">
            <g transform="matrix(1.14833,0,0,1,-101.244,-184)">
                <path d="M332,316.75C332,298.675 324.551,284 315.375,284L139.625,284C130.449,284 123,298.675 123,316.75L123,382.25C123,400.325 130.449,415 139.625,415L315.375,415C324.551,415 332,400.325 332,382.25L332,316.75Z" style="fill:rgb(39,194,120);"/>
            </g>
            <g transform="matrix(1.09091,0,0,1.87143,-152,-528.8)">
                <g transform="matrix(32,0,0,32,235.625,383)">
                    <path d="M0.176,-0.278L0.176,0L0.083,0L0.083,-0.711L0.345,-0.711C0.423,-0.711 0.483,-0.691 0.528,-0.651C0.572,-0.612 0.594,-0.559 0.594,-0.494C0.594,-0.425 0.572,-0.372 0.529,-0.334C0.486,-0.297 0.424,-0.278 0.344,-0.278L0.176,-0.278ZM0.176,-0.355L0.345,-0.355C0.395,-0.355 0.433,-0.367 0.46,-0.39C0.487,-0.414 0.5,-0.448 0.5,-0.493C0.5,-0.535 0.487,-0.569 0.46,-0.594C0.433,-0.62 0.397,-0.633 0.35,-0.634L0.176,-0.634L0.176,-0.355Z" style="fill:white;fill-rule:nonzero;"/>
                </g>
                <g transform="matrix(32,0,0,32,255.812,383)">
                    <path d="M0.324,-0.447C0.31,-0.45 0.295,-0.451 0.279,-0.451C0.22,-0.451 0.18,-0.425 0.159,-0.375L0.159,0L0.068,0L0.068,-0.528L0.156,-0.528L0.158,-0.467C0.187,-0.514 0.229,-0.538 0.284,-0.538C0.301,-0.538 0.315,-0.536 0.324,-0.531L0.324,-0.447Z" style="fill:white;fill-rule:nonzero;"/>
                </g>
                <g transform="matrix(32,0,0,32,266.328,383)">
                    <path d="M0.044,-0.269C0.044,-0.321 0.055,-0.367 0.075,-0.409C0.095,-0.45 0.124,-0.482 0.16,-0.504C0.196,-0.527 0.238,-0.538 0.284,-0.538C0.356,-0.538 0.414,-0.513 0.459,-0.463C0.503,-0.414 0.525,-0.347 0.525,-0.265L0.525,-0.258C0.525,-0.207 0.516,-0.161 0.496,-0.12C0.476,-0.079 0.448,-0.047 0.411,-0.024C0.375,-0.002 0.333,0.01 0.285,0.01C0.214,0.01 0.156,-0.015 0.111,-0.065C0.067,-0.115 0.044,-0.181 0.044,-0.263L0.044,-0.269ZM0.135,-0.258C0.135,-0.2 0.149,-0.153 0.176,-0.117C0.203,-0.082 0.24,-0.064 0.285,-0.064C0.331,-0.064 0.368,-0.082 0.395,-0.118C0.422,-0.154 0.435,-0.204 0.435,-0.269C0.435,-0.327 0.421,-0.374 0.394,-0.41C0.366,-0.446 0.33,-0.464 0.284,-0.464C0.24,-0.464 0.204,-0.446 0.176,-0.411C0.149,-0.375 0.135,-0.324 0.135,-0.258Z" style="fill:white;fill-rule:nonzero;"/>
                </g>
                <g transform="matrix(32,0,0,32,284.578,383)">
                    <path d="M0.162,-0.528L0.162,0.061C0.162,0.163 0.116,0.213 0.023,0.213C0.004,0.213 -0.015,0.21 -0.032,0.205L-0.032,0.132C-0.021,0.135 -0.008,0.136 0.009,0.136C0.029,0.136 0.045,0.131 0.055,0.12C0.066,0.109 0.071,0.09 0.071,0.063L0.071,-0.528L0.162,-0.528ZM0.062,-0.668C0.062,-0.683 0.066,-0.695 0.075,-0.705C0.084,-0.716 0.097,-0.721 0.115,-0.721C0.132,-0.721 0.146,-0.716 0.155,-0.706C0.164,-0.695 0.168,-0.683 0.168,-0.668C0.168,-0.654 0.164,-0.642 0.155,-0.632C0.146,-0.622 0.132,-0.617 0.115,-0.617C0.097,-0.617 0.084,-0.622 0.075,-0.632C0.066,-0.642 0.062,-0.654 0.062,-0.668Z" style="fill:white;fill-rule:nonzero;"/>
                </g>
                <g transform="matrix(32,0,0,32,292.219,383)">
                    <path d="M0.288,0.01C0.216,0.01 0.158,-0.014 0.113,-0.061C0.068,-0.108 0.045,-0.171 0.045,-0.25L0.045,-0.266C0.045,-0.319 0.055,-0.365 0.075,-0.406C0.095,-0.448 0.123,-0.48 0.159,-0.503C0.195,-0.526 0.234,-0.538 0.276,-0.538C0.345,-0.538 0.398,-0.515 0.437,-0.47C0.475,-0.425 0.494,-0.36 0.494,-0.276L0.494,-0.238L0.136,-0.238C0.137,-0.186 0.152,-0.144 0.181,-0.112C0.211,-0.08 0.248,-0.064 0.292,-0.064C0.324,-0.064 0.351,-0.07 0.374,-0.083C0.396,-0.097 0.415,-0.114 0.432,-0.135L0.487,-0.092C0.443,-0.024 0.376,0.01 0.288,0.01ZM0.276,-0.464C0.24,-0.464 0.209,-0.451 0.185,-0.424C0.16,-0.398 0.145,-0.36 0.139,-0.313L0.403,-0.313L0.403,-0.319C0.401,-0.365 0.388,-0.401 0.366,-0.426C0.344,-0.451 0.314,-0.464 0.276,-0.464Z" style="fill:white;fill-rule:nonzero;"/>
                </g>
                <g transform="matrix(32,0,0,32,309.172,383)">
                    <path d="M0.28,-0.064C0.313,-0.064 0.341,-0.074 0.365,-0.093C0.389,-0.113 0.402,-0.137 0.405,-0.167L0.49,-0.167C0.489,-0.136 0.478,-0.107 0.459,-0.08C0.44,-0.053 0.414,-0.031 0.382,-0.015C0.35,0.002 0.316,0.01 0.28,0.01C0.208,0.01 0.151,-0.014 0.109,-0.062C0.066,-0.11 0.045,-0.176 0.045,-0.259L0.045,-0.274C0.045,-0.326 0.054,-0.372 0.073,-0.412C0.092,-0.452 0.119,-0.483 0.155,-0.505C0.19,-0.527 0.232,-0.538 0.28,-0.538C0.339,-0.538 0.388,-0.52 0.427,-0.485C0.467,-0.449 0.488,-0.403 0.49,-0.347L0.405,-0.347C0.402,-0.381 0.389,-0.409 0.366,-0.431C0.343,-0.453 0.314,-0.464 0.28,-0.464C0.234,-0.464 0.198,-0.447 0.173,-0.414C0.148,-0.381 0.135,-0.333 0.135,-0.271L0.135,-0.254C0.135,-0.193 0.148,-0.146 0.173,-0.113C0.198,-0.08 0.234,-0.064 0.28,-0.064Z" style="fill:white;fill-rule:nonzero;"/>
                </g>
                <g transform="matrix(32,0,0,32,325.922,383)">
                    <path d="M0.191,-0.656L0.191,-0.528L0.29,-0.528L0.29,-0.458L0.191,-0.458L0.191,-0.131C0.191,-0.11 0.195,-0.094 0.204,-0.083C0.213,-0.073 0.228,-0.067 0.249,-0.067C0.259,-0.067 0.274,-0.069 0.292,-0.073L0.292,0C0.268,0.007 0.245,0.01 0.223,0.01C0.182,0.01 0.152,-0.002 0.131,-0.027C0.111,-0.051 0.101,-0.086 0.101,-0.131L0.101,-0.458L0.004,-0.458L0.004,-0.528L0.101,-0.528L0.101,-0.656L0.191,-0.656Z" style="fill:white;fill-rule:nonzero;"/>
                </g>
            </g>
        </g>
        <g transform="matrix(0.785714,0,0,0.3125,34.2857,174.018)">
            <g transform="matrix(1.14833,0,0,1,-101.244,-184)">
                <path d="M332,316.75C332,298.675 324.551,284 315.375,284L139.625,284C130.449,284 123,298.675 123,316.75L123,382.25C123,400.325 130.449,415 139.625,415L315.375,415C324.551,415 332,400.325 332,382.25L332,316.75Z" style="fill:rgb(39,194,120);"/>
            </g>
            <g transform="matrix(1.09091,0,0,1.87143,-152,-528.8)">
                <g transform="matrix(32,0,0,32,201.043,383)">
                    <path d="M0.292,-0.317C0.212,-0.34 0.153,-0.368 0.116,-0.402C0.08,-0.436 0.062,-0.477 0.062,-0.527C0.062,-0.583 0.084,-0.629 0.129,-0.666C0.173,-0.702 0.232,-0.721 0.303,-0.721C0.352,-0.721 0.396,-0.711 0.434,-0.692C0.472,-0.674 0.502,-0.647 0.523,-0.614C0.544,-0.581 0.554,-0.545 0.554,-0.505L0.46,-0.505C0.46,-0.548 0.446,-0.582 0.419,-0.607C0.392,-0.631 0.353,-0.644 0.303,-0.644C0.257,-0.644 0.221,-0.633 0.195,-0.613C0.169,-0.593 0.156,-0.564 0.156,-0.528C0.156,-0.499 0.169,-0.475 0.193,-0.455C0.218,-0.435 0.26,-0.417 0.319,-0.4C0.378,-0.383 0.424,-0.365 0.457,-0.345C0.491,-0.325 0.515,-0.302 0.531,-0.275C0.548,-0.248 0.556,-0.217 0.556,-0.181C0.556,-0.123 0.533,-0.077 0.488,-0.042C0.443,-0.008 0.383,0.01 0.308,0.01C0.259,0.01 0.214,0 0.171,-0.018C0.129,-0.037 0.096,-0.063 0.073,-0.095C0.051,-0.128 0.039,-0.165 0.039,-0.206L0.133,-0.206C0.133,-0.163 0.149,-0.129 0.181,-0.104C0.213,-0.079 0.255,-0.067 0.308,-0.067C0.358,-0.067 0.396,-0.077 0.422,-0.097C0.448,-0.117 0.461,-0.145 0.461,-0.18C0.461,-0.215 0.449,-0.241 0.425,-0.26C0.4,-0.28 0.356,-0.298 0.292,-0.317Z" style="fill:white;fill-rule:nonzero;"/>
                </g>
                <g transform="matrix(32,0,0,32,220.028,383)">
                    <path d="M0.395,-0.052C0.359,-0.011 0.308,0.01 0.24,0.01C0.183,0.01 0.141,-0.007 0.111,-0.039C0.082,-0.072 0.067,-0.12 0.066,-0.185L0.066,-0.528L0.157,-0.528L0.157,-0.187C0.157,-0.107 0.189,-0.067 0.254,-0.067C0.323,-0.067 0.369,-0.093 0.392,-0.144L0.392,-0.528L0.482,-0.528L0.482,0L0.396,0L0.395,-0.052Z" style="fill:white;fill-rule:nonzero;"/>
                </g>
                <g transform="matrix(32,0,0,32,237.668,383)">
                    <path d="M0.516,-0.258C0.516,-0.178 0.497,-0.113 0.46,-0.064C0.423,-0.015 0.373,0.01 0.311,0.01C0.244,0.01 0.192,-0.014 0.156,-0.061L0.151,0L0.068,0L0.068,-0.75L0.159,-0.75L0.159,-0.47C0.195,-0.515 0.245,-0.538 0.31,-0.538C0.374,-0.538 0.424,-0.514 0.461,-0.465C0.497,-0.417 0.516,-0.35 0.516,-0.266L0.516,-0.258ZM0.425,-0.269C0.425,-0.33 0.413,-0.378 0.39,-0.411C0.366,-0.445 0.332,-0.461 0.287,-0.461C0.228,-0.461 0.185,-0.434 0.159,-0.378L0.159,-0.15C0.186,-0.095 0.229,-0.067 0.288,-0.067C0.331,-0.067 0.365,-0.084 0.389,-0.117C0.413,-0.151 0.425,-0.201 0.425,-0.269Z" style="fill:white;fill-rule:nonzero;"/>
                </g>
                <g transform="matrix(32,0,0,32,255.621,383)">
                    <path d="M0.515,-0.258C0.515,-0.178 0.496,-0.113 0.459,-0.064C0.423,-0.015 0.373,0.01 0.31,0.01C0.246,0.01 0.195,-0.011 0.159,-0.051L0.159,0.203L0.068,0.203L0.068,-0.528L0.151,-0.528L0.155,-0.47C0.192,-0.515 0.243,-0.538 0.309,-0.538C0.372,-0.538 0.422,-0.514 0.459,-0.466C0.496,-0.418 0.515,-0.352 0.515,-0.267L0.515,-0.258ZM0.424,-0.269C0.424,-0.328 0.412,-0.375 0.386,-0.41C0.361,-0.444 0.326,-0.461 0.282,-0.461C0.227,-0.461 0.186,-0.437 0.159,-0.389L0.159,-0.136C0.186,-0.088 0.227,-0.064 0.283,-0.064C0.326,-0.064 0.36,-0.081 0.386,-0.115C0.412,-0.15 0.424,-0.201 0.424,-0.269Z" style="fill:white;fill-rule:nonzero;"/>
                </g>
                <g transform="matrix(32,0,0,32,273.574,383)">
                    <path d="M0.324,-0.447C0.31,-0.45 0.295,-0.451 0.279,-0.451C0.22,-0.451 0.18,-0.425 0.159,-0.375L0.159,0L0.068,0L0.068,-0.528L0.156,-0.528L0.158,-0.467C0.187,-0.514 0.229,-0.538 0.284,-0.538C0.301,-0.538 0.315,-0.536 0.324,-0.531L0.324,-0.447Z" style="fill:white;fill-rule:nonzero;"/>
                </g>
                <g transform="matrix(32,0,0,32,284.09,383)">
                    <path d="M0.044,-0.269C0.044,-0.321 0.055,-0.367 0.075,-0.409C0.095,-0.45 0.124,-0.482 0.16,-0.504C0.196,-0.527 0.238,-0.538 0.284,-0.538C0.356,-0.538 0.414,-0.513 0.459,-0.463C0.503,-0.414 0.525,-0.347 0.525,-0.265L0.525,-0.258C0.525,-0.207 0.516,-0.161 0.496,-0.12C0.476,-0.079 0.448,-0.047 0.411,-0.024C0.375,-0.002 0.333,0.01 0.285,0.01C0.214,0.01 0.156,-0.015 0.111,-0.065C0.067,-0.115 0.044,-0.181 0.044,-0.263L0.044,-0.269ZM0.135,-0.258C0.135,-0.2 0.149,-0.153 0.176,-0.117C0.203,-0.082 0.24,-0.064 0.285,-0.064C0.331,-0.064 0.368,-0.082 0.395,-0.118C0.422,-0.154 0.435,-0.204 0.435,-0.269C0.435,-0.327 0.421,-0.374 0.394,-0.41C0.366,-0.446 0.33,-0.464 0.284,-0.464C0.24,-0.464 0.204,-0.446 0.176,-0.411C0.149,-0.375 0.135,-0.324 0.135,-0.258Z" style="fill:white;fill-rule:nonzero;"/>
                </g>
                <g transform="matrix(32,0,0,32,302.66,383)">
                    <path d="M0.162,-0.528L0.162,0.061C0.162,0.163 0.116,0.213 0.023,0.213C0.004,0.213 -0.015,0.21 -0.032,0.205L-0.032,0.132C-0.021,0.135 -0.008,0.136 0.009,0.136C0.029,0.136 0.045,0.131 0.055,0.12C0.066,0.109 0.071,0.09 0.071,0.063L0.071,-0.528L0.162,-0.528ZM0.062,-0.668C0.062,-0.683 0.066,-0.695 0.075,-0.705C0.084,-0.716 0.097,-0.721 0.115,-0.721C0.132,-0.721 0.146,-0.716 0.155,-0.706C0.164,-0.695 0.168,-0.683 0.168,-0.668C0.168,-0.654 0.164,-0.642 0.155,-0.632C0.146,-0.622 0.132,-0.617 0.115,-0.617C0.097,-0.617 0.084,-0.622 0.075,-0.632C0.066,-0.642 0.062,-0.654 0.062,-0.668Z" style="fill:white;fill-rule:nonzero;"/>
                </g>
                <g transform="matrix(32,0,0,32,310.301,383)">
                    <path d="M0.288,0.01C0.216,0.01 0.158,-0.014 0.113,-0.061C0.068,-0.108 0.045,-0.171 0.045,-0.25L0.045,-0.266C0.045,-0.319 0.055,-0.365 0.075,-0.406C0.095,-0.448 0.123,-0.48 0.159,-0.503C0.195,-0.526 0.234,-0.538 0.276,-0.538C0.345,-0.538 0.398,-0.515 0.437,-0.47C0.475,-0.425 0.494,-0.36 0.494,-0.276L0.494,-0.238L0.136,-0.238C0.137,-0.186 0.152,-0.144 0.181,-0.112C0.211,-0.08 0.248,-0.064 0.292,-0.064C0.324,-0.064 0.351,-0.07 0.374,-0.083C0.396,-0.097 0.415,-0.114 0.432,-0.135L0.487,-0.092C0.443,-0.024 0.376,0.01 0.288,0.01ZM0.276,-0.464C0.24,-0.464 0.209,-0.451 0.185,-0.424C0.16,-0.398 0.145,-0.36 0.139,-0.313L0.403,-0.313L0.403,-0.319C0.401,-0.365 0.388,-0.401 0.366,-0.426C0.344,-0.451 0.314,-0.464 0.276,-0.464Z" style="fill:white;fill-rule:nonzero;"/>
                </g>
                <g transform="matrix(32,0,0,32,327.254,383)">
                    <path d="M0.28,-0.064C0.313,-0.064 0.341,-0.074 0.365,-0.093C0.389,-0.113 0.402,-0.137 0.405,-0.167L0.49,-0.167C0.489,-0.136 0.478,-0.107 0.459,-0.08C0.44,-0.053 0.414,-0.031 0.382,-0.015C0.35,0.002 0.316,0.01 0.28,0.01C0.208,0.01 0.151,-0.014 0.109,-0.062C0.066,-0.11 0.045,-0.176 0.045,-0.259L0.045,-0.274C0.045,-0.326 0.054,-0.372 0.073,-0.412C0.092,-0.452 0.119,-0.483 0.155,-0.505C0.19,-0.527 0.232,-0.538 0.28,-0.538C0.339,-0.538 0.388,-0.52 0.427,-0.485C0.467,-0.449 0.488,-0.403 0.49,-0.347L0.405,-0.347C0.402,-0.381 0.389,-0.409 0.366,-0.431C0.343,-0.453 0.314,-0.464 0.28,-0.464C0.234,-0.464 0.198,-0.447 0.173,-0.414C0.148,-0.381 0.135,-0.333 0.135,-0.271L0.135,-0.254C0.135,-0.193 0.148,-0.146 0.173,-0.113C0.198,-0.08 0.234,-0.064 0.28,-0.064Z" style="fill:white;fill-rule:nonzero;"/>
                </g>
                <g transform="matrix(32,0,0,32,344.004,383)">
                    <path d="M0.191,-0.656L0.191,-0.528L0.29,-0.528L0.29,-0.458L0.191,-0.458L0.191,-0.131C0.191,-0.11 0.195,-0.094 0.204,-0.083C0.213,-0.073 0.228,-0.067 0.249,-0.067C0.259,-0.067 0.274,-0.069 0.292,-0.073L0.292,0C0.268,0.007 0.245,0.01 0.223,0.01C0.182,0.01 0.152,-0.002 0.131,-0.027C0.111,-0.051 0.101,-0.086 0.101,-0.131L0.101,-0.458L0.004,-0.458L0.004,-0.528L0.101,-0.528L0.101,-0.656L0.191,-0.656Z" style="fill:white;fill-rule:nonzero;"/>
                </g>
                <g transform="matrix(32,0,0,32,354.457,383)">
                    <path d="M0.376,-0.14C0.376,-0.165 0.367,-0.184 0.348,-0.197C0.33,-0.211 0.298,-0.222 0.252,-0.232C0.206,-0.242 0.17,-0.253 0.143,-0.267C0.116,-0.281 0.097,-0.297 0.084,-0.316C0.071,-0.335 0.064,-0.357 0.064,-0.383C0.064,-0.427 0.083,-0.463 0.119,-0.493C0.156,-0.523 0.203,-0.538 0.26,-0.538C0.32,-0.538 0.368,-0.523 0.406,-0.492C0.443,-0.461 0.461,-0.421 0.461,-0.373L0.371,-0.373C0.371,-0.398 0.36,-0.419 0.339,-0.437C0.318,-0.455 0.292,-0.464 0.26,-0.464C0.227,-0.464 0.201,-0.457 0.183,-0.442C0.164,-0.428 0.155,-0.409 0.155,-0.386C0.155,-0.364 0.163,-0.348 0.181,-0.337C0.198,-0.326 0.229,-0.315 0.274,-0.305C0.319,-0.295 0.356,-0.283 0.384,-0.269C0.412,-0.255 0.433,-0.238 0.446,-0.219C0.46,-0.199 0.466,-0.175 0.466,-0.146C0.466,-0.099 0.447,-0.061 0.41,-0.033C0.372,-0.004 0.323,0.01 0.263,0.01C0.22,0.01 0.183,0.002 0.15,-0.013C0.118,-0.028 0.092,-0.049 0.074,-0.075C0.056,-0.102 0.046,-0.131 0.046,-0.163L0.137,-0.163C0.138,-0.132 0.15,-0.108 0.173,-0.091C0.196,-0.073 0.226,-0.064 0.263,-0.064C0.297,-0.064 0.324,-0.071 0.345,-0.085C0.366,-0.099 0.376,-0.117 0.376,-0.14Z" style="fill:white;fill-rule:nonzero;"/>
                </g>
            </g>
        </g>
        <g transform="matrix(0.785714,0,0,0.3125,34.2857,255.893)">
            <g transform="matrix(1.14833,0,0,1,-101.244,-184)">
                <path d="M332,316.75C332,298.675 324.551,284 315.375,284L139.625,284C130.449,284 123,298.675 123,316.75L123,382.25C123,400.325 130.449,415 139.625,415L315.375,415C324.551,415 332,400.325 332,382.25L332,316.75Z" style="fill:rgb(39,194,120);"/>
            </g>
            <g transform="matrix(1.09091,0,0,1.87143,-152,-528.8)">
                <g transform="matrix(32,0,0,32,224.703,383)">
                    <path d="M0.177,-0.077L0.514,-0.077L0.514,0L0.083,0L0.083,-0.711L0.177,-0.711L0.177,-0.077Z" style="fill:white;fill-rule:nonzero;"/>
                </g>
                <g transform="matrix(32,0,0,32,241.922,383)">
                    <path d="M0.167,0L0.076,0L0.076,-0.528L0.167,-0.528L0.167,0ZM0.069,-0.668C0.069,-0.683 0.073,-0.695 0.082,-0.706C0.091,-0.716 0.104,-0.721 0.122,-0.721C0.14,-0.721 0.153,-0.716 0.162,-0.706C0.171,-0.695 0.176,-0.683 0.176,-0.668C0.176,-0.654 0.171,-0.642 0.162,-0.632C0.153,-0.622 0.14,-0.617 0.122,-0.617C0.104,-0.617 0.091,-0.622 0.082,-0.632C0.073,-0.642 0.069,-0.654 0.069,-0.668Z" style="fill:white;fill-rule:nonzero;"/>
                </g>
                <g transform="matrix(32,0,0,32,249.688,383)">
                    <path d="M0.516,-0.258C0.516,-0.178 0.497,-0.113 0.46,-0.064C0.423,-0.015 0.373,0.01 0.311,0.01C0.244,0.01 0.192,-0.014 0.156,-0.061L0.151,0L0.068,0L0.068,-0.75L0.159,-0.75L0.159,-0.47C0.195,-0.515 0.245,-0.538 0.31,-0.538C0.374,-0.538 0.424,-0.514 0.461,-0.465C0.497,-0.417 0.516,-0.35 0.516,-0.266L0.516,-0.258ZM0.425,-0.269C0.425,-0.33 0.413,-0.378 0.39,-0.411C0.366,-0.445 0.332,-0.461 0.287,-0.461C0.228,-0.461 0.185,-0.434 0.159,-0.378L0.159,-0.15C0.186,-0.095 0.229,-0.067 0.288,-0.067C0.331,-0.067 0.365,-0.084 0.389,-0.117C0.413,-0.151 0.425,-0.201 0.425,-0.269Z" style="fill:white;fill-rule:nonzero;"/>
                </g>
                <g transform="matrix(32,0,0,32,267.641,383)">
                    <path d="M0.324,-0.447C0.31,-0.45 0.295,-0.451 0.279,-0.451C0.22,-0.451 0.18,-0.425 0.159,-0.375L0.159,0L0.068,0L0.068,-0.528L0.156,-0.528L0.158,-0.467C0.187,-0.514 0.229,-0.538 0.284,-0.538C0.301,-0.538 0.315,-0.536 0.324,-0.531L0.324,-0.447Z" style="fill:white;fill-rule:nonzero;"/>
                </g>
                <g transform="matrix(32,0,0,32,277.844,383)">
                    <path d="M0.395,0C0.389,-0.01 0.385,-0.029 0.382,-0.056C0.34,-0.012 0.29,0.01 0.231,0.01C0.179,0.01 0.137,-0.005 0.103,-0.034C0.07,-0.064 0.053,-0.101 0.053,-0.146C0.053,-0.201 0.074,-0.244 0.116,-0.275C0.158,-0.305 0.217,-0.32 0.292,-0.32L0.38,-0.32L0.38,-0.362C0.38,-0.393 0.371,-0.419 0.352,-0.437C0.333,-0.456 0.305,-0.465 0.269,-0.465C0.236,-0.465 0.209,-0.457 0.188,-0.441C0.166,-0.425 0.155,-0.405 0.155,-0.382L0.064,-0.382C0.064,-0.408 0.073,-0.434 0.092,-0.458C0.111,-0.483 0.136,-0.502 0.168,-0.517C0.2,-0.531 0.236,-0.538 0.274,-0.538C0.335,-0.538 0.382,-0.523 0.417,-0.492C0.451,-0.462 0.469,-0.42 0.471,-0.367L0.471,-0.124C0.471,-0.075 0.477,-0.036 0.489,-0.008L0.489,0L0.395,0ZM0.245,-0.069C0.273,-0.069 0.3,-0.076 0.325,-0.091C0.351,-0.105 0.369,-0.125 0.38,-0.148L0.38,-0.256L0.31,-0.256C0.199,-0.256 0.144,-0.224 0.144,-0.159C0.144,-0.131 0.153,-0.109 0.172,-0.093C0.191,-0.077 0.215,-0.069 0.245,-0.069Z" style="fill:white;fill-rule:nonzero;"/>
                </g>
                <g transform="matrix(32,0,0,32,295.25,383)">
                    <path d="M0.324,-0.447C0.31,-0.45 0.295,-0.451 0.279,-0.451C0.22,-0.451 0.18,-0.425 0.159,-0.375L0.159,0L0.068,0L0.068,-0.528L0.156,-0.528L0.158,-0.467C0.187,-0.514 0.229,-0.538 0.284,-0.538C0.301,-0.538 0.315,-0.536 0.324,-0.531L0.324,-0.447Z" style="fill:white;fill-rule:nonzero;"/>
                </g>
                <g transform="matrix(32,0,0,32,306.078,383)">
                    <path d="M0.167,0L0.076,0L0.076,-0.528L0.167,-0.528L0.167,0ZM0.069,-0.668C0.069,-0.683 0.073,-0.695 0.082,-0.706C0.091,-0.716 0.104,-0.721 0.122,-0.721C0.14,-0.721 0.153,-0.716 0.162,-0.706C0.171,-0.695 0.176,-0.683 0.176,-0.668C0.176,-0.654 0.171,-0.642 0.162,-0.632C0.153,-0.622 0.14,-0.617 0.122,-0.617C0.104,-0.617 0.091,-0.622 0.082,-0.632C0.073,-0.642 0.069,-0.654 0.069,-0.668Z" style="fill:white;fill-rule:nonzero;"/>
                </g>
                <g transform="matrix(32,0,0,32,313.844,383)">
                    <path d="M0.288,0.01C0.216,0.01 0.158,-0.014 0.113,-0.061C0.068,-0.108 0.045,-0.171 0.045,-0.25L0.045,-0.266C0.045,-0.319 0.055,-0.365 0.075,-0.406C0.095,-0.448 0.123,-0.48 0.159,-0.503C0.195,-0.526 0.234,-0.538 0.276,-0.538C0.345,-0.538 0.398,-0.515 0.437,-0.47C0.475,-0.425 0.494,-0.36 0.494,-0.276L0.494,-0.238L0.136,-0.238C0.137,-0.186 0.152,-0.144 0.181,-0.112C0.211,-0.08 0.248,-0.064 0.292,-0.064C0.324,-0.064 0.351,-0.07 0.374,-0.083C0.396,-0.097 0.415,-0.114 0.432,-0.135L0.487,-0.092C0.443,-0.024 0.376,0.01 0.288,0.01ZM0.276,-0.464C0.24,-0.464 0.209,-0.451 0.185,-0.424C0.16,-0.398 0.145,-0.36 0.139,-0.313L0.403,-0.313L0.403,-0.319C0.401,-0.365 0.388,-0.401 0.366,-0.426C0.344,-0.451 0.314,-0.464 0.276,-0.464Z" style="fill:white;fill-rule:nonzero;"/>
                </g>
                <g transform="matrix(32,0,0,32,330.797,383)">
                    <path d="M0.376,-0.14C0.376,-0.165 0.367,-0.184 0.348,-0.197C0.33,-0.211 0.298,-0.222 0.252,-0.232C0.206,-0.242 0.17,-0.253 0.143,-0.267C0.116,-0.281 0.097,-0.297 0.084,-0.316C0.071,-0.335 0.064,-0.357 0.064,-0.383C0.064,-0.427 0.083,-0.463 0.119,-0.493C0.156,-0.523 0.203,-0.538 0.26,-0.538C0.32,-0.538 0.368,-0.523 0.406,-0.492C0.443,-0.461 0.461,-0.421 0.461,-0.373L0.371,-0.373C0.371,-0.398 0.36,-0.419 0.339,-0.437C0.318,-0.455 0.292,-0.464 0.26,-0.464C0.227,-0.464 0.201,-0.457 0.183,-0.442C0.164,-0.428 0.155,-0.409 0.155,-0.386C0.155,-0.364 0.163,-0.348 0.181,-0.337C0.198,-0.326 0.229,-0.315 0.274,-0.305C0.319,-0.295 0.356,-0.283 0.384,-0.269C0.412,-0.255 0.433,-0.238 0.446,-0.219C0.46,-0.199 0.466,-0.175 0.466,-0.146C0.466,-0.099 0.447,-0.061 0.41,-0.033C0.372,-0.004 0.323,0.01 0.263,0.01C0.22,0.01 0.183,0.002 0.15,-0.013C0.118,-0.028 0.092,-0.049 0.074,-0.075C0.056,-0.102 0.046,-0.131 0.046,-0.163L0.137,-0.163C0.138,-0.132 0.15,-0.108 0.173,-0.091C0.196,-0.073 0.226,-0.064 0.263,-0.064C0.297,-0.064 0.324,-0.071 0.345,-0.085C0.366,-0.099 0.376,-0.117 0.376,-0.14Z" style="fill:white;fill-rule:nonzero;"/>
                </g>
            </g>
        </g>
    </g>
    <g transform="matrix(1,0,0,1,363,-132)">
        <g transform="matrix(32,0,0,32,302.594,383)">
            <path d="M0.135,-0.125C0.157,-0.125 0.174,-0.119 0.186,-0.106C0.198,-0.094 0.204,-0.078 0.204,-0.059C0.204,-0.041 0.198,-0.025 0.186,-0.013C0.174,-0.001 0.157,0.005 0.135,0.005C0.114,0.005 0.097,-0.001 0.084,-0.013C0.072,-0.025 0.066,-0.04 0.066,-0.059C0.066,-0.078 0.072,-0.094 0.084,-0.106C0.096,-0.119 0.113,-0.125 0.135,-0.125Z" style="fill:rgb(45,46,68);fill-rule:nonzero;"/>
        </g>
        <g transform="matrix(32,0,0,32,311.531,383)">
            <path d="M0.135,-0.125C0.157,-0.125 0.174,-0.119 0.186,-0.106C0.198,-0.094 0.204,-0.078 0.204,-0.059C0.204,-0.041 0.198,-0.025 0.186,-0.013C0.174,-0.001 0.157,0.005 0.135,0.005C0.114,0.005 0.097,-0.001 0.084,-0.013C0.072,-0.025 0.066,-0.04 0.066,-0.059C0.066,-0.078 0.072,-0.094 0.084,-0.106C0.096,-0.119 0.113,-0.125 0.135,-0.125Z" style="fill:rgb(45,46,68);fill-rule:nonzero;"/>
        </g>
        <g transform="matrix(32,0,0,32,320.469,383)">
            <path d="M0.135,-0.125C0.157,-0.125 0.174,-0.119 0.186,-0.106C0.198,-0.094 0.204,-0.078 0.204,-0.059C0.204,-0.041 0.198,-0.025 0.186,-0.013C0.174,-0.001 0.157,0.005 0.135,0.005C0.114,0.005 0.097,-0.001 0.084,-0.013C0.072,-0.025 0.066,-0.04 0.066,-0.059C0.066,-0.078 0.072,-0.094 0.084,-0.106C0.096,-0.119 0.113,-0.125 0.135,-0.125Z" style="fill:rgb(45,46,68);fill-rule:nonzero;"/>
        </g>
    </g>
</svg>
